  0
SECTION
  2
HEADER
  9
$ACADVER
  1
AC1012
  9
$DWGCODEPAGE
  3
ansi_1252
  9
$INSBASE
 10
0.0
 20
0.0
 30
0.0
  9
$EXTMIN
 10
0.0
 20
0.0
 30
0.0
  9
$EXTMAX
 10
17.0
 20
11.0
 30
0.0
  9
$LIMMIN
 10
0.0
 20
0.0
  9
$LIMMAX
 10
17.0
 20
11.0
  9
$ORTHOMODE
 70
     0
  9
$REGENMODE
 70
     1
  9
$FILLMODE
 70
     1
  9
$QTEXTMODE
 70
     0
  9
$MIRRTEXT
 70
     1
  9
$DRAGMODE
 70
     2
  9
$LTSCALE
 40
1.0
  9
$OSMODE
 70
    37
  9
$ATTMODE
 70
     1
  9
$TEXTSIZE
 40
0.125
  9
$TRACEWID
 40
0.05
  9
$TEXTSTYLE
  7
STANDARD
  9
$CLAYER
  8
0
  9
$CELTYPE
  6
BYLAYER
  9
$CECOLOR
 62
   256
  9
$CELTSCALE
 40
1.0
  9
$DELOBJ
 70
     1
  9
$DISPSILH
 70
     0
  9
$DIMSCALE
 40
1.0
  9
$DIMASZ
 40
0.13
  9
$DIMEXO
 40
0.05
  9
$DIMDLI
 40
0.38
  9
$DIMRND
 40
0.0
  9
$DIMDLE
 40
0.0
  9
$DIMEXE
 40
0.125
  9
$DIMTP
 40
0.0
  9
$DIMTM
 40
0.0
  9
$DIMTXT
 40
0.125
  9
$DIMCEN
 40
0.09
  9
$DIMTSZ
 40
0.0
  9
$DIMTOL
 70
     0
  9
$DIMLIM
 70
     0
  9
$DIMTIH
 70
     1
  9
$DIMTOH
 70
     1
  9
$DIMSE1
 70
     0
  9
$DIMSE2
 70
     0
  9
$DIMTAD
 70
     0
  9
$DIMZIN
 70
     0
  9
$DIMBLK
  1

  9
$DIMASO
 70
     1
  9
$DIMSHO
 70
     1
  9
$DIMPOST
  1

  9
$DIMAPOST
  1

  9
$DIMALT
 70
     0
  9
$DIMALTD
 70
     2
  9
$DIMALTF
 40
25.4
  9
$DIMLFAC
 40
2.0
  9
$DIMTOFL
 70
     0
  9
$DIMTVP
 40
0.0
  9
$DIMTIX
 70
     0
  9
$DIMSOXD
 70
     0
  9
$DIMSAH
 70
     0
  9
$DIMBLK1
  1

  9
$DIMBLK2
  1

  9
$DIMSTYLE
  2
STANDARD
  9
$DIMCLRD
 70
     0
  9
$DIMCLRE
 70
     0
  9
$DIMCLRT
 70
     0
  9
$DIMTFAC
 40
1.0
  9
$DIMGAP
 40
0.06
  9
$DIMJUST
 70
     0
  9
$DIMSD1
 70
     0
  9
$DIMSD2
 70
     0
  9
$DIMTOLJ
 70
     1
  9
$DIMTZIN
 70
     0
  9
$DIMALTZ
 70
     0
  9
$DIMALTTZ
 70
     0
  9
$DIMFIT
 70
     3
  9
$DIMUPT
 70
     0
  9
$DIMUNIT
 70
     2
  9
$DIMDEC
 70
     2
  9
$DIMTDEC
 70
     2
  9
$DIMALTU
 70
     2
  9
$DIMALTTD
 70
     2
  9
$DIMTXSTY
  7
STANDARD
  9
$DIMAUNIT
 70
     0
  9
$LUNITS
 70
     2
  9
$LUPREC
 70
     2
  9
$SKETCHINC
 40
0.1
  9
$FILLETRAD
 40
0.5
  9
$AUNITS
 70
     0
  9
$AUPREC
 70
     2
  9
$MENU
  1
.
  9
$ELEVATION
 40
0.0
  9
$PELEVATION
 40
0.0
  9
$THICKNESS
 40
0.0
  9
$LIMCHECK
 70
     0
  9
$CHAMFERA
 40
0.5
  9
$CHAMFERB
 40
0.5
  9
$CHAMFERC
 40
1.0
  9
$CHAMFERD
 40
0.0
  9
$SKPOLY
 70
     0
  9
$TDCREATE
 40
2457232.193841771
  9
$TDUPDATE
 40
2457232.193842072
  9
$TDINDWG
 40
0.0000000116
  9
$TDUSRTIMER
 40
0.0000000116
  9
$USRTIMER
 70
     1
  9
$ANGBASE
 50
0.0
  9
$ANGDIR
 70
     0
  9
$PDMODE
 70
     0
  9
$PDSIZE
 40
-1.0
  9
$PLINEWID
 40
0.0
  9
$COORDS
 70
     1
  9
$SPLFRAME
 70
     0
  9
$SPLINETYPE
 70
     6
  9
$SPLINESEGS
 70
     8
  9
$ATTDIA
 70
     0
  9
$ATTREQ
 70
     1
  9
$HANDLING
 70
     1
  9
$HANDSEED
  5
242
  9
$SURFTAB1
 70
     6
  9
$SURFTAB2
 70
     6
  9
$SURFTYPE
 70
     6
  9
$SURFU
 70
     6
  9
$SURFV
 70
     6
  9
$UCSNAME
  2

  9
$UCSORG
 10
0.0
 20
0.0
 30
0.0
  9
$UCSXDIR
 10
1.0
 20
0.0
 30
0.0
  9
$UCSYDIR
 10
0.0
 20
1.0
 30
0.0
  9
$PUCSNAME
  2

  9
$PUCSORG
 10
0.0
 20
0.0
 30
0.0
  9
$PUCSXDIR
 10
1.0
 20
0.0
 30
0.0
  9
$PUCSYDIR
 10
0.0
 20
1.0
 30
0.0
  9
$USERI1
 70
     0
  9
$USERI2
 70
     0
  9
$USERI3
 70
     0
  9
$USERI4
 70
     0
  9
$USERI5
 70
     0
  9
$USERR1
 40
0.0
  9
$USERR2
 40
0.0
  9
$USERR3
 40
0.0
  9
$USERR4
 40
0.0
  9
$USERR5
 40
0.0
  9
$WORLDVIEW
 70
     1
  9
$SHADEDGE
 70
     3
  9
$SHADEDIF
 70
    70
  9
$TILEMODE
 70
     1
  9
$MAXACTVP
 70
    64
  9
$PINSBASE
 10
0.0
 20
0.0
 30
0.0
  9
$PLIMCHECK
 70
     0
  9
$PEXTMIN
 10
1.0000000000E+20
 20
1.0000000000E+20
 30
1.0000000000E+20
  9
$PEXTMAX
 10
-1.0000000000E+20
 20
-1.0000000000E+20
 30
-1.0000000000E+20
  9
$PLIMMIN
 10
0.0
 20
0.0
  9
$PLIMMAX
 10
12.0
 20
9.0
  9
$UNITMODE
 70
     0
  9
$VISRETAIN
 70
     1
  9
$PLINEGEN
 70
     0
  9
$PSLTSCALE
 70
     1
  9
$TREEDEPTH
 70
  3020
  9
$PICKSTYLE
 70
     1
  9
$CMLSTYLE
  2
STANDARD
  9
$CMLJUST
 70
     0
  9
$CMLSCALE
 40
1.0
  9
$SAVEIMAGES
 70
     1
  0
ENDSEC
  0
SECTION
  2
CLASSES
  0
CLASS
  1
ACDBDICTIONARYWDFLT
  2
AcDbDictionaryWithDefault
  3
ObjectDBX Classes
 90
    32768
280
     0
281
     0
  0
CLASS
  1
VISUALSTYLE
  2
AcDbVisualStyle
  3
ObjectDBX Classes
 90
     4095
280
     0
281
     0
  0
CLASS
  1
MATERIAL
  2
AcDbMaterial
  3
ObjectDBX Classes
 90
     1153
280
     0
281
     0
  0
CLASS
  1
XRECORD
  2
AcDbXrecord
  3
AutoCAD 2000
 90
    32768
280
     0
281
     0
  0
ENDSEC
  0
SECTION
  2
TABLES
  0
TABLE
  2
VPORT
  5
8
330
0
100
AcDbSymbolTable
 70
     1
  0
VPORT
  5
29
330
8
100
AcDbSymbolTableRecord
100
AcDbViewportTableRecord
  2
*ACTIVE
 70
     0
 10
0.0
 20
0.0
 11
1.0
 21
1.0
 12
8.5
 22
5.5
 13
0.0
 23
0.0
 14
0.5
 24
0.5
 15
0.5
 25
0.5
 16
0.0
 26
0.0
 36
1.0
 17
0.0
 27
0.0
 37
0.0
 40
11.0
 41
1.5454545455
 42
50.0
 43
0.0
 44
0.0
 50
0.0
 51
0.0
 71
     0
 72
  2000
 73
     1
 74
     3
 75
     0
 76
     0
 77
     0
 78
     0
  0
ENDTAB
  0
TABLE
  2
LTYPE
  5
5
330
0
100
AcDbSymbolTable
 70
     8
  0
LTYPE
  5
14
330
5
100
AcDbSymbolTableRecord
100
AcDbLinetypeTableRecord
  2
BYBLOCK
 70
     0
  3

 72
    65
 73
     0
 40
0.0
  0
LTYPE
  5
15
330
5
100
AcDbSymbolTableRecord
100
AcDbLinetypeTableRecord
  2
BYLAYER
 70
     0
  3

 72
    65
 73
     0
 40
0.0
  0
LTYPE
  5
16
330
5
100
AcDbSymbolTableRecord
100
AcDbLinetypeTableRecord
  2
CONTINUOUS
 70
     0
  3
Solid line
 72
    65
 73
     0
 40
0.0
  0
LTYPE
  5
3F
330
5
100
AcDbSymbolTableRecord
100
AcDbLinetypeTableRecord
  2
SLD-SOLID
 70
     0
  3
SolidWorks Line Style
 72
    65
 73
     0
 40
0.0
  0
LTYPE
  5
40
330
5
100
AcDbSymbolTableRecord
100
AcDbLinetypeTableRecord
  2
SLD-DASHED
 70
     0
  3
SolidWorks Line Style
 72
    65
 73
     2
 40
0.075
 49
0.05
 74
     0
 49
-0.025
 74
     0
  0
LTYPE
  5
41
330
5
100
AcDbSymbolTableRecord
100
AcDbLinetypeTableRecord
  2
SLD-PHANTOM
 70
     0
  3
SolidWorks Line Style
 72
    65
 73
     6
 40
0.5
 49
0.25
 74
     0
 49
-0.05
 74
     0
 49
0.05
 74
     0
 49
-0.05
 74
     0
 49
0.05
 74
     0
 49
-0.05
 74
     0
  0
LTYPE
  5
42
330
5
100
AcDbSymbolTableRecord
100
AcDbLinetypeTableRecord
  2
SLD-CHAIN
 70
     0
  3
SolidWorks Line Style
 72
    65
 73
     4
 40
0.4
 49
0.25
 74
     0
 49
-0.05
 74
     0
 49
0.05
 74
     0
 49
-0.05
 74
     0
  0
LTYPE
  5
43
330
5
100
AcDbSymbolTableRecord
100
AcDbLinetypeTableRecord
  2
SLD-CENTER
 70
     0
  3
SolidWorks Line Style
 72
    65
 73
     4
 40
0.75
 49
0.6
 74
     0
 49
-0.05
 74
     0
 49
0.05
 74
     0
 49
-0.05
 74
     0
  0
LTYPE
  5
44
330
5
100
AcDbSymbolTableRecord
100
AcDbLinetypeTableRecord
  2
SLD-STITCH
 70
     0
  3
SolidWorks Line Style
 72
    65
 73
     2
 40
0.025
 49
0.0
 74
     0
 49
-0.025
 74
     0
  0
LTYPE
  5
45
330
5
100
AcDbSymbolTableRecord
100
AcDbLinetypeTableRecord
  2
SLD-THIN-THICK-CHAIN
 70
     0
  3
SolidWorks Line Style
 72
    65
 73
     4
 40
0.4
 49
0.25
 74
     0
 49
-0.05
 74
     0
 49
0.05
 74
     0
 49
-0.05
 74
     0
  0
ENDTAB
  0
TABLE
  2
LAYER
  5
2
330
0
100
AcDbSymbolTable
 70
     2
  0
LAYER
  5
10
330
2
100
AcDbSymbolTableRecord
100
AcDbLayerTableRecord
  2
0
 70
     0
 62
     7
  6
CONTINUOUS
  0
LAYER
  5
46
330
2
100
AcDbSymbolTableRecord
100
AcDbLayerTableRecord
  2
FORMAT
 70
     0
 62
     7
  6
SLD-SOLID
  0
ENDTAB
  0
TABLE
  2
STYLE
  5
3
330
0
100
AcDbSymbolTable
 70
     1
  0
STYLE
  5
11
330
3
100
AcDbSymbolTableRecord
100
AcDbTextStyleTableRecord
  2
STANDARD
 70
     0
 40
0.0
 41
1.0
 50
0.0
 71
     0
 42
0.125
  3
txt
  4

  0
ENDTAB
  0
TABLE
  2
VIEW
  5
6
330
0
100
AcDbSymbolTable
 70
     0
  0
ENDTAB
  0
TABLE
  2
UCS
  5
7
330
0
100
AcDbSymbolTable
 70
     0
  0
ENDTAB
  0
TABLE
  2
APPID
  5
9
330
0
100
AcDbSymbolTable
 70
     1
  0
APPID
  5
12
330
9
100
AcDbSymbolTableRecord
100
AcDbRegAppTableRecord
  2
ACAD
 70
     0
  0
ENDTAB
  0
TABLE
  2
DIMSTYLE
  5
A
330
0
100
AcDbSymbolTable
 70
     1
  0
DIMSTYLE
105
27
330
A
100
AcDbSymbolTableRecord
100
AcDbDimStyleTableRecord
  2
STANDARD
 70
     0
  3

  4

  5

  6

  7

 40
1.0
 41
0.18
 42
0.0625
 43
0.38
 44
0.18
 45
0.0
 46
0.0
 47
0.0
 48
0.0
140
0.18
141
0.09
142
0.0
143
25.4
144
1.0
145
0.0
146
1.0
147
0.09
 71
     0
 72
     0
 73
     1
 74
     1
 75
     0
 76
     0
 77
     0
 78
     0
170
     0
171
     2
172
     0
173
     0
174
     0
175
     0
176
     0
177
     0
178
     0
270
     2
271
     4
272
     4
273
     2
274
     2
340
11
275
     0
280
     0
281
     0
282
     0
283
     1
284
     0
285
     0
286
     0
287
     3
288
     0
  0
ENDTAB
  0
TABLE
  2
BLOCK_RECORD
  5
1
330
0
100
AcDbSymbolTable
 70
     1
  0
BLOCK_RECORD
  5
1F
330
1
100
AcDbSymbolTableRecord
100
AcDbBlockTableRecord
  2
*MODEL_SPACE
  0
BLOCK_RECORD
  5
1B
330
1
100
AcDbSymbolTableRecord
100
AcDbBlockTableRecord
  2
*PAPER_SPACE
  0
BLOCK_RECORD
  5
23
330
1
100
AcDbSymbolTableRecord
100
AcDbBlockTableRecord
  2
*PAPER_SPACE0
  0
ENDTAB
  0
ENDSEC
  0
SECTION
  2
BLOCKS
  0
BLOCK
  5
20
330
1F
100
AcDbEntity
  8
0
100
AcDbBlockBegin
  2
*MODEL_SPACE
 70
     0
 10
0.0
 20
0.0
 30
0.0
  3
*MODEL_SPACE
  1

  0
ENDBLK
  5
21
330
1F
100
AcDbEntity
  8
0
100
AcDbBlockEnd
  0
BLOCK
  5
1C
330
1B
100
AcDbEntity
 67
     1
  8
0
100
AcDbBlockBegin
  2
*PAPER_SPACE
 70
     0
 10
0.0
 20
0.0
 30
0.0
  3
*PAPER_SPACE
  1

  0
ENDBLK
  5
1D
330
1B
100
AcDbEntity
 67
     1
  8
0
100
AcDbBlockEnd
  0
BLOCK
  5
24
330
23
100
AcDbEntity
  8
0
100
AcDbBlockBegin
  2
*PAPER_SPACE0
 70
     0
 10
0.0
 20
0.0
 30
0.0
  3
*PAPER_SPACE0
  1

  0
ENDBLK
  5
25
330
23
100
AcDbEntity
  8
0
100
AcDbBlockEnd
  0
ENDSEC
  0
SECTION
  2
ENTITIES
  0
CIRCLE
  5
47
330
1F
100
AcDbEntity
  8
0
  6
SLD-SOLID
 62
     7
100
AcDbCircle
 10
9.6616592354
 20
9.0457435175
 30
0.0
 40
0.0885000000000016
  0
CIRCLE
  5
48
330
1F
100
AcDbEntity
  8
0
  6
SLD-SOLID
 62
     7
100
AcDbCircle
 10
11.7265804952
 20
9.0407435175
 30
0.0
 40
0.0884999999999998
  0
CIRCLE
  5
49
330
1F
100
AcDbEntity
  8
0
  6
SLD-SOLID
 62
     7
100
AcDbCircle
 10
11.6672694341
 20
4.2404285569
 30
0.0
 40
0.0884999999999998
  0
CIRCLE
  5
4A
330
1F
100
AcDbEntity
  8
0
  6
SLD-SOLID
 62
     7
100
AcDbCircle
 10
8.5396514918
 20
4.1904285569
 30
0.0
 40
0.0884999999999998
  0
CIRCLE
  5
4B
330
1F
100
AcDbEntity
  8
0
  6
SLD-SOLID
 62
     7
100
AcDbCircle
 10
5.4045121371
 20
2.7280661214
 30
0.0
 40
0.0884999999999998
  0
CIRCLE
  5
4C
330
1F
100
AcDbEntity
  8
0
  6
SLD-SOLID
 62
     7
100
AcDbCircle
 10
4.3369367572
 20
5.0168267641
 30
0.0
 40
0.0884999999999998
  0
LINE
  5
4D
330
1F
100
AcDbEntity
  8
0
  6
SLD-SOLID
 62
     7
100
AcDbLine
 10
9.8491592354
 20
8.1640506041
 30
0.0
 11
11.5390804952
 21
8.1640506041
 31
0.0
  0
LINE
  5
4E
330
1F
100
AcDbEntity
  8
0
  6
SLD-SOLID
 62
     7
100
AcDbLine
 10
11.5390804952
 20
8.1640506041
 30
0.0
 11
11.5390804952
 21
9.1707435175
 31
0.0
  0
LINE
  5
4F
330
1F
100
AcDbEntity
  8
0
  6
SLD-SOLID
 62
     7
100
AcDbLine
 10
11.5390804952
 20
9.1707435175
 30
0.0
 11
9.8491592354
 21
9.1707435175
 31
0.0
  0
LINE
  5
50
330
1F
100
AcDbEntity
  8
0
  6
SLD-SOLID
 62
     7
100
AcDbLine
 10
9.8491592354
 20
9.1707435175
 30
0.0
 11
9.8491592354
 21
8.1640506041
 31
0.0
  0
LINE
  5
51
330
1F
100
AcDbEntity
  8
0
  6
SLD-SOLID
 62
     7
100
AcDbLine
 10
6.611875728
 20
8.2122199004
 30
0.0
 11
6.611875728
 21
8.7954482469
 31
0.0
  0
LINE
  5
52
330
1F
100
AcDbEntity
  8
0
  6
SLD-SOLID
 62
     7
100
AcDbLine
 10
7.1476237595
 20
8.2122199004
 30
0.0
 11
6.611875728
 21
8.2122199004
 31
0.0
  0
LINE
  5
53
330
1F
100
AcDbEntity
  8
0
  6
SLD-SOLID
 62
     7
100
AcDbLine
 10
7.1476237595
 20
8.7954482469
 30
0.0
 11
7.1476237595
 21
8.2122199004
 31
0.0
  0
LINE
  5
54
330
1F
100
AcDbEntity
  8
0
  6
SLD-SOLID
 62
     7
100
AcDbLine
 10
8.2884698857
 20
8.7954482469
 30
0.0
 11
7.1476237595
 21
8.7954482469
 31
0.0
  0
ARC
  5
55
330
1F
100
AcDbEntity
  8
0
  6
SLD-SOLID
 62
     7
100
AcDbCircle
 10
8.2884698857
 20
9.5454482469
 30
0.0
 40
0.7500000000000018
100
AcDbArc
 50
270.0
 51
295.0
  0
LINE
  5
56
330
1F
100
AcDbEntity
  8
0
  6
SLD-SOLID
 62
     7
100
AcDbLine
 10
9.510966536
 20
9.2879743578
 30
0.0
 11
8.605433582
 21
8.8657174066
 31
0.0
  0
ARC
  5
57
330
1F
100
AcDbEntity
  8
0
  6
SLD-SOLID
 62
     7
100
AcDbCircle
 10
9.8279302323
 20
8.6082435175
 30
0.0
 40
0.75
100
AcDbArc
 50
90.0
 51
115.0
  0
LINE
  5
58
330
1F
100
AcDbEntity
  8
0
  6
SLD-SOLID
 62
     7
100
AcDbLine
 10
11.6422694338
 20
9.3582435175
 30
0.0
 11
9.8279302323
 21
9.3582435175
 31
0.0
  0
ARC
  5
59
330
1F
100
AcDbEntity
  8
0
  6
SLD-SOLID
 62
     7
100
AcDbCircle
 10
11.6422694338
 20
9.1082435175
 30
0.0
 40
0.2500000000000018
100
AcDbArc
 50
0.0
 51
90.0
  0
LINE
  5
5A
330
1F
100
AcDbEntity
  8
0
  6
SLD-SOLID
 62
     7
100
AcDbLine
 10
11.8922694338
 20
4.2654285569
 30
0.0
 11
11.8922694338
 21
9.1082435175
 31
0.0
  0
ARC
  5
5B
330
1F
100
AcDbEntity
  8
0
  6
SLD-SOLID
 62
     7
100
AcDbCircle
 10
11.6422694338
 20
4.2654285569
 30
0.0
 40
0.25
100
AcDbArc
 50
270.0
 51
0.0
  0
LINE
  5
5C
330
1F
100
AcDbEntity
  8
0
  6
SLD-SOLID
 62
     7
100
AcDbLine
 10
8.6930374134
 20
4.0154285569
 30
0.0
 11
11.6422694338
 21
4.0154285569
 31
0.0
  0
ARC
  5
5D
330
1F
100
AcDbEntity
  8
0
  6
SLD-SOLID
 62
     7
100
AcDbCircle
 10
8.6930374134
 20
3.7654285569
 30
0.0
 40
0.25
100
AcDbArc
 50
90.0
 51
115.00634861
  0
LINE
  5
5E
330
1F
100
AcDbEntity
  8
0
  6
SLD-SOLID
 62
     7
100
AcDbLine
 10
5.5343689208
 20
2.5679498648
 30
0.0
 11
8.5873577429
 21
3.9919937953
 31
0.0
  0
ARC
  5
5F
330
1F
100
AcDbEntity
  8
0
  6
SLD-SOLID
 62
     7
100
AcDbCircle
 10
5.4286892504
 20
2.7945151032
 30
0.0
 40
0.2500000000000006
100
AcDbArc
 50
205.00634861
 51
295.00634861
  0
LINE
  5
60
330
1F
100
AcDbEntity
  8
0
  6
SLD-SOLID
 62
     7
100
AcDbLine
 10
4.1768205002
 20
4.8869699801
 30
0.0
 11
5.202124012
 21
2.6888354327
 31
0.0
  0
ARC
  5
61
330
1F
100
AcDbEntity
  8
0
  6
SLD-SOLID
 62
     7
100
AcDbCircle
 10
4.4033857386
 20
4.9926496505
 30
0.0
 40
0.2500000000000002
100
AcDbArc
 50
115.00634861
 51
205.00634861
  0
LINE
  5
62
330
1F
100
AcDbEntity
  8
0
  6
SLD-SOLID
 62
     7
100
AcDbLine
 10
5.6579294139
 20
5.8536809524
 30
0.0
 11
4.2977060682
 21
5.2192148889
 31
0.0
  0
ARC
  5
63
330
1F
100
AcDbEntity
  8
0
  6
SLD-SOLID
 62
     7
100
AcDbCircle
 10
5.5522497435
 20
6.0802461908
 30
0.0
 40
0.25
100
AcDbArc
 50
295.00634861
 51
0.0
  0
LINE
  5
64
330
1F
100
AcDbEntity
  8
0
  6
SLD-SOLID
 62
     7
100
AcDbLine
 10
5.8022497435
 20
8.5454482469
 30
0.0
 11
5.8022497435
 21
6.0802461908
 31
0.0
  0
ARC
  5
65
330
1F
100
AcDbEntity
  8
0
  6
SLD-SOLID
 62
     7
100
AcDbCircle
 10
6.0522497435
 20
8.5454482469
 30
0.0
 40
0.2500000000000009
100
AcDbArc
 50
90.0
 51
180.0
  0
LINE
  5
66
330
1F
100
AcDbEntity
  8
0
  6
SLD-SOLID
 62
     7
100
AcDbLine
 10
6.611875728
 20
8.7954482469
 30
0.0
 11
6.0522497435
 21
8.7954482469
 31
0.0
  0
CIRCLE
  5
67
330
1F
100
AcDbEntity
  8
0
  6
SLD-SOLID
 62
     7
100
AcDbCircle
 10
5.8873941873
 20
5.7990266114
 30
0.0
 40
0.0884999999999998
  0
CIRCLE
  5
68
330
1F
100
AcDbEntity
  8
0
  6
SLD-SOLID
 62
     7
100
AcDbCircle
 10
8.3022497435
 20
8.6079482469
 30
0.0
 40
0.088499999999998
  0
CIRCLE
  5
69
330
1F
100
AcDbEntity
  8
0
  6
SLD-SOLID
 62
     7
100
AcDbCircle
 10
6.0272497435
 20
8.5704482469
 30
0.0
 40
0.0884999999999998
  0
LINE
  5
6A
330
1F
100
AcDbEntity
  8
0
  6
SLD-SOLID
 62
     7
100
AcDbLine
 10
7.7292700787
 20
6.1244443061
 30
0.0
 11
8.2802700787
 21
6.1244443061
 31
0.0
  0
LINE
  5
6B
330
1F
100
AcDbEntity
  8
0
  6
SLD-SOLID
 62
     7
100
AcDbLine
 10
8.2802700787
 20
6.1479758021
 30
0.0
 11
8.3098881889
 21
6.1479758021
 31
0.0
  0
LINE
  5
6C
330
1F
100
AcDbEntity
  8
0
  6
SLD-SOLID
 62
     7
100
AcDbLine
 10
8.3098881889
 20
6.1479758021
 30
0.0
 11
8.3098881889
 21
6.65191281
 31
0.0
  0
LINE
  5
6D
330
1F
100
AcDbEntity
  8
0
  6
SLD-SOLID
 62
     7
100
AcDbLine
 10
8.3098881889
 20
6.65191281
 30
0.0
 11
8.2802700787
 21
6.65191281
 31
0.0
  0
LINE
  5
6E
330
1F
100
AcDbEntity
  8
0
  6
SLD-SOLID
 62
     7
100
AcDbLine
 10
8.2802700787
 20
6.65191281
 30
0.0
 11
8.2802700787
 21
6.6754443061
 31
0.0
  0
LINE
  5
6F
330
1F
100
AcDbEntity
  8
0
  6
SLD-SOLID
 62
     7
100
AcDbLine
 10
8.2802700787
 20
6.6754443061
 30
0.0
 11
7.7292700787
 21
6.6754443061
 31
0.0
  0
LINE
  5
70
330
1F
100
AcDbEntity
  8
0
  6
SLD-SOLID
 62
     7
100
AcDbLine
 10
7.7292700787
 20
6.6754443061
 30
0.0
 11
7.7292700787
 21
6.65191281
 31
0.0
  0
LINE
  5
71
330
1F
100
AcDbEntity
  8
0
  6
SLD-SOLID
 62
     7
100
AcDbLine
 10
7.7292700787
 20
6.65191281
 30
0.0
 11
7.6996519685
 21
6.65191281
 31
0.0
  0
LINE
  5
72
330
1F
100
AcDbEntity
  8
0
  6
SLD-SOLID
 62
     7
100
AcDbLine
 10
7.6996519685
 20
6.65191281
 30
0.0
 11
7.6996519685
 21
6.1479758021
 31
0.0
  0
LINE
  5
73
330
1F
100
AcDbEntity
  8
0
  6
SLD-SOLID
 62
     7
100
AcDbLine
 10
7.6996519685
 20
6.1479758021
 30
0.0
 11
7.7292700787
 21
6.1479758021
 31
0.0
  0
LINE
  5
74
330
1F
100
AcDbEntity
  8
0
  6
SLD-SOLID
 62
     7
100
AcDbLine
 10
7.7292700787
 20
7.6244443061
 30
0.0
 11
8.2802700787
 21
7.6244443061
 31
0.0
  0
LINE
  5
75
330
1F
100
AcDbEntity
  8
0
  6
SLD-SOLID
 62
     7
100
AcDbLine
 10
8.2802700787
 20
7.6479758021
 30
0.0
 11
8.3098881889
 21
7.6479758021
 31
0.0
  0
LINE
  5
76
330
1F
100
AcDbEntity
  8
0
  6
SLD-SOLID
 62
     7
100
AcDbLine
 10
8.3098881889
 20
7.6479758021
 30
0.0
 11
8.3098881889
 21
8.15191281
 31
0.0
  0
LINE
  5
77
330
1F
100
AcDbEntity
  8
0
  6
SLD-SOLID
 62
     7
100
AcDbLine
 10
8.3098881889
 20
8.15191281
 30
0.0
 11
8.2802700787
 21
8.15191281
 31
0.0
  0
LINE
  5
78
330
1F
100
AcDbEntity
  8
0
  6
SLD-SOLID
 62
     7
100
AcDbLine
 10
8.2802700787
 20
8.15191281
 30
0.0
 11
8.2802700787
 21
8.1754443061
 31
0.0
  0
LINE
  5
79
330
1F
100
AcDbEntity
  8
0
  6
SLD-SOLID
 62
     7
100
AcDbLine
 10
8.2802700787
 20
8.1754443061
 30
0.0
 11
7.7292700787
 21
8.1754443061
 31
0.0
  0
LINE
  5
7A
330
1F
100
AcDbEntity
  8
0
  6
SLD-SOLID
 62
     7
100
AcDbLine
 10
7.7292700787
 20
8.1754443061
 30
0.0
 11
7.7292700787
 21
8.15191281
 31
0.0
  0
LINE
  5
7B
330
1F
100
AcDbEntity
  8
0
  6
SLD-SOLID
 62
     7
100
AcDbLine
 10
7.7292700787
 20
8.15191281
 30
0.0
 11
7.6996519685
 21
8.15191281
 31
0.0
  0
LINE
  5
7C
330
1F
100
AcDbEntity
  8
0
  6
SLD-SOLID
 62
     7
100
AcDbLine
 10
7.6996519685
 20
8.15191281
 30
0.0
 11
7.6996519685
 21
7.6479758021
 31
0.0
  0
LINE
  5
7D
330
1F
100
AcDbEntity
  8
0
  6
SLD-SOLID
 62
     7
100
AcDbLine
 10
7.6996519685
 20
7.6479758021
 30
0.0
 11
7.7292700787
 21
7.6479758021
 31
0.0
  0
LINE
  5
7E
330
1F
100
AcDbEntity
  8
0
  6
SLD-SOLID
 62
     7
100
AcDbLine
 10
7.7292700787
 20
6.8744443061
 30
0.0
 11
8.2802700787
 21
6.8744443061
 31
0.0
  0
LINE
  5
7F
330
1F
100
AcDbEntity
  8
0
  6
SLD-SOLID
 62
     7
100
AcDbLine
 10
8.2802700787
 20
6.8979758021
 30
0.0
 11
8.3098881889
 21
6.8979758021
 31
0.0
  0
LINE
  5
80
330
1F
100
AcDbEntity
  8
0
  6
SLD-SOLID
 62
     7
100
AcDbLine
 10
8.3098881889
 20
6.8979758021
 30
0.0
 11
8.3098881889
 21
7.40191281
 31
0.0
  0
LINE
  5
81
330
1F
100
AcDbEntity
  8
0
  6
SLD-SOLID
 62
     7
100
AcDbLine
 10
8.3098881889
 20
7.40191281
 30
0.0
 11
8.2802700787
 21
7.40191281
 31
0.0
  0
LINE
  5
82
330
1F
100
AcDbEntity
  8
0
  6
SLD-SOLID
 62
     7
100
AcDbLine
 10
8.2802700787
 20
7.40191281
 30
0.0
 11
8.2802700787
 21
7.4254443061
 31
0.0
  0
LINE
  5
83
330
1F
100
AcDbEntity
  8
0
  6
SLD-SOLID
 62
     7
100
AcDbLine
 10
8.2802700787
 20
7.4254443061
 30
0.0
 11
7.7292700787
 21
7.4254443061
 31
0.0
  0
LINE
  5
84
330
1F
100
AcDbEntity
  8
0
  6
SLD-SOLID
 62
     7
100
AcDbLine
 10
7.7292700787
 20
7.4254443061
 30
0.0
 11
7.7292700787
 21
7.40191281
 31
0.0
  0
LINE
  5
85
330
1F
100
AcDbEntity
  8
0
  6
SLD-SOLID
 62
     7
100
AcDbLine
 10
7.7292700787
 20
7.40191281
 30
0.0
 11
7.6996519685
 21
7.40191281
 31
0.0
  0
LINE
  5
86
330
1F
100
AcDbEntity
  8
0
  6
SLD-SOLID
 62
     7
100
AcDbLine
 10
7.6996519685
 20
7.40191281
 30
0.0
 11
7.6996519685
 21
6.8979758021
 31
0.0
  0
LINE
  5
87
330
1F
100
AcDbEntity
  8
0
  6
SLD-SOLID
 62
     7
100
AcDbLine
 10
7.6996519685
 20
6.8979758021
 30
0.0
 11
7.7292700787
 21
6.8979758021
 31
0.0
  0
LINE
  5
88
330
1F
100
AcDbEntity
  8
0
  6
SLD-SOLID
 62
     7
100
AcDbLine
 10
7.7292700787
 20
5.3744443061
 30
0.0
 11
8.2802700787
 21
5.3744443061
 31
0.0
  0
LINE
  5
89
330
1F
100
AcDbEntity
  8
0
  6
SLD-SOLID
 62
     7
100
AcDbLine
 10
8.2802700787
 20
5.3979758021
 30
0.0
 11
8.3098881889
 21
5.3979758021
 31
0.0
  0
LINE
  5
8A
330
1F
100
AcDbEntity
  8
0
  6
SLD-SOLID
 62
     7
100
AcDbLine
 10
8.3098881889
 20
5.3979758021
 30
0.0
 11
8.3098881889
 21
5.90191281
 31
0.0
  0
LINE
  5
8B
330
1F
100
AcDbEntity
  8
0
  6
SLD-SOLID
 62
     7
100
AcDbLine
 10
8.3098881889
 20
5.90191281
 30
0.0
 11
8.2802700787
 21
5.90191281
 31
0.0
  0
LINE
  5
8C
330
1F
100
AcDbEntity
  8
0
  6
SLD-SOLID
 62
     7
100
AcDbLine
 10
8.2802700787
 20
5.90191281
 30
0.0
 11
8.2802700787
 21
5.9254443061
 31
0.0
  0
LINE
  5
8D
330
1F
100
AcDbEntity
  8
0
  6
SLD-SOLID
 62
     7
100
AcDbLine
 10
8.2802700787
 20
5.9254443061
 30
0.0
 11
7.7292700787
 21
5.9254443061
 31
0.0
  0
LINE
  5
8E
330
1F
100
AcDbEntity
  8
0
  6
SLD-SOLID
 62
     7
100
AcDbLine
 10
7.7292700787
 20
5.9254443061
 30
0.0
 11
7.7292700787
 21
5.90191281
 31
0.0
  0
LINE
  5
8F
330
1F
100
AcDbEntity
  8
0
  6
SLD-SOLID
 62
     7
100
AcDbLine
 10
7.7292700787
 20
5.90191281
 30
0.0
 11
7.6996519685
 21
5.90191281
 31
0.0
  0
LINE
  5
90
330
1F
100
AcDbEntity
  8
0
  6
SLD-SOLID
 62
     7
100
AcDbLine
 10
7.6996519685
 20
5.90191281
 30
0.0
 11
7.6996519685
 21
5.3979758021
 31
0.0
  0
LINE
  5
91
330
1F
100
AcDbEntity
  8
0
  6
SLD-SOLID
 62
     7
100
AcDbLine
 10
7.6996519685
 20
5.3979758021
 30
0.0
 11
7.7292700787
 21
5.3979758021
 31
0.0
  0
LINE
  5
92
330
1F
100
AcDbEntity
  8
0
  6
SLD-SOLID
 62
     7
100
AcDbLine
 10
7.7292700787
 20
4.6244443061
 30
0.0
 11
8.2802700787
 21
4.6244443061
 31
0.0
  0
LINE
  5
93
330
1F
100
AcDbEntity
  8
0
  6
SLD-SOLID
 62
     7
100
AcDbLine
 10
8.2802700787
 20
4.6479758021
 30
0.0
 11
8.3098881889
 21
4.6479758021
 31
0.0
  0
LINE
  5
94
330
1F
100
AcDbEntity
  8
0
  6
SLD-SOLID
 62
     7
100
AcDbLine
 10
8.3098881889
 20
4.6479758021
 30
0.0
 11
8.3098881889
 21
5.15191281
 31
0.0
  0
LINE
  5
95
330
1F
100
AcDbEntity
  8
0
  6
SLD-SOLID
 62
     7
100
AcDbLine
 10
8.3098881889
 20
5.15191281
 30
0.0
 11
8.2802700787
 21
5.15191281
 31
0.0
  0
LINE
  5
96
330
1F
100
AcDbEntity
  8
0
  6
SLD-SOLID
 62
     7
100
AcDbLine
 10
8.2802700787
 20
5.15191281
 30
0.0
 11
8.2802700787
 21
5.1754443061
 31
0.0
  0
LINE
  5
97
330
1F
100
AcDbEntity
  8
0
  6
SLD-SOLID
 62
     7
100
AcDbLine
 10
8.2802700787
 20
5.1754443061
 30
0.0
 11
7.7292700787
 21
5.1754443061
 31
0.0
  0
LINE
  5
98
330
1F
100
AcDbEntity
  8
0
  6
SLD-SOLID
 62
     7
100
AcDbLine
 10
7.7292700787
 20
5.1754443061
 30
0.0
 11
7.7292700787
 21
5.15191281
 31
0.0
  0
LINE
  5
99
330
1F
100
AcDbEntity
  8
0
  6
SLD-SOLID
 62
     7
100
AcDbLine
 10
7.7292700787
 20
5.15191281
 30
0.0
 11
7.6996519685
 21
5.15191281
 31
0.0
  0
LINE
  5
9A
330
1F
100
AcDbEntity
  8
0
  6
SLD-SOLID
 62
     7
100
AcDbLine
 10
7.6996519685
 20
5.15191281
 30
0.0
 11
7.6996519685
 21
4.6479758021
 31
0.0
  0
LINE
  5
9B
330
1F
100
AcDbEntity
  8
0
  6
SLD-SOLID
 62
     7
100
AcDbLine
 10
7.6996519685
 20
4.6479758021
 30
0.0
 11
7.7292700787
 21
4.6479758021
 31
0.0
  0
LINE
  5
9C
330
1F
100
AcDbEntity
  8
0
  6
SLD-SOLID
 62
     7
100
AcDbLine
 10
6.9792700787
 20
5.3244443061
 30
0.0
 11
7.5302700787
 21
5.3244443061
 31
0.0
  0
LINE
  5
9D
330
1F
100
AcDbEntity
  8
0
  6
SLD-SOLID
 62
     7
100
AcDbLine
 10
7.5302700787
 20
5.3479758021
 30
0.0
 11
7.5598881889
 21
5.3479758021
 31
0.0
  0
LINE
  5
9E
330
1F
100
AcDbEntity
  8
0
  6
SLD-SOLID
 62
     7
100
AcDbLine
 10
7.5598881889
 20
5.3479758021
 30
0.0
 11
7.5598881889
 21
5.85191281
 31
0.0
  0
LINE
  5
9F
330
1F
100
AcDbEntity
  8
0
  6
SLD-SOLID
 62
     7
100
AcDbLine
 10
7.5598881889
 20
5.85191281
 30
0.0
 11
7.5302700787
 21
5.85191281
 31
0.0
  0
LINE
  5
A0
330
1F
100
AcDbEntity
  8
0
  6
SLD-SOLID
 62
     7
100
AcDbLine
 10
7.5302700787
 20
5.85191281
 30
0.0
 11
7.5302700787
 21
5.8754443061
 31
0.0
  0
LINE
  5
A1
330
1F
100
AcDbEntity
  8
0
  6
SLD-SOLID
 62
     7
100
AcDbLine
 10
7.5302700787
 20
5.8754443061
 30
0.0
 11
6.9792700787
 21
5.8754443061
 31
0.0
  0
LINE
  5
A2
330
1F
100
AcDbEntity
  8
0
  6
SLD-SOLID
 62
     7
100
AcDbLine
 10
6.9792700787
 20
5.8754443061
 30
0.0
 11
6.9792700787
 21
5.85191281
 31
0.0
  0
LINE
  5
A3
330
1F
100
AcDbEntity
  8
0
  6
SLD-SOLID
 62
     7
100
AcDbLine
 10
6.9792700787
 20
5.85191281
 30
0.0
 11
6.9496519685
 21
5.85191281
 31
0.0
  0
LINE
  5
A4
330
1F
100
AcDbEntity
  8
0
  6
SLD-SOLID
 62
     7
100
AcDbLine
 10
6.9496519685
 20
5.85191281
 30
0.0
 11
6.9496519685
 21
5.3479758021
 31
0.0
  0
LINE
  5
A5
330
1F
100
AcDbEntity
  8
0
  6
SLD-SOLID
 62
     7
100
AcDbLine
 10
6.9496519685
 20
5.3479758021
 30
0.0
 11
6.9792700787
 21
5.3479758021
 31
0.0
  0
LINE
  5
A6
330
1F
100
AcDbEntity
  8
0
  6
SLD-SOLID
 62
     7
100
AcDbLine
 10
6.9792700787
 20
6.0744443061
 30
0.0
 11
7.5302700787
 21
6.0744443061
 31
0.0
  0
LINE
  5
A7
330
1F
100
AcDbEntity
  8
0
  6
SLD-SOLID
 62
     7
100
AcDbLine
 10
7.5302700787
 20
6.0979758021
 30
0.0
 11
7.5598881889
 21
6.0979758021
 31
0.0
  0
LINE
  5
A8
330
1F
100
AcDbEntity
  8
0
  6
SLD-SOLID
 62
     7
100
AcDbLine
 10
7.5598881889
 20
6.0979758021
 30
0.0
 11
7.5598881889
 21
6.60191281
 31
0.0
  0
LINE
  5
A9
330
1F
100
AcDbEntity
  8
0
  6
SLD-SOLID
 62
     7
100
AcDbLine
 10
7.5598881889
 20
6.60191281
 30
0.0
 11
7.5302700787
 21
6.60191281
 31
0.0
  0
LINE
  5
AA
330
1F
100
AcDbEntity
  8
0
  6
SLD-SOLID
 62
     7
100
AcDbLine
 10
7.5302700787
 20
6.60191281
 30
0.0
 11
7.5302700787
 21
6.6254443061
 31
0.0
  0
LINE
  5
AB
330
1F
100
AcDbEntity
  8
0
  6
SLD-SOLID
 62
     7
100
AcDbLine
 10
7.5302700787
 20
6.6254443061
 30
0.0
 11
6.9792700787
 21
6.6254443061
 31
0.0
  0
LINE
  5
AC
330
1F
100
AcDbEntity
  8
0
  6
SLD-SOLID
 62
     7
100
AcDbLine
 10
6.9792700787
 20
6.6254443061
 30
0.0
 11
6.9792700787
 21
6.60191281
 31
0.0
  0
LINE
  5
AD
330
1F
100
AcDbEntity
  8
0
  6
SLD-SOLID
 62
     7
100
AcDbLine
 10
6.9792700787
 20
6.60191281
 30
0.0
 11
6.9496519685
 21
6.60191281
 31
0.0
  0
LINE
  5
AE
330
1F
100
AcDbEntity
  8
0
  6
SLD-SOLID
 62
     7
100
AcDbLine
 10
6.9496519685
 20
6.60191281
 30
0.0
 11
6.9496519685
 21
6.0979758021
 31
0.0
  0
LINE
  5
AF
330
1F
100
AcDbEntity
  8
0
  6
SLD-SOLID
 62
     7
100
AcDbLine
 10
6.9496519685
 20
6.0979758021
 30
0.0
 11
6.9792700787
 21
6.0979758021
 31
0.0
  0
LINE
  5
B0
330
1F
100
AcDbEntity
  8
0
  6
SLD-SOLID
 62
     7
100
AcDbLine
 10
6.9792700787
 20
6.8244443061
 30
0.0
 11
7.5302700787
 21
6.8244443061
 31
0.0
  0
LINE
  5
B1
330
1F
100
AcDbEntity
  8
0
  6
SLD-SOLID
 62
     7
100
AcDbLine
 10
7.5302700787
 20
6.8479758021
 30
0.0
 11
7.5598881889
 21
6.8479758021
 31
0.0
  0
LINE
  5
B2
330
1F
100
AcDbEntity
  8
0
  6
SLD-SOLID
 62
     7
100
AcDbLine
 10
7.5598881889
 20
6.8479758021
 30
0.0
 11
7.5598881889
 21
7.35191281
 31
0.0
  0
LINE
  5
B3
330
1F
100
AcDbEntity
  8
0
  6
SLD-SOLID
 62
     7
100
AcDbLine
 10
7.5598881889
 20
7.35191281
 30
0.0
 11
7.5302700787
 21
7.35191281
 31
0.0
  0
LINE
  5
B4
330
1F
100
AcDbEntity
  8
0
  6
SLD-SOLID
 62
     7
100
AcDbLine
 10
7.5302700787
 20
7.35191281
 30
0.0
 11
7.5302700787
 21
7.3754443061
 31
0.0
  0
LINE
  5
B5
330
1F
100
AcDbEntity
  8
0
  6
SLD-SOLID
 62
     7
100
AcDbLine
 10
7.5302700787
 20
7.3754443061
 30
0.0
 11
6.9792700787
 21
7.3754443061
 31
0.0
  0
LINE
  5
B6
330
1F
100
AcDbEntity
  8
0
  6
SLD-SOLID
 62
     7
100
AcDbLine
 10
6.9792700787
 20
7.3754443061
 30
0.0
 11
6.9792700787
 21
7.35191281
 31
0.0
  0
LINE
  5
B7
330
1F
100
AcDbEntity
  8
0
  6
SLD-SOLID
 62
     7
100
AcDbLine
 10
6.9792700787
 20
7.35191281
 30
0.0
 11
6.9496519685
 21
7.35191281
 31
0.0
  0
LINE
  5
B8
330
1F
100
AcDbEntity
  8
0
  6
SLD-SOLID
 62
     7
100
AcDbLine
 10
6.9496519685
 20
7.35191281
 30
0.0
 11
6.9496519685
 21
6.8479758021
 31
0.0
  0
LINE
  5
B9
330
1F
100
AcDbEntity
  8
0
  6
SLD-SOLID
 62
     7
100
AcDbLine
 10
6.9496519685
 20
6.8479758021
 30
0.0
 11
6.9792700787
 21
6.8479758021
 31
0.0
  0
LINE
  5
BA
330
1F
100
AcDbEntity
  8
0
  6
SLD-SOLID
 62
     7
100
AcDbLine
 10
6.7802700787
 20
6.6369443061
 30
0.0
 11
6.7802700787
 21
7.1879443061
 31
0.0
  0
LINE
  5
BB
330
1F
100
AcDbEntity
  8
0
  6
SLD-SOLID
 62
     7
100
AcDbLine
 10
6.7567385826
 20
7.1879443061
 30
0.0
 11
6.7567385826
 21
7.2175624163
 31
0.0
  0
LINE
  5
BC
330
1F
100
AcDbEntity
  8
0
  6
SLD-SOLID
 62
     7
100
AcDbLine
 10
6.7567385826
 20
7.2175624163
 30
0.0
 11
6.2528015748
 21
7.2175624163
 31
0.0
  0
LINE
  5
BD
330
1F
100
AcDbEntity
  8
0
  6
SLD-SOLID
 62
     7
100
AcDbLine
 10
6.2528015748
 20
7.2175624163
 30
0.0
 11
6.2528015748
 21
7.1879443061
 31
0.0
  0
LINE
  5
BE
330
1F
100
AcDbEntity
  8
0
  6
SLD-SOLID
 62
     7
100
AcDbLine
 10
6.2528015748
 20
7.1879443061
 30
0.0
 11
6.2292700787
 21
7.1879443061
 31
0.0
  0
LINE
  5
BF
330
1F
100
AcDbEntity
  8
0
  6
SLD-SOLID
 62
     7
100
AcDbLine
 10
6.2292700787
 20
7.1879443061
 30
0.0
 11
6.2292700787
 21
6.6369443061
 31
0.0
  0
LINE
  5
C0
330
1F
100
AcDbEntity
  8
0
  6
SLD-SOLID
 62
     7
100
AcDbLine
 10
6.2292700787
 20
6.6369443061
 30
0.0
 11
6.2528015748
 21
6.6369443061
 31
0.0
  0
LINE
  5
C1
330
1F
100
AcDbEntity
  8
0
  6
SLD-SOLID
 62
     7
100
AcDbLine
 10
6.2528015748
 20
6.6369443061
 30
0.0
 11
6.2528015748
 21
6.6073261958
 31
0.0
  0
LINE
  5
C2
330
1F
100
AcDbEntity
  8
0
  6
SLD-SOLID
 62
     7
100
AcDbLine
 10
6.2528015748
 20
6.6073261958
 30
0.0
 11
6.7567385826
 21
6.6073261958
 31
0.0
  0
LINE
  5
C3
330
1F
100
AcDbEntity
  8
0
  6
SLD-SOLID
 62
     7
100
AcDbLine
 10
6.7567385826
 20
6.6073261958
 30
0.0
 11
6.7567385826
 21
6.6369443061
 31
0.0
  0
LINE
  5
C4
330
1F
100
AcDbEntity
  8
0
  6
SLD-SOLID
 62
     7
100
AcDbLine
 10
6.7802700787
 20
5.5119443061
 30
0.0
 11
6.7802700787
 21
6.0629443061
 31
0.0
  0
LINE
  5
C5
330
1F
100
AcDbEntity
  8
0
  6
SLD-SOLID
 62
     7
100
AcDbLine
 10
6.7567385826
 20
6.0629443061
 30
0.0
 11
6.7567385826
 21
6.0925624163
 31
0.0
  0
LINE
  5
C6
330
1F
100
AcDbEntity
  8
0
  6
SLD-SOLID
 62
     7
100
AcDbLine
 10
6.7567385826
 20
6.0925624163
 30
0.0
 11
6.2528015748
 21
6.0925624163
 31
0.0
  0
LINE
  5
C7
330
1F
100
AcDbEntity
  8
0
  6
SLD-SOLID
 62
     7
100
AcDbLine
 10
6.2528015748
 20
6.0925624163
 30
0.0
 11
6.2528015748
 21
6.0629443061
 31
0.0
  0
LINE
  5
C8
330
1F
100
AcDbEntity
  8
0
  6
SLD-SOLID
 62
     7
100
AcDbLine
 10
6.2528015748
 20
6.0629443061
 30
0.0
 11
6.2292700787
 21
6.0629443061
 31
0.0
  0
LINE
  5
C9
330
1F
100
AcDbEntity
  8
0
  6
SLD-SOLID
 62
     7
100
AcDbLine
 10
6.2292700787
 20
6.0629443061
 30
0.0
 11
6.2292700787
 21
5.5119443061
 31
0.0
  0
LINE
  5
CA
330
1F
100
AcDbEntity
  8
0
  6
SLD-SOLID
 62
     7
100
AcDbLine
 10
6.2292700787
 20
5.5119443061
 30
0.0
 11
6.2528015748
 21
5.5119443061
 31
0.0
  0
LINE
  5
CB
330
1F
100
AcDbEntity
  8
0
  6
SLD-SOLID
 62
     7
100
AcDbLine
 10
6.2528015748
 20
5.5119443061
 30
0.0
 11
6.2528015748
 21
5.4823261958
 31
0.0
  0
LINE
  5
CC
330
1F
100
AcDbEntity
  8
0
  6
SLD-SOLID
 62
     7
100
AcDbLine
 10
6.2528015748
 20
5.4823261958
 30
0.0
 11
6.7567385826
 21
5.4823261958
 31
0.0
  0
LINE
  5
CD
330
1F
100
AcDbEntity
  8
0
  6
SLD-SOLID
 62
     7
100
AcDbLine
 10
6.7567385826
 20
5.4823261958
 30
0.0
 11
6.7567385826
 21
5.5119443061
 31
0.0
  0
LINE
  5
CE
330
1F
100
AcDbEntity
  8
0
  6
SLD-SOLID
 62
     7
100
AcDbLine
 10
6.9792700787
 20
7.5744443061
 30
0.0
 11
7.5302700787
 21
7.5744443061
 31
0.0
  0
LINE
  5
CF
330
1F
100
AcDbEntity
  8
0
  6
SLD-SOLID
 62
     7
100
AcDbLine
 10
7.5302700787
 20
7.5979758021
 30
0.0
 11
7.5598881889
 21
7.5979758021
 31
0.0
  0
LINE
  5
D0
330
1F
100
AcDbEntity
  8
0
  6
SLD-SOLID
 62
     7
100
AcDbLine
 10
7.5598881889
 20
7.5979758021
 30
0.0
 11
7.5598881889
 21
8.10191281
 31
0.0
  0
LINE
  5
D1
330
1F
100
AcDbEntity
  8
0
  6
SLD-SOLID
 62
     7
100
AcDbLine
 10
7.5598881889
 20
8.10191281
 30
0.0
 11
7.5302700787
 21
8.10191281
 31
0.0
  0
LINE
  5
D2
330
1F
100
AcDbEntity
  8
0
  6
SLD-SOLID
 62
     7
100
AcDbLine
 10
7.5302700787
 20
8.10191281
 30
0.0
 11
7.5302700787
 21
8.1254443061
 31
0.0
  0
LINE
  5
D3
330
1F
100
AcDbEntity
  8
0
  6
SLD-SOLID
 62
     7
100
AcDbLine
 10
7.5302700787
 20
8.1254443061
 30
0.0
 11
6.9792700787
 21
8.1254443061
 31
0.0
  0
LINE
  5
D4
330
1F
100
AcDbEntity
  8
0
  6
SLD-SOLID
 62
     7
100
AcDbLine
 10
6.9792700787
 20
8.1254443061
 30
0.0
 11
6.9792700787
 21
8.10191281
 31
0.0
  0
LINE
  5
D5
330
1F
100
AcDbEntity
  8
0
  6
SLD-SOLID
 62
     7
100
AcDbLine
 10
6.9792700787
 20
8.10191281
 30
0.0
 11
6.9496519685
 21
8.10191281
 31
0.0
  0
LINE
  5
D6
330
1F
100
AcDbEntity
  8
0
  6
SLD-SOLID
 62
     7
100
AcDbLine
 10
6.9496519685
 20
8.10191281
 30
0.0
 11
6.9496519685
 21
7.5979758021
 31
0.0
  0
LINE
  5
D7
330
1F
100
AcDbEntity
  8
0
  6
SLD-SOLID
 62
     7
100
AcDbLine
 10
6.9496519685
 20
7.5979758021
 30
0.0
 11
6.9792700787
 21
7.5979758021
 31
0.0
  0
LINE
  5
D8
330
1F
100
AcDbEntity
  8
0
  6
SLD-SOLID
 62
     7
100
AcDbLine
 10
6.2292700787
 20
7.5744443061
 30
0.0
 11
6.7802700787
 21
7.5744443061
 31
0.0
  0
LINE
  5
D9
330
1F
100
AcDbEntity
  8
0
  6
SLD-SOLID
 62
     7
100
AcDbLine
 10
6.7802700787
 20
7.5979758021
 30
0.0
 11
6.8098881889
 21
7.5979758021
 31
0.0
  0
LINE
  5
DA
330
1F
100
AcDbEntity
  8
0
  6
SLD-SOLID
 62
     7
100
AcDbLine
 10
6.8098881889
 20
7.5979758021
 30
0.0
 11
6.8098881889
 21
8.10191281
 31
0.0
  0
LINE
  5
DB
330
1F
100
AcDbEntity
  8
0
  6
SLD-SOLID
 62
     7
100
AcDbLine
 10
6.8098881889
 20
8.10191281
 30
0.0
 11
6.7802700787
 21
8.10191281
 31
0.0
  0
LINE
  5
DC
330
1F
100
AcDbEntity
  8
0
  6
SLD-SOLID
 62
     7
100
AcDbLine
 10
6.7802700787
 20
8.10191281
 30
0.0
 11
6.7802700787
 21
8.1254443061
 31
0.0
  0
LINE
  5
DD
330
1F
100
AcDbEntity
  8
0
  6
SLD-SOLID
 62
     7
100
AcDbLine
 10
6.7802700787
 20
8.1254443061
 30
0.0
 11
6.2292700787
 21
8.1254443061
 31
0.0
  0
LINE
  5
DE
330
1F
100
AcDbEntity
  8
0
  6
SLD-SOLID
 62
     7
100
AcDbLine
 10
6.2292700787
 20
8.1254443061
 30
0.0
 11
6.2292700787
 21
8.10191281
 31
0.0
  0
LINE
  5
DF
330
1F
100
AcDbEntity
  8
0
  6
SLD-SOLID
 62
     7
100
AcDbLine
 10
6.2292700787
 20
8.10191281
 30
0.0
 11
6.1996519685
 21
8.10191281
 31
0.0
  0
LINE
  5
E0
330
1F
100
AcDbEntity
  8
0
  6
SLD-SOLID
 62
     7
100
AcDbLine
 10
6.1996519685
 20
8.10191281
 30
0.0
 11
6.1996519685
 21
7.5979758021
 31
0.0
  0
LINE
  5
E1
330
1F
100
AcDbEntity
  8
0
  6
SLD-SOLID
 62
     7
100
AcDbLine
 10
6.1996519685
 20
7.5979758021
 30
0.0
 11
6.2292700787
 21
7.5979758021
 31
0.0
  0
LINE
  5
E2
330
1F
100
AcDbEntity
  8
0
  6
SLD-SOLID
 62
     7
100
AcDbLine
 10
8.4792700787
 20
7.6870348561
 30
0.0
 11
9.0302700787
 21
7.6870348561
 31
0.0
  0
LINE
  5
E3
330
1F
100
AcDbEntity
  8
0
  6
SLD-SOLID
 62
     7
100
AcDbLine
 10
9.0302700787
 20
7.7105663521
 30
0.0
 11
9.0598881889
 21
7.7105663521
 31
0.0
  0
LINE
  5
E4
330
1F
100
AcDbEntity
  8
0
  6
SLD-SOLID
 62
     7
100
AcDbLine
 10
9.0598881889
 20
7.7105663521
 30
0.0
 11
9.0598881889
 21
8.21450336
 31
0.0
  0
LINE
  5
E5
330
1F
100
AcDbEntity
  8
0
  6
SLD-SOLID
 62
     7
100
AcDbLine
 10
9.0598881889
 20
8.21450336
 30
0.0
 11
9.0302700787
 21
8.21450336
 31
0.0
  0
LINE
  5
E6
330
1F
100
AcDbEntity
  8
0
  6
SLD-SOLID
 62
     7
100
AcDbLine
 10
9.0302700787
 20
8.21450336
 30
0.0
 11
9.0302700787
 21
8.2380348561
 31
0.0
  0
LINE
  5
E7
330
1F
100
AcDbEntity
  8
0
  6
SLD-SOLID
 62
     7
100
AcDbLine
 10
9.0302700787
 20
8.2380348561
 30
0.0
 11
8.4792700787
 21
8.2380348561
 31
0.0
  0
LINE
  5
E8
330
1F
100
AcDbEntity
  8
0
  6
SLD-SOLID
 62
     7
100
AcDbLine
 10
8.4792700787
 20
8.2380348561
 30
0.0
 11
8.4792700787
 21
8.21450336
 31
0.0
  0
LINE
  5
E9
330
1F
100
AcDbEntity
  8
0
  6
SLD-SOLID
 62
     7
100
AcDbLine
 10
8.4792700787
 20
8.21450336
 30
0.0
 11
8.4496519685
 21
8.21450336
 31
0.0
  0
LINE
  5
EA
330
1F
100
AcDbEntity
  8
0
  6
SLD-SOLID
 62
     7
100
AcDbLine
 10
8.4496519685
 20
8.21450336
 30
0.0
 11
8.4496519685
 21
7.7105663521
 31
0.0
  0
LINE
  5
EB
330
1F
100
AcDbEntity
  8
0
  6
SLD-SOLID
 62
     7
100
AcDbLine
 10
8.4496519685
 20
7.7105663521
 30
0.0
 11
8.4792700787
 21
7.7105663521
 31
0.0
  0
LINE
  5
EC
330
1F
100
AcDbEntity
  8
0
  6
SLD-SOLID
 62
     7
100
AcDbLine
 10
8.4792700787
 20
6.9370348561
 30
0.0
 11
9.0302700787
 21
6.9370348561
 31
0.0
  0
LINE
  5
ED
330
1F
100
AcDbEntity
  8
0
  6
SLD-SOLID
 62
     7
100
AcDbLine
 10
9.0302700787
 20
6.9605663521
 30
0.0
 11
9.0598881889
 21
6.9605663521
 31
0.0
  0
LINE
  5
EE
330
1F
100
AcDbEntity
  8
0
  6
SLD-SOLID
 62
     7
100
AcDbLine
 10
9.0598881889
 20
6.9605663521
 30
0.0
 11
9.0598881889
 21
7.46450336
 31
0.0
  0
LINE
  5
EF
330
1F
100
AcDbEntity
  8
0
  6
SLD-SOLID
 62
     7
100
AcDbLine
 10
9.0598881889
 20
7.46450336
 30
0.0
 11
9.0302700787
 21
7.46450336
 31
0.0
  0
LINE
  5
F0
330
1F
100
AcDbEntity
  8
0
  6
SLD-SOLID
 62
     7
100
AcDbLine
 10
9.0302700787
 20
7.46450336
 30
0.0
 11
9.0302700787
 21
7.4880348561
 31
0.0
  0
LINE
  5
F1
330
1F
100
AcDbEntity
  8
0
  6
SLD-SOLID
 62
     7
100
AcDbLine
 10
9.0302700787
 20
7.4880348561
 30
0.0
 11
8.4792700787
 21
7.4880348561
 31
0.0
  0
LINE
  5
F2
330
1F
100
AcDbEntity
  8
0
  6
SLD-SOLID
 62
     7
100
AcDbLine
 10
8.4792700787
 20
7.4880348561
 30
0.0
 11
8.4792700787
 21
7.46450336
 31
0.0
  0
LINE
  5
F3
330
1F
100
AcDbEntity
  8
0
  6
SLD-SOLID
 62
     7
100
AcDbLine
 10
8.4792700787
 20
7.46450336
 30
0.0
 11
8.4496519685
 21
7.46450336
 31
0.0
  0
LINE
  5
F4
330
1F
100
AcDbEntity
  8
0
  6
SLD-SOLID
 62
     7
100
AcDbLine
 10
8.4496519685
 20
7.46450336
 30
0.0
 11
8.4496519685
 21
6.9605663521
 31
0.0
  0
LINE
  5
F5
330
1F
100
AcDbEntity
  8
0
  6
SLD-SOLID
 62
     7
100
AcDbLine
 10
8.4496519685
 20
6.9605663521
 30
0.0
 11
8.4792700787
 21
6.9605663521
 31
0.0
  0
LINE
  5
F6
330
1F
100
AcDbEntity
  8
0
  6
SLD-SOLID
 62
     7
100
AcDbLine
 10
8.4792700787
 20
6.1870348561
 30
0.0
 11
9.0302700787
 21
6.1870348561
 31
0.0
  0
LINE
  5
F7
330
1F
100
AcDbEntity
  8
0
  6
SLD-SOLID
 62
     7
100
AcDbLine
 10
9.0302700787
 20
6.2105663521
 30
0.0
 11
9.0598881889
 21
6.2105663521
 31
0.0
  0
LINE
  5
F8
330
1F
100
AcDbEntity
  8
0
  6
SLD-SOLID
 62
     7
100
AcDbLine
 10
9.0598881889
 20
6.2105663521
 30
0.0
 11
9.0598881889
 21
6.71450336
 31
0.0
  0
LINE
  5
F9
330
1F
100
AcDbEntity
  8
0
  6
SLD-SOLID
 62
     7
100
AcDbLine
 10
9.0598881889
 20
6.71450336
 30
0.0
 11
9.0302700787
 21
6.71450336
 31
0.0
  0
LINE
  5
FA
330
1F
100
AcDbEntity
  8
0
  6
SLD-SOLID
 62
     7
100
AcDbLine
 10
9.0302700787
 20
6.71450336
 30
0.0
 11
9.0302700787
 21
6.7380348561
 31
0.0
  0
LINE
  5
FB
330
1F
100
AcDbEntity
  8
0
  6
SLD-SOLID
 62
     7
100
AcDbLine
 10
9.0302700787
 20
6.7380348561
 30
0.0
 11
8.4792700787
 21
6.7380348561
 31
0.0
  0
LINE
  5
FC
330
1F
100
AcDbEntity
  8
0
  6
SLD-SOLID
 62
     7
100
AcDbLine
 10
8.4792700787
 20
6.7380348561
 30
0.0
 11
8.4792700787
 21
6.71450336
 31
0.0
  0
LINE
  5
FD
330
1F
100
AcDbEntity
  8
0
  6
SLD-SOLID
 62
     7
100
AcDbLine
 10
8.4792700787
 20
6.71450336
 30
0.0
 11
8.4496519685
 21
6.71450336
 31
0.0
  0
LINE
  5
FE
330
1F
100
AcDbEntity
  8
0
  6
SLD-SOLID
 62
     7
100
AcDbLine
 10
8.4496519685
 20
6.71450336
 30
0.0
 11
8.4496519685
 21
6.2105663521
 31
0.0
  0
LINE
  5
FF
330
1F
100
AcDbEntity
  8
0
  6
SLD-SOLID
 62
     7
100
AcDbLine
 10
8.4496519685
 20
6.2105663521
 30
0.0
 11
8.4792700787
 21
6.2105663521
 31
0.0
  0
LINE
  5
100
330
1F
100
AcDbEntity
  8
0
  6
SLD-SOLID
 62
     7
100
AcDbLine
 10
8.4792700787
 20
5.4370348561
 30
0.0
 11
9.0302700787
 21
5.4370348561
 31
0.0
  0
LINE
  5
101
330
1F
100
AcDbEntity
  8
0
  6
SLD-SOLID
 62
     7
100
AcDbLine
 10
9.0302700787
 20
5.4605663521
 30
0.0
 11
9.0598881889
 21
5.4605663521
 31
0.0
  0
LINE
  5
102
330
1F
100
AcDbEntity
  8
0
  6
SLD-SOLID
 62
     7
100
AcDbLine
 10
9.0598881889
 20
5.4605663521
 30
0.0
 11
9.0598881889
 21
5.96450336
 31
0.0
  0
LINE
  5
103
330
1F
100
AcDbEntity
  8
0
  6
SLD-SOLID
 62
     7
100
AcDbLine
 10
9.0598881889
 20
5.96450336
 30
0.0
 11
9.0302700787
 21
5.96450336
 31
0.0
  0
LINE
  5
104
330
1F
100
AcDbEntity
  8
0
  6
SLD-SOLID
 62
     7
100
AcDbLine
 10
9.0302700787
 20
5.96450336
 30
0.0
 11
9.0302700787
 21
5.9880348561
 31
0.0
  0
LINE
  5
105
330
1F
100
AcDbEntity
  8
0
  6
SLD-SOLID
 62
     7
100
AcDbLine
 10
9.0302700787
 20
5.9880348561
 30
0.0
 11
8.4792700787
 21
5.9880348561
 31
0.0
  0
LINE
  5
106
330
1F
100
AcDbEntity
  8
0
  6
SLD-SOLID
 62
     7
100
AcDbLine
 10
8.4792700787
 20
5.9880348561
 30
0.0
 11
8.4792700787
 21
5.96450336
 31
0.0
  0
LINE
  5
107
330
1F
100
AcDbEntity
  8
0
  6
SLD-SOLID
 62
     7
100
AcDbLine
 10
8.4792700787
 20
5.96450336
 30
0.0
 11
8.4496519685
 21
5.96450336
 31
0.0
  0
LINE
  5
108
330
1F
100
AcDbEntity
  8
0
  6
SLD-SOLID
 62
     7
100
AcDbLine
 10
8.4496519685
 20
5.96450336
 30
0.0
 11
8.4496519685
 21
5.4605663521
 31
0.0
  0
LINE
  5
109
330
1F
100
AcDbEntity
  8
0
  6
SLD-SOLID
 62
     7
100
AcDbLine
 10
8.4496519685
 20
5.4605663521
 30
0.0
 11
8.4792700787
 21
5.4605663521
 31
0.0
  0
LINE
  5
10A
330
1F
100
AcDbEntity
  8
0
  6
SLD-SOLID
 62
     7
100
AcDbLine
 10
8.4792700787
 20
4.6870348561
 30
0.0
 11
9.0302700787
 21
4.6870348561
 31
0.0
  0
LINE
  5
10B
330
1F
100
AcDbEntity
  8
0
  6
SLD-SOLID
 62
     7
100
AcDbLine
 10
9.0302700787
 20
4.7105663521
 30
0.0
 11
9.0598881889
 21
4.7105663521
 31
0.0
  0
LINE
  5
10C
330
1F
100
AcDbEntity
  8
0
  6
SLD-SOLID
 62
     7
100
AcDbLine
 10
9.0598881889
 20
4.7105663521
 30
0.0
 11
9.0598881889
 21
5.21450336
 31
0.0
  0
LINE
  5
10D
330
1F
100
AcDbEntity
  8
0
  6
SLD-SOLID
 62
     7
100
AcDbLine
 10
9.0598881889
 20
5.21450336
 30
0.0
 11
9.0302700787
 21
5.21450336
 31
0.0
  0
LINE
  5
10E
330
1F
100
AcDbEntity
  8
0
  6
SLD-SOLID
 62
     7
100
AcDbLine
 10
9.0302700787
 20
5.21450336
 30
0.0
 11
9.0302700787
 21
5.2380348561
 31
0.0
  0
LINE
  5
10F
330
1F
100
AcDbEntity
  8
0
  6
SLD-SOLID
 62
     7
100
AcDbLine
 10
9.0302700787
 20
5.2380348561
 30
0.0
 11
8.4792700787
 21
5.2380348561
 31
0.0
  0
LINE
  5
110
330
1F
100
AcDbEntity
  8
0
  6
SLD-SOLID
 62
     7
100
AcDbLine
 10
8.4792700787
 20
5.2380348561
 30
0.0
 11
8.4792700787
 21
5.21450336
 31
0.0
  0
LINE
  5
111
330
1F
100
AcDbEntity
  8
0
  6
SLD-SOLID
 62
     7
100
AcDbLine
 10
8.4792700787
 20
5.21450336
 30
0.0
 11
8.4496519685
 21
5.21450336
 31
0.0
  0
LINE
  5
112
330
1F
100
AcDbEntity
  8
0
  6
SLD-SOLID
 62
     7
100
AcDbLine
 10
8.4496519685
 20
5.21450336
 30
0.0
 11
8.4496519685
 21
4.7105663521
 31
0.0
  0
LINE
  5
113
330
1F
100
AcDbEntity
  8
0
  6
SLD-SOLID
 62
     7
100
AcDbLine
 10
8.4496519685
 20
4.7105663521
 30
0.0
 11
8.4792700787
 21
4.7105663521
 31
0.0
  0
LINE
  5
114
330
1F
100
AcDbEntity
  8
0
  6
SLD-SOLID
 62
     7
100
AcDbLine
 10
9.2292700787
 20
4.6245348561
 30
0.0
 11
9.7802700787
 21
4.6245348561
 31
0.0
  0
LINE
  5
115
330
1F
100
AcDbEntity
  8
0
  6
SLD-SOLID
 62
     7
100
AcDbLine
 10
9.7802700787
 20
4.6480663521
 30
0.0
 11
9.8098881889
 21
4.6480663521
 31
0.0
  0
LINE
  5
116
330
1F
100
AcDbEntity
  8
0
  6
SLD-SOLID
 62
     7
100
AcDbLine
 10
9.8098881889
 20
4.6480663521
 30
0.0
 11
9.8098881889
 21
5.15200336
 31
0.0
  0
LINE
  5
117
330
1F
100
AcDbEntity
  8
0
  6
SLD-SOLID
 62
     7
100
AcDbLine
 10
9.8098881889
 20
5.15200336
 30
0.0
 11
9.7802700787
 21
5.15200336
 31
0.0
  0
LINE
  5
118
330
1F
100
AcDbEntity
  8
0
  6
SLD-SOLID
 62
     7
100
AcDbLine
 10
9.7802700787
 20
5.15200336
 30
0.0
 11
9.7802700787
 21
5.1755348561
 31
0.0
  0
LINE
  5
119
330
1F
100
AcDbEntity
  8
0
  6
SLD-SOLID
 62
     7
100
AcDbLine
 10
9.7802700787
 20
5.1755348561
 30
0.0
 11
9.2292700787
 21
5.1755348561
 31
0.0
  0
LINE
  5
11A
330
1F
100
AcDbEntity
  8
0
  6
SLD-SOLID
 62
     7
100
AcDbLine
 10
9.2292700787
 20
5.1755348561
 30
0.0
 11
9.2292700787
 21
5.15200336
 31
0.0
  0
LINE
  5
11B
330
1F
100
AcDbEntity
  8
0
  6
SLD-SOLID
 62
     7
100
AcDbLine
 10
9.2292700787
 20
5.15200336
 30
0.0
 11
9.1996519685
 21
5.15200336
 31
0.0
  0
LINE
  5
11C
330
1F
100
AcDbEntity
  8
0
  6
SLD-SOLID
 62
     7
100
AcDbLine
 10
9.1996519685
 20
5.15200336
 30
0.0
 11
9.1996519685
 21
4.6480663521
 31
0.0
  0
LINE
  5
11D
330
1F
100
AcDbEntity
  8
0
  6
SLD-SOLID
 62
     7
100
AcDbLine
 10
9.1996519685
 20
4.6480663521
 30
0.0
 11
9.2292700787
 21
4.6480663521
 31
0.0
  0
LINE
  5
11E
330
1F
100
AcDbEntity
  8
0
  6
SLD-SOLID
 62
     7
100
AcDbLine
 10
9.2292700787
 20
5.3745348561
 30
0.0
 11
9.7802700787
 21
5.3745348561
 31
0.0
  0
LINE
  5
11F
330
1F
100
AcDbEntity
  8
0
  6
SLD-SOLID
 62
     7
100
AcDbLine
 10
9.7802700787
 20
5.3980663521
 30
0.0
 11
9.8098881889
 21
5.3980663521
 31
0.0
  0
LINE
  5
120
330
1F
100
AcDbEntity
  8
0
  6
SLD-SOLID
 62
     7
100
AcDbLine
 10
9.8098881889
 20
5.3980663521
 30
0.0
 11
9.8098881889
 21
5.90200336
 31
0.0
  0
LINE
  5
121
330
1F
100
AcDbEntity
  8
0
  6
SLD-SOLID
 62
     7
100
AcDbLine
 10
9.8098881889
 20
5.90200336
 30
0.0
 11
9.7802700787
 21
5.90200336
 31
0.0
  0
LINE
  5
122
330
1F
100
AcDbEntity
  8
0
  6
SLD-SOLID
 62
     7
100
AcDbLine
 10
9.7802700787
 20
5.90200336
 30
0.0
 11
9.7802700787
 21
5.9255348561
 31
0.0
  0
LINE
  5
123
330
1F
100
AcDbEntity
  8
0
  6
SLD-SOLID
 62
     7
100
AcDbLine
 10
9.7802700787
 20
5.9255348561
 30
0.0
 11
9.2292700787
 21
5.9255348561
 31
0.0
  0
LINE
  5
124
330
1F
100
AcDbEntity
  8
0
  6
SLD-SOLID
 62
     7
100
AcDbLine
 10
9.2292700787
 20
5.9255348561
 30
0.0
 11
9.2292700787
 21
5.90200336
 31
0.0
  0
LINE
  5
125
330
1F
100
AcDbEntity
  8
0
  6
SLD-SOLID
 62
     7
100
AcDbLine
 10
9.2292700787
 20
5.90200336
 30
0.0
 11
9.1996519685
 21
5.90200336
 31
0.0
  0
LINE
  5
126
330
1F
100
AcDbEntity
  8
0
  6
SLD-SOLID
 62
     7
100
AcDbLine
 10
9.1996519685
 20
5.90200336
 30
0.0
 11
9.1996519685
 21
5.3980663521
 31
0.0
  0
LINE
  5
127
330
1F
100
AcDbEntity
  8
0
  6
SLD-SOLID
 62
     7
100
AcDbLine
 10
9.1996519685
 20
5.3980663521
 30
0.0
 11
9.2292700787
 21
5.3980663521
 31
0.0
  0
LINE
  5
128
330
1F
100
AcDbEntity
  8
0
  6
SLD-SOLID
 62
     7
100
AcDbLine
 10
9.2292700787
 20
6.1245348561
 30
0.0
 11
9.7802700787
 21
6.1245348561
 31
0.0
  0
LINE
  5
129
330
1F
100
AcDbEntity
  8
0
  6
SLD-SOLID
 62
     7
100
AcDbLine
 10
9.7802700787
 20
6.1480663521
 30
0.0
 11
9.8098881889
 21
6.1480663521
 31
0.0
  0
LINE
  5
12A
330
1F
100
AcDbEntity
  8
0
  6
SLD-SOLID
 62
     7
100
AcDbLine
 10
9.8098881889
 20
6.1480663521
 30
0.0
 11
9.8098881889
 21
6.65200336
 31
0.0
  0
LINE
  5
12B
330
1F
100
AcDbEntity
  8
0
  6
SLD-SOLID
 62
     7
100
AcDbLine
 10
9.8098881889
 20
6.65200336
 30
0.0
 11
9.7802700787
 21
6.65200336
 31
0.0
  0
LINE
  5
12C
330
1F
100
AcDbEntity
  8
0
  6
SLD-SOLID
 62
     7
100
AcDbLine
 10
9.7802700787
 20
6.65200336
 30
0.0
 11
9.7802700787
 21
6.6755348561
 31
0.0
  0
LINE
  5
12D
330
1F
100
AcDbEntity
  8
0
  6
SLD-SOLID
 62
     7
100
AcDbLine
 10
9.7802700787
 20
6.6755348561
 30
0.0
 11
9.2292700787
 21
6.6755348561
 31
0.0
  0
LINE
  5
12E
330
1F
100
AcDbEntity
  8
0
  6
SLD-SOLID
 62
     7
100
AcDbLine
 10
9.2292700787
 20
6.6755348561
 30
0.0
 11
9.2292700787
 21
6.65200336
 31
0.0
  0
LINE
  5
12F
330
1F
100
AcDbEntity
  8
0
  6
SLD-SOLID
 62
     7
100
AcDbLine
 10
9.2292700787
 20
6.65200336
 30
0.0
 11
9.1996519685
 21
6.65200336
 31
0.0
  0
LINE
  5
130
330
1F
100
AcDbEntity
  8
0
  6
SLD-SOLID
 62
     7
100
AcDbLine
 10
9.1996519685
 20
6.65200336
 30
0.0
 11
9.1996519685
 21
6.1480663521
 31
0.0
  0
LINE
  5
131
330
1F
100
AcDbEntity
  8
0
  6
SLD-SOLID
 62
     7
100
AcDbLine
 10
9.1996519685
 20
6.1480663521
 30
0.0
 11
9.2292700787
 21
6.1480663521
 31
0.0
  0
LINE
  5
132
330
1F
100
AcDbEntity
  8
0
  6
SLD-SOLID
 62
     7
100
AcDbLine
 10
9.2292700787
 20
6.8745348561
 30
0.0
 11
9.7802700787
 21
6.8745348561
 31
0.0
  0
LINE
  5
133
330
1F
100
AcDbEntity
  8
0
  6
SLD-SOLID
 62
     7
100
AcDbLine
 10
9.7802700787
 20
6.8980663521
 30
0.0
 11
9.8098881889
 21
6.8980663521
 31
0.0
  0
LINE
  5
134
330
1F
100
AcDbEntity
  8
0
  6
SLD-SOLID
 62
     7
100
AcDbLine
 10
9.8098881889
 20
6.8980663521
 30
0.0
 11
9.8098881889
 21
7.40200336
 31
0.0
  0
LINE
  5
135
330
1F
100
AcDbEntity
  8
0
  6
SLD-SOLID
 62
     7
100
AcDbLine
 10
9.8098881889
 20
7.40200336
 30
0.0
 11
9.7802700787
 21
7.40200336
 31
0.0
  0
LINE
  5
136
330
1F
100
AcDbEntity
  8
0
  6
SLD-SOLID
 62
     7
100
AcDbLine
 10
9.7802700787
 20
7.40200336
 30
0.0
 11
9.7802700787
 21
7.4255348561
 31
0.0
  0
LINE
  5
137
330
1F
100
AcDbEntity
  8
0
  6
SLD-SOLID
 62
     7
100
AcDbLine
 10
9.7802700787
 20
7.4255348561
 30
0.0
 11
9.2292700787
 21
7.4255348561
 31
0.0
  0
LINE
  5
138
330
1F
100
AcDbEntity
  8
0
  6
SLD-SOLID
 62
     7
100
AcDbLine
 10
9.2292700787
 20
7.4255348561
 30
0.0
 11
9.2292700787
 21
7.40200336
 31
0.0
  0
LINE
  5
139
330
1F
100
AcDbEntity
  8
0
  6
SLD-SOLID
 62
     7
100
AcDbLine
 10
9.2292700787
 20
7.40200336
 30
0.0
 11
9.1996519685
 21
7.40200336
 31
0.0
  0
LINE
  5
13A
330
1F
100
AcDbEntity
  8
0
  6
SLD-SOLID
 62
     7
100
AcDbLine
 10
9.1996519685
 20
7.40200336
 30
0.0
 11
9.1996519685
 21
6.8980663521
 31
0.0
  0
LINE
  5
13B
330
1F
100
AcDbEntity
  8
0
  6
SLD-SOLID
 62
     7
100
AcDbLine
 10
9.1996519685
 20
6.8980663521
 30
0.0
 11
9.2292700787
 21
6.8980663521
 31
0.0
  0
LINE
  5
13C
330
1F
100
AcDbEntity
  8
0
  6
SLD-SOLID
 62
     7
100
AcDbLine
 10
9.2292700787
 20
7.6245348561
 30
0.0
 11
9.7802700787
 21
7.6245348561
 31
0.0
  0
LINE
  5
13D
330
1F
100
AcDbEntity
  8
0
  6
SLD-SOLID
 62
     7
100
AcDbLine
 10
9.7802700787
 20
7.6480663521
 30
0.0
 11
9.8098881889
 21
7.6480663521
 31
0.0
  0
LINE
  5
13E
330
1F
100
AcDbEntity
  8
0
  6
SLD-SOLID
 62
     7
100
AcDbLine
 10
9.8098881889
 20
7.6480663521
 30
0.0
 11
9.8098881889
 21
8.15200336
 31
0.0
  0
LINE
  5
13F
330
1F
100
AcDbEntity
  8
0
  6
SLD-SOLID
 62
     7
100
AcDbLine
 10
9.8098881889
 20
8.15200336
 30
0.0
 11
9.7802700787
 21
8.15200336
 31
0.0
  0
LINE
  5
140
330
1F
100
AcDbEntity
  8
0
  6
SLD-SOLID
 62
     7
100
AcDbLine
 10
9.7802700787
 20
8.15200336
 30
0.0
 11
9.7802700787
 21
8.1755348561
 31
0.0
  0
LINE
  5
141
330
1F
100
AcDbEntity
  8
0
  6
SLD-SOLID
 62
     7
100
AcDbLine
 10
9.7802700787
 20
8.1755348561
 30
0.0
 11
9.2292700787
 21
8.1755348561
 31
0.0
  0
LINE
  5
142
330
1F
100
AcDbEntity
  8
0
  6
SLD-SOLID
 62
     7
100
AcDbLine
 10
9.2292700787
 20
8.1755348561
 30
0.0
 11
9.2292700787
 21
8.15200336
 31
0.0
  0
LINE
  5
143
330
1F
100
AcDbEntity
  8
0
  6
SLD-SOLID
 62
     7
100
AcDbLine
 10
9.2292700787
 20
8.15200336
 30
0.0
 11
9.1996519685
 21
8.15200336
 31
0.0
  0
LINE
  5
144
330
1F
100
AcDbEntity
  8
0
  6
SLD-SOLID
 62
     7
100
AcDbLine
 10
9.1996519685
 20
8.15200336
 30
0.0
 11
9.1996519685
 21
7.6480663521
 31
0.0
  0
LINE
  5
145
330
1F
100
AcDbEntity
  8
0
  6
SLD-SOLID
 62
     7
100
AcDbLine
 10
9.1996519685
 20
7.6480663521
 30
0.0
 11
9.2292700787
 21
7.6480663521
 31
0.0
  0
LINE
  5
146
330
1F
100
AcDbEntity
  8
0
  6
SLD-SOLID
 62
     7
100
AcDbLine
 10
9.9792700787
 20
7.4995348561
 30
0.0
 11
10.5302700787
 21
7.4995348561
 31
0.0
  0
LINE
  5
147
330
1F
100
AcDbEntity
  8
0
  6
SLD-SOLID
 62
     7
100
AcDbLine
 10
10.5302700787
 20
7.5230663521
 30
0.0
 11
10.5598881889
 21
7.5230663521
 31
0.0
  0
LINE
  5
148
330
1F
100
AcDbEntity
  8
0
  6
SLD-SOLID
 62
     7
100
AcDbLine
 10
10.5598881889
 20
7.5230663521
 30
0.0
 11
10.5598881889
 21
8.02700336
 31
0.0
  0
LINE
  5
149
330
1F
100
AcDbEntity
  8
0
  6
SLD-SOLID
 62
     7
100
AcDbLine
 10
10.5598881889
 20
8.02700336
 30
0.0
 11
10.5302700787
 21
8.02700336
 31
0.0
  0
LINE
  5
14A
330
1F
100
AcDbEntity
  8
0
  6
SLD-SOLID
 62
     7
100
AcDbLine
 10
10.5302700787
 20
8.02700336
 30
0.0
 11
10.5302700787
 21
8.0505348561
 31
0.0
  0
LINE
  5
14B
330
1F
100
AcDbEntity
  8
0
  6
SLD-SOLID
 62
     7
100
AcDbLine
 10
10.5302700787
 20
8.0505348561
 30
0.0
 11
9.9792700787
 21
8.0505348561
 31
0.0
  0
LINE
  5
14C
330
1F
100
AcDbEntity
  8
0
  6
SLD-SOLID
 62
     7
100
AcDbLine
 10
9.9792700787
 20
8.0505348561
 30
0.0
 11
9.9792700787
 21
8.02700336
 31
0.0
  0
LINE
  5
14D
330
1F
100
AcDbEntity
  8
0
  6
SLD-SOLID
 62
     7
100
AcDbLine
 10
9.9792700787
 20
8.02700336
 30
0.0
 11
9.9496519685
 21
8.02700336
 31
0.0
  0
LINE
  5
14E
330
1F
100
AcDbEntity
  8
0
  6
SLD-SOLID
 62
     7
100
AcDbLine
 10
9.9496519685
 20
8.02700336
 30
0.0
 11
9.9496519685
 21
7.5230663521
 31
0.0
  0
LINE
  5
14F
330
1F
100
AcDbEntity
  8
0
  6
SLD-SOLID
 62
     7
100
AcDbLine
 10
9.9496519685
 20
7.5230663521
 30
0.0
 11
9.9792700787
 21
7.5230663521
 31
0.0
  0
LINE
  5
150
330
1F
100
AcDbEntity
  8
0
  6
SLD-SOLID
 62
     7
100
AcDbLine
 10
9.9792700787
 20
6.7495348561
 30
0.0
 11
10.5302700787
 21
6.7495348561
 31
0.0
  0
LINE
  5
151
330
1F
100
AcDbEntity
  8
0
  6
SLD-SOLID
 62
     7
100
AcDbLine
 10
10.5302700787
 20
6.7730663521
 30
0.0
 11
10.5598881889
 21
6.7730663521
 31
0.0
  0
LINE
  5
152
330
1F
100
AcDbEntity
  8
0
  6
SLD-SOLID
 62
     7
100
AcDbLine
 10
10.5598881889
 20
6.7730663521
 30
0.0
 11
10.5598881889
 21
7.27700336
 31
0.0
  0
LINE
  5
153
330
1F
100
AcDbEntity
  8
0
  6
SLD-SOLID
 62
     7
100
AcDbLine
 10
10.5598881889
 20
7.27700336
 30
0.0
 11
10.5302700787
 21
7.27700336
 31
0.0
  0
LINE
  5
154
330
1F
100
AcDbEntity
  8
0
  6
SLD-SOLID
 62
     7
100
AcDbLine
 10
10.5302700787
 20
7.27700336
 30
0.0
 11
10.5302700787
 21
7.3005348561
 31
0.0
  0
LINE
  5
155
330
1F
100
AcDbEntity
  8
0
  6
SLD-SOLID
 62
     7
100
AcDbLine
 10
10.5302700787
 20
7.3005348561
 30
0.0
 11
9.9792700787
 21
7.3005348561
 31
0.0
  0
LINE
  5
156
330
1F
100
AcDbEntity
  8
0
  6
SLD-SOLID
 62
     7
100
AcDbLine
 10
9.9792700787
 20
7.3005348561
 30
0.0
 11
9.9792700787
 21
7.27700336
 31
0.0
  0
LINE
  5
157
330
1F
100
AcDbEntity
  8
0
  6
SLD-SOLID
 62
     7
100
AcDbLine
 10
9.9792700787
 20
7.27700336
 30
0.0
 11
9.9496519685
 21
7.27700336
 31
0.0
  0
LINE
  5
158
330
1F
100
AcDbEntity
  8
0
  6
SLD-SOLID
 62
     7
100
AcDbLine
 10
9.9496519685
 20
7.27700336
 30
0.0
 11
9.9496519685
 21
6.7730663521
 31
0.0
  0
LINE
  5
159
330
1F
100
AcDbEntity
  8
0
  6
SLD-SOLID
 62
     7
100
AcDbLine
 10
9.9496519685
 20
6.7730663521
 30
0.0
 11
9.9792700787
 21
6.7730663521
 31
0.0
  0
LINE
  5
15A
330
1F
100
AcDbEntity
  8
0
  6
SLD-SOLID
 62
     7
100
AcDbLine
 10
9.9792700787
 20
5.9995348561
 30
0.0
 11
10.5302700787
 21
5.9995348561
 31
0.0
  0
LINE
  5
15B
330
1F
100
AcDbEntity
  8
0
  6
SLD-SOLID
 62
     7
100
AcDbLine
 10
10.5302700787
 20
6.0230663521
 30
0.0
 11
10.5598881889
 21
6.0230663521
 31
0.0
  0
LINE
  5
15C
330
1F
100
AcDbEntity
  8
0
  6
SLD-SOLID
 62
     7
100
AcDbLine
 10
10.5598881889
 20
6.0230663521
 30
0.0
 11
10.5598881889
 21
6.52700336
 31
0.0
  0
LINE
  5
15D
330
1F
100
AcDbEntity
  8
0
  6
SLD-SOLID
 62
     7
100
AcDbLine
 10
10.5598881889
 20
6.52700336
 30
0.0
 11
10.5302700787
 21
6.52700336
 31
0.0
  0
LINE
  5
15E
330
1F
100
AcDbEntity
  8
0
  6
SLD-SOLID
 62
     7
100
AcDbLine
 10
10.5302700787
 20
6.52700336
 30
0.0
 11
10.5302700787
 21
6.5505348561
 31
0.0
  0
LINE
  5
15F
330
1F
100
AcDbEntity
  8
0
  6
SLD-SOLID
 62
     7
100
AcDbLine
 10
10.5302700787
 20
6.5505348561
 30
0.0
 11
9.9792700787
 21
6.5505348561
 31
0.0
  0
LINE
  5
160
330
1F
100
AcDbEntity
  8
0
  6
SLD-SOLID
 62
     7
100
AcDbLine
 10
9.9792700787
 20
6.5505348561
 30
0.0
 11
9.9792700787
 21
6.52700336
 31
0.0
  0
LINE
  5
161
330
1F
100
AcDbEntity
  8
0
  6
SLD-SOLID
 62
     7
100
AcDbLine
 10
9.9792700787
 20
6.52700336
 30
0.0
 11
9.9496519685
 21
6.52700336
 31
0.0
  0
LINE
  5
162
330
1F
100
AcDbEntity
  8
0
  6
SLD-SOLID
 62
     7
100
AcDbLine
 10
9.9496519685
 20
6.52700336
 30
0.0
 11
9.9496519685
 21
6.0230663521
 31
0.0
  0
LINE
  5
163
330
1F
100
AcDbEntity
  8
0
  6
SLD-SOLID
 62
     7
100
AcDbLine
 10
9.9496519685
 20
6.0230663521
 30
0.0
 11
9.9792700787
 21
6.0230663521
 31
0.0
  0
LINE
  5
164
330
1F
100
AcDbEntity
  8
0
  6
SLD-SOLID
 62
     7
100
AcDbLine
 10
9.9792700787
 20
5.2495348561
 30
0.0
 11
10.5302700787
 21
5.2495348561
 31
0.0
  0
LINE
  5
165
330
1F
100
AcDbEntity
  8
0
  6
SLD-SOLID
 62
     7
100
AcDbLine
 10
10.5302700787
 20
5.2730663521
 30
0.0
 11
10.5598881889
 21
5.2730663521
 31
0.0
  0
LINE
  5
166
330
1F
100
AcDbEntity
  8
0
  6
SLD-SOLID
 62
     7
100
AcDbLine
 10
10.5598881889
 20
5.2730663521
 30
0.0
 11
10.5598881889
 21
5.77700336
 31
0.0
  0
LINE
  5
167
330
1F
100
AcDbEntity
  8
0
  6
SLD-SOLID
 62
     7
100
AcDbLine
 10
10.5598881889
 20
5.77700336
 30
0.0
 11
10.5302700787
 21
5.77700336
 31
0.0
  0
LINE
  5
168
330
1F
100
AcDbEntity
  8
0
  6
SLD-SOLID
 62
     7
100
AcDbLine
 10
10.5302700787
 20
5.77700336
 30
0.0
 11
10.5302700787
 21
5.8005348561
 31
0.0
  0
LINE
  5
169
330
1F
100
AcDbEntity
  8
0
  6
SLD-SOLID
 62
     7
100
AcDbLine
 10
10.5302700787
 20
5.8005348561
 30
0.0
 11
9.9792700787
 21
5.8005348561
 31
0.0
  0
LINE
  5
16A
330
1F
100
AcDbEntity
  8
0
  6
SLD-SOLID
 62
     7
100
AcDbLine
 10
9.9792700787
 20
5.8005348561
 30
0.0
 11
9.9792700787
 21
5.77700336
 31
0.0
  0
LINE
  5
16B
330
1F
100
AcDbEntity
  8
0
  6
SLD-SOLID
 62
     7
100
AcDbLine
 10
9.9792700787
 20
5.77700336
 30
0.0
 11
9.9496519685
 21
5.77700336
 31
0.0
  0
LINE
  5
16C
330
1F
100
AcDbEntity
  8
0
  6
SLD-SOLID
 62
     7
100
AcDbLine
 10
9.9496519685
 20
5.77700336
 30
0.0
 11
9.9496519685
 21
5.2730663521
 31
0.0
  0
LINE
  5
16D
330
1F
100
AcDbEntity
  8
0
  6
SLD-SOLID
 62
     7
100
AcDbLine
 10
9.9496519685
 20
5.2730663521
 30
0.0
 11
9.9792700787
 21
5.2730663521
 31
0.0
  0
LINE
  5
16E
330
1F
100
AcDbEntity
  8
0
  6
SLD-SOLID
 62
     7
100
AcDbLine
 10
9.9792700787
 20
4.4995348561
 30
0.0
 11
10.5302700787
 21
4.4995348561
 31
0.0
  0
LINE
  5
16F
330
1F
100
AcDbEntity
  8
0
  6
SLD-SOLID
 62
     7
100
AcDbLine
 10
10.5302700787
 20
4.5230663521
 30
0.0
 11
10.5598881889
 21
4.5230663521
 31
0.0
  0
LINE
  5
170
330
1F
100
AcDbEntity
  8
0
  6
SLD-SOLID
 62
     7
100
AcDbLine
 10
10.5598881889
 20
4.5230663521
 30
0.0
 11
10.5598881889
 21
5.02700336
 31
0.0
  0
LINE
  5
171
330
1F
100
AcDbEntity
  8
0
  6
SLD-SOLID
 62
     7
100
AcDbLine
 10
10.5598881889
 20
5.02700336
 30
0.0
 11
10.5302700787
 21
5.02700336
 31
0.0
  0
LINE
  5
172
330
1F
100
AcDbEntity
  8
0
  6
SLD-SOLID
 62
     7
100
AcDbLine
 10
10.5302700787
 20
5.02700336
 30
0.0
 11
10.5302700787
 21
5.0505348561
 31
0.0
  0
LINE
  5
173
330
1F
100
AcDbEntity
  8
0
  6
SLD-SOLID
 62
     7
100
AcDbLine
 10
10.5302700787
 20
5.0505348561
 30
0.0
 11
9.9792700787
 21
5.0505348561
 31
0.0
  0
LINE
  5
174
330
1F
100
AcDbEntity
  8
0
  6
SLD-SOLID
 62
     7
100
AcDbLine
 10
9.9792700787
 20
5.0505348561
 30
0.0
 11
9.9792700787
 21
5.02700336
 31
0.0
  0
LINE
  5
175
330
1F
100
AcDbEntity
  8
0
  6
SLD-SOLID
 62
     7
100
AcDbLine
 10
9.9792700787
 20
5.02700336
 30
0.0
 11
9.9496519685
 21
5.02700336
 31
0.0
  0
LINE
  5
176
330
1F
100
AcDbEntity
  8
0
  6
SLD-SOLID
 62
     7
100
AcDbLine
 10
9.9496519685
 20
5.02700336
 30
0.0
 11
9.9496519685
 21
4.5230663521
 31
0.0
  0
LINE
  5
177
330
1F
100
AcDbEntity
  8
0
  6
SLD-SOLID
 62
     7
100
AcDbLine
 10
9.9496519685
 20
4.5230663521
 30
0.0
 11
9.9792700787
 21
4.5230663521
 31
0.0
  0
LINE
  5
178
330
1F
100
AcDbEntity
  8
0
  6
SLD-SOLID
 62
     7
100
AcDbLine
 10
10.7292700787
 20
4.4995348561
 30
0.0
 11
11.2802700787
 21
4.4995348561
 31
0.0
  0
LINE
  5
179
330
1F
100
AcDbEntity
  8
0
  6
SLD-SOLID
 62
     7
100
AcDbLine
 10
11.2802700787
 20
4.5230663521
 30
0.0
 11
11.3098881889
 21
4.5230663521
 31
0.0
  0
LINE
  5
17A
330
1F
100
AcDbEntity
  8
0
  6
SLD-SOLID
 62
     7
100
AcDbLine
 10
11.3098881889
 20
4.5230663521
 30
0.0
 11
11.3098881889
 21
5.02700336
 31
0.0
  0
LINE
  5
17B
330
1F
100
AcDbEntity
  8
0
  6
SLD-SOLID
 62
     7
100
AcDbLine
 10
11.3098881889
 20
5.02700336
 30
0.0
 11
11.2802700787
 21
5.02700336
 31
0.0
  0
LINE
  5
17C
330
1F
100
AcDbEntity
  8
0
  6
SLD-SOLID
 62
     7
100
AcDbLine
 10
11.2802700787
 20
5.02700336
 30
0.0
 11
11.2802700787
 21
5.0505348561
 31
0.0
  0
LINE
  5
17D
330
1F
100
AcDbEntity
  8
0
  6
SLD-SOLID
 62
     7
100
AcDbLine
 10
11.2802700787
 20
5.0505348561
 30
0.0
 11
10.7292700787
 21
5.0505348561
 31
0.0
  0
LINE
  5
17E
330
1F
100
AcDbEntity
  8
0
  6
SLD-SOLID
 62
     7
100
AcDbLine
 10
10.7292700787
 20
5.0505348561
 30
0.0
 11
10.7292700787
 21
5.02700336
 31
0.0
  0
LINE
  5
17F
330
1F
100
AcDbEntity
  8
0
  6
SLD-SOLID
 62
     7
100
AcDbLine
 10
10.7292700787
 20
5.02700336
 30
0.0
 11
10.6996519685
 21
5.02700336
 31
0.0
  0
LINE
  5
180
330
1F
100
AcDbEntity
  8
0
  6
SLD-SOLID
 62
     7
100
AcDbLine
 10
10.6996519685
 20
5.02700336
 30
0.0
 11
10.6996519685
 21
4.5230663521
 31
0.0
  0
LINE
  5
181
330
1F
100
AcDbEntity
  8
0
  6
SLD-SOLID
 62
     7
100
AcDbLine
 10
10.6996519685
 20
4.5230663521
 30
0.0
 11
10.7292700787
 21
4.5230663521
 31
0.0
  0
LINE
  5
182
330
1F
100
AcDbEntity
  8
0
  6
SLD-SOLID
 62
     7
100
AcDbLine
 10
10.9167700787
 20
5.2495348561
 30
0.0
 11
11.4677700787
 21
5.2495348561
 31
0.0
  0
LINE
  5
183
330
1F
100
AcDbEntity
  8
0
  6
SLD-SOLID
 62
     7
100
AcDbLine
 10
11.4677700787
 20
5.2730663521
 30
0.0
 11
11.4973881889
 21
5.2730663521
 31
0.0
  0
LINE
  5
184
330
1F
100
AcDbEntity
  8
0
  6
SLD-SOLID
 62
     7
100
AcDbLine
 10
11.4973881889
 20
5.2730663521
 30
0.0
 11
11.4973881889
 21
5.77700336
 31
0.0
  0
LINE
  5
185
330
1F
100
AcDbEntity
  8
0
  6
SLD-SOLID
 62
     7
100
AcDbLine
 10
11.4973881889
 20
5.77700336
 30
0.0
 11
11.4677700787
 21
5.77700336
 31
0.0
  0
LINE
  5
186
330
1F
100
AcDbEntity
  8
0
  6
SLD-SOLID
 62
     7
100
AcDbLine
 10
11.4677700787
 20
5.77700336
 30
0.0
 11
11.4677700787
 21
5.8005348561
 31
0.0
  0
LINE
  5
187
330
1F
100
AcDbEntity
  8
0
  6
SLD-SOLID
 62
     7
100
AcDbLine
 10
11.4677700787
 20
5.8005348561
 30
0.0
 11
10.9167700787
 21
5.8005348561
 31
0.0
  0
LINE
  5
188
330
1F
100
AcDbEntity
  8
0
  6
SLD-SOLID
 62
     7
100
AcDbLine
 10
10.9167700787
 20
5.8005348561
 30
0.0
 11
10.9167700787
 21
5.77700336
 31
0.0
  0
LINE
  5
189
330
1F
100
AcDbEntity
  8
0
  6
SLD-SOLID
 62
     7
100
AcDbLine
 10
10.9167700787
 20
5.77700336
 30
0.0
 11
10.8871519685
 21
5.77700336
 31
0.0
  0
LINE
  5
18A
330
1F
100
AcDbEntity
  8
0
  6
SLD-SOLID
 62
     7
100
AcDbLine
 10
10.8871519685
 20
5.77700336
 30
0.0
 11
10.8871519685
 21
5.2730663521
 31
0.0
  0
LINE
  5
18B
330
1F
100
AcDbEntity
  8
0
  6
SLD-SOLID
 62
     7
100
AcDbLine
 10
10.8871519685
 20
5.2730663521
 30
0.0
 11
10.9167700787
 21
5.2730663521
 31
0.0
  0
LINE
  5
18C
330
1F
100
AcDbEntity
  8
0
  6
SLD-SOLID
 62
     7
100
AcDbLine
 10
10.9167700787
 20
5.9995348561
 30
0.0
 11
11.4677700787
 21
5.9995348561
 31
0.0
  0
LINE
  5
18D
330
1F
100
AcDbEntity
  8
0
  6
SLD-SOLID
 62
     7
100
AcDbLine
 10
11.4677700787
 20
6.0230663521
 30
0.0
 11
11.4973881889
 21
6.0230663521
 31
0.0
  0
LINE
  5
18E
330
1F
100
AcDbEntity
  8
0
  6
SLD-SOLID
 62
     7
100
AcDbLine
 10
11.4973881889
 20
6.0230663521
 30
0.0
 11
11.4973881889
 21
6.52700336
 31
0.0
  0
LINE
  5
18F
330
1F
100
AcDbEntity
  8
0
  6
SLD-SOLID
 62
     7
100
AcDbLine
 10
11.4973881889
 20
6.52700336
 30
0.0
 11
11.4677700787
 21
6.52700336
 31
0.0
  0
LINE
  5
190
330
1F
100
AcDbEntity
  8
0
  6
SLD-SOLID
 62
     7
100
AcDbLine
 10
11.4677700787
 20
6.52700336
 30
0.0
 11
11.4677700787
 21
6.5505348561
 31
0.0
  0
LINE
  5
191
330
1F
100
AcDbEntity
  8
0
  6
SLD-SOLID
 62
     7
100
AcDbLine
 10
11.4677700787
 20
6.5505348561
 30
0.0
 11
10.9167700787
 21
6.5505348561
 31
0.0
  0
LINE
  5
192
330
1F
100
AcDbEntity
  8
0
  6
SLD-SOLID
 62
     7
100
AcDbLine
 10
10.9167700787
 20
6.5505348561
 30
0.0
 11
10.9167700787
 21
6.52700336
 31
0.0
  0
LINE
  5
193
330
1F
100
AcDbEntity
  8
0
  6
SLD-SOLID
 62
     7
100
AcDbLine
 10
10.9167700787
 20
6.52700336
 30
0.0
 11
10.8871519685
 21
6.52700336
 31
0.0
  0
LINE
  5
194
330
1F
100
AcDbEntity
  8
0
  6
SLD-SOLID
 62
     7
100
AcDbLine
 10
10.8871519685
 20
6.52700336
 30
0.0
 11
10.8871519685
 21
6.0230663521
 31
0.0
  0
LINE
  5
195
330
1F
100
AcDbEntity
  8
0
  6
SLD-SOLID
 62
     7
100
AcDbLine
 10
10.8871519685
 20
6.0230663521
 30
0.0
 11
10.9167700787
 21
6.0230663521
 31
0.0
  0
LINE
  5
196
330
1F
100
AcDbEntity
  8
0
  6
SLD-SOLID
 62
     7
100
AcDbLine
 10
10.9167700787
 20
6.7495348561
 30
0.0
 11
11.4677700787
 21
6.7495348561
 31
0.0
  0
LINE
  5
197
330
1F
100
AcDbEntity
  8
0
  6
SLD-SOLID
 62
     7
100
AcDbLine
 10
11.4677700787
 20
6.7730663521
 30
0.0
 11
11.4973881889
 21
6.7730663521
 31
0.0
  0
LINE
  5
198
330
1F
100
AcDbEntity
  8
0
  6
SLD-SOLID
 62
     7
100
AcDbLine
 10
11.4973881889
 20
6.7730663521
 30
0.0
 11
11.4973881889
 21
7.27700336
 31
0.0
  0
LINE
  5
199
330
1F
100
AcDbEntity
  8
0
  6
SLD-SOLID
 62
     7
100
AcDbLine
 10
11.4973881889
 20
7.27700336
 30
0.0
 11
11.4677700787
 21
7.27700336
 31
0.0
  0
LINE
  5
19A
330
1F
100
AcDbEntity
  8
0
  6
SLD-SOLID
 62
     7
100
AcDbLine
 10
11.4677700787
 20
7.27700336
 30
0.0
 11
11.4677700787
 21
7.3005348561
 31
0.0
  0
LINE
  5
19B
330
1F
100
AcDbEntity
  8
0
  6
SLD-SOLID
 62
     7
100
AcDbLine
 10
11.4677700787
 20
7.3005348561
 30
0.0
 11
10.9167700787
 21
7.3005348561
 31
0.0
  0
LINE
  5
19C
330
1F
100
AcDbEntity
  8
0
  6
SLD-SOLID
 62
     7
100
AcDbLine
 10
10.9167700787
 20
7.3005348561
 30
0.0
 11
10.9167700787
 21
7.27700336
 31
0.0
  0
LINE
  5
19D
330
1F
100
AcDbEntity
  8
0
  6
SLD-SOLID
 62
     7
100
AcDbLine
 10
10.9167700787
 20
7.27700336
 30
0.0
 11
10.8871519685
 21
7.27700336
 31
0.0
  0
LINE
  5
19E
330
1F
100
AcDbEntity
  8
0
  6
SLD-SOLID
 62
     7
100
AcDbLine
 10
10.8871519685
 20
7.27700336
 30
0.0
 11
10.8871519685
 21
6.7730663521
 31
0.0
  0
LINE
  5
19F
330
1F
100
AcDbEntity
  8
0
  6
SLD-SOLID
 62
     7
100
AcDbLine
 10
10.8871519685
 20
6.7730663521
 30
0.0
 11
10.9167700787
 21
6.7730663521
 31
0.0
  0
LINE
  5
1A0
330
1F
100
AcDbEntity
  8
0
  6
SLD-SOLID
 62
     7
100
AcDbLine
 10
10.9167700787
 20
7.4995348561
 30
0.0
 11
11.4677700787
 21
7.4995348561
 31
0.0
  0
LINE
  5
1A1
330
1F
100
AcDbEntity
  8
0
  6
SLD-SOLID
 62
     7
100
AcDbLine
 10
11.4677700787
 20
7.5230663521
 30
0.0
 11
11.4973881889
 21
7.5230663521
 31
0.0
  0
LINE
  5
1A2
330
1F
100
AcDbEntity
  8
0
  6
SLD-SOLID
 62
     7
100
AcDbLine
 10
11.4973881889
 20
7.5230663521
 30
0.0
 11
11.4973881889
 21
8.02700336
 31
0.0
  0
LINE
  5
1A3
330
1F
100
AcDbEntity
  8
0
  6
SLD-SOLID
 62
     7
100
AcDbLine
 10
11.4973881889
 20
8.02700336
 30
0.0
 11
11.4677700787
 21
8.02700336
 31
0.0
  0
LINE
  5
1A4
330
1F
100
AcDbEntity
  8
0
  6
SLD-SOLID
 62
     7
100
AcDbLine
 10
11.4677700787
 20
8.02700336
 30
0.0
 11
11.4677700787
 21
8.0505348561
 31
0.0
  0
LINE
  5
1A5
330
1F
100
AcDbEntity
  8
0
  6
SLD-SOLID
 62
     7
100
AcDbLine
 10
11.4677700787
 20
8.0505348561
 30
0.0
 11
10.9167700787
 21
8.0505348561
 31
0.0
  0
LINE
  5
1A6
330
1F
100
AcDbEntity
  8
0
  6
SLD-SOLID
 62
     7
100
AcDbLine
 10
10.9167700787
 20
8.0505348561
 30
0.0
 11
10.9167700787
 21
8.02700336
 31
0.0
  0
LINE
  5
1A7
330
1F
100
AcDbEntity
  8
0
  6
SLD-SOLID
 62
     7
100
AcDbLine
 10
10.9167700787
 20
8.02700336
 30
0.0
 11
10.8871519685
 21
8.02700336
 31
0.0
  0
LINE
  5
1A8
330
1F
100
AcDbEntity
  8
0
  6
SLD-SOLID
 62
     7
100
AcDbLine
 10
10.8871519685
 20
8.02700336
 30
0.0
 11
10.8871519685
 21
7.5230663521
 31
0.0
  0
LINE
  5
1A9
330
1F
100
AcDbEntity
  8
0
  6
SLD-SOLID
 62
     7
100
AcDbLine
 10
10.8871519685
 20
7.5230663521
 30
0.0
 11
10.9167700787
 21
7.5230663521
 31
0.0
  0
LINE
  5
1AA
330
1F
100
AcDbEntity
  8
0
  6
SLD-SOLID
 62
     7
100
AcDbLine
 10
5.567184404
 20
4.7230708873
 30
0.0
 11
6.0665599947
 21
4.9559335495
 31
0.0
  0
LINE
  5
1AB
330
1F
100
AcDbEntity
  8
0
  6
SLD-SOLID
 62
     7
100
AcDbLine
 10
6.0566151547
 20
4.9772603276
 30
0.0
 11
6.0834582787
 21
4.9897774819
 31
0.0
  0
LINE
  5
1AC
330
1F
100
AcDbEntity
  8
0
  6
SLD-SOLID
 62
     7
100
AcDbLine
 10
6.0834582787
 20
4.9897774819
 30
0.0
 11
5.8704852964
 21
5.4464995163
 31
0.0
  0
LINE
  5
1AD
330
1F
100
AcDbEntity
  8
0
  6
SLD-SOLID
 62
     7
100
AcDbLine
 10
5.8704852964
 20
5.4464995163
 30
0.0
 11
5.8436421724
 21
5.433982362
 31
0.0
  0
LINE
  5
1AE
330
1F
100
AcDbEntity
  8
0
  6
SLD-SOLID
 62
     7
100
AcDbLine
 10
5.8436421724
 20
5.433982362
 30
0.0
 11
5.8336973325
 21
5.4553091402
 31
0.0
  0
LINE
  5
1AF
330
1F
100
AcDbEntity
  8
0
  6
SLD-SOLID
 62
     7
100
AcDbLine
 10
5.8336973325
 20
5.4553091402
 30
0.0
 11
5.3343217418
 21
5.2224464779
 31
0.0
  0
LINE
  5
1B0
330
1F
100
AcDbEntity
  8
0
  6
SLD-SOLID
 62
     7
100
AcDbLine
 10
5.3343217418
 20
5.2224464779
 30
0.0
 11
5.3442665818
 21
5.2011196998
 31
0.0
  0
LINE
  5
1B1
330
1F
100
AcDbEntity
  8
0
  6
SLD-SOLID
 62
     7
100
AcDbLine
 10
5.3442665818
 20
5.2011196998
 30
0.0
 11
5.3174234578
 21
5.1886025455
 31
0.0
  0
LINE
  5
1B2
330
1F
100
AcDbEntity
  8
0
  6
SLD-SOLID
 62
     7
100
AcDbLine
 10
5.3174234578
 20
5.1886025455
 30
0.0
 11
5.5303964401
 21
4.7318805111
 31
0.0
  0
LINE
  5
1B3
330
1F
100
AcDbEntity
  8
0
  6
SLD-SOLID
 62
     7
100
AcDbLine
 10
5.5303964401
 20
4.7318805111
 30
0.0
 11
5.5572395641
 21
4.7443976654
 31
0.0
  0
LINE
  5
1B4
330
1F
100
AcDbEntity
  8
0
  6
SLD-SOLID
 62
     7
100
AcDbLine
 10
4.8874773973
 20
4.4060560848
 30
0.0
 11
5.3868529879
 21
4.638918747
 31
0.0
  0
LINE
  5
1B5
330
1F
100
AcDbEntity
  8
0
  6
SLD-SOLID
 62
     7
100
AcDbLine
 10
5.376908148
 20
4.6602455251
 30
0.0
 11
5.4037512719
 21
4.6727626794
 31
0.0
  0
LINE
  5
1B6
330
1F
100
AcDbEntity
  8
0
  6
SLD-SOLID
 62
     7
100
AcDbLine
 10
5.4037512719
 20
4.6727626794
 30
0.0
 11
5.1907782896
 21
5.1294847138
 31
0.0
  0
LINE
  5
1B7
330
1F
100
AcDbEntity
  8
0
  6
SLD-SOLID
 62
     7
100
AcDbLine
 10
5.1907782896
 20
5.1294847138
 30
0.0
 11
5.1639351657
 21
5.1169675596
 31
0.0
  0
LINE
  5
1B8
330
1F
100
AcDbEntity
  8
0
  6
SLD-SOLID
 62
     7
100
AcDbLine
 10
5.1639351657
 20
5.1169675596
 30
0.0
 11
5.1539903257
 21
5.1382943377
 31
0.0
  0
LINE
  5
1B9
330
1F
100
AcDbEntity
  8
0
  6
SLD-SOLID
 62
     7
100
AcDbLine
 10
5.1539903257
 20
5.1382943377
 30
0.0
 11
4.6546147351
 21
4.9054316755
 31
0.0
  0
LINE
  5
1BA
330
1F
100
AcDbEntity
  8
0
  6
SLD-SOLID
 62
     7
100
AcDbLine
 10
4.6546147351
 20
4.9054316755
 30
0.0
 11
4.664559575
 21
4.8841048973
 31
0.0
  0
LINE
  5
1BB
330
1F
100
AcDbEntity
  8
0
  6
SLD-SOLID
 62
     7
100
AcDbLine
 10
4.664559575
 20
4.8841048973
 30
0.0
 11
4.6377164511
 21
4.8715877431
 31
0.0
  0
LINE
  5
1BC
330
1F
100
AcDbEntity
  8
0
  6
SLD-SOLID
 62
     7
100
AcDbLine
 10
4.6377164511
 20
4.8715877431
 30
0.0
 11
4.8506894334
 21
4.4148657087
 31
0.0
  0
LINE
  5
1BD
330
1F
100
AcDbEntity
  8
0
  6
SLD-SOLID
 62
     7
100
AcDbLine
 10
4.8506894334
 20
4.4148657087
 30
0.0
 11
4.8775325573
 21
4.4273828629
 31
0.0
  0
LINE
  5
1BE
330
1F
100
AcDbEntity
  8
0
  6
SLD-SOLID
 62
     7
100
AcDbLine
 10
5.2044921998
 20
3.7263490781
 30
0.0
 11
5.7038677904
 21
3.9592117403
 31
0.0
  0
LINE
  5
1BF
330
1F
100
AcDbEntity
  8
0
  6
SLD-SOLID
 62
     7
100
AcDbLine
 10
5.6939229504
 20
3.9805385184
 30
0.0
 11
5.7207660744
 21
3.9930556727
 31
0.0
  0
LINE
  5
1C0
330
1F
100
AcDbEntity
  8
0
  6
SLD-SOLID
 62
     7
100
AcDbLine
 10
5.7207660744
 20
3.9930556727
 30
0.0
 11
5.5077930921
 21
4.4497777071
 31
0.0
  0
LINE
  5
1C1
330
1F
100
AcDbEntity
  8
0
  6
SLD-SOLID
 62
     7
100
AcDbLine
 10
5.5077930921
 20
4.4497777071
 30
0.0
 11
5.4809499682
 21
4.4372605528
 31
0.0
  0
LINE
  5
1C2
330
1F
100
AcDbEntity
  8
0
  6
SLD-SOLID
 62
     7
100
AcDbLine
 10
5.4809499682
 20
4.4372605528
 30
0.0
 11
5.4710051282
 21
4.4585873309
 31
0.0
  0
LINE
  5
1C3
330
1F
100
AcDbEntity
  8
0
  6
SLD-SOLID
 62
     7
100
AcDbLine
 10
5.4710051282
 20
4.4585873309
 30
0.0
 11
4.9716295375
 21
4.2257246687
 31
0.0
  0
LINE
  5
1C4
330
1F
100
AcDbEntity
  8
0
  6
SLD-SOLID
 62
     7
100
AcDbLine
 10
4.9716295375
 20
4.2257246687
 30
0.0
 11
4.9815743775
 21
4.2043978906
 31
0.0
  0
LINE
  5
1C5
330
1F
100
AcDbEntity
  8
0
  6
SLD-SOLID
 62
     7
100
AcDbLine
 10
4.9815743775
 20
4.2043978906
 30
0.0
 11
4.9547312536
 21
4.1918807363
 31
0.0
  0
LINE
  5
1C6
330
1F
100
AcDbEntity
  8
0
  6
SLD-SOLID
 62
     7
100
AcDbLine
 10
4.9547312536
 20
4.1918807363
 30
0.0
 11
5.1677042358
 21
3.7351587019
 31
0.0
  0
LINE
  5
1C7
330
1F
100
AcDbEntity
  8
0
  6
SLD-SOLID
 62
     7
100
AcDbLine
 10
5.1677042358
 20
3.7351587019
 30
0.0
 11
5.1945473598
 21
3.7476758562
 31
0.0
  0
LINE
  5
1C8
330
1F
100
AcDbEntity
  8
0
  6
SLD-SOLID
 62
     7
100
AcDbLine
 10
5.5215070022
 20
3.0466420713
 30
0.0
 11
6.0208825929
 21
3.2795047335
 31
0.0
  0
LINE
  5
1C9
330
1F
100
AcDbEntity
  8
0
  6
SLD-SOLID
 62
     7
100
AcDbLine
 10
6.0109377529
 20
3.3008315117
 30
0.0
 11
6.0377808769
 21
3.3133486659
 31
0.0
  0
LINE
  5
1CA
330
1F
100
AcDbEntity
  8
0
  6
SLD-SOLID
 62
     7
100
AcDbLine
 10
6.0377808769
 20
3.3133486659
 30
0.0
 11
5.8248078946
 21
3.7700707003
 31
0.0
  0
LINE
  5
1CB
330
1F
100
AcDbEntity
  8
0
  6
SLD-SOLID
 62
     7
100
AcDbLine
 10
5.8248078946
 20
3.7700707003
 30
0.0
 11
5.7979647706
 21
3.7575535461
 31
0.0
  0
LINE
  5
1CC
330
1F
100
AcDbEntity
  8
0
  6
SLD-SOLID
 62
     7
100
AcDbLine
 10
5.7979647706
 20
3.7575535461
 30
0.0
 11
5.7880199307
 21
3.7788803242
 31
0.0
  0
LINE
  5
1CD
330
1F
100
AcDbEntity
  8
0
  6
SLD-SOLID
 62
     7
100
AcDbLine
 10
5.7880199307
 20
3.7788803242
 30
0.0
 11
5.28864434
 21
3.546017662
 31
0.0
  0
LINE
  5
1CE
330
1F
100
AcDbEntity
  8
0
  6
SLD-SOLID
 62
     7
100
AcDbLine
 10
5.28864434
 20
3.546017662
 30
0.0
 11
5.29858918
 21
3.5246908839
 31
0.0
  0
LINE
  5
1CF
330
1F
100
AcDbEntity
  8
0
  6
SLD-SOLID
 62
     7
100
AcDbLine
 10
5.29858918
 20
3.5246908839
 30
0.0
 11
5.271746056
 21
3.5121737296
 31
0.0
  0
LINE
  5
1D0
330
1F
100
AcDbEntity
  8
0
  6
SLD-SOLID
 62
     7
100
AcDbLine
 10
5.271746056
 20
3.5121737296
 30
0.0
 11
5.4847190383
 21
3.0554516952
 31
0.0
  0
LINE
  5
1D1
330
1F
100
AcDbEntity
  8
0
  6
SLD-SOLID
 62
     7
100
AcDbLine
 10
5.4847190383
 20
3.0554516952
 30
0.0
 11
5.5115621623
 21
3.0679688494
 31
0.0
  0
LINE
  5
1D2
330
1F
100
AcDbEntity
  8
0
  6
SLD-SOLID
 62
     7
100
AcDbLine
 10
6.5420821984
 20
3.9363730394
 30
0.0
 11
6.3092195362
 21
4.43574863
 31
0.0
  0
LINE
  5
1D3
330
1F
100
AcDbEntity
  8
0
  6
SLD-SOLID
 62
     7
100
AcDbLine
 10
6.287892758
 20
4.4258037901
 30
0.0
 11
6.2753756038
 21
4.452646914
 31
0.0
  0
LINE
  5
1D4
330
1F
100
AcDbEntity
  8
0
  6
SLD-SOLID
 62
     7
100
AcDbLine
 10
6.2753756038
 20
4.452646914
 30
0.0
 11
5.8186535694
 21
4.2396739317
 31
0.0
  0
LINE
  5
1D5
330
1F
100
AcDbEntity
  8
0
  6
SLD-SOLID
 62
     7
100
AcDbLine
 10
5.8186535694
 20
4.2396739317
 30
0.0
 11
5.8311707236
 21
4.2128308078
 31
0.0
  0
LINE
  5
1D6
330
1F
100
AcDbEntity
  8
0
  6
SLD-SOLID
 62
     7
100
AcDbLine
 10
5.8311707236
 20
4.2128308078
 30
0.0
 11
5.8098439455
 21
4.2028859678
 31
0.0
  0
LINE
  5
1D7
330
1F
100
AcDbEntity
  8
0
  6
SLD-SOLID
 62
     7
100
AcDbLine
 10
5.8098439455
 20
4.2028859678
 30
0.0
 11
6.0427066077
 21
3.7035103772
 31
0.0
  0
LINE
  5
1D8
330
1F
100
AcDbEntity
  8
0
  6
SLD-SOLID
 62
     7
100
AcDbLine
 10
6.0427066077
 20
3.7035103772
 30
0.0
 11
6.0640333859
 21
3.7134552171
 31
0.0
  0
LINE
  5
1D9
330
1F
100
AcDbEntity
  8
0
  6
SLD-SOLID
 62
     7
100
AcDbLine
 10
6.0640333859
 20
3.7134552171
 30
0.0
 11
6.0765505401
 21
3.6866120932
 31
0.0
  0
LINE
  5
1DA
330
1F
100
AcDbEntity
  8
0
  6
SLD-SOLID
 62
     7
100
AcDbLine
 10
6.0765505401
 20
3.6866120932
 30
0.0
 11
6.5332725745
 21
3.8995850755
 31
0.0
  0
LINE
  5
1DB
330
1F
100
AcDbEntity
  8
0
  6
SLD-SOLID
 62
     7
100
AcDbLine
 10
6.5332725745
 20
3.8995850755
 30
0.0
 11
6.5207554203
 21
3.9264281994
 31
0.0
  0
LINE
  5
1DC
330
1F
100
AcDbEntity
  8
0
  6
SLD-SOLID
 62
     7
100
AcDbLine
 10
7.2217892051
 20
4.2533878419
 30
0.0
 11
6.9889265429
 21
4.7527634325
 31
0.0
  0
LINE
  5
1DD
330
1F
100
AcDbEntity
  8
0
  6
SLD-SOLID
 62
     7
100
AcDbLine
 10
6.9675997648
 20
4.7428185926
 30
0.0
 11
6.9550826105
 21
4.7696617165
 31
0.0
  0
LINE
  5
1DE
330
1F
100
AcDbEntity
  8
0
  6
SLD-SOLID
 62
     7
100
AcDbLine
 10
6.9550826105
 20
4.7696617165
 30
0.0
 11
6.4983605761
 21
4.5566887342
 31
0.0
  0
LINE
  5
1DF
330
1F
100
AcDbEntity
  8
0
  6
SLD-SOLID
 62
     7
100
AcDbLine
 10
6.4983605761
 20
4.5566887342
 30
0.0
 11
6.5108777304
 21
4.5298456103
 31
0.0
  0
LINE
  5
1E0
330
1F
100
AcDbEntity
  8
0
  6
SLD-SOLID
 62
     7
100
AcDbLine
 10
6.5108777304
 20
4.5298456103
 30
0.0
 11
6.4895509523
 21
4.5199007703
 31
0.0
  0
LINE
  5
1E1
330
1F
100
AcDbEntity
  8
0
  6
SLD-SOLID
 62
     7
100
AcDbLine
 10
6.4895509523
 20
4.5199007703
 30
0.0
 11
6.7224136145
 21
4.0205251796
 31
0.0
  0
LINE
  5
1E2
330
1F
100
AcDbEntity
  8
0
  6
SLD-SOLID
 62
     7
100
AcDbLine
 10
6.7224136145
 20
4.0205251796
 30
0.0
 11
6.7437403926
 21
4.0304700196
 31
0.0
  0
LINE
  5
1E3
330
1F
100
AcDbEntity
  8
0
  6
SLD-SOLID
 62
     7
100
AcDbLine
 10
6.7437403926
 20
4.0304700196
 30
0.0
 11
6.7562575469
 21
4.0036268957
 31
0.0
  0
LINE
  5
1E4
330
1F
100
AcDbEntity
  8
0
  6
SLD-SOLID
 62
     7
100
AcDbLine
 10
6.7562575469
 20
4.0036268957
 30
0.0
 11
7.2129795813
 21
4.216599878
 31
0.0
  0
LINE
  5
1E5
330
1F
100
AcDbEntity
  8
0
  6
SLD-SOLID
 62
     7
100
AcDbLine
 10
7.2129795813
 20
4.216599878
 30
0.0
 11
7.200462427
 21
4.2434430019
 31
0.0
  0
LINE
  5
1E6
330
1F
100
AcDbEntity
  8
0
  6
SLD-SOLID
 62
     7
100
AcDbLine
 10
6.7476125574
 20
3.8907674216
 30
0.0
 11
6.8025529314
 21
3.7729474093
 31
0.0
  0
LINE
  5
1E7
330
1F
100
AcDbEntity
  8
0
  6
SLD-SOLID
 62
     7
100
AcDbLine
 10
6.8025529314
 20
3.7729474093
 30
0.0
 11
7.3055537532
 21
4.0075005445
 31
0.0
  0
LINE
  5
1E8
330
1F
100
AcDbEntity
  8
0
  6
SLD-SOLID
 62
     7
100
AcDbLine
 10
7.3055537532
 20
4.0075005445
 30
0.0
 11
7.2506133792
 21
4.1253205568
 31
0.0
  0
LINE
  5
1E9
330
1F
100
AcDbEntity
  8
0
  6
SLD-SOLID
 62
     7
100
AcDbLine
 10
7.2506133792
 20
4.1253205568
 30
0.0
 11
6.7476125574
 21
3.8907674216
 31
0.0
  0
LINE
  5
1EA
330
1F
100
AcDbEntity
  8
0
  6
SLD-SOLID
 62
     7
100
AcDbLine
 10
6.406348311
 20
4.6226109596
 30
0.0
 11
6.9093491328
 21
4.8571640949
 31
0.0
  0
LINE
  5
1EB
330
1F
100
AcDbEntity
  8
0
  6
SLD-SOLID
 62
     7
100
AcDbLine
 10
6.9093491328
 20
4.8571640949
 30
0.0
 11
6.8544087588
 21
4.9749841072
 31
0.0
  0
LINE
  5
1EC
330
1F
100
AcDbEntity
  8
0
  6
SLD-SOLID
 62
     7
100
AcDbLine
 10
6.8544087588
 20
4.9749841072
 30
0.0
 11
6.351407937
 21
4.7404309719
 31
0.0
  0
LINE
  5
1ED
330
1F
100
AcDbEntity
  8
0
  6
SLD-SOLID
 62
     7
100
AcDbLine
 10
6.351407937
 20
4.7404309719
 30
0.0
 11
6.406348311
 21
4.6226109596
 31
0.0
  0
LINE
  5
1EE
330
1F
100
AcDbEntity
  8
0
  6
SLD-SOLID
 62
     7
100
AcDbLine
 10
6.0679055506
 20
3.5737526191
 30
0.0
 11
6.1228459246
 21
3.4559326068
 31
0.0
  0
LINE
  5
1EF
330
1F
100
AcDbEntity
  8
0
  6
SLD-SOLID
 62
     7
100
AcDbLine
 10
6.1228459246
 20
3.4559326068
 30
0.0
 11
6.6258467464
 21
3.6904857421
 31
0.0
  0
LINE
  5
1F0
330
1F
100
AcDbEntity
  8
0
  6
SLD-SOLID
 62
     7
100
AcDbLine
 10
6.6258467464
 20
3.6904857421
 30
0.0
 11
6.5709063724
 21
3.8083057544
 31
0.0
  0
LINE
  5
1F1
330
1F
100
AcDbEntity
  8
0
  6
SLD-SOLID
 62
     7
100
AcDbLine
 10
6.5709063724
 20
3.8083057544
 30
0.0
 11
6.0679055506
 21
3.5737526191
 31
0.0
  0
LINE
  5
1F2
330
1F
100
AcDbEntity
  8
0
  6
SLD-SOLID
 62
     7
100
AcDbLine
 10
5.7266413043
 20
4.3055961571
 30
0.0
 11
6.2296421261
 21
4.5401492924
 31
0.0
  0
LINE
  5
1F3
330
1F
100
AcDbEntity
  8
0
  6
SLD-SOLID
 62
     7
100
AcDbLine
 10
6.2296421261
 20
4.5401492924
 30
0.0
 11
6.174701752
 21
4.6579693047
 31
0.0
  0
LINE
  5
1F4
330
1F
100
AcDbEntity
  8
0
  6
SLD-SOLID
 62
     7
100
AcDbLine
 10
6.174701752
 20
4.6579693047
 30
0.0
 11
5.6717009302
 21
4.4234161695
 31
0.0
  0
LINE
  5
1F5
330
1F
100
AcDbEntity
  8
0
  6
SLD-SOLID
 62
     7
100
AcDbLine
 10
5.6717009302
 20
4.4234161695
 30
0.0
 11
5.7266413043
 21
4.3055961571
 31
0.0
  0
LINE
  5
1F6
330
1F
100
AcDbEntity
  8
0
  6
SLD-SOLID
 62
     7
100
AcDbLine
 10
7.7292700787
 20
6.8979758021
 30
0.0
 11
7.7292700787
 21
6.8744443061
 31
0.0
  0
LINE
  5
1F7
330
1F
100
AcDbEntity
  8
0
  6
SLD-SOLID
 62
     7
100
AcDbLine
 10
8.2802700787
 20
6.8744443061
 30
0.0
 11
8.2802700787
 21
6.8979758021
 31
0.0
  0
LINE
  5
1F8
330
1F
100
AcDbEntity
  8
0
  6
SLD-SOLID
 62
     7
100
AcDbLine
 10
7.7292700787
 20
7.6479758021
 30
0.0
 11
7.7292700787
 21
7.6244443061
 31
0.0
  0
LINE
  5
1F9
330
1F
100
AcDbEntity
  8
0
  6
SLD-SOLID
 62
     7
100
AcDbLine
 10
8.2802700787
 20
7.6244443061
 30
0.0
 11
8.2802700787
 21
7.6479758021
 31
0.0
  0
LINE
  5
1FA
330
1F
100
AcDbEntity
  8
0
  6
SLD-SOLID
 62
     7
100
AcDbLine
 10
6.9792700787
 20
7.5979758021
 30
0.0
 11
6.9792700787
 21
7.5744443061
 31
0.0
  0
LINE
  5
1FB
330
1F
100
AcDbEntity
  8
0
  6
SLD-SOLID
 62
     7
100
AcDbLine
 10
7.5302700787
 20
7.5744443061
 30
0.0
 11
7.5302700787
 21
7.5979758021
 31
0.0
  0
LINE
  5
1FC
330
1F
100
AcDbEntity
  8
0
  6
SLD-SOLID
 62
     7
100
AcDbLine
 10
6.9792700787
 20
6.8479758021
 30
0.0
 11
6.9792700787
 21
6.8244443061
 31
0.0
  0
LINE
  5
1FD
330
1F
100
AcDbEntity
  8
0
  6
SLD-SOLID
 62
     7
100
AcDbLine
 10
7.5302700787
 20
6.8244443061
 30
0.0
 11
7.5302700787
 21
6.8479758021
 31
0.0
  0
LINE
  5
1FE
330
1F
100
AcDbEntity
  8
0
  6
SLD-SOLID
 62
     7
100
AcDbLine
 10
6.2292700787
 20
7.5979758021
 30
0.0
 11
6.2292700787
 21
7.5744443061
 31
0.0
  0
LINE
  5
1FF
330
1F
100
AcDbEntity
  8
0
  6
SLD-SOLID
 62
     7
100
AcDbLine
 10
6.7802700787
 20
7.5744443061
 30
0.0
 11
6.7802700787
 21
7.5979758021
 31
0.0
  0
LINE
  5
200
330
1F
100
AcDbEntity
  8
0
  6
SLD-SOLID
 62
     7
100
AcDbLine
 10
6.9792700787
 20
6.0979758021
 30
0.0
 11
6.9792700787
 21
6.0744443061
 31
0.0
  0
LINE
  5
201
330
1F
100
AcDbEntity
  8
0
  6
SLD-SOLID
 62
     7
100
AcDbLine
 10
7.5302700787
 20
6.0744443061
 30
0.0
 11
7.5302700787
 21
6.0979758021
 31
0.0
  0
LINE
  5
202
330
1F
100
AcDbEntity
  8
0
  6
SLD-SOLID
 62
     7
100
AcDbLine
 10
6.9792700787
 20
5.3479758021
 30
0.0
 11
6.9792700787
 21
5.3244443061
 31
0.0
  0
LINE
  5
203
330
1F
100
AcDbEntity
  8
0
  6
SLD-SOLID
 62
     7
100
AcDbLine
 10
7.5302700787
 20
5.3244443061
 30
0.0
 11
7.5302700787
 21
5.3479758021
 31
0.0
  0
LINE
  5
204
330
1F
100
AcDbEntity
  8
0
  6
SLD-SOLID
 62
     7
100
AcDbLine
 10
7.7292700787
 20
4.6479758021
 30
0.0
 11
7.7292700787
 21
4.6244443061
 31
0.0
  0
LINE
  5
205
330
1F
100
AcDbEntity
  8
0
  6
SLD-SOLID
 62
     7
100
AcDbLine
 10
8.2802700787
 20
4.6244443061
 30
0.0
 11
8.2802700787
 21
4.6479758021
 31
0.0
  0
LINE
  5
206
330
1F
100
AcDbEntity
  8
0
  6
SLD-SOLID
 62
     7
100
AcDbLine
 10
7.7292700787
 20
5.3979758021
 30
0.0
 11
7.7292700787
 21
5.3744443061
 31
0.0
  0
LINE
  5
207
330
1F
100
AcDbEntity
  8
0
  6
SLD-SOLID
 62
     7
100
AcDbLine
 10
8.2802700787
 20
5.3744443061
 30
0.0
 11
8.2802700787
 21
5.3979758021
 31
0.0
  0
LINE
  5
208
330
1F
100
AcDbEntity
  8
0
  6
SLD-SOLID
 62
     7
100
AcDbLine
 10
7.7292700787
 20
6.1479758021
 30
0.0
 11
7.7292700787
 21
6.1244443061
 31
0.0
  0
LINE
  5
209
330
1F
100
AcDbEntity
  8
0
  6
SLD-SOLID
 62
     7
100
AcDbLine
 10
8.2802700787
 20
6.1244443061
 30
0.0
 11
8.2802700787
 21
6.1479758021
 31
0.0
  0
LINE
  5
20A
330
1F
100
AcDbEntity
  8
0
  6
SLD-SOLID
 62
     7
100
AcDbLine
 10
6.7802700787
 20
6.0629443061
 30
0.0
 11
6.7567385826
 21
6.0629443061
 31
0.0
  0
LINE
  5
20B
330
1F
100
AcDbEntity
  8
0
  6
SLD-SOLID
 62
     7
100
AcDbLine
 10
6.7567385826
 20
5.5119443061
 30
0.0
 11
6.7802700787
 21
5.5119443061
 31
0.0
  0
LINE
  5
20C
330
1F
100
AcDbEntity
  8
0
  6
SLD-SOLID
 62
     7
100
AcDbLine
 10
6.7802700787
 20
7.1879443061
 30
0.0
 11
6.7567385826
 21
7.1879443061
 31
0.0
  0
LINE
  5
20D
330
1F
100
AcDbEntity
  8
0
  6
SLD-SOLID
 62
     7
100
AcDbLine
 10
6.7567385826
 20
6.6369443061
 30
0.0
 11
6.7802700787
 21
6.6369443061
 31
0.0
  0
LINE
  5
20E
330
1F
100
AcDbEntity
  8
0
  6
SLD-SOLID
 62
     7
100
AcDbLine
 10
8.4792700787
 20
7.7105663521
 30
0.0
 11
8.4792700787
 21
7.6870348561
 31
0.0
  0
LINE
  5
20F
330
1F
100
AcDbEntity
  8
0
  6
SLD-SOLID
 62
     7
100
AcDbLine
 10
9.0302700787
 20
7.6870348561
 30
0.0
 11
9.0302700787
 21
7.7105663521
 31
0.0
  0
LINE
  5
210
330
1F
100
AcDbEntity
  8
0
  6
SLD-SOLID
 62
     7
100
AcDbLine
 10
8.4792700787
 20
6.9605663521
 30
0.0
 11
8.4792700787
 21
6.9370348561
 31
0.0
  0
LINE
  5
211
330
1F
100
AcDbEntity
  8
0
  6
SLD-SOLID
 62
     7
100
AcDbLine
 10
9.0302700787
 20
6.9370348561
 30
0.0
 11
9.0302700787
 21
6.9605663521
 31
0.0
  0
LINE
  5
212
330
1F
100
AcDbEntity
  8
0
  6
SLD-SOLID
 62
     7
100
AcDbLine
 10
8.4792700787
 20
6.2105663521
 30
0.0
 11
8.4792700787
 21
6.1870348561
 31
0.0
  0
LINE
  5
213
330
1F
100
AcDbEntity
  8
0
  6
SLD-SOLID
 62
     7
100
AcDbLine
 10
9.0302700787
 20
6.1870348561
 30
0.0
 11
9.0302700787
 21
6.2105663521
 31
0.0
  0
LINE
  5
214
330
1F
100
AcDbEntity
  8
0
  6
SLD-SOLID
 62
     7
100
AcDbLine
 10
8.4792700787
 20
5.4605663521
 30
0.0
 11
8.4792700787
 21
5.4370348561
 31
0.0
  0
LINE
  5
215
330
1F
100
AcDbEntity
  8
0
  6
SLD-SOLID
 62
     7
100
AcDbLine
 10
9.0302700787
 20
5.4370348561
 30
0.0
 11
9.0302700787
 21
5.4605663521
 31
0.0
  0
LINE
  5
216
330
1F
100
AcDbEntity
  8
0
  6
SLD-SOLID
 62
     7
100
AcDbLine
 10
8.4792700787
 20
4.7105663521
 30
0.0
 11
8.4792700787
 21
4.6870348561
 31
0.0
  0
LINE
  5
217
330
1F
100
AcDbEntity
  8
0
  6
SLD-SOLID
 62
     7
100
AcDbLine
 10
9.0302700787
 20
4.6870348561
 30
0.0
 11
9.0302700787
 21
4.7105663521
 31
0.0
  0
LINE
  5
218
330
1F
100
AcDbEntity
  8
0
  6
SLD-SOLID
 62
     7
100
AcDbLine
 10
9.2292700787
 20
4.6480663521
 30
0.0
 11
9.2292700787
 21
4.6245348561
 31
0.0
  0
LINE
  5
219
330
1F
100
AcDbEntity
  8
0
  6
SLD-SOLID
 62
     7
100
AcDbLine
 10
9.7802700787
 20
4.6245348561
 30
0.0
 11
9.7802700787
 21
4.6480663521
 31
0.0
  0
LINE
  5
21A
330
1F
100
AcDbEntity
  8
0
  6
SLD-SOLID
 62
     7
100
AcDbLine
 10
9.2292700787
 20
5.3980663521
 30
0.0
 11
9.2292700787
 21
5.3745348561
 31
0.0
  0
LINE
  5
21B
330
1F
100
AcDbEntity
  8
0
  6
SLD-SOLID
 62
     7
100
AcDbLine
 10
9.7802700787
 20
5.3745348561
 30
0.0
 11
9.7802700787
 21
5.3980663521
 31
0.0
  0
LINE
  5
21C
330
1F
100
AcDbEntity
  8
0
  6
SLD-SOLID
 62
     7
100
AcDbLine
 10
9.2292700787
 20
6.1480663521
 30
0.0
 11
9.2292700787
 21
6.1245348561
 31
0.0
  0
LINE
  5
21D
330
1F
100
AcDbEntity
  8
0
  6
SLD-SOLID
 62
     7
100
AcDbLine
 10
9.7802700787
 20
6.1245348561
 30
0.0
 11
9.7802700787
 21
6.1480663521
 31
0.0
  0
LINE
  5
21E
330
1F
100
AcDbEntity
  8
0
  6
SLD-SOLID
 62
     7
100
AcDbLine
 10
9.2292700787
 20
6.8980663521
 30
0.0
 11
9.2292700787
 21
6.8745348561
 31
0.0
  0
LINE
  5
21F
330
1F
100
AcDbEntity
  8
0
  6
SLD-SOLID
 62
     7
100
AcDbLine
 10
9.7802700787
 20
6.8745348561
 30
0.0
 11
9.7802700787
 21
6.8980663521
 31
0.0
  0
LINE
  5
220
330
1F
100
AcDbEntity
  8
0
  6
SLD-SOLID
 62
     7
100
AcDbLine
 10
9.2292700787
 20
7.6480663521
 30
0.0
 11
9.2292700787
 21
7.6245348561
 31
0.0
  0
LINE
  5
221
330
1F
100
AcDbEntity
  8
0
  6
SLD-SOLID
 62
     7
100
AcDbLine
 10
9.7802700787
 20
7.6245348561
 30
0.0
 11
9.7802700787
 21
7.6480663521
 31
0.0
  0
LINE
  5
222
330
1F
100
AcDbEntity
  8
0
  6
SLD-SOLID
 62
     7
100
AcDbLine
 10
9.9792700787
 20
7.5230663521
 30
0.0
 11
9.9792700787
 21
7.4995348561
 31
0.0
  0
LINE
  5
223
330
1F
100
AcDbEntity
  8
0
  6
SLD-SOLID
 62
     7
100
AcDbLine
 10
10.5302700787
 20
7.4995348561
 30
0.0
 11
10.5302700787
 21
7.5230663521
 31
0.0
  0
LINE
  5
224
330
1F
100
AcDbEntity
  8
0
  6
SLD-SOLID
 62
     7
100
AcDbLine
 10
9.9792700787
 20
6.7730663521
 30
0.0
 11
9.9792700787
 21
6.7495348561
 31
0.0
  0
LINE
  5
225
330
1F
100
AcDbEntity
  8
0
  6
SLD-SOLID
 62
     7
100
AcDbLine
 10
10.5302700787
 20
6.7495348561
 30
0.0
 11
10.5302700787
 21
6.7730663521
 31
0.0
  0
LINE
  5
226
330
1F
100
AcDbEntity
  8
0
  6
SLD-SOLID
 62
     7
100
AcDbLine
 10
9.9792700787
 20
6.0230663521
 30
0.0
 11
9.9792700787
 21
5.9995348561
 31
0.0
  0
LINE
  5
227
330
1F
100
AcDbEntity
  8
0
  6
SLD-SOLID
 62
     7
100
AcDbLine
 10
10.5302700787
 20
5.9995348561
 30
0.0
 11
10.5302700787
 21
6.0230663521
 31
0.0
  0
LINE
  5
228
330
1F
100
AcDbEntity
  8
0
  6
SLD-SOLID
 62
     7
100
AcDbLine
 10
9.9792700787
 20
5.2730663521
 30
0.0
 11
9.9792700787
 21
5.2495348561
 31
0.0
  0
LINE
  5
229
330
1F
100
AcDbEntity
  8
0
  6
SLD-SOLID
 62
     7
100
AcDbLine
 10
10.5302700787
 20
5.2495348561
 30
0.0
 11
10.5302700787
 21
5.2730663521
 31
0.0
  0
LINE
  5
22A
330
1F
100
AcDbEntity
  8
0
  6
SLD-SOLID
 62
     7
100
AcDbLine
 10
9.9792700787
 20
4.5230663521
 30
0.0
 11
9.9792700787
 21
4.4995348561
 31
0.0
  0
LINE
  5
22B
330
1F
100
AcDbEntity
  8
0
  6
SLD-SOLID
 62
     7
100
AcDbLine
 10
10.5302700787
 20
4.4995348561
 30
0.0
 11
10.5302700787
 21
4.5230663521
 31
0.0
  0
LINE
  5
22C
330
1F
100
AcDbEntity
  8
0
  6
SLD-SOLID
 62
     7
100
AcDbLine
 10
10.7292700787
 20
4.5230663521
 30
0.0
 11
10.7292700787
 21
4.4995348561
 31
0.0
  0
LINE
  5
22D
330
1F
100
AcDbEntity
  8
0
  6
SLD-SOLID
 62
     7
100
AcDbLine
 10
11.2802700787
 20
4.4995348561
 30
0.0
 11
11.2802700787
 21
4.5230663521
 31
0.0
  0
LINE
  5
22E
330
1F
100
AcDbEntity
  8
0
  6
SLD-SOLID
 62
     7
100
AcDbLine
 10
10.9167700787
 20
5.2730663521
 30
0.0
 11
10.9167700787
 21
5.2495348561
 31
0.0
  0
LINE
  5
22F
330
1F
100
AcDbEntity
  8
0
  6
SLD-SOLID
 62
     7
100
AcDbLine
 10
11.4677700787
 20
5.2495348561
 30
0.0
 11
11.4677700787
 21
5.2730663521
 31
0.0
  0
LINE
  5
230
330
1F
100
AcDbEntity
  8
0
  6
SLD-SOLID
 62
     7
100
AcDbLine
 10
10.9167700787
 20
6.0230663521
 30
0.0
 11
10.9167700787
 21
5.9995348561
 31
0.0
  0
LINE
  5
231
330
1F
100
AcDbEntity
  8
0
  6
SLD-SOLID
 62
     7
100
AcDbLine
 10
11.4677700787
 20
5.9995348561
 30
0.0
 11
11.4677700787
 21
6.0230663521
 31
0.0
  0
LINE
  5
232
330
1F
100
AcDbEntity
  8
0
  6
SLD-SOLID
 62
     7
100
AcDbLine
 10
10.9167700787
 20
6.7730663521
 30
0.0
 11
10.9167700787
 21
6.7495348561
 31
0.0
  0
LINE
  5
233
330
1F
100
AcDbEntity
  8
0
  6
SLD-SOLID
 62
     7
100
AcDbLine
 10
11.4677700787
 20
6.7495348561
 30
0.0
 11
11.4677700787
 21
6.7730663521
 31
0.0
  0
LINE
  5
234
330
1F
100
AcDbEntity
  8
0
  6
SLD-SOLID
 62
     7
100
AcDbLine
 10
10.9167700787
 20
7.5230663521
 30
0.0
 11
10.9167700787
 21
7.4995348561
 31
0.0
  0
LINE
  5
235
330
1F
100
AcDbEntity
  8
0
  6
SLD-SOLID
 62
     7
100
AcDbLine
 10
11.4677700787
 20
7.4995348561
 30
0.0
 11
11.4677700787
 21
7.5230663521
 31
0.0
  0
LINE
  5
236
330
1F
100
AcDbEntity
  8
0
  6
SLD-SOLID
 62
     7
100
AcDbLine
 10
5.5572395641
 20
4.7443976654
 30
0.0
 11
5.567184404
 21
4.7230708873
 31
0.0
  0
LINE
  5
237
330
1F
100
AcDbEntity
  8
0
  6
SLD-SOLID
 62
     7
100
AcDbLine
 10
6.0665599947
 20
4.9559335495
 30
0.0
 11
6.0566151547
 21
4.9772603276
 31
0.0
  0
LINE
  5
238
330
1F
100
AcDbEntity
  8
0
  6
SLD-SOLID
 62
     7
100
AcDbLine
 10
4.8775325573
 20
4.4273828629
 30
0.0
 11
4.8874773973
 21
4.4060560848
 31
0.0
  0
LINE
  5
239
330
1F
100
AcDbEntity
  8
0
  6
SLD-SOLID
 62
     7
100
AcDbLine
 10
5.3868529879
 20
4.638918747
 30
0.0
 11
5.376908148
 21
4.6602455251
 31
0.0
  0
LINE
  5
23A
330
1F
100
AcDbEntity
  8
0
  6
SLD-SOLID
 62
     7
100
AcDbLine
 10
5.1945473598
 20
3.7476758562
 30
0.0
 11
5.2044921998
 21
3.7263490781
 31
0.0
  0
LINE
  5
23B
330
1F
100
AcDbEntity
  8
0
  6
SLD-SOLID
 62
     7
100
AcDbLine
 10
5.7038677904
 20
3.9592117403
 30
0.0
 11
5.6939229504
 21
3.9805385184
 31
0.0
  0
LINE
  5
23C
330
1F
100
AcDbEntity
  8
0
  6
SLD-SOLID
 62
     7
100
AcDbLine
 10
5.5115621623
 20
3.0679688494
 30
0.0
 11
5.5215070022
 21
3.0466420713
 31
0.0
  0
LINE
  5
23D
330
1F
100
AcDbEntity
  8
0
  6
SLD-SOLID
 62
     7
100
AcDbLine
 10
6.0208825929
 20
3.2795047335
 30
0.0
 11
6.0109377529
 21
3.3008315117
 31
0.0
  0
LINE
  5
23E
330
1F
100
AcDbEntity
  8
0
  6
SLD-SOLID
 62
     7
100
AcDbLine
 10
6.3092195362
 20
4.43574863
 30
0.0
 11
6.287892758
 21
4.4258037901
 31
0.0
  0
LINE
  5
23F
330
1F
100
AcDbEntity
  8
0
  6
SLD-SOLID
 62
     7
100
AcDbLine
 10
6.5207554203
 20
3.9264281994
 30
0.0
 11
6.5420821984
 21
3.9363730394
 31
0.0
  0
LINE
  5
240
330
1F
100
AcDbEntity
  8
0
  6
SLD-SOLID
 62
     7
100
AcDbLine
 10
6.9889265429
 20
4.7527634325
 30
0.0
 11
6.9675997648
 21
4.7428185926
 31
0.0
  0
LINE
  5
241
330
1F
100
AcDbEntity
  8
0
  6
SLD-SOLID
 62
     7
100
AcDbLine
 10
7.200462427
 20
4.2434430019
 30
0.0
 11
7.2217892051
 21
4.2533878419
 31
0.0
  0
ENDSEC
  0
SECTION
  2
OBJECTS
  0
DICTIONARY
  5
C
330
0
100
AcDbDictionary
  3
ACAD_GROUP
350
D
  3
ACAD_MLINESTYLE
350
17
1001
ACAD
1000
TREAT_AS_HARD
1070
     0
  0
DICTIONARY
  5
D
102
{ACAD_REACTORS
330
C
102
}
330
C
100
AcDbDictionary
1001
ACAD
1000
TREAT_AS_HARD
1070
     0
  0
DICTIONARY
  5
17
102
{ACAD_REACTORS
330
C
102
}
330
C
100
AcDbDictionary
  3
STANDARD
350
18
1001
ACAD
1000
TREAT_AS_HARD
1070
     0
  0
MLINESTYLE
  5
18
102
{ACAD_REACTORS
330
17
102
}
330
17
100
AcDbMlineStyle
  2
Standard
 70
     0
  3

 62
   256
 51
90.0
 52
90.0
 71
     2
 49
0.5
 62
   256
  6
BYLAYER
 49
-0.5
 62
   256
  6
BYLAYER
  0
ENDSEC
  0
EOF
