  0
SECTION
  2
HEADER
  9
$ACADVER
  1
AC1012
  9
$DWGCODEPAGE
  3
ansi_1252
  9
$INSBASE
 10
0.0
 20
0.0
 30
0.0
  9
$EXTMIN
 10
0.0
 20
0.0
 30
0.0
  9
$EXTMAX
 10
17.0
 20
11.0
 30
0.0
  9
$LIMMIN
 10
0.0
 20
0.0
  9
$LIMMAX
 10
17.0
 20
11.0
  9
$ORTHOMODE
 70
     0
  9
$REGENMODE
 70
     1
  9
$FILLMODE
 70
     1
  9
$QTEXTMODE
 70
     0
  9
$MIRRTEXT
 70
     1
  9
$DRAGMODE
 70
     2
  9
$LTSCALE
 40
1.0
  9
$OSMODE
 70
    37
  9
$ATTMODE
 70
     1
  9
$TEXTSIZE
 40
0.125
  9
$TRACEWID
 40
0.05
  9
$TEXTSTYLE
  7
STANDARD
  9
$CLAYER
  8
0
  9
$CELTYPE
  6
BYLAYER
  9
$CECOLOR
 62
   256
  9
$CELTSCALE
 40
1.0
  9
$DELOBJ
 70
     1
  9
$DISPSILH
 70
     0
  9
$DIMSCALE
 40
1.0
  9
$DIMASZ
 40
0.13
  9
$DIMEXO
 40
0.05
  9
$DIMDLI
 40
0.38
  9
$DIMRND
 40
0.0
  9
$DIMDLE
 40
0.0
  9
$DIMEXE
 40
0.125
  9
$DIMTP
 40
0.0
  9
$DIMTM
 40
0.0
  9
$DIMTXT
 40
0.125
  9
$DIMCEN
 40
0.09
  9
$DIMTSZ
 40
0.0
  9
$DIMTOL
 70
     0
  9
$DIMLIM
 70
     0
  9
$DIMTIH
 70
     1
  9
$DIMTOH
 70
     1
  9
$DIMSE1
 70
     0
  9
$DIMSE2
 70
     0
  9
$DIMTAD
 70
     0
  9
$DIMZIN
 70
     0
  9
$DIMBLK
  1

  9
$DIMASO
 70
     1
  9
$DIMSHO
 70
     1
  9
$DIMPOST
  1

  9
$DIMAPOST
  1

  9
$DIMALT
 70
     0
  9
$DIMALTD
 70
     2
  9
$DIMALTF
 40
25.4
  9
$DIMLFAC
 40
2.0
  9
$DIMTOFL
 70
     0
  9
$DIMTVP
 40
0.0
  9
$DIMTIX
 70
     0
  9
$DIMSOXD
 70
     0
  9
$DIMSAH
 70
     0
  9
$DIMBLK1
  1

  9
$DIMBLK2
  1

  9
$DIMSTYLE
  2
STANDARD
  9
$DIMCLRD
 70
     0
  9
$DIMCLRE
 70
     0
  9
$DIMCLRT
 70
     0
  9
$DIMTFAC
 40
1.0
  9
$DIMGAP
 40
0.06
  9
$DIMJUST
 70
     0
  9
$DIMSD1
 70
     0
  9
$DIMSD2
 70
     0
  9
$DIMTOLJ
 70
     1
  9
$DIMTZIN
 70
     0
  9
$DIMALTZ
 70
     0
  9
$DIMALTTZ
 70
     0
  9
$DIMFIT
 70
     3
  9
$DIMUPT
 70
     0
  9
$DIMUNIT
 70
     2
  9
$DIMDEC
 70
     2
  9
$DIMTDEC
 70
     2
  9
$DIMALTU
 70
     2
  9
$DIMALTTD
 70
     2
  9
$DIMTXSTY
  7
STANDARD
  9
$DIMAUNIT
 70
     0
  9
$LUNITS
 70
     2
  9
$LUPREC
 70
     2
  9
$SKETCHINC
 40
0.1
  9
$FILLETRAD
 40
0.5
  9
$AUNITS
 70
     0
  9
$AUPREC
 70
     2
  9
$MENU
  1
.
  9
$ELEVATION
 40
0.0
  9
$PELEVATION
 40
0.0
  9
$THICKNESS
 40
0.0
  9
$LIMCHECK
 70
     0
  9
$CHAMFERA
 40
0.0
  9
$CHAMFERB
 40
0.0
  9
$CHAMFERC
 40
0.0
  9
$CHAMFERD
 40
0.0
  9
$SKPOLY
 70
     0
  9
$TDCREATE
 40
2457406.021971146
  9
$TDUPDATE
 40
2457406.021971539
  9
$TDINDWG
 40
0.0000000116
  9
$TDUSRTIMER
 40
0.0000000116
  9
$USRTIMER
 70
     1
  9
$ANGBASE
 50
0.0
  9
$ANGDIR
 70
     0
  9
$PDMODE
 70
     0
  9
$PDSIZE
 40
-1.0
  9
$PLINEWID
 40
0.0
  9
$COORDS
 70
     1
  9
$SPLFRAME
 70
     0
  9
$SPLINETYPE
 70
     6
  9
$SPLINESEGS
 70
     8
  9
$ATTDIA
 70
     0
  9
$ATTREQ
 70
     1
  9
$HANDLING
 70
     1
  9
$HANDSEED
  5
2A2
  9
$SURFTAB1
 70
     6
  9
$SURFTAB2
 70
     6
  9
$SURFTYPE
 70
     6
  9
$SURFU
 70
     6
  9
$SURFV
 70
     6
  9
$UCSNAME
  2

  9
$UCSORG
 10
0.0
 20
0.0
 30
0.0
  9
$UCSXDIR
 10
1.0
 20
0.0
 30
0.0
  9
$UCSYDIR
 10
0.0
 20
1.0
 30
0.0
  9
$PUCSNAME
  2

  9
$PUCSORG
 10
0.0
 20
0.0
 30
0.0
  9
$PUCSXDIR
 10
1.0
 20
0.0
 30
0.0
  9
$PUCSYDIR
 10
0.0
 20
1.0
 30
0.0
  9
$USERI1
 70
     0
  9
$USERI2
 70
     0
  9
$USERI3
 70
     0
  9
$USERI4
 70
     0
  9
$USERI5
 70
     0
  9
$USERR1
 40
0.0
  9
$USERR2
 40
0.0
  9
$USERR3
 40
0.0
  9
$USERR4
 40
0.0
  9
$USERR5
 40
0.0
  9
$WORLDVIEW
 70
     1
  9
$SHADEDGE
 70
     3
  9
$SHADEDIF
 70
    70
  9
$TILEMODE
 70
     1
  9
$MAXACTVP
 70
    64
  9
$PINSBASE
 10
0.0
 20
0.0
 30
0.0
  9
$PLIMCHECK
 70
     0
  9
$PEXTMIN
 10
1.0000000000E+20
 20
1.0000000000E+20
 30
1.0000000000E+20
  9
$PEXTMAX
 10
-1.0000000000E+20
 20
-1.0000000000E+20
 30
-1.0000000000E+20
  9
$PLIMMIN
 10
0.0
 20
0.0
  9
$PLIMMAX
 10
12.0
 20
9.0
  9
$UNITMODE
 70
     0
  9
$VISRETAIN
 70
     1
  9
$PLINEGEN
 70
     0
  9
$PSLTSCALE
 70
     1
  9
$TREEDEPTH
 70
  3020
  9
$PICKSTYLE
 70
     1
  9
$CMLSTYLE
  2
STANDARD
  9
$CMLJUST
 70
     0
  9
$CMLSCALE
 40
1.0
  9
$SAVEIMAGES
 70
     1
  0
ENDSEC
  0
SECTION
  2
CLASSES
  0
CLASS
  1
ACDBDICTIONARYWDFLT
  2
AcDbDictionaryWithDefault
  3
ObjectDBX Classes
 90
    32768
280
     0
281
     0
  0
CLASS
  1
VISUALSTYLE
  2
AcDbVisualStyle
  3
ObjectDBX Classes
 90
     4095
280
     0
281
     0
  0
CLASS
  1
MATERIAL
  2
AcDbMaterial
  3
ObjectDBX Classes
 90
     1153
280
     0
281
     0
  0
CLASS
  1
SCALE
  2
AcDbScale
  3
ObjectDBX Classes
 90
     1153
280
     0
281
     0
  0
CLASS
  1
TABLESTYLE
  2
AcDbTableStyle
  3
ObjectDBX Classes
 90
     4095
280
     0
281
     0
  0
CLASS
  1
MLEADERSTYLE
  2
AcDbMLeaderStyle
  3
ACDB_MLEADERSTYLE_CLASS
 90
     4095
280
     0
281
     0
  0
CLASS
  1
SUN
  2
AcDbSun
  3
SCENEOE
 90
     1153
280
     0
281
     0
  0
CLASS
  1
XRECORD
  2
AcDbXrecord
  3
ObjectDBX Classes
 90
    32768
280
     0
281
     0
  0
ENDSEC
  0
SECTION
  2
TABLES
  0
TABLE
  2
VPORT
  5
8
330
0
100
AcDbSymbolTable
 70
     1
  0
VPORT
  5
29
330
8
100
AcDbSymbolTableRecord
100
AcDbViewportTableRecord
  2
*ACTIVE
 70
     0
 10
0.0
 20
0.0
 11
1.0
 21
1.0
 12
8.5
 22
5.5
 13
0.0
 23
0.0
 14
0.5
 24
0.5
 15
0.5
 25
0.5
 16
0.0
 26
0.0
 36
1.0
 17
0.0
 27
0.0
 37
0.0
 40
11.0
 41
1.5454545455
 42
50.0
 43
0.0
 44
0.0
 50
0.0
 51
0.0
 71
     0
 72
  2000
 73
     1
 74
     3
 75
     0
 76
     0
 77
     0
 78
     0
  0
ENDTAB
  0
TABLE
  2
LTYPE
  5
5
330
0
100
AcDbSymbolTable
 70
     6
  0
LTYPE
  5
14
330
5
100
AcDbSymbolTableRecord
100
AcDbLinetypeTableRecord
  2
BYBLOCK
 70
     0
  3

 72
    65
 73
     0
 40
0.0
  0
LTYPE
  5
15
330
5
100
AcDbSymbolTableRecord
100
AcDbLinetypeTableRecord
  2
BYLAYER
 70
     0
  3

 72
    65
 73
     0
 40
0.0
  0
LTYPE
  5
16
330
5
100
AcDbSymbolTableRecord
100
AcDbLinetypeTableRecord
  2
CONTINUOUS
 70
     0
  3
Solid line
 72
    65
 73
     0
 40
0.0
  0
LTYPE
  5
6E
330
5
100
AcDbSymbolTableRecord
100
AcDbLinetypeTableRecord
  2
HIDDEN
 70
     0
  3
Hidden __ __ __ __ __ __ __ __ __ __ __ __ __ __
 72
    65
 73
     2
 40
0.075
 49
0.05
 74
     0
 49
-0.025
 74
     0
  0
LTYPE
  5
6F
330
5
100
AcDbSymbolTableRecord
100
AcDbLinetypeTableRecord
  2
PHANTOM
 70
     0
  3
Phantom ______  __  __  ______  __  __  ______
 72
    65
 73
     6
 40
0.5
 49
0.25
 74
     0
 49
-0.05
 74
     0
 49
0.05
 74
     0
 49
-0.05
 74
     0
 49
0.05
 74
     0
 49
-0.05
 74
     0
  0
LTYPE
  5
70
330
5
100
AcDbSymbolTableRecord
100
AcDbLinetypeTableRecord
  2
CENTER
 70
     0
  3
Center ____ _ ____ _ ____ _ ____ _ ____ _ ____
 72
    65
 73
     4
 40
0.4
 49
0.25
 74
     0
 49
-0.05
 74
     0
 49
0.05
 74
     0
 49
-0.05
 74
     0
  0
LTYPE
  5
71
330
5
100
AcDbSymbolTableRecord
100
AcDbLinetypeTableRecord
  2
CENTERX2
 70
     0
  3
Center (2x) ________  __  ________  __  _____
 72
    65
 73
     4
 40
0.8
 49
0.5
 74
     0
 49
-0.1
 74
     0
 49
0.1
 74
     0
 49
-0.1
 74
     0
  0
LTYPE
  5
72
330
5
100
AcDbSymbolTableRecord
100
AcDbLinetypeTableRecord
  2
DOT2
 70
     0
  3
Dot (.5x) ........................................
 72
    65
 73
     2
 40
0.025
 49
0.0
 74
     0
 49
-0.025
 74
     0
  0
ENDTAB
  0
TABLE
  2
LAYER
  5
2
330
0
100
AcDbSymbolTable
 70
     2
  0
LAYER
  5
10
330
2
100
AcDbSymbolTableRecord
100
AcDbLayerTableRecord
  2
0
 70
     0
 62
     7
  6
CONTINUOUS
  0
LAYER
  5
73
330
2
100
AcDbSymbolTableRecord
100
AcDbLayerTableRecord
  2
FORMAT
 70
     0
 62
     7
  6
CONTINUOUS
  0
ENDTAB
  0
TABLE
  2
STYLE
  5
3
330
0
100
AcDbSymbolTable
 70
     2
  0
STYLE
  5
11
330
3
100
AcDbSymbolTableRecord
100
AcDbTextStyleTableRecord
  2
STANDARD
 70
     0
 40
0.0
 41
1.0
 50
0.0
 71
     0
 42
0.125
  3
txt
  4

  0
STYLE
  5
295
330
3
100
AcDbSymbolTableRecord
100
AcDbTextStyleTableRecord
  2
SLDTEXTSTYLE0
 70
     0
 40
0.0
 41
0.75
 50
0.0
 71
     0
 42
0.125
  3
TXT
  4

  0
ENDTAB
  0
TABLE
  2
VIEW
  5
6
330
0
100
AcDbSymbolTable
 70
     0
  0
ENDTAB
  0
TABLE
  2
UCS
  5
7
330
0
100
AcDbSymbolTable
 70
     0
  0
ENDTAB
  0
TABLE
  2
APPID
  5
9
330
0
100
AcDbSymbolTable
 70
     1
  0
APPID
  5
12
330
9
100
AcDbSymbolTableRecord
100
AcDbRegAppTableRecord
  2
ACAD
 70
     0
  0
ENDTAB
  0
TABLE
  2
DIMSTYLE
  5
A
330
0
100
AcDbSymbolTable
 70
     2
  0
DIMSTYLE
105
27
330
A
100
AcDbSymbolTableRecord
100
AcDbDimStyleTableRecord
  2
STANDARD
 70
     0
  3

  4

  5

  6

  7

 40
1.0
 41
0.18
 42
0.0625
 43
0.38
 44
0.18
 45
0.0
 46
0.0
 47
0.0
 48
0.0
140
0.18
141
0.09
142
0.0
143
25.4
144
1.0
145
0.0
146
1.0
147
0.09
 71
     0
 72
     0
 73
     1
 74
     1
 75
     0
 76
     0
 77
     0
 78
     0
170
     0
171
     2
172
     0
173
     0
174
     0
175
     0
176
     0
177
     0
178
     0
270
     2
271
     4
272
     4
273
     2
274
     2
340
11
275
     0
280
     0
281
     0
282
     0
283
     1
284
     0
285
     0
286
     0
287
     3
288
     0
  0
DIMSTYLE
105
296
102
{ACAD_REACTORS
330
294
102
}
330
A
100
AcDbSymbolTableRecord
100
AcDbDimStyleTableRecord
  2
SLDDIMSTYLE0
 70
     0
  3

  4

  5

  6

  7

 40
1.0
 41
0.13
 42
0.0625
 43
0.38
 44
0.0
 45
0.000000001
 46
0.0
 47
0.0
 48
0.0
140
0.125
141
0.09
142
0.0
143
25.4
144
1.0
145
0.0
146
1.0
147
0.03125
 71
     0
 72
     0
 73
     1
 74
     1
 75
     0
 76
     0
 77
     0
 78
    12
170
     0
171
     2
172
     1
173
     1
174
     0
175
     0
176
     0
177
     0
178
     0
270
     2
271
     3
272
     3
273
     2
274
     2
340
295
275
     0
280
     0
281
     0
282
     0
283
     1
284
    12
285
     0
286
     0
288
     0
  0
ENDTAB
  0
TABLE
  2
BLOCK_RECORD
  5
1
330
0
100
AcDbSymbolTable
 70
     2
  0
BLOCK_RECORD
  5
1F
330
1
100
AcDbSymbolTableRecord
100
AcDbBlockTableRecord
  2
*MODEL_SPACE
  0
BLOCK_RECORD
  5
1B
330
1
100
AcDbSymbolTableRecord
100
AcDbBlockTableRecord
  2
*PAPER_SPACE
  0
BLOCK_RECORD
  5
23
330
1
100
AcDbSymbolTableRecord
100
AcDbBlockTableRecord
  2
*PAPER_SPACE0
  0
BLOCK_RECORD
  5
297
330
1
100
AcDbSymbolTableRecord
100
AcDbBlockTableRecord
  2
_D
  0
ENDTAB
  0
ENDSEC
  0
SECTION
  2
BLOCKS
  0
BLOCK
  5
20
330
1F
100
AcDbEntity
  8
0
100
AcDbBlockBegin
  2
*MODEL_SPACE
 70
     0
 10
0.0
 20
0.0
 30
0.0
  3
*MODEL_SPACE
  1

  0
ENDBLK
  5
21
330
1F
100
AcDbEntity
  8
0
100
AcDbBlockEnd
  0
BLOCK
  5
1C
330
1B
100
AcDbEntity
 67
     1
  8
0
100
AcDbBlockBegin
  2
*PAPER_SPACE
 70
     0
 10
0.0
 20
0.0
 30
0.0
  3
*PAPER_SPACE
  1

  0
ENDBLK
  5
1D
330
1B
100
AcDbEntity
 67
     1
  8
0
100
AcDbBlockEnd
  0
BLOCK
  5
24
330
23
100
AcDbEntity
  8
0
100
AcDbBlockBegin
  2
*PAPER_SPACE0
 70
     0
 10
0.0
 20
0.0
 30
0.0
  3
*PAPER_SPACE0
  1

  0
ENDBLK
  5
25
330
23
100
AcDbEntity
  8
0
100
AcDbBlockEnd
  0
BLOCK
  5
298
330
297
100
AcDbEntity
  8
0
100
AcDbBlockBegin
  2
_D
 70
     0
 10
0.0
 20
0.0
 30
0.0
  3
_D
  1

  0
SOLID
  5
29A
330
297
100
AcDbEntity
  8
0
  6
CONTINUOUS
 62
     7
100
AcDbTrace
 10
12.2859702212
 20
1.4857511752
 30
0.0
 11
12.2659702212
 21
1.3557511752
 31
0.0
 12
12.3059702212
 22
1.3557511752
 32
0.0
 13
12.3059702212
 23
1.3557511752
 33
0.0
  0
SOLID
  5
29B
330
297
100
AcDbEntity
  8
0
  6
CONTINUOUS
 62
     7
100
AcDbTrace
 10
12.2859702212
 20
1.5369322776
 30
0.0
 11
12.3059702212
 21
1.6669322776
 31
0.0
 12
12.2659702212
 22
1.6669322776
 32
0.0
 13
12.2659702212
 23
1.6669322776
 33
0.0
  0
LINE
  5
29C
330
297
100
AcDbEntity
  8
0
  6
CONTINUOUS
 62
     7
100
AcDbLine
 10
11.9422694338
 20
1.4857511752
 30
0.0
 11
12.4109702212
 21
1.4857511752
 31
0.0
  0
LINE
  5
29D
330
297
100
AcDbEntity
  8
0
  6
CONTINUOUS
 62
     7
100
AcDbLine
 10
11.9422694338
 20
1.5369322776
 30
0.0
 11
12.4109702212
 21
1.5369322776
 31
0.0
  0
LINE
  5
29E
330
297
100
AcDbEntity
  8
0
  6
CONTINUOUS
 62
     7
100
AcDbLine
 10
12.5359702212
 20
1.8861510306
 30
0.0
 11
12.2859702212
 21
1.8861510306
 31
0.0
  0
LINE
  5
29F
330
297
100
AcDbEntity
  8
0
  6
CONTINUOUS
 62
     7
100
AcDbLine
 10
12.2859702212
 20
1.8861510306
 30
0.0
 11
12.2859702212
 21
1.5369322776
 31
0.0
  0
LINE
  5
2A0
330
297
100
AcDbEntity
  8
0
  6
CONTINUOUS
 62
     7
100
AcDbLine
 10
12.2859702212
 20
1.4857511752
 30
0.0
 11
12.2859702212
 21
1.2357511752
 31
0.0
  0
MTEXT
  5
2A1
330
297
100
AcDbEntity
  8
0
  6
CONTINUOUS
 62
     7
100
AcDbMText
 10
12.5359702212
 20
1.9480657588
 30
0.0
 40
0.125
 41
0.0
 71
     1
 72
     1
  1
.051
  7
SLDTEXTSTYLE0
  0
ENDBLK
  5
299
330
297
100
AcDbEntity
  8
0
100
AcDbBlockEnd
  0
ENDSEC
  0
SECTION
  2
ENTITIES
  0
LINE
  5
74
330
1F
100
AcDbEntity
  8
0
  6
CONTINUOUS
 62
     7
100
AcDbLine
 10
9.8491592354
 20
8.1635667826
 30
0.0
 11
11.5390804952
 21
8.1635667826
 31
0.0
  0
LINE
  5
75
330
1F
100
AcDbEntity
  8
0
  6
CONTINUOUS
 62
     7
100
AcDbLine
 10
11.5390804952
 20
8.1635667826
 30
0.0
 11
11.5390804952
 21
9.170259696
 31
0.0
  0
LINE
  5
76
330
1F
100
AcDbEntity
  8
0
  6
CONTINUOUS
 62
     7
100
AcDbLine
 10
11.5390804952
 20
9.170259696
 30
0.0
 11
9.8491592354
 21
9.170259696
 31
0.0
  0
LINE
  5
77
330
1F
100
AcDbEntity
  8
0
  6
CONTINUOUS
 62
     7
100
AcDbLine
 10
9.8491592354
 20
9.170259696
 30
0.0
 11
9.8491592354
 21
8.1635667826
 31
0.0
  0
LINE
  5
78
330
1F
100
AcDbEntity
  8
0
  6
CONTINUOUS
 62
     7
100
AcDbLine
 10
6.611875728
 20
8.2117360789
 30
0.0
 11
6.611875728
 21
8.7949644254
 31
0.0
  0
LINE
  5
79
330
1F
100
AcDbEntity
  8
0
  6
CONTINUOUS
 62
     7
100
AcDbLine
 10
7.1476237595
 20
8.2117360789
 30
0.0
 11
6.611875728
 21
8.2117360789
 31
0.0
  0
LINE
  5
7A
330
1F
100
AcDbEntity
  8
0
  6
CONTINUOUS
 62
     7
100
AcDbLine
 10
7.1476237595
 20
8.7949644254
 30
0.0
 11
7.1476237595
 21
8.2117360789
 31
0.0
  0
LINE
  5
7B
330
1F
100
AcDbEntity
  8
0
  6
CONTINUOUS
 62
     7
100
AcDbLine
 10
8.2884698857
 20
8.7949644254
 30
0.0
 11
7.1476237595
 21
8.7949644254
 31
0.0
  0
ARC
  5
7C
330
1F
100
AcDbEntity
  8
0
  6
CONTINUOUS
 62
     7
100
AcDbCircle
 10
8.2884698857
 20
9.5449644254
 30
0.0
 40
0.7500000000000018
100
AcDbArc
 50
270.0
 51
295.0
  0
LINE
  5
7D
330
1F
100
AcDbEntity
  8
0
  6
CONTINUOUS
 62
     7
100
AcDbLine
 10
9.510966536
 20
9.2874905363
 30
0.0
 11
8.605433582
 21
8.8652335851
 31
0.0
  0
ARC
  5
7E
330
1F
100
AcDbEntity
  8
0
  6
CONTINUOUS
 62
     7
100
AcDbCircle
 10
9.8279302323
 20
8.607759696
 30
0.0
 40
0.7500000000000003
100
AcDbArc
 50
90.0
 51
115.0
  0
LINE
  5
7F
330
1F
100
AcDbEntity
  8
0
  6
CONTINUOUS
 62
     7
100
AcDbLine
 10
11.6422694338
 20
9.357759696
 30
0.0
 11
9.8279302323
 21
9.357759696
 31
0.0
  0
ARC
  5
80
330
1F
100
AcDbEntity
  8
0
  6
CONTINUOUS
 62
     7
100
AcDbCircle
 10
11.6422694338
 20
9.107759696
 30
0.0
 40
0.2500000000000018
100
AcDbArc
 50
0.0
 51
90.0
  0
LINE
  5
81
330
1F
100
AcDbEntity
  8
0
  6
CONTINUOUS
 62
     7
100
AcDbLine
 10
11.8922694338
 20
4.2649447354
 30
0.0
 11
11.8922694338
 21
9.107759696
 31
0.0
  0
ARC
  5
82
330
1F
100
AcDbEntity
  8
0
  6
CONTINUOUS
 62
     7
100
AcDbCircle
 10
11.6422694338
 20
4.2649447354
 30
0.0
 40
0.25
100
AcDbArc
 50
270.0
 51
0.0
  0
LINE
  5
83
330
1F
100
AcDbEntity
  8
0
  6
CONTINUOUS
 62
     7
100
AcDbLine
 10
8.6930374134
 20
4.0149447354
 30
0.0
 11
11.6422694338
 21
4.0149447354
 31
0.0
  0
ARC
  5
84
330
1F
100
AcDbEntity
  8
0
  6
CONTINUOUS
 62
     7
100
AcDbCircle
 10
8.6930374134
 20
3.7649447354
 30
0.0
 40
0.2499999999999998
100
AcDbArc
 50
90.0
 51
115.00634861
  0
LINE
  5
85
330
1F
100
AcDbEntity
  8
0
  6
CONTINUOUS
 62
     7
100
AcDbLine
 10
5.5343689208
 20
2.5674660433
 30
0.0
 11
8.5873577429
 21
3.9915099738
 31
0.0
  0
ARC
  5
86
330
1F
100
AcDbEntity
  8
0
  6
CONTINUOUS
 62
     7
100
AcDbCircle
 10
5.4286892504
 20
2.7940312817
 30
0.0
 40
0.2500000000000006
100
AcDbArc
 50
205.00634861
 51
295.00634861
  0
LINE
  5
87
330
1F
100
AcDbEntity
  8
0
  6
CONTINUOUS
 62
     7
100
AcDbLine
 10
4.1768205002
 20
4.8864861586
 30
0.0
 11
5.202124012
 21
2.6883516112
 31
0.0
  0
ARC
  5
88
330
1F
100
AcDbEntity
  8
0
  6
CONTINUOUS
 62
     7
100
AcDbCircle
 10
4.4033857386
 20
4.9921658291
 30
0.0
 40
0.2500000000000006
100
AcDbArc
 50
115.00634861
 51
205.00634861
  0
LINE
  5
89
330
1F
100
AcDbEntity
  8
0
  6
CONTINUOUS
 62
     7
100
AcDbLine
 10
5.6579294139
 20
5.8531971309
 30
0.0
 11
4.2977060682
 21
5.2187310675
 31
0.0
  0
ARC
  5
8A
330
1F
100
AcDbEntity
  8
0
  6
CONTINUOUS
 62
     7
100
AcDbCircle
 10
5.5522497435
 20
6.0797623693
 30
0.0
 40
0.2500000000000006
100
AcDbArc
 50
295.00634861
 51
0.0
  0
LINE
  5
8B
330
1F
100
AcDbEntity
  8
0
  6
CONTINUOUS
 62
     7
100
AcDbLine
 10
5.8022497435
 20
8.5449644254
 30
0.0
 11
5.8022497435
 21
6.0797623693
 31
0.0
  0
ARC
  5
8C
330
1F
100
AcDbEntity
  8
0
  6
CONTINUOUS
 62
     7
100
AcDbCircle
 10
6.0522497435
 20
8.5449644254
 30
0.0
 40
0.2500000000000009
100
AcDbArc
 50
90.0
 51
180.0
  0
LINE
  5
8D
330
1F
100
AcDbEntity
  8
0
  6
CONTINUOUS
 62
     7
100
AcDbLine
 10
6.611875728
 20
8.7949644254
 30
0.0
 11
6.0522497435
 21
8.7949644254
 31
0.0
  0
CIRCLE
  5
8E
330
1F
100
AcDbEntity
  8
0
  6
CONTINUOUS
 62
     7
100
AcDbCircle
 10
5.8873941873
 20
5.79854279
 30
0.0
 40
0.0884999999999998
  0
CIRCLE
  5
8F
330
1F
100
AcDbEntity
  8
0
  6
CONTINUOUS
 62
     7
100
AcDbCircle
 10
4.3369367569
 20
5.0163429426
 30
0.0
 40
0.0884999999999998
  0
CIRCLE
  5
90
330
1F
100
AcDbEntity
  8
0
  6
CONTINUOUS
 62
     7
100
AcDbCircle
 10
5.4045121368
 20
2.7275822999
 30
0.0
 40
0.0884999999999998
  0
CIRCLE
  5
91
330
1F
100
AcDbEntity
  8
0
  6
CONTINUOUS
 62
     7
100
AcDbCircle
 10
8.5396514915
 20
4.1899447354
 30
0.0
 40
0.0884999999999998
  0
CIRCLE
  5
92
330
1F
100
AcDbEntity
  8
0
  6
CONTINUOUS
 62
     7
100
AcDbCircle
 10
11.6672694338
 20
4.2399447354
 30
0.0
 40
0.0884999999999998
  0
CIRCLE
  5
93
330
1F
100
AcDbEntity
  8
0
  6
CONTINUOUS
 62
     7
100
AcDbCircle
 10
11.7265804952
 20
9.040259696
 30
0.0
 40
0.0884999999999998
  0
CIRCLE
  5
94
330
1F
100
AcDbEntity
  8
0
  6
CONTINUOUS
 62
     7
100
AcDbCircle
 10
9.6616592354
 20
9.045259696
 30
0.0
 40
0.0885000000000016
  0
CIRCLE
  5
95
330
1F
100
AcDbEntity
  8
0
  6
CONTINUOUS
 62
     7
100
AcDbCircle
 10
8.3022497435
 20
8.6074644254
 30
0.0
 40
0.0885000000000016
  0
CIRCLE
  5
96
330
1F
100
AcDbEntity
  8
0
  6
CONTINUOUS
 62
     7
100
AcDbCircle
 10
6.0272497435
 20
8.5699644254
 30
0.0
 40
0.0884999999999998
  0
LINE
  5
97
330
1F
100
AcDbEntity
  8
0
  6
CONTINUOUS
 62
     7
100
AcDbLine
 10
7.7292595886
 20
6.1239982799
 30
0.0
 11
8.2802595886
 21
6.1239982799
 31
0.0
  0
LINE
  5
98
330
1F
100
AcDbEntity
  8
0
  6
CONTINUOUS
 62
     7
100
AcDbLine
 10
8.2802595886
 20
6.1475297759
 30
0.0
 11
8.3098776989
 21
6.1475297759
 31
0.0
  0
LINE
  5
99
330
1F
100
AcDbEntity
  8
0
  6
CONTINUOUS
 62
     7
100
AcDbLine
 10
8.3098776989
 20
6.1475297759
 30
0.0
 11
8.3098776989
 21
6.6514667838
 31
0.0
  0
LINE
  5
9A
330
1F
100
AcDbEntity
  8
0
  6
CONTINUOUS
 62
     7
100
AcDbLine
 10
8.3098776989
 20
6.6514667838
 30
0.0
 11
8.2802595886
 21
6.6514667838
 31
0.0
  0
LINE
  5
9B
330
1F
100
AcDbEntity
  8
0
  6
CONTINUOUS
 62
     7
100
AcDbLine
 10
8.2802595886
 20
6.6514667838
 30
0.0
 11
8.2802595886
 21
6.6749982799
 31
0.0
  0
LINE
  5
9C
330
1F
100
AcDbEntity
  8
0
  6
CONTINUOUS
 62
     7
100
AcDbLine
 10
8.2802595886
 20
6.6749982799
 30
0.0
 11
7.7292595886
 21
6.6749982799
 31
0.0
  0
LINE
  5
9D
330
1F
100
AcDbEntity
  8
0
  6
CONTINUOUS
 62
     7
100
AcDbLine
 10
7.7292595886
 20
6.6749982799
 30
0.0
 11
7.7292595886
 21
6.6514667838
 31
0.0
  0
LINE
  5
9E
330
1F
100
AcDbEntity
  8
0
  6
CONTINUOUS
 62
     7
100
AcDbLine
 10
7.7292595886
 20
6.6514667838
 30
0.0
 11
7.6996414784
 21
6.6514667838
 31
0.0
  0
LINE
  5
9F
330
1F
100
AcDbEntity
  8
0
  6
CONTINUOUS
 62
     7
100
AcDbLine
 10
7.6996414784
 20
6.6514667838
 30
0.0
 11
7.6996414784
 21
6.1475297759
 31
0.0
  0
LINE
  5
A0
330
1F
100
AcDbEntity
  8
0
  6
CONTINUOUS
 62
     7
100
AcDbLine
 10
7.6996414784
 20
6.1475297759
 30
0.0
 11
7.7292595886
 21
6.1475297759
 31
0.0
  0
LINE
  5
A1
330
1F
100
AcDbEntity
  8
0
  6
CONTINUOUS
 62
     7
100
AcDbLine
 10
7.7292595886
 20
7.6239982799
 30
0.0
 11
8.2802595886
 21
7.6239982799
 31
0.0
  0
LINE
  5
A2
330
1F
100
AcDbEntity
  8
0
  6
CONTINUOUS
 62
     7
100
AcDbLine
 10
8.2802595886
 20
7.6475297759
 30
0.0
 11
8.3098776989
 21
7.6475297759
 31
0.0
  0
LINE
  5
A3
330
1F
100
AcDbEntity
  8
0
  6
CONTINUOUS
 62
     7
100
AcDbLine
 10
8.3098776989
 20
7.6475297759
 30
0.0
 11
8.3098776989
 21
8.1514667838
 31
0.0
  0
LINE
  5
A4
330
1F
100
AcDbEntity
  8
0
  6
CONTINUOUS
 62
     7
100
AcDbLine
 10
8.3098776989
 20
8.1514667838
 30
0.0
 11
8.2802595886
 21
8.1514667838
 31
0.0
  0
LINE
  5
A5
330
1F
100
AcDbEntity
  8
0
  6
CONTINUOUS
 62
     7
100
AcDbLine
 10
8.2802595886
 20
8.1514667838
 30
0.0
 11
8.2802595886
 21
8.1749982799
 31
0.0
  0
LINE
  5
A6
330
1F
100
AcDbEntity
  8
0
  6
CONTINUOUS
 62
     7
100
AcDbLine
 10
8.2802595886
 20
8.1749982799
 30
0.0
 11
7.7292595886
 21
8.1749982799
 31
0.0
  0
LINE
  5
A7
330
1F
100
AcDbEntity
  8
0
  6
CONTINUOUS
 62
     7
100
AcDbLine
 10
7.7292595886
 20
8.1749982799
 30
0.0
 11
7.7292595886
 21
8.1514667838
 31
0.0
  0
LINE
  5
A8
330
1F
100
AcDbEntity
  8
0
  6
CONTINUOUS
 62
     7
100
AcDbLine
 10
7.7292595886
 20
8.1514667838
 30
0.0
 11
7.6996414784
 21
8.1514667838
 31
0.0
  0
LINE
  5
A9
330
1F
100
AcDbEntity
  8
0
  6
CONTINUOUS
 62
     7
100
AcDbLine
 10
7.6996414784
 20
8.1514667838
 30
0.0
 11
7.6996414784
 21
7.6475297759
 31
0.0
  0
LINE
  5
AA
330
1F
100
AcDbEntity
  8
0
  6
CONTINUOUS
 62
     7
100
AcDbLine
 10
7.6996414784
 20
7.6475297759
 30
0.0
 11
7.7292595886
 21
7.6475297759
 31
0.0
  0
LINE
  5
AB
330
1F
100
AcDbEntity
  8
0
  6
CONTINUOUS
 62
     7
100
AcDbLine
 10
7.7292595886
 20
6.8739982799
 30
0.0
 11
8.2802595886
 21
6.8739982799
 31
0.0
  0
LINE
  5
AC
330
1F
100
AcDbEntity
  8
0
  6
CONTINUOUS
 62
     7
100
AcDbLine
 10
8.2802595886
 20
6.8975297759
 30
0.0
 11
8.3098776989
 21
6.8975297759
 31
0.0
  0
LINE
  5
AD
330
1F
100
AcDbEntity
  8
0
  6
CONTINUOUS
 62
     7
100
AcDbLine
 10
8.3098776989
 20
6.8975297759
 30
0.0
 11
8.3098776989
 21
7.4014667838
 31
0.0
  0
LINE
  5
AE
330
1F
100
AcDbEntity
  8
0
  6
CONTINUOUS
 62
     7
100
AcDbLine
 10
8.3098776989
 20
7.4014667838
 30
0.0
 11
8.2802595886
 21
7.4014667838
 31
0.0
  0
LINE
  5
AF
330
1F
100
AcDbEntity
  8
0
  6
CONTINUOUS
 62
     7
100
AcDbLine
 10
8.2802595886
 20
7.4014667838
 30
0.0
 11
8.2802595886
 21
7.4249982799
 31
0.0
  0
LINE
  5
B0
330
1F
100
AcDbEntity
  8
0
  6
CONTINUOUS
 62
     7
100
AcDbLine
 10
8.2802595886
 20
7.4249982799
 30
0.0
 11
7.7292595886
 21
7.4249982799
 31
0.0
  0
LINE
  5
B1
330
1F
100
AcDbEntity
  8
0
  6
CONTINUOUS
 62
     7
100
AcDbLine
 10
7.7292595886
 20
7.4249982799
 30
0.0
 11
7.7292595886
 21
7.4014667838
 31
0.0
  0
LINE
  5
B2
330
1F
100
AcDbEntity
  8
0
  6
CONTINUOUS
 62
     7
100
AcDbLine
 10
7.7292595886
 20
7.4014667838
 30
0.0
 11
7.6996414784
 21
7.4014667838
 31
0.0
  0
LINE
  5
B3
330
1F
100
AcDbEntity
  8
0
  6
CONTINUOUS
 62
     7
100
AcDbLine
 10
7.6996414784
 20
7.4014667838
 30
0.0
 11
7.6996414784
 21
6.8975297759
 31
0.0
  0
LINE
  5
B4
330
1F
100
AcDbEntity
  8
0
  6
CONTINUOUS
 62
     7
100
AcDbLine
 10
7.6996414784
 20
6.8975297759
 30
0.0
 11
7.7292595886
 21
6.8975297759
 31
0.0
  0
LINE
  5
B5
330
1F
100
AcDbEntity
  8
0
  6
CONTINUOUS
 62
     7
100
AcDbLine
 10
7.7292595886
 20
5.3739982799
 30
0.0
 11
8.2802595886
 21
5.3739982799
 31
0.0
  0
LINE
  5
B6
330
1F
100
AcDbEntity
  8
0
  6
CONTINUOUS
 62
     7
100
AcDbLine
 10
8.2802595886
 20
5.3975297759
 30
0.0
 11
8.3098776989
 21
5.3975297759
 31
0.0
  0
LINE
  5
B7
330
1F
100
AcDbEntity
  8
0
  6
CONTINUOUS
 62
     7
100
AcDbLine
 10
8.3098776989
 20
5.3975297759
 30
0.0
 11
8.3098776989
 21
5.9014667838
 31
0.0
  0
LINE
  5
B8
330
1F
100
AcDbEntity
  8
0
  6
CONTINUOUS
 62
     7
100
AcDbLine
 10
8.3098776989
 20
5.9014667838
 30
0.0
 11
8.2802595886
 21
5.9014667838
 31
0.0
  0
LINE
  5
B9
330
1F
100
AcDbEntity
  8
0
  6
CONTINUOUS
 62
     7
100
AcDbLine
 10
8.2802595886
 20
5.9014667838
 30
0.0
 11
8.2802595886
 21
5.9249982799
 31
0.0
  0
LINE
  5
BA
330
1F
100
AcDbEntity
  8
0
  6
CONTINUOUS
 62
     7
100
AcDbLine
 10
8.2802595886
 20
5.9249982799
 30
0.0
 11
7.7292595886
 21
5.9249982799
 31
0.0
  0
LINE
  5
BB
330
1F
100
AcDbEntity
  8
0
  6
CONTINUOUS
 62
     7
100
AcDbLine
 10
7.7292595886
 20
5.9249982799
 30
0.0
 11
7.7292595886
 21
5.9014667838
 31
0.0
  0
LINE
  5
BC
330
1F
100
AcDbEntity
  8
0
  6
CONTINUOUS
 62
     7
100
AcDbLine
 10
7.7292595886
 20
5.9014667838
 30
0.0
 11
7.6996414784
 21
5.9014667838
 31
0.0
  0
LINE
  5
BD
330
1F
100
AcDbEntity
  8
0
  6
CONTINUOUS
 62
     7
100
AcDbLine
 10
7.6996414784
 20
5.9014667838
 30
0.0
 11
7.6996414784
 21
5.3975297759
 31
0.0
  0
LINE
  5
BE
330
1F
100
AcDbEntity
  8
0
  6
CONTINUOUS
 62
     7
100
AcDbLine
 10
7.6996414784
 20
5.3975297759
 30
0.0
 11
7.7292595886
 21
5.3975297759
 31
0.0
  0
LINE
  5
BF
330
1F
100
AcDbEntity
  8
0
  6
CONTINUOUS
 62
     7
100
AcDbLine
 10
7.7292595886
 20
4.6239982799
 30
0.0
 11
8.2802595886
 21
4.6239982799
 31
0.0
  0
LINE
  5
C0
330
1F
100
AcDbEntity
  8
0
  6
CONTINUOUS
 62
     7
100
AcDbLine
 10
8.2802595886
 20
4.6475297759
 30
0.0
 11
8.3098776989
 21
4.6475297759
 31
0.0
  0
LINE
  5
C1
330
1F
100
AcDbEntity
  8
0
  6
CONTINUOUS
 62
     7
100
AcDbLine
 10
8.3098776989
 20
4.6475297759
 30
0.0
 11
8.3098776989
 21
5.1514667838
 31
0.0
  0
LINE
  5
C2
330
1F
100
AcDbEntity
  8
0
  6
CONTINUOUS
 62
     7
100
AcDbLine
 10
8.3098776989
 20
5.1514667838
 30
0.0
 11
8.2802595886
 21
5.1514667838
 31
0.0
  0
LINE
  5
C3
330
1F
100
AcDbEntity
  8
0
  6
CONTINUOUS
 62
     7
100
AcDbLine
 10
8.2802595886
 20
5.1514667838
 30
0.0
 11
8.2802595886
 21
5.1749982799
 31
0.0
  0
LINE
  5
C4
330
1F
100
AcDbEntity
  8
0
  6
CONTINUOUS
 62
     7
100
AcDbLine
 10
8.2802595886
 20
5.1749982799
 30
0.0
 11
7.7292595886
 21
5.1749982799
 31
0.0
  0
LINE
  5
C5
330
1F
100
AcDbEntity
  8
0
  6
CONTINUOUS
 62
     7
100
AcDbLine
 10
7.7292595886
 20
5.1749982799
 30
0.0
 11
7.7292595886
 21
5.1514667838
 31
0.0
  0
LINE
  5
C6
330
1F
100
AcDbEntity
  8
0
  6
CONTINUOUS
 62
     7
100
AcDbLine
 10
7.7292595886
 20
5.1514667838
 30
0.0
 11
7.6996414784
 21
5.1514667838
 31
0.0
  0
LINE
  5
C7
330
1F
100
AcDbEntity
  8
0
  6
CONTINUOUS
 62
     7
100
AcDbLine
 10
7.6996414784
 20
5.1514667838
 30
0.0
 11
7.6996414784
 21
4.6475297759
 31
0.0
  0
LINE
  5
C8
330
1F
100
AcDbEntity
  8
0
  6
CONTINUOUS
 62
     7
100
AcDbLine
 10
7.6996414784
 20
4.6475297759
 30
0.0
 11
7.7292595886
 21
4.6475297759
 31
0.0
  0
LINE
  5
C9
330
1F
100
AcDbEntity
  8
0
  6
CONTINUOUS
 62
     7
100
AcDbLine
 10
6.9792595886
 20
5.3239982799
 30
0.0
 11
7.5302595886
 21
5.3239982799
 31
0.0
  0
LINE
  5
CA
330
1F
100
AcDbEntity
  8
0
  6
CONTINUOUS
 62
     7
100
AcDbLine
 10
7.5302595886
 20
5.3475297759
 30
0.0
 11
7.5598776989
 21
5.3475297759
 31
0.0
  0
LINE
  5
CB
330
1F
100
AcDbEntity
  8
0
  6
CONTINUOUS
 62
     7
100
AcDbLine
 10
7.5598776989
 20
5.3475297759
 30
0.0
 11
7.5598776989
 21
5.8514667838
 31
0.0
  0
LINE
  5
CC
330
1F
100
AcDbEntity
  8
0
  6
CONTINUOUS
 62
     7
100
AcDbLine
 10
7.5598776989
 20
5.8514667838
 30
0.0
 11
7.5302595886
 21
5.8514667838
 31
0.0
  0
LINE
  5
CD
330
1F
100
AcDbEntity
  8
0
  6
CONTINUOUS
 62
     7
100
AcDbLine
 10
7.5302595886
 20
5.8514667838
 30
0.0
 11
7.5302595886
 21
5.8749982799
 31
0.0
  0
LINE
  5
CE
330
1F
100
AcDbEntity
  8
0
  6
CONTINUOUS
 62
     7
100
AcDbLine
 10
7.5302595886
 20
5.8749982799
 30
0.0
 11
6.9792595886
 21
5.8749982799
 31
0.0
  0
LINE
  5
CF
330
1F
100
AcDbEntity
  8
0
  6
CONTINUOUS
 62
     7
100
AcDbLine
 10
6.9792595886
 20
5.8749982799
 30
0.0
 11
6.9792595886
 21
5.8514667838
 31
0.0
  0
LINE
  5
D0
330
1F
100
AcDbEntity
  8
0
  6
CONTINUOUS
 62
     7
100
AcDbLine
 10
6.9792595886
 20
5.8514667838
 30
0.0
 11
6.9496414784
 21
5.8514667838
 31
0.0
  0
LINE
  5
D1
330
1F
100
AcDbEntity
  8
0
  6
CONTINUOUS
 62
     7
100
AcDbLine
 10
6.9496414784
 20
5.8514667838
 30
0.0
 11
6.9496414784
 21
5.3475297759
 31
0.0
  0
LINE
  5
D2
330
1F
100
AcDbEntity
  8
0
  6
CONTINUOUS
 62
     7
100
AcDbLine
 10
6.9496414784
 20
5.3475297759
 30
0.0
 11
6.9792595886
 21
5.3475297759
 31
0.0
  0
LINE
  5
D3
330
1F
100
AcDbEntity
  8
0
  6
CONTINUOUS
 62
     7
100
AcDbLine
 10
6.9792595886
 20
6.0739982799
 30
0.0
 11
7.5302595886
 21
6.0739982799
 31
0.0
  0
LINE
  5
D4
330
1F
100
AcDbEntity
  8
0
  6
CONTINUOUS
 62
     7
100
AcDbLine
 10
7.5302595886
 20
6.0975297759
 30
0.0
 11
7.5598776989
 21
6.0975297759
 31
0.0
  0
LINE
  5
D5
330
1F
100
AcDbEntity
  8
0
  6
CONTINUOUS
 62
     7
100
AcDbLine
 10
7.5598776989
 20
6.0975297759
 30
0.0
 11
7.5598776989
 21
6.6014667838
 31
0.0
  0
LINE
  5
D6
330
1F
100
AcDbEntity
  8
0
  6
CONTINUOUS
 62
     7
100
AcDbLine
 10
7.5598776989
 20
6.6014667838
 30
0.0
 11
7.5302595886
 21
6.6014667838
 31
0.0
  0
LINE
  5
D7
330
1F
100
AcDbEntity
  8
0
  6
CONTINUOUS
 62
     7
100
AcDbLine
 10
7.5302595886
 20
6.6014667838
 30
0.0
 11
7.5302595886
 21
6.6249982799
 31
0.0
  0
LINE
  5
D8
330
1F
100
AcDbEntity
  8
0
  6
CONTINUOUS
 62
     7
100
AcDbLine
 10
7.5302595886
 20
6.6249982799
 30
0.0
 11
6.9792595886
 21
6.6249982799
 31
0.0
  0
LINE
  5
D9
330
1F
100
AcDbEntity
  8
0
  6
CONTINUOUS
 62
     7
100
AcDbLine
 10
6.9792595886
 20
6.6249982799
 30
0.0
 11
6.9792595886
 21
6.6014667838
 31
0.0
  0
LINE
  5
DA
330
1F
100
AcDbEntity
  8
0
  6
CONTINUOUS
 62
     7
100
AcDbLine
 10
6.9792595886
 20
6.6014667838
 30
0.0
 11
6.9496414784
 21
6.6014667838
 31
0.0
  0
LINE
  5
DB
330
1F
100
AcDbEntity
  8
0
  6
CONTINUOUS
 62
     7
100
AcDbLine
 10
6.9496414784
 20
6.6014667838
 30
0.0
 11
6.9496414784
 21
6.0975297759
 31
0.0
  0
LINE
  5
DC
330
1F
100
AcDbEntity
  8
0
  6
CONTINUOUS
 62
     7
100
AcDbLine
 10
6.9496414784
 20
6.0975297759
 30
0.0
 11
6.9792595886
 21
6.0975297759
 31
0.0
  0
LINE
  5
DD
330
1F
100
AcDbEntity
  8
0
  6
CONTINUOUS
 62
     7
100
AcDbLine
 10
6.9792595886
 20
6.8239982799
 30
0.0
 11
7.5302595886
 21
6.8239982799
 31
0.0
  0
LINE
  5
DE
330
1F
100
AcDbEntity
  8
0
  6
CONTINUOUS
 62
     7
100
AcDbLine
 10
7.5302595886
 20
6.8475297759
 30
0.0
 11
7.5598776989
 21
6.8475297759
 31
0.0
  0
LINE
  5
DF
330
1F
100
AcDbEntity
  8
0
  6
CONTINUOUS
 62
     7
100
AcDbLine
 10
7.5598776989
 20
6.8475297759
 30
0.0
 11
7.5598776989
 21
7.3514667838
 31
0.0
  0
LINE
  5
E0
330
1F
100
AcDbEntity
  8
0
  6
CONTINUOUS
 62
     7
100
AcDbLine
 10
7.5598776989
 20
7.3514667838
 30
0.0
 11
7.5302595886
 21
7.3514667838
 31
0.0
  0
LINE
  5
E1
330
1F
100
AcDbEntity
  8
0
  6
CONTINUOUS
 62
     7
100
AcDbLine
 10
7.5302595886
 20
7.3514667838
 30
0.0
 11
7.5302595886
 21
7.3749982799
 31
0.0
  0
LINE
  5
E2
330
1F
100
AcDbEntity
  8
0
  6
CONTINUOUS
 62
     7
100
AcDbLine
 10
7.5302595886
 20
7.3749982799
 30
0.0
 11
6.9792595886
 21
7.3749982799
 31
0.0
  0
LINE
  5
E3
330
1F
100
AcDbEntity
  8
0
  6
CONTINUOUS
 62
     7
100
AcDbLine
 10
6.9792595886
 20
7.3749982799
 30
0.0
 11
6.9792595886
 21
7.3514667838
 31
0.0
  0
LINE
  5
E4
330
1F
100
AcDbEntity
  8
0
  6
CONTINUOUS
 62
     7
100
AcDbLine
 10
6.9792595886
 20
7.3514667838
 30
0.0
 11
6.9496414784
 21
7.3514667838
 31
0.0
  0
LINE
  5
E5
330
1F
100
AcDbEntity
  8
0
  6
CONTINUOUS
 62
     7
100
AcDbLine
 10
6.9496414784
 20
7.3514667838
 30
0.0
 11
6.9496414784
 21
6.8475297759
 31
0.0
  0
LINE
  5
E6
330
1F
100
AcDbEntity
  8
0
  6
CONTINUOUS
 62
     7
100
AcDbLine
 10
6.9496414784
 20
6.8475297759
 30
0.0
 11
6.9792595886
 21
6.8475297759
 31
0.0
  0
LINE
  5
E7
330
1F
100
AcDbEntity
  8
0
  6
CONTINUOUS
 62
     7
100
AcDbLine
 10
6.7802595886
 20
6.6364982799
 30
0.0
 11
6.7802595886
 21
7.1874982799
 31
0.0
  0
LINE
  5
E8
330
1F
100
AcDbEntity
  8
0
  6
CONTINUOUS
 62
     7
100
AcDbLine
 10
6.7567280926
 20
7.1874982799
 30
0.0
 11
6.7567280926
 21
7.2171163901
 31
0.0
  0
LINE
  5
E9
330
1F
100
AcDbEntity
  8
0
  6
CONTINUOUS
 62
     7
100
AcDbLine
 10
6.7567280926
 20
7.2171163901
 30
0.0
 11
6.2527910847
 21
7.2171163901
 31
0.0
  0
LINE
  5
EA
330
1F
100
AcDbEntity
  8
0
  6
CONTINUOUS
 62
     7
100
AcDbLine
 10
6.2527910847
 20
7.2171163901
 30
0.0
 11
6.2527910847
 21
7.1874982799
 31
0.0
  0
LINE
  5
EB
330
1F
100
AcDbEntity
  8
0
  6
CONTINUOUS
 62
     7
100
AcDbLine
 10
6.2527910847
 20
7.1874982799
 30
0.0
 11
6.2292595886
 21
7.1874982799
 31
0.0
  0
LINE
  5
EC
330
1F
100
AcDbEntity
  8
0
  6
CONTINUOUS
 62
     7
100
AcDbLine
 10
6.2292595886
 20
7.1874982799
 30
0.0
 11
6.2292595886
 21
6.6364982799
 31
0.0
  0
LINE
  5
ED
330
1F
100
AcDbEntity
  8
0
  6
CONTINUOUS
 62
     7
100
AcDbLine
 10
6.2292595886
 20
6.6364982799
 30
0.0
 11
6.2527910847
 21
6.6364982799
 31
0.0
  0
LINE
  5
EE
330
1F
100
AcDbEntity
  8
0
  6
CONTINUOUS
 62
     7
100
AcDbLine
 10
6.2527910847
 20
6.6364982799
 30
0.0
 11
6.2527910847
 21
6.6068801696
 31
0.0
  0
LINE
  5
EF
330
1F
100
AcDbEntity
  8
0
  6
CONTINUOUS
 62
     7
100
AcDbLine
 10
6.2527910847
 20
6.6068801696
 30
0.0
 11
6.7567280926
 21
6.6068801696
 31
0.0
  0
LINE
  5
F0
330
1F
100
AcDbEntity
  8
0
  6
CONTINUOUS
 62
     7
100
AcDbLine
 10
6.7567280926
 20
6.6068801696
 30
0.0
 11
6.7567280926
 21
6.6364982799
 31
0.0
  0
LINE
  5
F1
330
1F
100
AcDbEntity
  8
0
  6
CONTINUOUS
 62
     7
100
AcDbLine
 10
6.7802595886
 20
5.5114982799
 30
0.0
 11
6.7802595886
 21
6.0624982799
 31
0.0
  0
LINE
  5
F2
330
1F
100
AcDbEntity
  8
0
  6
CONTINUOUS
 62
     7
100
AcDbLine
 10
6.7567280926
 20
6.0624982799
 30
0.0
 11
6.7567280926
 21
6.0921163901
 31
0.0
  0
LINE
  5
F3
330
1F
100
AcDbEntity
  8
0
  6
CONTINUOUS
 62
     7
100
AcDbLine
 10
6.7567280926
 20
6.0921163901
 30
0.0
 11
6.2527910847
 21
6.0921163901
 31
0.0
  0
LINE
  5
F4
330
1F
100
AcDbEntity
  8
0
  6
CONTINUOUS
 62
     7
100
AcDbLine
 10
6.2527910847
 20
6.0921163901
 30
0.0
 11
6.2527910847
 21
6.0624982799
 31
0.0
  0
LINE
  5
F5
330
1F
100
AcDbEntity
  8
0
  6
CONTINUOUS
 62
     7
100
AcDbLine
 10
6.2527910847
 20
6.0624982799
 30
0.0
 11
6.2292595886
 21
6.0624982799
 31
0.0
  0
LINE
  5
F6
330
1F
100
AcDbEntity
  8
0
  6
CONTINUOUS
 62
     7
100
AcDbLine
 10
6.2292595886
 20
6.0624982799
 30
0.0
 11
6.2292595886
 21
5.5114982799
 31
0.0
  0
LINE
  5
F7
330
1F
100
AcDbEntity
  8
0
  6
CONTINUOUS
 62
     7
100
AcDbLine
 10
6.2292595886
 20
5.5114982799
 30
0.0
 11
6.2527910847
 21
5.5114982799
 31
0.0
  0
LINE
  5
F8
330
1F
100
AcDbEntity
  8
0
  6
CONTINUOUS
 62
     7
100
AcDbLine
 10
6.2527910847
 20
5.5114982799
 30
0.0
 11
6.2527910847
 21
5.4818801696
 31
0.0
  0
LINE
  5
F9
330
1F
100
AcDbEntity
  8
0
  6
CONTINUOUS
 62
     7
100
AcDbLine
 10
6.2527910847
 20
5.4818801696
 30
0.0
 11
6.7567280926
 21
5.4818801696
 31
0.0
  0
LINE
  5
FA
330
1F
100
AcDbEntity
  8
0
  6
CONTINUOUS
 62
     7
100
AcDbLine
 10
6.7567280926
 20
5.4818801696
 30
0.0
 11
6.7567280926
 21
5.5114982799
 31
0.0
  0
LINE
  5
FB
330
1F
100
AcDbEntity
  8
0
  6
CONTINUOUS
 62
     7
100
AcDbLine
 10
6.9792595886
 20
7.5739982799
 30
0.0
 11
7.5302595886
 21
7.5739982799
 31
0.0
  0
LINE
  5
FC
330
1F
100
AcDbEntity
  8
0
  6
CONTINUOUS
 62
     7
100
AcDbLine
 10
7.5302595886
 20
7.5975297759
 30
0.0
 11
7.5598776989
 21
7.5975297759
 31
0.0
  0
LINE
  5
FD
330
1F
100
AcDbEntity
  8
0
  6
CONTINUOUS
 62
     7
100
AcDbLine
 10
7.5598776989
 20
7.5975297759
 30
0.0
 11
7.5598776989
 21
8.1014667838
 31
0.0
  0
LINE
  5
FE
330
1F
100
AcDbEntity
  8
0
  6
CONTINUOUS
 62
     7
100
AcDbLine
 10
7.5598776989
 20
8.1014667838
 30
0.0
 11
7.5302595886
 21
8.1014667838
 31
0.0
  0
LINE
  5
FF
330
1F
100
AcDbEntity
  8
0
  6
CONTINUOUS
 62
     7
100
AcDbLine
 10
7.5302595886
 20
8.1014667838
 30
0.0
 11
7.5302595886
 21
8.1249982799
 31
0.0
  0
LINE
  5
100
330
1F
100
AcDbEntity
  8
0
  6
CONTINUOUS
 62
     7
100
AcDbLine
 10
7.5302595886
 20
8.1249982799
 30
0.0
 11
6.9792595886
 21
8.1249982799
 31
0.0
  0
LINE
  5
101
330
1F
100
AcDbEntity
  8
0
  6
CONTINUOUS
 62
     7
100
AcDbLine
 10
6.9792595886
 20
8.1249982799
 30
0.0
 11
6.9792595886
 21
8.1014667838
 31
0.0
  0
LINE
  5
102
330
1F
100
AcDbEntity
  8
0
  6
CONTINUOUS
 62
     7
100
AcDbLine
 10
6.9792595886
 20
8.1014667838
 30
0.0
 11
6.9496414784
 21
8.1014667838
 31
0.0
  0
LINE
  5
103
330
1F
100
AcDbEntity
  8
0
  6
CONTINUOUS
 62
     7
100
AcDbLine
 10
6.9496414784
 20
8.1014667838
 30
0.0
 11
6.9496414784
 21
7.5975297759
 31
0.0
  0
LINE
  5
104
330
1F
100
AcDbEntity
  8
0
  6
CONTINUOUS
 62
     7
100
AcDbLine
 10
6.9496414784
 20
7.5975297759
 30
0.0
 11
6.9792595886
 21
7.5975297759
 31
0.0
  0
LINE
  5
105
330
1F
100
AcDbEntity
  8
0
  6
CONTINUOUS
 62
     7
100
AcDbLine
 10
6.2292595886
 20
7.5739982799
 30
0.0
 11
6.7802595886
 21
7.5739982799
 31
0.0
  0
LINE
  5
106
330
1F
100
AcDbEntity
  8
0
  6
CONTINUOUS
 62
     7
100
AcDbLine
 10
6.7802595886
 20
7.5975297759
 30
0.0
 11
6.8098776989
 21
7.5975297759
 31
0.0
  0
LINE
  5
107
330
1F
100
AcDbEntity
  8
0
  6
CONTINUOUS
 62
     7
100
AcDbLine
 10
6.8098776989
 20
7.5975297759
 30
0.0
 11
6.8098776989
 21
8.1014667838
 31
0.0
  0
LINE
  5
108
330
1F
100
AcDbEntity
  8
0
  6
CONTINUOUS
 62
     7
100
AcDbLine
 10
6.8098776989
 20
8.1014667838
 30
0.0
 11
6.7802595886
 21
8.1014667838
 31
0.0
  0
LINE
  5
109
330
1F
100
AcDbEntity
  8
0
  6
CONTINUOUS
 62
     7
100
AcDbLine
 10
6.7802595886
 20
8.1014667838
 30
0.0
 11
6.7802595886
 21
8.1249982799
 31
0.0
  0
LINE
  5
10A
330
1F
100
AcDbEntity
  8
0
  6
CONTINUOUS
 62
     7
100
AcDbLine
 10
6.7802595886
 20
8.1249982799
 30
0.0
 11
6.2292595886
 21
8.1249982799
 31
0.0
  0
LINE
  5
10B
330
1F
100
AcDbEntity
  8
0
  6
CONTINUOUS
 62
     7
100
AcDbLine
 10
6.2292595886
 20
8.1249982799
 30
0.0
 11
6.2292595886
 21
8.1014667838
 31
0.0
  0
LINE
  5
10C
330
1F
100
AcDbEntity
  8
0
  6
CONTINUOUS
 62
     7
100
AcDbLine
 10
6.2292595886
 20
8.1014667838
 30
0.0
 11
6.1996414784
 21
8.1014667838
 31
0.0
  0
LINE
  5
10D
330
1F
100
AcDbEntity
  8
0
  6
CONTINUOUS
 62
     7
100
AcDbLine
 10
6.1996414784
 20
8.1014667838
 30
0.0
 11
6.1996414784
 21
7.5975297759
 31
0.0
  0
LINE
  5
10E
330
1F
100
AcDbEntity
  8
0
  6
CONTINUOUS
 62
     7
100
AcDbLine
 10
6.1996414784
 20
7.5975297759
 30
0.0
 11
6.2292595886
 21
7.5975297759
 31
0.0
  0
LINE
  5
10F
330
1F
100
AcDbEntity
  8
0
  6
CONTINUOUS
 62
     7
100
AcDbLine
 10
8.4792595886
 20
7.6865888299
 30
0.0
 11
9.0302595886
 21
7.6865888299
 31
0.0
  0
LINE
  5
110
330
1F
100
AcDbEntity
  8
0
  6
CONTINUOUS
 62
     7
100
AcDbLine
 10
9.0302595886
 20
7.7101203259
 30
0.0
 11
9.0598776989
 21
7.7101203259
 31
0.0
  0
LINE
  5
111
330
1F
100
AcDbEntity
  8
0
  6
CONTINUOUS
 62
     7
100
AcDbLine
 10
9.0598776989
 20
7.7101203259
 30
0.0
 11
9.0598776989
 21
8.2140573338
 31
0.0
  0
LINE
  5
112
330
1F
100
AcDbEntity
  8
0
  6
CONTINUOUS
 62
     7
100
AcDbLine
 10
9.0598776989
 20
8.2140573338
 30
0.0
 11
9.0302595886
 21
8.2140573338
 31
0.0
  0
LINE
  5
113
330
1F
100
AcDbEntity
  8
0
  6
CONTINUOUS
 62
     7
100
AcDbLine
 10
9.0302595886
 20
8.2140573338
 30
0.0
 11
9.0302595886
 21
8.2375888299
 31
0.0
  0
LINE
  5
114
330
1F
100
AcDbEntity
  8
0
  6
CONTINUOUS
 62
     7
100
AcDbLine
 10
9.0302595886
 20
8.2375888299
 30
0.0
 11
8.4792595886
 21
8.2375888299
 31
0.0
  0
LINE
  5
115
330
1F
100
AcDbEntity
  8
0
  6
CONTINUOUS
 62
     7
100
AcDbLine
 10
8.4792595886
 20
8.2375888299
 30
0.0
 11
8.4792595886
 21
8.2140573338
 31
0.0
  0
LINE
  5
116
330
1F
100
AcDbEntity
  8
0
  6
CONTINUOUS
 62
     7
100
AcDbLine
 10
8.4792595886
 20
8.2140573338
 30
0.0
 11
8.4496414784
 21
8.2140573338
 31
0.0
  0
LINE
  5
117
330
1F
100
AcDbEntity
  8
0
  6
CONTINUOUS
 62
     7
100
AcDbLine
 10
8.4496414784
 20
8.2140573338
 30
0.0
 11
8.4496414784
 21
7.7101203259
 31
0.0
  0
LINE
  5
118
330
1F
100
AcDbEntity
  8
0
  6
CONTINUOUS
 62
     7
100
AcDbLine
 10
8.4496414784
 20
7.7101203259
 30
0.0
 11
8.4792595886
 21
7.7101203259
 31
0.0
  0
LINE
  5
119
330
1F
100
AcDbEntity
  8
0
  6
CONTINUOUS
 62
     7
100
AcDbLine
 10
8.4792595886
 20
6.9365888299
 30
0.0
 11
9.0302595886
 21
6.9365888299
 31
0.0
  0
LINE
  5
11A
330
1F
100
AcDbEntity
  8
0
  6
CONTINUOUS
 62
     7
100
AcDbLine
 10
9.0302595886
 20
6.9601203259
 30
0.0
 11
9.0598776989
 21
6.9601203259
 31
0.0
  0
LINE
  5
11B
330
1F
100
AcDbEntity
  8
0
  6
CONTINUOUS
 62
     7
100
AcDbLine
 10
9.0598776989
 20
6.9601203259
 30
0.0
 11
9.0598776989
 21
7.4640573338
 31
0.0
  0
LINE
  5
11C
330
1F
100
AcDbEntity
  8
0
  6
CONTINUOUS
 62
     7
100
AcDbLine
 10
9.0598776989
 20
7.4640573338
 30
0.0
 11
9.0302595886
 21
7.4640573338
 31
0.0
  0
LINE
  5
11D
330
1F
100
AcDbEntity
  8
0
  6
CONTINUOUS
 62
     7
100
AcDbLine
 10
9.0302595886
 20
7.4640573338
 30
0.0
 11
9.0302595886
 21
7.4875888299
 31
0.0
  0
LINE
  5
11E
330
1F
100
AcDbEntity
  8
0
  6
CONTINUOUS
 62
     7
100
AcDbLine
 10
9.0302595886
 20
7.4875888299
 30
0.0
 11
8.4792595886
 21
7.4875888299
 31
0.0
  0
LINE
  5
11F
330
1F
100
AcDbEntity
  8
0
  6
CONTINUOUS
 62
     7
100
AcDbLine
 10
8.4792595886
 20
7.4875888299
 30
0.0
 11
8.4792595886
 21
7.4640573338
 31
0.0
  0
LINE
  5
120
330
1F
100
AcDbEntity
  8
0
  6
CONTINUOUS
 62
     7
100
AcDbLine
 10
8.4792595886
 20
7.4640573338
 30
0.0
 11
8.4496414784
 21
7.4640573338
 31
0.0
  0
LINE
  5
121
330
1F
100
AcDbEntity
  8
0
  6
CONTINUOUS
 62
     7
100
AcDbLine
 10
8.4496414784
 20
7.4640573338
 30
0.0
 11
8.4496414784
 21
6.9601203259
 31
0.0
  0
LINE
  5
122
330
1F
100
AcDbEntity
  8
0
  6
CONTINUOUS
 62
     7
100
AcDbLine
 10
8.4496414784
 20
6.9601203259
 30
0.0
 11
8.4792595886
 21
6.9601203259
 31
0.0
  0
LINE
  5
123
330
1F
100
AcDbEntity
  8
0
  6
CONTINUOUS
 62
     7
100
AcDbLine
 10
8.4792595886
 20
6.1865888299
 30
0.0
 11
9.0302595886
 21
6.1865888299
 31
0.0
  0
LINE
  5
124
330
1F
100
AcDbEntity
  8
0
  6
CONTINUOUS
 62
     7
100
AcDbLine
 10
9.0302595886
 20
6.2101203259
 30
0.0
 11
9.0598776989
 21
6.2101203259
 31
0.0
  0
LINE
  5
125
330
1F
100
AcDbEntity
  8
0
  6
CONTINUOUS
 62
     7
100
AcDbLine
 10
9.0598776989
 20
6.2101203259
 30
0.0
 11
9.0598776989
 21
6.7140573338
 31
0.0
  0
LINE
  5
126
330
1F
100
AcDbEntity
  8
0
  6
CONTINUOUS
 62
     7
100
AcDbLine
 10
9.0598776989
 20
6.7140573338
 30
0.0
 11
9.0302595886
 21
6.7140573338
 31
0.0
  0
LINE
  5
127
330
1F
100
AcDbEntity
  8
0
  6
CONTINUOUS
 62
     7
100
AcDbLine
 10
9.0302595886
 20
6.7140573338
 30
0.0
 11
9.0302595886
 21
6.7375888299
 31
0.0
  0
LINE
  5
128
330
1F
100
AcDbEntity
  8
0
  6
CONTINUOUS
 62
     7
100
AcDbLine
 10
9.0302595886
 20
6.7375888299
 30
0.0
 11
8.4792595886
 21
6.7375888299
 31
0.0
  0
LINE
  5
129
330
1F
100
AcDbEntity
  8
0
  6
CONTINUOUS
 62
     7
100
AcDbLine
 10
8.4792595886
 20
6.7375888299
 30
0.0
 11
8.4792595886
 21
6.7140573338
 31
0.0
  0
LINE
  5
12A
330
1F
100
AcDbEntity
  8
0
  6
CONTINUOUS
 62
     7
100
AcDbLine
 10
8.4792595886
 20
6.7140573338
 30
0.0
 11
8.4496414784
 21
6.7140573338
 31
0.0
  0
LINE
  5
12B
330
1F
100
AcDbEntity
  8
0
  6
CONTINUOUS
 62
     7
100
AcDbLine
 10
8.4496414784
 20
6.7140573338
 30
0.0
 11
8.4496414784
 21
6.2101203259
 31
0.0
  0
LINE
  5
12C
330
1F
100
AcDbEntity
  8
0
  6
CONTINUOUS
 62
     7
100
AcDbLine
 10
8.4496414784
 20
6.2101203259
 30
0.0
 11
8.4792595886
 21
6.2101203259
 31
0.0
  0
LINE
  5
12D
330
1F
100
AcDbEntity
  8
0
  6
CONTINUOUS
 62
     7
100
AcDbLine
 10
8.4792595886
 20
5.4365888299
 30
0.0
 11
9.0302595886
 21
5.4365888299
 31
0.0
  0
LINE
  5
12E
330
1F
100
AcDbEntity
  8
0
  6
CONTINUOUS
 62
     7
100
AcDbLine
 10
9.0302595886
 20
5.4601203259
 30
0.0
 11
9.0598776989
 21
5.4601203259
 31
0.0
  0
LINE
  5
12F
330
1F
100
AcDbEntity
  8
0
  6
CONTINUOUS
 62
     7
100
AcDbLine
 10
9.0598776989
 20
5.4601203259
 30
0.0
 11
9.0598776989
 21
5.9640573338
 31
0.0
  0
LINE
  5
130
330
1F
100
AcDbEntity
  8
0
  6
CONTINUOUS
 62
     7
100
AcDbLine
 10
9.0598776989
 20
5.9640573338
 30
0.0
 11
9.0302595886
 21
5.9640573338
 31
0.0
  0
LINE
  5
131
330
1F
100
AcDbEntity
  8
0
  6
CONTINUOUS
 62
     7
100
AcDbLine
 10
9.0302595886
 20
5.9640573338
 30
0.0
 11
9.0302595886
 21
5.9875888299
 31
0.0
  0
LINE
  5
132
330
1F
100
AcDbEntity
  8
0
  6
CONTINUOUS
 62
     7
100
AcDbLine
 10
9.0302595886
 20
5.9875888299
 30
0.0
 11
8.4792595886
 21
5.9875888299
 31
0.0
  0
LINE
  5
133
330
1F
100
AcDbEntity
  8
0
  6
CONTINUOUS
 62
     7
100
AcDbLine
 10
8.4792595886
 20
5.9875888299
 30
0.0
 11
8.4792595886
 21
5.9640573338
 31
0.0
  0
LINE
  5
134
330
1F
100
AcDbEntity
  8
0
  6
CONTINUOUS
 62
     7
100
AcDbLine
 10
8.4792595886
 20
5.9640573338
 30
0.0
 11
8.4496414784
 21
5.9640573338
 31
0.0
  0
LINE
  5
135
330
1F
100
AcDbEntity
  8
0
  6
CONTINUOUS
 62
     7
100
AcDbLine
 10
8.4496414784
 20
5.9640573338
 30
0.0
 11
8.4496414784
 21
5.4601203259
 31
0.0
  0
LINE
  5
136
330
1F
100
AcDbEntity
  8
0
  6
CONTINUOUS
 62
     7
100
AcDbLine
 10
8.4496414784
 20
5.4601203259
 30
0.0
 11
8.4792595886
 21
5.4601203259
 31
0.0
  0
LINE
  5
137
330
1F
100
AcDbEntity
  8
0
  6
CONTINUOUS
 62
     7
100
AcDbLine
 10
8.4792595886
 20
4.6865888299
 30
0.0
 11
9.0302595886
 21
4.6865888299
 31
0.0
  0
LINE
  5
138
330
1F
100
AcDbEntity
  8
0
  6
CONTINUOUS
 62
     7
100
AcDbLine
 10
9.0302595886
 20
4.7101203259
 30
0.0
 11
9.0598776989
 21
4.7101203259
 31
0.0
  0
LINE
  5
139
330
1F
100
AcDbEntity
  8
0
  6
CONTINUOUS
 62
     7
100
AcDbLine
 10
9.0598776989
 20
4.7101203259
 30
0.0
 11
9.0598776989
 21
5.2140573338
 31
0.0
  0
LINE
  5
13A
330
1F
100
AcDbEntity
  8
0
  6
CONTINUOUS
 62
     7
100
AcDbLine
 10
9.0598776989
 20
5.2140573338
 30
0.0
 11
9.0302595886
 21
5.2140573338
 31
0.0
  0
LINE
  5
13B
330
1F
100
AcDbEntity
  8
0
  6
CONTINUOUS
 62
     7
100
AcDbLine
 10
9.0302595886
 20
5.2140573338
 30
0.0
 11
9.0302595886
 21
5.2375888299
 31
0.0
  0
LINE
  5
13C
330
1F
100
AcDbEntity
  8
0
  6
CONTINUOUS
 62
     7
100
AcDbLine
 10
9.0302595886
 20
5.2375888299
 30
0.0
 11
8.4792595886
 21
5.2375888299
 31
0.0
  0
LINE
  5
13D
330
1F
100
AcDbEntity
  8
0
  6
CONTINUOUS
 62
     7
100
AcDbLine
 10
8.4792595886
 20
5.2375888299
 30
0.0
 11
8.4792595886
 21
5.2140573338
 31
0.0
  0
LINE
  5
13E
330
1F
100
AcDbEntity
  8
0
  6
CONTINUOUS
 62
     7
100
AcDbLine
 10
8.4792595886
 20
5.2140573338
 30
0.0
 11
8.4496414784
 21
5.2140573338
 31
0.0
  0
LINE
  5
13F
330
1F
100
AcDbEntity
  8
0
  6
CONTINUOUS
 62
     7
100
AcDbLine
 10
8.4496414784
 20
5.2140573338
 30
0.0
 11
8.4496414784
 21
4.7101203259
 31
0.0
  0
LINE
  5
140
330
1F
100
AcDbEntity
  8
0
  6
CONTINUOUS
 62
     7
100
AcDbLine
 10
8.4496414784
 20
4.7101203259
 30
0.0
 11
8.4792595886
 21
4.7101203259
 31
0.0
  0
LINE
  5
141
330
1F
100
AcDbEntity
  8
0
  6
CONTINUOUS
 62
     7
100
AcDbLine
 10
9.2292595886
 20
4.6240888299
 30
0.0
 11
9.7802595886
 21
4.6240888299
 31
0.0
  0
LINE
  5
142
330
1F
100
AcDbEntity
  8
0
  6
CONTINUOUS
 62
     7
100
AcDbLine
 10
9.7802595886
 20
4.6476203259
 30
0.0
 11
9.8098776989
 21
4.6476203259
 31
0.0
  0
LINE
  5
143
330
1F
100
AcDbEntity
  8
0
  6
CONTINUOUS
 62
     7
100
AcDbLine
 10
9.8098776989
 20
4.6476203259
 30
0.0
 11
9.8098776989
 21
5.1515573338
 31
0.0
  0
LINE
  5
144
330
1F
100
AcDbEntity
  8
0
  6
CONTINUOUS
 62
     7
100
AcDbLine
 10
9.8098776989
 20
5.1515573338
 30
0.0
 11
9.7802595886
 21
5.1515573338
 31
0.0
  0
LINE
  5
145
330
1F
100
AcDbEntity
  8
0
  6
CONTINUOUS
 62
     7
100
AcDbLine
 10
9.7802595886
 20
5.1515573338
 30
0.0
 11
9.7802595886
 21
5.1750888299
 31
0.0
  0
LINE
  5
146
330
1F
100
AcDbEntity
  8
0
  6
CONTINUOUS
 62
     7
100
AcDbLine
 10
9.7802595886
 20
5.1750888299
 30
0.0
 11
9.2292595886
 21
5.1750888299
 31
0.0
  0
LINE
  5
147
330
1F
100
AcDbEntity
  8
0
  6
CONTINUOUS
 62
     7
100
AcDbLine
 10
9.2292595886
 20
5.1750888299
 30
0.0
 11
9.2292595886
 21
5.1515573338
 31
0.0
  0
LINE
  5
148
330
1F
100
AcDbEntity
  8
0
  6
CONTINUOUS
 62
     7
100
AcDbLine
 10
9.2292595886
 20
5.1515573338
 30
0.0
 11
9.1996414784
 21
5.1515573338
 31
0.0
  0
LINE
  5
149
330
1F
100
AcDbEntity
  8
0
  6
CONTINUOUS
 62
     7
100
AcDbLine
 10
9.1996414784
 20
5.1515573338
 30
0.0
 11
9.1996414784
 21
4.6476203259
 31
0.0
  0
LINE
  5
14A
330
1F
100
AcDbEntity
  8
0
  6
CONTINUOUS
 62
     7
100
AcDbLine
 10
9.1996414784
 20
4.6476203259
 30
0.0
 11
9.2292595886
 21
4.6476203259
 31
0.0
  0
LINE
  5
14B
330
1F
100
AcDbEntity
  8
0
  6
CONTINUOUS
 62
     7
100
AcDbLine
 10
9.2292595886
 20
5.3740888299
 30
0.0
 11
9.7802595886
 21
5.3740888299
 31
0.0
  0
LINE
  5
14C
330
1F
100
AcDbEntity
  8
0
  6
CONTINUOUS
 62
     7
100
AcDbLine
 10
9.7802595886
 20
5.3976203259
 30
0.0
 11
9.8098776989
 21
5.3976203259
 31
0.0
  0
LINE
  5
14D
330
1F
100
AcDbEntity
  8
0
  6
CONTINUOUS
 62
     7
100
AcDbLine
 10
9.8098776989
 20
5.3976203259
 30
0.0
 11
9.8098776989
 21
5.9015573338
 31
0.0
  0
LINE
  5
14E
330
1F
100
AcDbEntity
  8
0
  6
CONTINUOUS
 62
     7
100
AcDbLine
 10
9.8098776989
 20
5.9015573338
 30
0.0
 11
9.7802595886
 21
5.9015573338
 31
0.0
  0
LINE
  5
14F
330
1F
100
AcDbEntity
  8
0
  6
CONTINUOUS
 62
     7
100
AcDbLine
 10
9.7802595886
 20
5.9015573338
 30
0.0
 11
9.7802595886
 21
5.9250888299
 31
0.0
  0
LINE
  5
150
330
1F
100
AcDbEntity
  8
0
  6
CONTINUOUS
 62
     7
100
AcDbLine
 10
9.7802595886
 20
5.9250888299
 30
0.0
 11
9.2292595886
 21
5.9250888299
 31
0.0
  0
LINE
  5
151
330
1F
100
AcDbEntity
  8
0
  6
CONTINUOUS
 62
     7
100
AcDbLine
 10
9.2292595886
 20
5.9250888299
 30
0.0
 11
9.2292595886
 21
5.9015573338
 31
0.0
  0
LINE
  5
152
330
1F
100
AcDbEntity
  8
0
  6
CONTINUOUS
 62
     7
100
AcDbLine
 10
9.2292595886
 20
5.9015573338
 30
0.0
 11
9.1996414784
 21
5.9015573338
 31
0.0
  0
LINE
  5
153
330
1F
100
AcDbEntity
  8
0
  6
CONTINUOUS
 62
     7
100
AcDbLine
 10
9.1996414784
 20
5.9015573338
 30
0.0
 11
9.1996414784
 21
5.3976203259
 31
0.0
  0
LINE
  5
154
330
1F
100
AcDbEntity
  8
0
  6
CONTINUOUS
 62
     7
100
AcDbLine
 10
9.1996414784
 20
5.3976203259
 30
0.0
 11
9.2292595886
 21
5.3976203259
 31
0.0
  0
LINE
  5
155
330
1F
100
AcDbEntity
  8
0
  6
CONTINUOUS
 62
     7
100
AcDbLine
 10
9.2292595886
 20
6.1240888299
 30
0.0
 11
9.7802595886
 21
6.1240888299
 31
0.0
  0
LINE
  5
156
330
1F
100
AcDbEntity
  8
0
  6
CONTINUOUS
 62
     7
100
AcDbLine
 10
9.7802595886
 20
6.1476203259
 30
0.0
 11
9.8098776989
 21
6.1476203259
 31
0.0
  0
LINE
  5
157
330
1F
100
AcDbEntity
  8
0
  6
CONTINUOUS
 62
     7
100
AcDbLine
 10
9.8098776989
 20
6.1476203259
 30
0.0
 11
9.8098776989
 21
6.6515573338
 31
0.0
  0
LINE
  5
158
330
1F
100
AcDbEntity
  8
0
  6
CONTINUOUS
 62
     7
100
AcDbLine
 10
9.8098776989
 20
6.6515573338
 30
0.0
 11
9.7802595886
 21
6.6515573338
 31
0.0
  0
LINE
  5
159
330
1F
100
AcDbEntity
  8
0
  6
CONTINUOUS
 62
     7
100
AcDbLine
 10
9.7802595886
 20
6.6515573338
 30
0.0
 11
9.7802595886
 21
6.6750888299
 31
0.0
  0
LINE
  5
15A
330
1F
100
AcDbEntity
  8
0
  6
CONTINUOUS
 62
     7
100
AcDbLine
 10
9.7802595886
 20
6.6750888299
 30
0.0
 11
9.2292595886
 21
6.6750888299
 31
0.0
  0
LINE
  5
15B
330
1F
100
AcDbEntity
  8
0
  6
CONTINUOUS
 62
     7
100
AcDbLine
 10
9.2292595886
 20
6.6750888299
 30
0.0
 11
9.2292595886
 21
6.6515573338
 31
0.0
  0
LINE
  5
15C
330
1F
100
AcDbEntity
  8
0
  6
CONTINUOUS
 62
     7
100
AcDbLine
 10
9.2292595886
 20
6.6515573338
 30
0.0
 11
9.1996414784
 21
6.6515573338
 31
0.0
  0
LINE
  5
15D
330
1F
100
AcDbEntity
  8
0
  6
CONTINUOUS
 62
     7
100
AcDbLine
 10
9.1996414784
 20
6.6515573338
 30
0.0
 11
9.1996414784
 21
6.1476203259
 31
0.0
  0
LINE
  5
15E
330
1F
100
AcDbEntity
  8
0
  6
CONTINUOUS
 62
     7
100
AcDbLine
 10
9.1996414784
 20
6.1476203259
 30
0.0
 11
9.2292595886
 21
6.1476203259
 31
0.0
  0
LINE
  5
15F
330
1F
100
AcDbEntity
  8
0
  6
CONTINUOUS
 62
     7
100
AcDbLine
 10
9.2292595886
 20
6.8740888299
 30
0.0
 11
9.7802595886
 21
6.8740888299
 31
0.0
  0
LINE
  5
160
330
1F
100
AcDbEntity
  8
0
  6
CONTINUOUS
 62
     7
100
AcDbLine
 10
9.7802595886
 20
6.8976203259
 30
0.0
 11
9.8098776989
 21
6.8976203259
 31
0.0
  0
LINE
  5
161
330
1F
100
AcDbEntity
  8
0
  6
CONTINUOUS
 62
     7
100
AcDbLine
 10
9.8098776989
 20
6.8976203259
 30
0.0
 11
9.8098776989
 21
7.4015573338
 31
0.0
  0
LINE
  5
162
330
1F
100
AcDbEntity
  8
0
  6
CONTINUOUS
 62
     7
100
AcDbLine
 10
9.8098776989
 20
7.4015573338
 30
0.0
 11
9.7802595886
 21
7.4015573338
 31
0.0
  0
LINE
  5
163
330
1F
100
AcDbEntity
  8
0
  6
CONTINUOUS
 62
     7
100
AcDbLine
 10
9.7802595886
 20
7.4015573338
 30
0.0
 11
9.7802595886
 21
7.4250888299
 31
0.0
  0
LINE
  5
164
330
1F
100
AcDbEntity
  8
0
  6
CONTINUOUS
 62
     7
100
AcDbLine
 10
9.7802595886
 20
7.4250888299
 30
0.0
 11
9.2292595886
 21
7.4250888299
 31
0.0
  0
LINE
  5
165
330
1F
100
AcDbEntity
  8
0
  6
CONTINUOUS
 62
     7
100
AcDbLine
 10
9.2292595886
 20
7.4250888299
 30
0.0
 11
9.2292595886
 21
7.4015573338
 31
0.0
  0
LINE
  5
166
330
1F
100
AcDbEntity
  8
0
  6
CONTINUOUS
 62
     7
100
AcDbLine
 10
9.2292595886
 20
7.4015573338
 30
0.0
 11
9.1996414784
 21
7.4015573338
 31
0.0
  0
LINE
  5
167
330
1F
100
AcDbEntity
  8
0
  6
CONTINUOUS
 62
     7
100
AcDbLine
 10
9.1996414784
 20
7.4015573338
 30
0.0
 11
9.1996414784
 21
6.8976203259
 31
0.0
  0
LINE
  5
168
330
1F
100
AcDbEntity
  8
0
  6
CONTINUOUS
 62
     7
100
AcDbLine
 10
9.1996414784
 20
6.8976203259
 30
0.0
 11
9.2292595886
 21
6.8976203259
 31
0.0
  0
LINE
  5
169
330
1F
100
AcDbEntity
  8
0
  6
CONTINUOUS
 62
     7
100
AcDbLine
 10
9.2292595886
 20
7.6240888299
 30
0.0
 11
9.7802595886
 21
7.6240888299
 31
0.0
  0
LINE
  5
16A
330
1F
100
AcDbEntity
  8
0
  6
CONTINUOUS
 62
     7
100
AcDbLine
 10
9.7802595886
 20
7.6476203259
 30
0.0
 11
9.8098776989
 21
7.6476203259
 31
0.0
  0
LINE
  5
16B
330
1F
100
AcDbEntity
  8
0
  6
CONTINUOUS
 62
     7
100
AcDbLine
 10
9.8098776989
 20
7.6476203259
 30
0.0
 11
9.8098776989
 21
8.1515573338
 31
0.0
  0
LINE
  5
16C
330
1F
100
AcDbEntity
  8
0
  6
CONTINUOUS
 62
     7
100
AcDbLine
 10
9.8098776989
 20
8.1515573338
 30
0.0
 11
9.7802595886
 21
8.1515573338
 31
0.0
  0
LINE
  5
16D
330
1F
100
AcDbEntity
  8
0
  6
CONTINUOUS
 62
     7
100
AcDbLine
 10
9.7802595886
 20
8.1515573338
 30
0.0
 11
9.7802595886
 21
8.1750888299
 31
0.0
  0
LINE
  5
16E
330
1F
100
AcDbEntity
  8
0
  6
CONTINUOUS
 62
     7
100
AcDbLine
 10
9.7802595886
 20
8.1750888299
 30
0.0
 11
9.2292595886
 21
8.1750888299
 31
0.0
  0
LINE
  5
16F
330
1F
100
AcDbEntity
  8
0
  6
CONTINUOUS
 62
     7
100
AcDbLine
 10
9.2292595886
 20
8.1750888299
 30
0.0
 11
9.2292595886
 21
8.1515573338
 31
0.0
  0
LINE
  5
170
330
1F
100
AcDbEntity
  8
0
  6
CONTINUOUS
 62
     7
100
AcDbLine
 10
9.2292595886
 20
8.1515573338
 30
0.0
 11
9.1996414784
 21
8.1515573338
 31
0.0
  0
LINE
  5
171
330
1F
100
AcDbEntity
  8
0
  6
CONTINUOUS
 62
     7
100
AcDbLine
 10
9.1996414784
 20
8.1515573338
 30
0.0
 11
9.1996414784
 21
7.6476203259
 31
0.0
  0
LINE
  5
172
330
1F
100
AcDbEntity
  8
0
  6
CONTINUOUS
 62
     7
100
AcDbLine
 10
9.1996414784
 20
7.6476203259
 30
0.0
 11
9.2292595886
 21
7.6476203259
 31
0.0
  0
LINE
  5
173
330
1F
100
AcDbEntity
  8
0
  6
CONTINUOUS
 62
     7
100
AcDbLine
 10
9.9792595886
 20
7.4990888299
 30
0.0
 11
10.5302595886
 21
7.4990888299
 31
0.0
  0
LINE
  5
174
330
1F
100
AcDbEntity
  8
0
  6
CONTINUOUS
 62
     7
100
AcDbLine
 10
10.5302595886
 20
7.5226203259
 30
0.0
 11
10.5598776989
 21
7.5226203259
 31
0.0
  0
LINE
  5
175
330
1F
100
AcDbEntity
  8
0
  6
CONTINUOUS
 62
     7
100
AcDbLine
 10
10.5598776989
 20
7.5226203259
 30
0.0
 11
10.5598776989
 21
8.0265573338
 31
0.0
  0
LINE
  5
176
330
1F
100
AcDbEntity
  8
0
  6
CONTINUOUS
 62
     7
100
AcDbLine
 10
10.5598776989
 20
8.0265573338
 30
0.0
 11
10.5302595886
 21
8.0265573338
 31
0.0
  0
LINE
  5
177
330
1F
100
AcDbEntity
  8
0
  6
CONTINUOUS
 62
     7
100
AcDbLine
 10
10.5302595886
 20
8.0265573338
 30
0.0
 11
10.5302595886
 21
8.0500888299
 31
0.0
  0
LINE
  5
178
330
1F
100
AcDbEntity
  8
0
  6
CONTINUOUS
 62
     7
100
AcDbLine
 10
10.5302595886
 20
8.0500888299
 30
0.0
 11
9.9792595886
 21
8.0500888299
 31
0.0
  0
LINE
  5
179
330
1F
100
AcDbEntity
  8
0
  6
CONTINUOUS
 62
     7
100
AcDbLine
 10
9.9792595886
 20
8.0500888299
 30
0.0
 11
9.9792595886
 21
8.0265573338
 31
0.0
  0
LINE
  5
17A
330
1F
100
AcDbEntity
  8
0
  6
CONTINUOUS
 62
     7
100
AcDbLine
 10
9.9792595886
 20
8.0265573338
 30
0.0
 11
9.9496414784
 21
8.0265573338
 31
0.0
  0
LINE
  5
17B
330
1F
100
AcDbEntity
  8
0
  6
CONTINUOUS
 62
     7
100
AcDbLine
 10
9.9496414784
 20
8.0265573338
 30
0.0
 11
9.9496414784
 21
7.5226203259
 31
0.0
  0
LINE
  5
17C
330
1F
100
AcDbEntity
  8
0
  6
CONTINUOUS
 62
     7
100
AcDbLine
 10
9.9496414784
 20
7.5226203259
 30
0.0
 11
9.9792595886
 21
7.5226203259
 31
0.0
  0
LINE
  5
17D
330
1F
100
AcDbEntity
  8
0
  6
CONTINUOUS
 62
     7
100
AcDbLine
 10
9.9792595886
 20
6.7490888299
 30
0.0
 11
10.5302595886
 21
6.7490888299
 31
0.0
  0
LINE
  5
17E
330
1F
100
AcDbEntity
  8
0
  6
CONTINUOUS
 62
     7
100
AcDbLine
 10
10.5302595886
 20
6.7726203259
 30
0.0
 11
10.5598776989
 21
6.7726203259
 31
0.0
  0
LINE
  5
17F
330
1F
100
AcDbEntity
  8
0
  6
CONTINUOUS
 62
     7
100
AcDbLine
 10
10.5598776989
 20
6.7726203259
 30
0.0
 11
10.5598776989
 21
7.2765573338
 31
0.0
  0
LINE
  5
180
330
1F
100
AcDbEntity
  8
0
  6
CONTINUOUS
 62
     7
100
AcDbLine
 10
10.5598776989
 20
7.2765573338
 30
0.0
 11
10.5302595886
 21
7.2765573338
 31
0.0
  0
LINE
  5
181
330
1F
100
AcDbEntity
  8
0
  6
CONTINUOUS
 62
     7
100
AcDbLine
 10
10.5302595886
 20
7.2765573338
 30
0.0
 11
10.5302595886
 21
7.3000888299
 31
0.0
  0
LINE
  5
182
330
1F
100
AcDbEntity
  8
0
  6
CONTINUOUS
 62
     7
100
AcDbLine
 10
10.5302595886
 20
7.3000888299
 30
0.0
 11
9.9792595886
 21
7.3000888299
 31
0.0
  0
LINE
  5
183
330
1F
100
AcDbEntity
  8
0
  6
CONTINUOUS
 62
     7
100
AcDbLine
 10
9.9792595886
 20
7.3000888299
 30
0.0
 11
9.9792595886
 21
7.2765573338
 31
0.0
  0
LINE
  5
184
330
1F
100
AcDbEntity
  8
0
  6
CONTINUOUS
 62
     7
100
AcDbLine
 10
9.9792595886
 20
7.2765573338
 30
0.0
 11
9.9496414784
 21
7.2765573338
 31
0.0
  0
LINE
  5
185
330
1F
100
AcDbEntity
  8
0
  6
CONTINUOUS
 62
     7
100
AcDbLine
 10
9.9496414784
 20
7.2765573338
 30
0.0
 11
9.9496414784
 21
6.7726203259
 31
0.0
  0
LINE
  5
186
330
1F
100
AcDbEntity
  8
0
  6
CONTINUOUS
 62
     7
100
AcDbLine
 10
9.9496414784
 20
6.7726203259
 30
0.0
 11
9.9792595886
 21
6.7726203259
 31
0.0
  0
LINE
  5
187
330
1F
100
AcDbEntity
  8
0
  6
CONTINUOUS
 62
     7
100
AcDbLine
 10
9.9792595886
 20
5.9990888299
 30
0.0
 11
10.5302595886
 21
5.9990888299
 31
0.0
  0
LINE
  5
188
330
1F
100
AcDbEntity
  8
0
  6
CONTINUOUS
 62
     7
100
AcDbLine
 10
10.5302595886
 20
6.0226203259
 30
0.0
 11
10.5598776989
 21
6.0226203259
 31
0.0
  0
LINE
  5
189
330
1F
100
AcDbEntity
  8
0
  6
CONTINUOUS
 62
     7
100
AcDbLine
 10
10.5598776989
 20
6.0226203259
 30
0.0
 11
10.5598776989
 21
6.5265573338
 31
0.0
  0
LINE
  5
18A
330
1F
100
AcDbEntity
  8
0
  6
CONTINUOUS
 62
     7
100
AcDbLine
 10
10.5598776989
 20
6.5265573338
 30
0.0
 11
10.5302595886
 21
6.5265573338
 31
0.0
  0
LINE
  5
18B
330
1F
100
AcDbEntity
  8
0
  6
CONTINUOUS
 62
     7
100
AcDbLine
 10
10.5302595886
 20
6.5265573338
 30
0.0
 11
10.5302595886
 21
6.5500888299
 31
0.0
  0
LINE
  5
18C
330
1F
100
AcDbEntity
  8
0
  6
CONTINUOUS
 62
     7
100
AcDbLine
 10
10.5302595886
 20
6.5500888299
 30
0.0
 11
9.9792595886
 21
6.5500888299
 31
0.0
  0
LINE
  5
18D
330
1F
100
AcDbEntity
  8
0
  6
CONTINUOUS
 62
     7
100
AcDbLine
 10
9.9792595886
 20
6.5500888299
 30
0.0
 11
9.9792595886
 21
6.5265573338
 31
0.0
  0
LINE
  5
18E
330
1F
100
AcDbEntity
  8
0
  6
CONTINUOUS
 62
     7
100
AcDbLine
 10
9.9792595886
 20
6.5265573338
 30
0.0
 11
9.9496414784
 21
6.5265573338
 31
0.0
  0
LINE
  5
18F
330
1F
100
AcDbEntity
  8
0
  6
CONTINUOUS
 62
     7
100
AcDbLine
 10
9.9496414784
 20
6.5265573338
 30
0.0
 11
9.9496414784
 21
6.0226203259
 31
0.0
  0
LINE
  5
190
330
1F
100
AcDbEntity
  8
0
  6
CONTINUOUS
 62
     7
100
AcDbLine
 10
9.9496414784
 20
6.0226203259
 30
0.0
 11
9.9792595886
 21
6.0226203259
 31
0.0
  0
LINE
  5
191
330
1F
100
AcDbEntity
  8
0
  6
CONTINUOUS
 62
     7
100
AcDbLine
 10
9.9792595886
 20
5.2490888299
 30
0.0
 11
10.5302595886
 21
5.2490888299
 31
0.0
  0
LINE
  5
192
330
1F
100
AcDbEntity
  8
0
  6
CONTINUOUS
 62
     7
100
AcDbLine
 10
10.5302595886
 20
5.2726203259
 30
0.0
 11
10.5598776989
 21
5.2726203259
 31
0.0
  0
LINE
  5
193
330
1F
100
AcDbEntity
  8
0
  6
CONTINUOUS
 62
     7
100
AcDbLine
 10
10.5598776989
 20
5.2726203259
 30
0.0
 11
10.5598776989
 21
5.7765573338
 31
0.0
  0
LINE
  5
194
330
1F
100
AcDbEntity
  8
0
  6
CONTINUOUS
 62
     7
100
AcDbLine
 10
10.5598776989
 20
5.7765573338
 30
0.0
 11
10.5302595886
 21
5.7765573338
 31
0.0
  0
LINE
  5
195
330
1F
100
AcDbEntity
  8
0
  6
CONTINUOUS
 62
     7
100
AcDbLine
 10
10.5302595886
 20
5.7765573338
 30
0.0
 11
10.5302595886
 21
5.8000888299
 31
0.0
  0
LINE
  5
196
330
1F
100
AcDbEntity
  8
0
  6
CONTINUOUS
 62
     7
100
AcDbLine
 10
10.5302595886
 20
5.8000888299
 30
0.0
 11
9.9792595886
 21
5.8000888299
 31
0.0
  0
LINE
  5
197
330
1F
100
AcDbEntity
  8
0
  6
CONTINUOUS
 62
     7
100
AcDbLine
 10
9.9792595886
 20
5.8000888299
 30
0.0
 11
9.9792595886
 21
5.7765573338
 31
0.0
  0
LINE
  5
198
330
1F
100
AcDbEntity
  8
0
  6
CONTINUOUS
 62
     7
100
AcDbLine
 10
9.9792595886
 20
5.7765573338
 30
0.0
 11
9.9496414784
 21
5.7765573338
 31
0.0
  0
LINE
  5
199
330
1F
100
AcDbEntity
  8
0
  6
CONTINUOUS
 62
     7
100
AcDbLine
 10
9.9496414784
 20
5.7765573338
 30
0.0
 11
9.9496414784
 21
5.2726203259
 31
0.0
  0
LINE
  5
19A
330
1F
100
AcDbEntity
  8
0
  6
CONTINUOUS
 62
     7
100
AcDbLine
 10
9.9496414784
 20
5.2726203259
 30
0.0
 11
9.9792595886
 21
5.2726203259
 31
0.0
  0
LINE
  5
19B
330
1F
100
AcDbEntity
  8
0
  6
CONTINUOUS
 62
     7
100
AcDbLine
 10
9.9792595886
 20
4.4990888299
 30
0.0
 11
10.5302595886
 21
4.4990888299
 31
0.0
  0
LINE
  5
19C
330
1F
100
AcDbEntity
  8
0
  6
CONTINUOUS
 62
     7
100
AcDbLine
 10
10.5302595886
 20
4.5226203259
 30
0.0
 11
10.5598776989
 21
4.5226203259
 31
0.0
  0
LINE
  5
19D
330
1F
100
AcDbEntity
  8
0
  6
CONTINUOUS
 62
     7
100
AcDbLine
 10
10.5598776989
 20
4.5226203259
 30
0.0
 11
10.5598776989
 21
5.0265573338
 31
0.0
  0
LINE
  5
19E
330
1F
100
AcDbEntity
  8
0
  6
CONTINUOUS
 62
     7
100
AcDbLine
 10
10.5598776989
 20
5.0265573338
 30
0.0
 11
10.5302595886
 21
5.0265573338
 31
0.0
  0
LINE
  5
19F
330
1F
100
AcDbEntity
  8
0
  6
CONTINUOUS
 62
     7
100
AcDbLine
 10
10.5302595886
 20
5.0265573338
 30
0.0
 11
10.5302595886
 21
5.0500888299
 31
0.0
  0
LINE
  5
1A0
330
1F
100
AcDbEntity
  8
0
  6
CONTINUOUS
 62
     7
100
AcDbLine
 10
10.5302595886
 20
5.0500888299
 30
0.0
 11
9.9792595886
 21
5.0500888299
 31
0.0
  0
LINE
  5
1A1
330
1F
100
AcDbEntity
  8
0
  6
CONTINUOUS
 62
     7
100
AcDbLine
 10
9.9792595886
 20
5.0500888299
 30
0.0
 11
9.9792595886
 21
5.0265573338
 31
0.0
  0
LINE
  5
1A2
330
1F
100
AcDbEntity
  8
0
  6
CONTINUOUS
 62
     7
100
AcDbLine
 10
9.9792595886
 20
5.0265573338
 30
0.0
 11
9.9496414784
 21
5.0265573338
 31
0.0
  0
LINE
  5
1A3
330
1F
100
AcDbEntity
  8
0
  6
CONTINUOUS
 62
     7
100
AcDbLine
 10
9.9496414784
 20
5.0265573338
 30
0.0
 11
9.9496414784
 21
4.5226203259
 31
0.0
  0
LINE
  5
1A4
330
1F
100
AcDbEntity
  8
0
  6
CONTINUOUS
 62
     7
100
AcDbLine
 10
9.9496414784
 20
4.5226203259
 30
0.0
 11
9.9792595886
 21
4.5226203259
 31
0.0
  0
LINE
  5
1A5
330
1F
100
AcDbEntity
  8
0
  6
CONTINUOUS
 62
     7
100
AcDbLine
 10
10.7292595886
 20
4.4990888299
 30
0.0
 11
11.2802595886
 21
4.4990888299
 31
0.0
  0
LINE
  5
1A6
330
1F
100
AcDbEntity
  8
0
  6
CONTINUOUS
 62
     7
100
AcDbLine
 10
11.2802595886
 20
4.5226203259
 30
0.0
 11
11.3098776989
 21
4.5226203259
 31
0.0
  0
LINE
  5
1A7
330
1F
100
AcDbEntity
  8
0
  6
CONTINUOUS
 62
     7
100
AcDbLine
 10
11.3098776989
 20
4.5226203259
 30
0.0
 11
11.3098776989
 21
5.0265573338
 31
0.0
  0
LINE
  5
1A8
330
1F
100
AcDbEntity
  8
0
  6
CONTINUOUS
 62
     7
100
AcDbLine
 10
11.3098776989
 20
5.0265573338
 30
0.0
 11
11.2802595886
 21
5.0265573338
 31
0.0
  0
LINE
  5
1A9
330
1F
100
AcDbEntity
  8
0
  6
CONTINUOUS
 62
     7
100
AcDbLine
 10
11.2802595886
 20
5.0265573338
 30
0.0
 11
11.2802595886
 21
5.0500888299
 31
0.0
  0
LINE
  5
1AA
330
1F
100
AcDbEntity
  8
0
  6
CONTINUOUS
 62
     7
100
AcDbLine
 10
11.2802595886
 20
5.0500888299
 30
0.0
 11
10.7292595886
 21
5.0500888299
 31
0.0
  0
LINE
  5
1AB
330
1F
100
AcDbEntity
  8
0
  6
CONTINUOUS
 62
     7
100
AcDbLine
 10
10.7292595886
 20
5.0500888299
 30
0.0
 11
10.7292595886
 21
5.0265573338
 31
0.0
  0
LINE
  5
1AC
330
1F
100
AcDbEntity
  8
0
  6
CONTINUOUS
 62
     7
100
AcDbLine
 10
10.7292595886
 20
5.0265573338
 30
0.0
 11
10.6996414784
 21
5.0265573338
 31
0.0
  0
LINE
  5
1AD
330
1F
100
AcDbEntity
  8
0
  6
CONTINUOUS
 62
     7
100
AcDbLine
 10
10.6996414784
 20
5.0265573338
 30
0.0
 11
10.6996414784
 21
4.5226203259
 31
0.0
  0
LINE
  5
1AE
330
1F
100
AcDbEntity
  8
0
  6
CONTINUOUS
 62
     7
100
AcDbLine
 10
10.6996414784
 20
4.5226203259
 30
0.0
 11
10.7292595886
 21
4.5226203259
 31
0.0
  0
LINE
  5
1AF
330
1F
100
AcDbEntity
  8
0
  6
CONTINUOUS
 62
     7
100
AcDbLine
 10
10.9167595886
 20
5.2490888299
 30
0.0
 11
11.4677595886
 21
5.2490888299
 31
0.0
  0
LINE
  5
1B0
330
1F
100
AcDbEntity
  8
0
  6
CONTINUOUS
 62
     7
100
AcDbLine
 10
11.4677595886
 20
5.2726203259
 30
0.0
 11
11.4973776989
 21
5.2726203259
 31
0.0
  0
LINE
  5
1B1
330
1F
100
AcDbEntity
  8
0
  6
CONTINUOUS
 62
     7
100
AcDbLine
 10
11.4973776989
 20
5.2726203259
 30
0.0
 11
11.4973776989
 21
5.7765573338
 31
0.0
  0
LINE
  5
1B2
330
1F
100
AcDbEntity
  8
0
  6
CONTINUOUS
 62
     7
100
AcDbLine
 10
11.4973776989
 20
5.7765573338
 30
0.0
 11
11.4677595886
 21
5.7765573338
 31
0.0
  0
LINE
  5
1B3
330
1F
100
AcDbEntity
  8
0
  6
CONTINUOUS
 62
     7
100
AcDbLine
 10
11.4677595886
 20
5.7765573338
 30
0.0
 11
11.4677595886
 21
5.8000888299
 31
0.0
  0
LINE
  5
1B4
330
1F
100
AcDbEntity
  8
0
  6
CONTINUOUS
 62
     7
100
AcDbLine
 10
11.4677595886
 20
5.8000888299
 30
0.0
 11
10.9167595886
 21
5.8000888299
 31
0.0
  0
LINE
  5
1B5
330
1F
100
AcDbEntity
  8
0
  6
CONTINUOUS
 62
     7
100
AcDbLine
 10
10.9167595886
 20
5.8000888299
 30
0.0
 11
10.9167595886
 21
5.7765573338
 31
0.0
  0
LINE
  5
1B6
330
1F
100
AcDbEntity
  8
0
  6
CONTINUOUS
 62
     7
100
AcDbLine
 10
10.9167595886
 20
5.7765573338
 30
0.0
 11
10.8871414784
 21
5.7765573338
 31
0.0
  0
LINE
  5
1B7
330
1F
100
AcDbEntity
  8
0
  6
CONTINUOUS
 62
     7
100
AcDbLine
 10
10.8871414784
 20
5.7765573338
 30
0.0
 11
10.8871414784
 21
5.2726203259
 31
0.0
  0
LINE
  5
1B8
330
1F
100
AcDbEntity
  8
0
  6
CONTINUOUS
 62
     7
100
AcDbLine
 10
10.8871414784
 20
5.2726203259
 30
0.0
 11
10.9167595886
 21
5.2726203259
 31
0.0
  0
LINE
  5
1B9
330
1F
100
AcDbEntity
  8
0
  6
CONTINUOUS
 62
     7
100
AcDbLine
 10
10.9167595886
 20
5.9990888299
 30
0.0
 11
11.4677595886
 21
5.9990888299
 31
0.0
  0
LINE
  5
1BA
330
1F
100
AcDbEntity
  8
0
  6
CONTINUOUS
 62
     7
100
AcDbLine
 10
11.4677595886
 20
6.0226203259
 30
0.0
 11
11.4973776989
 21
6.0226203259
 31
0.0
  0
LINE
  5
1BB
330
1F
100
AcDbEntity
  8
0
  6
CONTINUOUS
 62
     7
100
AcDbLine
 10
11.4973776989
 20
6.0226203259
 30
0.0
 11
11.4973776989
 21
6.5265573338
 31
0.0
  0
LINE
  5
1BC
330
1F
100
AcDbEntity
  8
0
  6
CONTINUOUS
 62
     7
100
AcDbLine
 10
11.4973776989
 20
6.5265573338
 30
0.0
 11
11.4677595886
 21
6.5265573338
 31
0.0
  0
LINE
  5
1BD
330
1F
100
AcDbEntity
  8
0
  6
CONTINUOUS
 62
     7
100
AcDbLine
 10
11.4677595886
 20
6.5265573338
 30
0.0
 11
11.4677595886
 21
6.5500888299
 31
0.0
  0
LINE
  5
1BE
330
1F
100
AcDbEntity
  8
0
  6
CONTINUOUS
 62
     7
100
AcDbLine
 10
11.4677595886
 20
6.5500888299
 30
0.0
 11
10.9167595886
 21
6.5500888299
 31
0.0
  0
LINE
  5
1BF
330
1F
100
AcDbEntity
  8
0
  6
CONTINUOUS
 62
     7
100
AcDbLine
 10
10.9167595886
 20
6.5500888299
 30
0.0
 11
10.9167595886
 21
6.5265573338
 31
0.0
  0
LINE
  5
1C0
330
1F
100
AcDbEntity
  8
0
  6
CONTINUOUS
 62
     7
100
AcDbLine
 10
10.9167595886
 20
6.5265573338
 30
0.0
 11
10.8871414784
 21
6.5265573338
 31
0.0
  0
LINE
  5
1C1
330
1F
100
AcDbEntity
  8
0
  6
CONTINUOUS
 62
     7
100
AcDbLine
 10
10.8871414784
 20
6.5265573338
 30
0.0
 11
10.8871414784
 21
6.0226203259
 31
0.0
  0
LINE
  5
1C2
330
1F
100
AcDbEntity
  8
0
  6
CONTINUOUS
 62
     7
100
AcDbLine
 10
10.8871414784
 20
6.0226203259
 30
0.0
 11
10.9167595886
 21
6.0226203259
 31
0.0
  0
LINE
  5
1C3
330
1F
100
AcDbEntity
  8
0
  6
CONTINUOUS
 62
     7
100
AcDbLine
 10
10.9167595886
 20
6.7490888299
 30
0.0
 11
11.4677595886
 21
6.7490888299
 31
0.0
  0
LINE
  5
1C4
330
1F
100
AcDbEntity
  8
0
  6
CONTINUOUS
 62
     7
100
AcDbLine
 10
11.4677595886
 20
6.7726203259
 30
0.0
 11
11.4973776989
 21
6.7726203259
 31
0.0
  0
LINE
  5
1C5
330
1F
100
AcDbEntity
  8
0
  6
CONTINUOUS
 62
     7
100
AcDbLine
 10
11.4973776989
 20
6.7726203259
 30
0.0
 11
11.4973776989
 21
7.2765573338
 31
0.0
  0
LINE
  5
1C6
330
1F
100
AcDbEntity
  8
0
  6
CONTINUOUS
 62
     7
100
AcDbLine
 10
11.4973776989
 20
7.2765573338
 30
0.0
 11
11.4677595886
 21
7.2765573338
 31
0.0
  0
LINE
  5
1C7
330
1F
100
AcDbEntity
  8
0
  6
CONTINUOUS
 62
     7
100
AcDbLine
 10
11.4677595886
 20
7.2765573338
 30
0.0
 11
11.4677595886
 21
7.3000888299
 31
0.0
  0
LINE
  5
1C8
330
1F
100
AcDbEntity
  8
0
  6
CONTINUOUS
 62
     7
100
AcDbLine
 10
11.4677595886
 20
7.3000888299
 30
0.0
 11
10.9167595886
 21
7.3000888299
 31
0.0
  0
LINE
  5
1C9
330
1F
100
AcDbEntity
  8
0
  6
CONTINUOUS
 62
     7
100
AcDbLine
 10
10.9167595886
 20
7.3000888299
 30
0.0
 11
10.9167595886
 21
7.2765573338
 31
0.0
  0
LINE
  5
1CA
330
1F
100
AcDbEntity
  8
0
  6
CONTINUOUS
 62
     7
100
AcDbLine
 10
10.9167595886
 20
7.2765573338
 30
0.0
 11
10.8871414784
 21
7.2765573338
 31
0.0
  0
LINE
  5
1CB
330
1F
100
AcDbEntity
  8
0
  6
CONTINUOUS
 62
     7
100
AcDbLine
 10
10.8871414784
 20
7.2765573338
 30
0.0
 11
10.8871414784
 21
6.7726203259
 31
0.0
  0
LINE
  5
1CC
330
1F
100
AcDbEntity
  8
0
  6
CONTINUOUS
 62
     7
100
AcDbLine
 10
10.8871414784
 20
6.7726203259
 30
0.0
 11
10.9167595886
 21
6.7726203259
 31
0.0
  0
LINE
  5
1CD
330
1F
100
AcDbEntity
  8
0
  6
CONTINUOUS
 62
     7
100
AcDbLine
 10
10.9167595886
 20
7.4990888299
 30
0.0
 11
11.4677595886
 21
7.4990888299
 31
0.0
  0
LINE
  5
1CE
330
1F
100
AcDbEntity
  8
0
  6
CONTINUOUS
 62
     7
100
AcDbLine
 10
11.4677595886
 20
7.5226203259
 30
0.0
 11
11.4973776989
 21
7.5226203259
 31
0.0
  0
LINE
  5
1CF
330
1F
100
AcDbEntity
  8
0
  6
CONTINUOUS
 62
     7
100
AcDbLine
 10
11.4973776989
 20
7.5226203259
 30
0.0
 11
11.4973776989
 21
8.0265573338
 31
0.0
  0
LINE
  5
1D0
330
1F
100
AcDbEntity
  8
0
  6
CONTINUOUS
 62
     7
100
AcDbLine
 10
11.4973776989
 20
8.0265573338
 30
0.0
 11
11.4677595886
 21
8.0265573338
 31
0.0
  0
LINE
  5
1D1
330
1F
100
AcDbEntity
  8
0
  6
CONTINUOUS
 62
     7
100
AcDbLine
 10
11.4677595886
 20
8.0265573338
 30
0.0
 11
11.4677595886
 21
8.0500888299
 31
0.0
  0
LINE
  5
1D2
330
1F
100
AcDbEntity
  8
0
  6
CONTINUOUS
 62
     7
100
AcDbLine
 10
11.4677595886
 20
8.0500888299
 30
0.0
 11
10.9167595886
 21
8.0500888299
 31
0.0
  0
LINE
  5
1D3
330
1F
100
AcDbEntity
  8
0
  6
CONTINUOUS
 62
     7
100
AcDbLine
 10
10.9167595886
 20
8.0500888299
 30
0.0
 11
10.9167595886
 21
8.0265573338
 31
0.0
  0
LINE
  5
1D4
330
1F
100
AcDbEntity
  8
0
  6
CONTINUOUS
 62
     7
100
AcDbLine
 10
10.9167595886
 20
8.0265573338
 30
0.0
 11
10.8871414784
 21
8.0265573338
 31
0.0
  0
LINE
  5
1D5
330
1F
100
AcDbEntity
  8
0
  6
CONTINUOUS
 62
     7
100
AcDbLine
 10
10.8871414784
 20
8.0265573338
 30
0.0
 11
10.8871414784
 21
7.5226203259
 31
0.0
  0
LINE
  5
1D6
330
1F
100
AcDbEntity
  8
0
  6
CONTINUOUS
 62
     7
100
AcDbLine
 10
10.8871414784
 20
7.5226203259
 30
0.0
 11
10.9167595886
 21
7.5226203259
 31
0.0
  0
LINE
  5
1D7
330
1F
100
AcDbEntity
  8
0
  6
CONTINUOUS
 62
     7
100
AcDbLine
 10
5.5671739139
 20
4.7226248611
 30
0.0
 11
6.0665495046
 21
4.9554875233
 31
0.0
  0
LINE
  5
1D8
330
1F
100
AcDbEntity
  8
0
  6
CONTINUOUS
 62
     7
100
AcDbLine
 10
6.0566046646
 20
4.9768143014
 30
0.0
 11
6.0834477886
 21
4.9893314557
 31
0.0
  0
LINE
  5
1D9
330
1F
100
AcDbEntity
  8
0
  6
CONTINUOUS
 62
     7
100
AcDbLine
 10
6.0834477886
 20
4.9893314557
 30
0.0
 11
5.8704748063
 21
5.4460534901
 31
0.0
  0
LINE
  5
1DA
330
1F
100
AcDbEntity
  8
0
  6
CONTINUOUS
 62
     7
100
AcDbLine
 10
5.8704748063
 20
5.4460534901
 30
0.0
 11
5.8436316823
 21
5.4335363358
 31
0.0
  0
LINE
  5
1DB
330
1F
100
AcDbEntity
  8
0
  6
CONTINUOUS
 62
     7
100
AcDbLine
 10
5.8436316823
 20
5.4335363358
 30
0.0
 11
5.8336868424
 21
5.4548631139
 31
0.0
  0
LINE
  5
1DC
330
1F
100
AcDbEntity
  8
0
  6
CONTINUOUS
 62
     7
100
AcDbLine
 10
5.8336868424
 20
5.4548631139
 30
0.0
 11
5.3343112517
 21
5.2220004517
 31
0.0
  0
LINE
  5
1DD
330
1F
100
AcDbEntity
  8
0
  6
CONTINUOUS
 62
     7
100
AcDbLine
 10
5.3343112517
 20
5.2220004517
 30
0.0
 11
5.3442560917
 21
5.2006736736
 31
0.0
  0
LINE
  5
1DE
330
1F
100
AcDbEntity
  8
0
  6
CONTINUOUS
 62
     7
100
AcDbLine
 10
5.3442560917
 20
5.2006736736
 30
0.0
 11
5.3174129677
 21
5.1881565193
 31
0.0
  0
LINE
  5
1DF
330
1F
100
AcDbEntity
  8
0
  6
CONTINUOUS
 62
     7
100
AcDbLine
 10
5.3174129677
 20
5.1881565193
 30
0.0
 11
5.53038595
 21
4.7314344849
 31
0.0
  0
LINE
  5
1E0
330
1F
100
AcDbEntity
  8
0
  6
CONTINUOUS
 62
     7
100
AcDbLine
 10
5.53038595
 20
4.7314344849
 30
0.0
 11
5.557229074
 21
4.7439516392
 31
0.0
  0
LINE
  5
1E1
330
1F
100
AcDbEntity
  8
0
  6
CONTINUOUS
 62
     7
100
AcDbLine
 10
4.8874669072
 20
4.4056100586
 30
0.0
 11
5.3868424979
 21
4.6384727208
 31
0.0
  0
LINE
  5
1E2
330
1F
100
AcDbEntity
  8
0
  6
CONTINUOUS
 62
     7
100
AcDbLine
 10
5.3768976579
 20
4.6597994989
 30
0.0
 11
5.4037407818
 21
4.6723166532
 31
0.0
  0
LINE
  5
1E3
330
1F
100
AcDbEntity
  8
0
  6
CONTINUOUS
 62
     7
100
AcDbLine
 10
5.4037407818
 20
4.6723166532
 30
0.0
 11
5.1907677996
 21
5.1290386876
 31
0.0
  0
LINE
  5
1E4
330
1F
100
AcDbEntity
  8
0
  6
CONTINUOUS
 62
     7
100
AcDbLine
 10
5.1907677996
 20
5.1290386876
 30
0.0
 11
5.1639246756
 21
5.1165215333
 31
0.0
  0
LINE
  5
1E5
330
1F
100
AcDbEntity
  8
0
  6
CONTINUOUS
 62
     7
100
AcDbLine
 10
5.1639246756
 20
5.1165215333
 30
0.0
 11
5.1539798356
 21
5.1378483115
 31
0.0
  0
LINE
  5
1E6
330
1F
100
AcDbEntity
  8
0
  6
CONTINUOUS
 62
     7
100
AcDbLine
 10
5.1539798356
 20
5.1378483115
 30
0.0
 11
4.654604245
 21
4.9049856492
 31
0.0
  0
LINE
  5
1E7
330
1F
100
AcDbEntity
  8
0
  6
CONTINUOUS
 62
     7
100
AcDbLine
 10
4.654604245
 20
4.9049856492
 30
0.0
 11
4.664549085
 21
4.8836588711
 31
0.0
  0
LINE
  5
1E8
330
1F
100
AcDbEntity
  8
0
  6
CONTINUOUS
 62
     7
100
AcDbLine
 10
4.664549085
 20
4.8836588711
 30
0.0
 11
4.637705961
 21
4.8711417169
 31
0.0
  0
LINE
  5
1E9
330
1F
100
AcDbEntity
  8
0
  6
CONTINUOUS
 62
     7
100
AcDbLine
 10
4.637705961
 20
4.8711417169
 30
0.0
 11
4.8506789433
 21
4.4144196824
 31
0.0
  0
LINE
  5
1EA
330
1F
100
AcDbEntity
  8
0
  6
CONTINUOUS
 62
     7
100
AcDbLine
 10
4.8506789433
 20
4.4144196824
 30
0.0
 11
4.8775220672
 21
4.4269368367
 31
0.0
  0
LINE
  5
1EB
330
1F
100
AcDbEntity
  8
0
  6
CONTINUOUS
 62
     7
100
AcDbLine
 10
5.2044817097
 20
3.7259030518
 30
0.0
 11
5.7038573003
 21
3.9587657141
 31
0.0
  0
LINE
  5
1EC
330
1F
100
AcDbEntity
  8
0
  6
CONTINUOUS
 62
     7
100
AcDbLine
 10
5.6939124604
 20
3.9800924922
 30
0.0
 11
5.7207555843
 21
3.9926096465
 31
0.0
  0
LINE
  5
1ED
330
1F
100
AcDbEntity
  8
0
  6
CONTINUOUS
 62
     7
100
AcDbLine
 10
5.7207555843
 20
3.9926096465
 30
0.0
 11
5.507782602
 21
4.4493316809
 31
0.0
  0
LINE
  5
1EE
330
1F
100
AcDbEntity
  8
0
  6
CONTINUOUS
 62
     7
100
AcDbLine
 10
5.507782602
 20
4.4493316809
 30
0.0
 11
5.4809394781
 21
4.4368145266
 31
0.0
  0
LINE
  5
1EF
330
1F
100
AcDbEntity
  8
0
  6
CONTINUOUS
 62
     7
100
AcDbLine
 10
5.4809394781
 20
4.4368145266
 30
0.0
 11
5.4709946381
 21
4.4581413047
 31
0.0
  0
LINE
  5
1F0
330
1F
100
AcDbEntity
  8
0
  6
CONTINUOUS
 62
     7
100
AcDbLine
 10
5.4709946381
 20
4.4581413047
 30
0.0
 11
4.9716190475
 21
4.2252786425
 31
0.0
  0
LINE
  5
1F1
330
1F
100
AcDbEntity
  8
0
  6
CONTINUOUS
 62
     7
100
AcDbLine
 10
4.9716190475
 20
4.2252786425
 30
0.0
 11
4.9815638874
 21
4.2039518644
 31
0.0
  0
LINE
  5
1F2
330
1F
100
AcDbEntity
  8
0
  6
CONTINUOUS
 62
     7
100
AcDbLine
 10
4.9815638874
 20
4.2039518644
 30
0.0
 11
4.9547207635
 21
4.1914347101
 31
0.0
  0
LINE
  5
1F3
330
1F
100
AcDbEntity
  8
0
  6
CONTINUOUS
 62
     7
100
AcDbLine
 10
4.9547207635
 20
4.1914347101
 30
0.0
 11
5.1676937458
 21
3.7347126757
 31
0.0
  0
LINE
  5
1F4
330
1F
100
AcDbEntity
  8
0
  6
CONTINUOUS
 62
     7
100
AcDbLine
 10
5.1676937458
 20
3.7347126757
 30
0.0
 11
5.1945368697
 21
3.74722983
 31
0.0
  0
LINE
  5
1F5
330
1F
100
AcDbEntity
  8
0
  6
CONTINUOUS
 62
     7
100
AcDbLine
 10
5.5214965122
 20
3.0461960451
 30
0.0
 11
6.0208721028
 21
3.2790587073
 31
0.0
  0
LINE
  5
1F6
330
1F
100
AcDbEntity
  8
0
  6
CONTINUOUS
 62
     7
100
AcDbLine
 10
6.0109272629
 20
3.3003854855
 30
0.0
 11
6.0377703868
 21
3.3129026397
 31
0.0
  0
LINE
  5
1F7
330
1F
100
AcDbEntity
  8
0
  6
CONTINUOUS
 62
     7
100
AcDbLine
 10
6.0377703868
 20
3.3129026397
 30
0.0
 11
5.8247974045
 21
3.7696246741
 31
0.0
  0
LINE
  5
1F8
330
1F
100
AcDbEntity
  8
0
  6
CONTINUOUS
 62
     7
100
AcDbLine
 10
5.8247974045
 20
3.7696246741
 30
0.0
 11
5.7979542806
 21
3.7571075199
 31
0.0
  0
LINE
  5
1F9
330
1F
100
AcDbEntity
  8
0
  6
CONTINUOUS
 62
     7
100
AcDbLine
 10
5.7979542806
 20
3.7571075199
 30
0.0
 11
5.7880094406
 21
3.778434298
 31
0.0
  0
LINE
  5
1FA
330
1F
100
AcDbEntity
  8
0
  6
CONTINUOUS
 62
     7
100
AcDbLine
 10
5.7880094406
 20
3.778434298
 30
0.0
 11
5.2886338499
 21
3.5455716358
 31
0.0
  0
LINE
  5
1FB
330
1F
100
AcDbEntity
  8
0
  6
CONTINUOUS
 62
     7
100
AcDbLine
 10
5.2886338499
 20
3.5455716358
 30
0.0
 11
5.2985786899
 21
3.5242448576
 31
0.0
  0
LINE
  5
1FC
330
1F
100
AcDbEntity
  8
0
  6
CONTINUOUS
 62
     7
100
AcDbLine
 10
5.2985786899
 20
3.5242448576
 30
0.0
 11
5.271735566
 21
3.5117277034
 31
0.0
  0
LINE
  5
1FD
330
1F
100
AcDbEntity
  8
0
  6
CONTINUOUS
 62
     7
100
AcDbLine
 10
5.271735566
 20
3.5117277034
 30
0.0
 11
5.4847085483
 21
3.055005669
 31
0.0
  0
LINE
  5
1FE
330
1F
100
AcDbEntity
  8
0
  6
CONTINUOUS
 62
     7
100
AcDbLine
 10
5.4847085483
 20
3.055005669
 30
0.0
 11
5.5115516722
 21
3.0675228232
 31
0.0
  0
LINE
  5
1FF
330
1F
100
AcDbEntity
  8
0
  6
CONTINUOUS
 62
     7
100
AcDbLine
 10
6.5420717083
 20
3.9359270132
 30
0.0
 11
6.3092090461
 21
4.4353026038
 31
0.0
  0
LINE
  5
200
330
1F
100
AcDbEntity
  8
0
  6
CONTINUOUS
 62
     7
100
AcDbLine
 10
6.287882268
 20
4.4253577639
 30
0.0
 11
6.2753651137
 21
4.4522008878
 31
0.0
  0
LINE
  5
201
330
1F
100
AcDbEntity
  8
0
  6
CONTINUOUS
 62
     7
100
AcDbLine
 10
6.2753651137
 20
4.4522008878
 30
0.0
 11
5.8186430793
 21
4.2392279055
 31
0.0
  0
LINE
  5
202
330
1F
100
AcDbEntity
  8
0
  6
CONTINUOUS
 62
     7
100
AcDbLine
 10
5.8186430793
 20
4.2392279055
 30
0.0
 11
5.8311602336
 21
4.2123847816
 31
0.0
  0
LINE
  5
203
330
1F
100
AcDbEntity
  8
0
  6
CONTINUOUS
 62
     7
100
AcDbLine
 10
5.8311602336
 20
4.2123847816
 30
0.0
 11
5.8098334554
 21
4.2024399416
 31
0.0
  0
LINE
  5
204
330
1F
100
AcDbEntity
  8
0
  6
CONTINUOUS
 62
     7
100
AcDbLine
 10
5.8098334554
 20
4.2024399416
 30
0.0
 11
6.0426961177
 21
3.703064351
 31
0.0
  0
LINE
  5
205
330
1F
100
AcDbEntity
  8
0
  6
CONTINUOUS
 62
     7
100
AcDbLine
 10
6.0426961177
 20
3.703064351
 30
0.0
 11
6.0640228958
 21
3.7130091909
 31
0.0
  0
LINE
  5
206
330
1F
100
AcDbEntity
  8
0
  6
CONTINUOUS
 62
     7
100
AcDbLine
 10
6.0640228958
 20
3.7130091909
 30
0.0
 11
6.0765400501
 21
3.686166067
 31
0.0
  0
LINE
  5
207
330
1F
100
AcDbEntity
  8
0
  6
CONTINUOUS
 62
     7
100
AcDbLine
 10
6.0765400501
 20
3.686166067
 30
0.0
 11
6.5332620845
 21
3.8991390493
 31
0.0
  0
LINE
  5
208
330
1F
100
AcDbEntity
  8
0
  6
CONTINUOUS
 62
     7
100
AcDbLine
 10
6.5332620845
 20
3.8991390493
 30
0.0
 11
6.5207449302
 21
3.9259821732
 31
0.0
  0
LINE
  5
209
330
1F
100
AcDbEntity
  8
0
  6
CONTINUOUS
 62
     7
100
AcDbLine
 10
7.2217787151
 20
4.2529418157
 30
0.0
 11
6.9889160528
 21
4.7523174063
 31
0.0
  0
LINE
  5
20A
330
1F
100
AcDbEntity
  8
0
  6
CONTINUOUS
 62
     7
100
AcDbLine
 10
6.9675892747
 20
4.7423725663
 30
0.0
 11
6.9550721205
 21
4.7692156903
 31
0.0
  0
LINE
  5
20B
330
1F
100
AcDbEntity
  8
0
  6
CONTINUOUS
 62
     7
100
AcDbLine
 10
6.9550721205
 20
4.7692156903
 30
0.0
 11
6.498350086
 21
4.556242708
 31
0.0
  0
LINE
  5
20C
330
1F
100
AcDbEntity
  8
0
  6
CONTINUOUS
 62
     7
100
AcDbLine
 10
6.498350086
 20
4.556242708
 30
0.0
 11
6.5108672403
 21
4.5293995841
 31
0.0
  0
LINE
  5
20D
330
1F
100
AcDbEntity
  8
0
  6
CONTINUOUS
 62
     7
100
AcDbLine
 10
6.5108672403
 20
4.5293995841
 30
0.0
 11
6.4895404622
 21
4.5194547441
 31
0.0
  0
LINE
  5
20E
330
1F
100
AcDbEntity
  8
0
  6
CONTINUOUS
 62
     7
100
AcDbLine
 10
6.4895404622
 20
4.5194547441
 30
0.0
 11
6.7224031244
 21
4.0200791534
 31
0.0
  0
LINE
  5
20F
330
1F
100
AcDbEntity
  8
0
  6
CONTINUOUS
 62
     7
100
AcDbLine
 10
6.7224031244
 20
4.0200791534
 30
0.0
 11
6.7437299025
 21
4.0300239934
 31
0.0
  0
LINE
  5
210
330
1F
100
AcDbEntity
  8
0
  6
CONTINUOUS
 62
     7
100
AcDbLine
 10
6.7437299025
 20
4.0300239934
 30
0.0
 11
6.7562470568
 21
4.0031808695
 31
0.0
  0
LINE
  5
211
330
1F
100
AcDbEntity
  8
0
  6
CONTINUOUS
 62
     7
100
AcDbLine
 10
6.7562470568
 20
4.0031808695
 30
0.0
 11
7.2129690912
 21
4.2161538517
 31
0.0
  0
LINE
  5
212
330
1F
100
AcDbEntity
  8
0
  6
CONTINUOUS
 62
     7
100
AcDbLine
 10
7.2129690912
 20
4.2161538517
 30
0.0
 11
7.2004519369
 21
4.2429969757
 31
0.0
  0
LINE
  5
213
330
1F
100
AcDbEntity
  8
0
  6
CONTINUOUS
 62
     7
100
AcDbLine
 10
6.7476020673
 20
3.8903213954
 30
0.0
 11
6.8025424413
 21
3.7725013831
 31
0.0
  0
LINE
  5
214
330
1F
100
AcDbEntity
  8
0
  6
CONTINUOUS
 62
     7
100
AcDbLine
 10
6.8025424413
 20
3.7725013831
 30
0.0
 11
7.3055432631
 21
4.0070545183
 31
0.0
  0
LINE
  5
215
330
1F
100
AcDbEntity
  8
0
  6
CONTINUOUS
 62
     7
100
AcDbLine
 10
7.3055432631
 20
4.0070545183
 30
0.0
 11
7.2506028891
 21
4.1248745306
 31
0.0
  0
LINE
  5
216
330
1F
100
AcDbEntity
  8
0
  6
CONTINUOUS
 62
     7
100
AcDbLine
 10
7.2506028891
 20
4.1248745306
 30
0.0
 11
6.7476020673
 21
3.8903213954
 31
0.0
  0
LINE
  5
217
330
1F
100
AcDbEntity
  8
0
  6
CONTINUOUS
 62
     7
100
AcDbLine
 10
6.4063378209
 20
4.6221649334
 30
0.0
 11
6.9093386427
 21
4.8567180687
 31
0.0
  0
LINE
  5
218
330
1F
100
AcDbEntity
  8
0
  6
CONTINUOUS
 62
     7
100
AcDbLine
 10
6.9093386427
 20
4.8567180687
 30
0.0
 11
6.8543982687
 21
4.974538081
 31
0.0
  0
LINE
  5
219
330
1F
100
AcDbEntity
  8
0
  6
CONTINUOUS
 62
     7
100
AcDbLine
 10
6.8543982687
 20
4.974538081
 30
0.0
 11
6.3513974469
 21
4.7399849457
 31
0.0
  0
LINE
  5
21A
330
1F
100
AcDbEntity
  8
0
  6
CONTINUOUS
 62
     7
100
AcDbLine
 10
6.3513974469
 20
4.7399849457
 30
0.0
 11
6.4063378209
 21
4.6221649334
 31
0.0
  0
LINE
  5
21B
330
1F
100
AcDbEntity
  8
0
  6
CONTINUOUS
 62
     7
100
AcDbLine
 10
6.0678950605
 20
3.5733065929
 30
0.0
 11
6.1228354346
 21
3.4554865806
 31
0.0
  0
LINE
  5
21C
330
1F
100
AcDbEntity
  8
0
  6
CONTINUOUS
 62
     7
100
AcDbLine
 10
6.1228354346
 20
3.4554865806
 30
0.0
 11
6.6258362564
 21
3.6900397158
 31
0.0
  0
LINE
  5
21D
330
1F
100
AcDbEntity
  8
0
  6
CONTINUOUS
 62
     7
100
AcDbLine
 10
6.6258362564
 20
3.6900397158
 30
0.0
 11
6.5708958824
 21
3.8078597282
 31
0.0
  0
LINE
  5
21E
330
1F
100
AcDbEntity
  8
0
  6
CONTINUOUS
 62
     7
100
AcDbLine
 10
6.5708958824
 20
3.8078597282
 30
0.0
 11
6.0678950605
 21
3.5733065929
 31
0.0
  0
LINE
  5
21F
330
1F
100
AcDbEntity
  8
0
  6
CONTINUOUS
 62
     7
100
AcDbLine
 10
5.7266308142
 20
4.3051501309
 30
0.0
 11
6.229631636
 21
4.5397032662
 31
0.0
  0
LINE
  5
220
330
1F
100
AcDbEntity
  8
0
  6
CONTINUOUS
 62
     7
100
AcDbLine
 10
6.229631636
 20
4.5397032662
 30
0.0
 11
6.174691262
 21
4.6575232785
 31
0.0
  0
LINE
  5
221
330
1F
100
AcDbEntity
  8
0
  6
CONTINUOUS
 62
     7
100
AcDbLine
 10
6.174691262
 20
4.6575232785
 30
0.0
 11
5.6716904402
 21
4.4229701432
 31
0.0
  0
LINE
  5
222
330
1F
100
AcDbEntity
  8
0
  6
CONTINUOUS
 62
     7
100
AcDbLine
 10
5.6716904402
 20
4.4229701432
 30
0.0
 11
5.7266308142
 21
4.3051501309
 31
0.0
  0
LINE
  5
223
330
1F
100
AcDbEntity
  8
0
  6
CONTINUOUS
 62
     7
100
AcDbLine
 10
7.7292595886
 20
6.8975297759
 30
0.0
 11
7.7292595886
 21
6.8739982799
 31
0.0
  0
LINE
  5
224
330
1F
100
AcDbEntity
  8
0
  6
CONTINUOUS
 62
     7
100
AcDbLine
 10
8.2802595886
 20
6.8739982799
 30
0.0
 11
8.2802595886
 21
6.8975297759
 31
0.0
  0
LINE
  5
225
330
1F
100
AcDbEntity
  8
0
  6
CONTINUOUS
 62
     7
100
AcDbLine
 10
7.7292595886
 20
7.6475297759
 30
0.0
 11
7.7292595886
 21
7.6239982799
 31
0.0
  0
LINE
  5
226
330
1F
100
AcDbEntity
  8
0
  6
CONTINUOUS
 62
     7
100
AcDbLine
 10
8.2802595886
 20
7.6239982799
 30
0.0
 11
8.2802595886
 21
7.6475297759
 31
0.0
  0
LINE
  5
227
330
1F
100
AcDbEntity
  8
0
  6
CONTINUOUS
 62
     7
100
AcDbLine
 10
6.9792595886
 20
7.5975297759
 30
0.0
 11
6.9792595886
 21
7.5739982799
 31
0.0
  0
LINE
  5
228
330
1F
100
AcDbEntity
  8
0
  6
CONTINUOUS
 62
     7
100
AcDbLine
 10
7.5302595886
 20
7.5739982799
 30
0.0
 11
7.5302595886
 21
7.5975297759
 31
0.0
  0
LINE
  5
229
330
1F
100
AcDbEntity
  8
0
  6
CONTINUOUS
 62
     7
100
AcDbLine
 10
6.9792595886
 20
6.8475297759
 30
0.0
 11
6.9792595886
 21
6.8239982799
 31
0.0
  0
LINE
  5
22A
330
1F
100
AcDbEntity
  8
0
  6
CONTINUOUS
 62
     7
100
AcDbLine
 10
7.5302595886
 20
6.8239982799
 30
0.0
 11
7.5302595886
 21
6.8475297759
 31
0.0
  0
LINE
  5
22B
330
1F
100
AcDbEntity
  8
0
  6
CONTINUOUS
 62
     7
100
AcDbLine
 10
6.2292595886
 20
7.5975297759
 30
0.0
 11
6.2292595886
 21
7.5739982799
 31
0.0
  0
LINE
  5
22C
330
1F
100
AcDbEntity
  8
0
  6
CONTINUOUS
 62
     7
100
AcDbLine
 10
6.7802595886
 20
7.5739982799
 30
0.0
 11
6.7802595886
 21
7.5975297759
 31
0.0
  0
LINE
  5
22D
330
1F
100
AcDbEntity
  8
0
  6
CONTINUOUS
 62
     7
100
AcDbLine
 10
6.9792595886
 20
6.0975297759
 30
0.0
 11
6.9792595886
 21
6.0739982799
 31
0.0
  0
LINE
  5
22E
330
1F
100
AcDbEntity
  8
0
  6
CONTINUOUS
 62
     7
100
AcDbLine
 10
7.5302595886
 20
6.0739982799
 30
0.0
 11
7.5302595886
 21
6.0975297759
 31
0.0
  0
LINE
  5
22F
330
1F
100
AcDbEntity
  8
0
  6
CONTINUOUS
 62
     7
100
AcDbLine
 10
6.9792595886
 20
5.3475297759
 30
0.0
 11
6.9792595886
 21
5.3239982799
 31
0.0
  0
LINE
  5
230
330
1F
100
AcDbEntity
  8
0
  6
CONTINUOUS
 62
     7
100
AcDbLine
 10
7.5302595886
 20
5.3239982799
 30
0.0
 11
7.5302595886
 21
5.3475297759
 31
0.0
  0
LINE
  5
231
330
1F
100
AcDbEntity
  8
0
  6
CONTINUOUS
 62
     7
100
AcDbLine
 10
7.7292595886
 20
4.6475297759
 30
0.0
 11
7.7292595886
 21
4.6239982799
 31
0.0
  0
LINE
  5
232
330
1F
100
AcDbEntity
  8
0
  6
CONTINUOUS
 62
     7
100
AcDbLine
 10
8.2802595886
 20
4.6239982799
 30
0.0
 11
8.2802595886
 21
4.6475297759
 31
0.0
  0
LINE
  5
233
330
1F
100
AcDbEntity
  8
0
  6
CONTINUOUS
 62
     7
100
AcDbLine
 10
7.7292595886
 20
5.3975297759
 30
0.0
 11
7.7292595886
 21
5.3739982799
 31
0.0
  0
LINE
  5
234
330
1F
100
AcDbEntity
  8
0
  6
CONTINUOUS
 62
     7
100
AcDbLine
 10
8.2802595886
 20
5.3739982799
 30
0.0
 11
8.2802595886
 21
5.3975297759
 31
0.0
  0
LINE
  5
235
330
1F
100
AcDbEntity
  8
0
  6
CONTINUOUS
 62
     7
100
AcDbLine
 10
7.7292595886
 20
6.1475297759
 30
0.0
 11
7.7292595886
 21
6.1239982799
 31
0.0
  0
LINE
  5
236
330
1F
100
AcDbEntity
  8
0
  6
CONTINUOUS
 62
     7
100
AcDbLine
 10
8.2802595886
 20
6.1239982799
 30
0.0
 11
8.2802595886
 21
6.1475297759
 31
0.0
  0
LINE
  5
237
330
1F
100
AcDbEntity
  8
0
  6
CONTINUOUS
 62
     7
100
AcDbLine
 10
6.7802595886
 20
6.0624982799
 30
0.0
 11
6.7567280926
 21
6.0624982799
 31
0.0
  0
LINE
  5
238
330
1F
100
AcDbEntity
  8
0
  6
CONTINUOUS
 62
     7
100
AcDbLine
 10
6.7567280926
 20
5.5114982799
 30
0.0
 11
6.7802595886
 21
5.5114982799
 31
0.0
  0
LINE
  5
239
330
1F
100
AcDbEntity
  8
0
  6
CONTINUOUS
 62
     7
100
AcDbLine
 10
6.7802595886
 20
7.1874982799
 30
0.0
 11
6.7567280926
 21
7.1874982799
 31
0.0
  0
LINE
  5
23A
330
1F
100
AcDbEntity
  8
0
  6
CONTINUOUS
 62
     7
100
AcDbLine
 10
6.7567280926
 20
6.6364982799
 30
0.0
 11
6.7802595886
 21
6.6364982799
 31
0.0
  0
LINE
  5
23B
330
1F
100
AcDbEntity
  8
0
  6
CONTINUOUS
 62
     7
100
AcDbLine
 10
8.4792595886
 20
7.7101203259
 30
0.0
 11
8.4792595886
 21
7.6865888299
 31
0.0
  0
LINE
  5
23C
330
1F
100
AcDbEntity
  8
0
  6
CONTINUOUS
 62
     7
100
AcDbLine
 10
9.0302595886
 20
7.6865888299
 30
0.0
 11
9.0302595886
 21
7.7101203259
 31
0.0
  0
LINE
  5
23D
330
1F
100
AcDbEntity
  8
0
  6
CONTINUOUS
 62
     7
100
AcDbLine
 10
8.4792595886
 20
6.9601203259
 30
0.0
 11
8.4792595886
 21
6.9365888299
 31
0.0
  0
LINE
  5
23E
330
1F
100
AcDbEntity
  8
0
  6
CONTINUOUS
 62
     7
100
AcDbLine
 10
9.0302595886
 20
6.9365888299
 30
0.0
 11
9.0302595886
 21
6.9601203259
 31
0.0
  0
LINE
  5
23F
330
1F
100
AcDbEntity
  8
0
  6
CONTINUOUS
 62
     7
100
AcDbLine
 10
8.4792595886
 20
6.2101203259
 30
0.0
 11
8.4792595886
 21
6.1865888299
 31
0.0
  0
LINE
  5
240
330
1F
100
AcDbEntity
  8
0
  6
CONTINUOUS
 62
     7
100
AcDbLine
 10
9.0302595886
 20
6.1865888299
 30
0.0
 11
9.0302595886
 21
6.2101203259
 31
0.0
  0
LINE
  5
241
330
1F
100
AcDbEntity
  8
0
  6
CONTINUOUS
 62
     7
100
AcDbLine
 10
8.4792595886
 20
5.4601203259
 30
0.0
 11
8.4792595886
 21
5.4365888299
 31
0.0
  0
LINE
  5
242
330
1F
100
AcDbEntity
  8
0
  6
CONTINUOUS
 62
     7
100
AcDbLine
 10
9.0302595886
 20
5.4365888299
 30
0.0
 11
9.0302595886
 21
5.4601203259
 31
0.0
  0
LINE
  5
243
330
1F
100
AcDbEntity
  8
0
  6
CONTINUOUS
 62
     7
100
AcDbLine
 10
8.4792595886
 20
4.7101203259
 30
0.0
 11
8.4792595886
 21
4.6865888299
 31
0.0
  0
LINE
  5
244
330
1F
100
AcDbEntity
  8
0
  6
CONTINUOUS
 62
     7
100
AcDbLine
 10
9.0302595886
 20
4.6865888299
 30
0.0
 11
9.0302595886
 21
4.7101203259
 31
0.0
  0
LINE
  5
245
330
1F
100
AcDbEntity
  8
0
  6
CONTINUOUS
 62
     7
100
AcDbLine
 10
9.2292595886
 20
4.6476203259
 30
0.0
 11
9.2292595886
 21
4.6240888299
 31
0.0
  0
LINE
  5
246
330
1F
100
AcDbEntity
  8
0
  6
CONTINUOUS
 62
     7
100
AcDbLine
 10
9.7802595886
 20
4.6240888299
 30
0.0
 11
9.7802595886
 21
4.6476203259
 31
0.0
  0
LINE
  5
247
330
1F
100
AcDbEntity
  8
0
  6
CONTINUOUS
 62
     7
100
AcDbLine
 10
9.2292595886
 20
5.3976203259
 30
0.0
 11
9.2292595886
 21
5.3740888299
 31
0.0
  0
LINE
  5
248
330
1F
100
AcDbEntity
  8
0
  6
CONTINUOUS
 62
     7
100
AcDbLine
 10
9.7802595886
 20
5.3740888299
 30
0.0
 11
9.7802595886
 21
5.3976203259
 31
0.0
  0
LINE
  5
249
330
1F
100
AcDbEntity
  8
0
  6
CONTINUOUS
 62
     7
100
AcDbLine
 10
9.2292595886
 20
6.1476203259
 30
0.0
 11
9.2292595886
 21
6.1240888299
 31
0.0
  0
LINE
  5
24A
330
1F
100
AcDbEntity
  8
0
  6
CONTINUOUS
 62
     7
100
AcDbLine
 10
9.7802595886
 20
6.1240888299
 30
0.0
 11
9.7802595886
 21
6.1476203259
 31
0.0
  0
LINE
  5
24B
330
1F
100
AcDbEntity
  8
0
  6
CONTINUOUS
 62
     7
100
AcDbLine
 10
9.2292595886
 20
6.8976203259
 30
0.0
 11
9.2292595886
 21
6.8740888299
 31
0.0
  0
LINE
  5
24C
330
1F
100
AcDbEntity
  8
0
  6
CONTINUOUS
 62
     7
100
AcDbLine
 10
9.7802595886
 20
6.8740888299
 30
0.0
 11
9.7802595886
 21
6.8976203259
 31
0.0
  0
LINE
  5
24D
330
1F
100
AcDbEntity
  8
0
  6
CONTINUOUS
 62
     7
100
AcDbLine
 10
9.2292595886
 20
7.6476203259
 30
0.0
 11
9.2292595886
 21
7.6240888299
 31
0.0
  0
LINE
  5
24E
330
1F
100
AcDbEntity
  8
0
  6
CONTINUOUS
 62
     7
100
AcDbLine
 10
9.7802595886
 20
7.6240888299
 30
0.0
 11
9.7802595886
 21
7.6476203259
 31
0.0
  0
LINE
  5
24F
330
1F
100
AcDbEntity
  8
0
  6
CONTINUOUS
 62
     7
100
AcDbLine
 10
9.9792595886
 20
7.5226203259
 30
0.0
 11
9.9792595886
 21
7.4990888299
 31
0.0
  0
LINE
  5
250
330
1F
100
AcDbEntity
  8
0
  6
CONTINUOUS
 62
     7
100
AcDbLine
 10
10.5302595886
 20
7.4990888299
 30
0.0
 11
10.5302595886
 21
7.5226203259
 31
0.0
  0
LINE
  5
251
330
1F
100
AcDbEntity
  8
0
  6
CONTINUOUS
 62
     7
100
AcDbLine
 10
9.9792595886
 20
6.7726203259
 30
0.0
 11
9.9792595886
 21
6.7490888299
 31
0.0
  0
LINE
  5
252
330
1F
100
AcDbEntity
  8
0
  6
CONTINUOUS
 62
     7
100
AcDbLine
 10
10.5302595886
 20
6.7490888299
 30
0.0
 11
10.5302595886
 21
6.7726203259
 31
0.0
  0
LINE
  5
253
330
1F
100
AcDbEntity
  8
0
  6
CONTINUOUS
 62
     7
100
AcDbLine
 10
9.9792595886
 20
6.0226203259
 30
0.0
 11
9.9792595886
 21
5.9990888299
 31
0.0
  0
LINE
  5
254
330
1F
100
AcDbEntity
  8
0
  6
CONTINUOUS
 62
     7
100
AcDbLine
 10
10.5302595886
 20
5.9990888299
 30
0.0
 11
10.5302595886
 21
6.0226203259
 31
0.0
  0
LINE
  5
255
330
1F
100
AcDbEntity
  8
0
  6
CONTINUOUS
 62
     7
100
AcDbLine
 10
9.9792595886
 20
5.2726203259
 30
0.0
 11
9.9792595886
 21
5.2490888299
 31
0.0
  0
LINE
  5
256
330
1F
100
AcDbEntity
  8
0
  6
CONTINUOUS
 62
     7
100
AcDbLine
 10
10.5302595886
 20
5.2490888299
 30
0.0
 11
10.5302595886
 21
5.2726203259
 31
0.0
  0
LINE
  5
257
330
1F
100
AcDbEntity
  8
0
  6
CONTINUOUS
 62
     7
100
AcDbLine
 10
9.9792595886
 20
4.5226203259
 30
0.0
 11
9.9792595886
 21
4.4990888299
 31
0.0
  0
LINE
  5
258
330
1F
100
AcDbEntity
  8
0
  6
CONTINUOUS
 62
     7
100
AcDbLine
 10
10.5302595886
 20
4.4990888299
 30
0.0
 11
10.5302595886
 21
4.5226203259
 31
0.0
  0
LINE
  5
259
330
1F
100
AcDbEntity
  8
0
  6
CONTINUOUS
 62
     7
100
AcDbLine
 10
10.7292595886
 20
4.5226203259
 30
0.0
 11
10.7292595886
 21
4.4990888299
 31
0.0
  0
LINE
  5
25A
330
1F
100
AcDbEntity
  8
0
  6
CONTINUOUS
 62
     7
100
AcDbLine
 10
11.2802595886
 20
4.4990888299
 30
0.0
 11
11.2802595886
 21
4.5226203259
 31
0.0
  0
LINE
  5
25B
330
1F
100
AcDbEntity
  8
0
  6
CONTINUOUS
 62
     7
100
AcDbLine
 10
10.9167595886
 20
5.2726203259
 30
0.0
 11
10.9167595886
 21
5.2490888299
 31
0.0
  0
LINE
  5
25C
330
1F
100
AcDbEntity
  8
0
  6
CONTINUOUS
 62
     7
100
AcDbLine
 10
11.4677595886
 20
5.2490888299
 30
0.0
 11
11.4677595886
 21
5.2726203259
 31
0.0
  0
LINE
  5
25D
330
1F
100
AcDbEntity
  8
0
  6
CONTINUOUS
 62
     7
100
AcDbLine
 10
10.9167595886
 20
6.0226203259
 30
0.0
 11
10.9167595886
 21
5.9990888299
 31
0.0
  0
LINE
  5
25E
330
1F
100
AcDbEntity
  8
0
  6
CONTINUOUS
 62
     7
100
AcDbLine
 10
11.4677595886
 20
5.9990888299
 30
0.0
 11
11.4677595886
 21
6.0226203259
 31
0.0
  0
LINE
  5
25F
330
1F
100
AcDbEntity
  8
0
  6
CONTINUOUS
 62
     7
100
AcDbLine
 10
10.9167595886
 20
6.7726203259
 30
0.0
 11
10.9167595886
 21
6.7490888299
 31
0.0
  0
LINE
  5
260
330
1F
100
AcDbEntity
  8
0
  6
CONTINUOUS
 62
     7
100
AcDbLine
 10
11.4677595886
 20
6.7490888299
 30
0.0
 11
11.4677595886
 21
6.7726203259
 31
0.0
  0
LINE
  5
261
330
1F
100
AcDbEntity
  8
0
  6
CONTINUOUS
 62
     7
100
AcDbLine
 10
10.9167595886
 20
7.5226203259
 30
0.0
 11
10.9167595886
 21
7.4990888299
 31
0.0
  0
LINE
  5
262
330
1F
100
AcDbEntity
  8
0
  6
CONTINUOUS
 62
     7
100
AcDbLine
 10
11.4677595886
 20
7.4990888299
 30
0.0
 11
11.4677595886
 21
7.5226203259
 31
0.0
  0
LINE
  5
263
330
1F
100
AcDbEntity
  8
0
  6
CONTINUOUS
 62
     7
100
AcDbLine
 10
5.557229074
 20
4.7439516392
 30
0.0
 11
5.5671739139
 21
4.7226248611
 31
0.0
  0
LINE
  5
264
330
1F
100
AcDbEntity
  8
0
  6
CONTINUOUS
 62
     7
100
AcDbLine
 10
6.0665495046
 20
4.9554875233
 30
0.0
 11
6.0566046646
 21
4.9768143014
 31
0.0
  0
LINE
  5
265
330
1F
100
AcDbEntity
  8
0
  6
CONTINUOUS
 62
     7
100
AcDbLine
 10
4.8775220672
 20
4.4269368367
 30
0.0
 11
4.8874669072
 21
4.4056100586
 31
0.0
  0
LINE
  5
266
330
1F
100
AcDbEntity
  8
0
  6
CONTINUOUS
 62
     7
100
AcDbLine
 10
5.3868424979
 20
4.6384727208
 30
0.0
 11
5.3768976579
 21
4.6597994989
 31
0.0
  0
LINE
  5
267
330
1F
100
AcDbEntity
  8
0
  6
CONTINUOUS
 62
     7
100
AcDbLine
 10
5.1945368697
 20
3.74722983
 30
0.0
 11
5.2044817097
 21
3.7259030518
 31
0.0
  0
LINE
  5
268
330
1F
100
AcDbEntity
  8
0
  6
CONTINUOUS
 62
     7
100
AcDbLine
 10
5.7038573003
 20
3.9587657141
 30
0.0
 11
5.6939124604
 21
3.9800924922
 31
0.0
  0
LINE
  5
269
330
1F
100
AcDbEntity
  8
0
  6
CONTINUOUS
 62
     7
100
AcDbLine
 10
5.5115516722
 20
3.0675228232
 30
0.0
 11
5.5214965122
 21
3.0461960451
 31
0.0
  0
LINE
  5
26A
330
1F
100
AcDbEntity
  8
0
  6
CONTINUOUS
 62
     7
100
AcDbLine
 10
6.0208721028
 20
3.2790587073
 30
0.0
 11
6.0109272629
 21
3.3003854855
 31
0.0
  0
LINE
  5
26B
330
1F
100
AcDbEntity
  8
0
  6
CONTINUOUS
 62
     7
100
AcDbLine
 10
6.3092090461
 20
4.4353026038
 30
0.0
 11
6.287882268
 21
4.4253577639
 31
0.0
  0
LINE
  5
26C
330
1F
100
AcDbEntity
  8
0
  6
CONTINUOUS
 62
     7
100
AcDbLine
 10
6.5207449302
 20
3.9259821732
 30
0.0
 11
6.5420717083
 21
3.9359270132
 31
0.0
  0
LINE
  5
26D
330
1F
100
AcDbEntity
  8
0
  6
CONTINUOUS
 62
     7
100
AcDbLine
 10
6.9889160528
 20
4.7523174063
 30
0.0
 11
6.9675892747
 21
4.7423725663
 31
0.0
  0
LINE
  5
26E
330
1F
100
AcDbEntity
  8
0
  6
CONTINUOUS
 62
     7
100
AcDbLine
 10
7.2004519369
 20
4.2429969757
 30
0.0
 11
7.2217787151
 21
4.2529418157
 31
0.0
  0
LINE
  5
26F
330
1F
100
AcDbEntity
  8
0
  6
CONTINUOUS
 62
     7
100
AcDbLine
 10
11.8922694338
 20
1.4857511752
 30
0.0
 11
11.8922694338
 21
1.5369322776
 31
0.0
  0
LINE
  5
270
330
1F
100
AcDbEntity
  8
0
  6
CONTINUOUS
 62
     7
100
AcDbLine
 10
4.4033857386
 20
1.5369322776
 30
0.0
 11
4.4033857386
 21
1.4857511752
 31
0.0
  0
LINE
  5
271
330
1F
100
AcDbEntity
  8
0
  6
CONTINUOUS
 62
     7
100
AcDbLine
 10
4.1533857386
 20
1.4857511752
 30
0.0
 11
4.1533857386
 21
1.5369322776
 31
0.0
  0
LINE
  5
272
330
1F
100
AcDbEntity
  8
0
  6
CONTINUOUS
 62
     7
100
AcDbLine
 10
4.1533857386
 20
1.5369322776
 30
0.0
 11
4.4033857386
 21
1.5369322776
 31
0.0
  0
LINE
  5
273
330
1F
100
AcDbEntity
  8
0
  6
CONTINUOUS
 62
     7
100
AcDbLine
 10
4.4033857386
 20
1.4857511752
 30
0.0
 11
4.1533857386
 21
1.4857511752
 31
0.0
  0
LINE
  5
274
330
1F
100
AcDbEntity
  8
0
  6
CONTINUOUS
 62
     7
100
AcDbLine
 10
6.5346886364
 20
1.5369322776
 30
0.0
 11
6.5346886364
 21
1.4857511752
 31
0.0
  0
LINE
  5
275
330
1F
100
AcDbEntity
  8
0
  6
CONTINUOUS
 62
     7
100
AcDbLine
 10
6.2177249401
 20
1.4857511752
 30
0.0
 11
6.2177249401
 21
1.5369322776
 31
0.0
  0
LINE
  5
276
330
1F
100
AcDbEntity
  8
0
  6
CONTINUOUS
 62
     7
100
AcDbLine
 10
6.2177249401
 20
1.5369322776
 30
0.0
 11
6.5346886364
 21
1.5369322776
 31
0.0
  0
LINE
  5
277
330
1F
100
AcDbEntity
  8
0
  6
CONTINUOUS
 62
     7
100
AcDbLine
 10
6.5346886364
 20
1.4857511752
 30
0.0
 11
6.2177249401
 21
1.4857511752
 31
0.0
  0
LINE
  5
278
330
1F
100
AcDbEntity
  8
0
  6
CONTINUOUS
 62
     7
100
AcDbLine
 10
4.4033857386
 20
1.5369322776
 30
0.0
 11
6.2177249401
 21
1.5369322776
 31
0.0
  0
LINE
  5
279
330
1F
100
AcDbEntity
  8
0
  6
CONTINUOUS
 62
     7
100
AcDbLine
 10
4.4033857386
 20
1.4857511752
 30
0.0
 11
6.2177249401
 21
1.4857511752
 31
0.0
  0
LINE
  5
27A
330
1F
100
AcDbEntity
  8
0
  6
CONTINUOUS
 62
     7
100
AcDbLine
 10
7.4402215904
 20
1.4857511752
 30
0.0
 11
7.4402215904
 21
1.5369322776
 31
0.0
  0
LINE
  5
27B
330
1F
100
AcDbEntity
  8
0
  6
CONTINUOUS
 62
     7
100
AcDbLine
 10
6.5346886364
 20
1.5369322776
 30
0.0
 11
7.4402215904
 21
1.5369322776
 31
0.0
  0
LINE
  5
27C
330
1F
100
AcDbEntity
  8
0
  6
CONTINUOUS
 62
     7
100
AcDbLine
 10
6.5346886364
 20
1.4857511752
 30
0.0
 11
7.4402215904
 21
1.4857511752
 31
0.0
  0
LINE
  5
27D
330
1F
100
AcDbEntity
  8
0
  6
CONTINUOUS
 62
     7
100
AcDbLine
 10
7.7571852867
 20
1.5369322776
 30
0.0
 11
7.7571852867
 21
1.4857511752
 31
0.0
  0
LINE
  5
27E
330
1F
100
AcDbEntity
  8
0
  6
CONTINUOUS
 62
     7
100
AcDbLine
 10
7.4402215904
 20
1.5369322776
 30
0.0
 11
7.7571852867
 21
1.5369322776
 31
0.0
  0
LINE
  5
27F
330
1F
100
AcDbEntity
  8
0
  6
CONTINUOUS
 62
     7
100
AcDbLine
 10
7.7571852867
 20
1.4857511752
 30
0.0
 11
7.4402215904
 21
1.4857511752
 31
0.0
  0
LINE
  5
280
330
1F
100
AcDbEntity
  8
0
  6
CONTINUOUS
 62
     7
100
AcDbLine
 10
8.8980314129
 20
1.5369322776
 30
0.0
 11
8.8980314129
 21
1.4857511752
 31
0.0
  0
LINE
  5
281
330
1F
100
AcDbEntity
  8
0
  6
CONTINUOUS
 62
     7
100
AcDbLine
 10
7.7571852867
 20
1.5369322776
 30
0.0
 11
8.8980314129
 21
1.5369322776
 31
0.0
  0
LINE
  5
282
330
1F
100
AcDbEntity
  8
0
  6
CONTINUOUS
 62
     7
100
AcDbLine
 10
7.7571852867
 20
1.4857511752
 30
0.0
 11
8.8980314129
 21
1.4857511752
 31
0.0
  0
LINE
  5
283
330
1F
100
AcDbEntity
  8
0
  6
CONTINUOUS
 62
     7
100
AcDbLine
 10
9.4337794444
 20
1.5369322776
 30
0.0
 11
9.4337794444
 21
1.4857511752
 31
0.0
  0
LINE
  5
284
330
1F
100
AcDbEntity
  8
0
  6
CONTINUOUS
 62
     7
100
AcDbLine
 10
9.993405429
 20
1.4857511752
 30
0.0
 11
9.993405429
 21
1.5369322776
 31
0.0
  0
LINE
  5
285
330
1F
100
AcDbEntity
  8
0
  6
CONTINUOUS
 62
     7
100
AcDbLine
 10
9.4337794444
 20
1.5369322776
 30
0.0
 11
9.993405429
 21
1.5369322776
 31
0.0
  0
LINE
  5
286
330
1F
100
AcDbEntity
  8
0
  6
CONTINUOUS
 62
     7
100
AcDbLine
 10
9.4337794444
 20
1.4857511752
 30
0.0
 11
9.993405429
 21
1.4857511752
 31
0.0
  0
LINE
  5
287
330
1F
100
AcDbEntity
  8
0
  6
CONTINUOUS
 62
     7
100
AcDbLine
 10
10.243405429
 20
1.5369322776
 30
0.0
 11
10.243405429
 21
1.4857511752
 31
0.0
  0
LINE
  5
288
330
1F
100
AcDbEntity
  8
0
  6
CONTINUOUS
 62
     7
100
AcDbLine
 10
9.993405429
 20
1.5369322776
 30
0.0
 11
10.243405429
 21
1.5369322776
 31
0.0
  0
LINE
  5
289
330
1F
100
AcDbEntity
  8
0
  6
CONTINUOUS
 62
     7
100
AcDbLine
 10
10.243405429
 20
1.4857511752
 30
0.0
 11
9.993405429
 21
1.4857511752
 31
0.0
  0
LINE
  5
28A
330
1F
100
AcDbEntity
  8
0
  6
CONTINUOUS
 62
     7
100
AcDbLine
 10
8.8980314129
 20
1.5369322776
 30
0.0
 11
9.4337794444
 21
1.5369322776
 31
0.0
  0
LINE
  5
28B
330
1F
100
AcDbEntity
  8
0
  6
CONTINUOUS
 62
     7
100
AcDbLine
 10
8.8980314129
 20
1.4857511752
 30
0.0
 11
9.4337794444
 21
1.4857511752
 31
0.0
  0
LINE
  5
28C
330
1F
100
AcDbEntity
  8
0
  6
CONTINUOUS
 62
     7
100
AcDbLine
 10
10.3877257585
 20
1.5369322776
 30
0.0
 11
10.3877257585
 21
1.4857511752
 31
0.0
  0
LINE
  5
28D
330
1F
100
AcDbEntity
  8
0
  6
CONTINUOUS
 62
     7
100
AcDbLine
 10
10.243405429
 20
1.5369322776
 30
0.0
 11
10.3877257585
 21
1.5369322776
 31
0.0
  0
LINE
  5
28E
330
1F
100
AcDbEntity
  8
0
  6
CONTINUOUS
 62
     7
100
AcDbLine
 10
10.3877257585
 20
1.4857511752
 30
0.0
 11
10.243405429
 21
1.4857511752
 31
0.0
  0
LINE
  5
28F
330
1F
100
AcDbEntity
  8
0
  6
CONTINUOUS
 62
     7
100
AcDbLine
 10
11.7479491042
 20
1.4857511752
 30
0.0
 11
11.7479491042
 21
1.5369322776
 31
0.0
  0
LINE
  5
290
330
1F
100
AcDbEntity
  8
0
  6
CONTINUOUS
 62
     7
100
AcDbLine
 10
10.3877257585
 20
1.5369322776
 30
0.0
 11
11.7479491042
 21
1.5369322776
 31
0.0
  0
LINE
  5
291
330
1F
100
AcDbEntity
  8
0
  6
CONTINUOUS
 62
     7
100
AcDbLine
 10
10.3877257585
 20
1.4857511752
 30
0.0
 11
11.7479491042
 21
1.4857511752
 31
0.0
  0
LINE
  5
292
330
1F
100
AcDbEntity
  8
0
  6
CONTINUOUS
 62
     7
100
AcDbLine
 10
11.7479491042
 20
1.5369322776
 30
0.0
 11
11.8922694338
 21
1.5369322776
 31
0.0
  0
LINE
  5
293
330
1F
100
AcDbEntity
  8
0
  6
CONTINUOUS
 62
     7
100
AcDbLine
 10
11.8922694338
 20
1.4857511752
 30
0.0
 11
11.7479491042
 21
1.4857511752
 31
0.0
  0
DIMENSION
  5
294
330
1F
100
AcDbEntity
  8
0
  6
CONTINUOUS
 62
     7
100
AcDbDimension
  2
_D
 10
12.2859702212
 20
1.5369322776
 30
0.0
 11
12.2859702212
 21
1.8861510306
 31
0.0
 70
   160
  1
<>
  3
SLDDIMSTYLE0
100
AcDbAlignedDimension
 13
11.8922694338
 23
1.4857511752
 33
0.0
 14
11.8922694338
 24
1.5369322776
 34
0.0
 50
90.0
100
AcDbRotatedDimension
  0
ENDSEC
  0
SECTION
  2
OBJECTS
  0
DICTIONARY
  5
C
330
0
100
AcDbDictionary
  3
ACAD_GROUP
350
D
  3
ACAD_MLINESTYLE
350
17
  3
ACAD_SCALELIST
350
47
1001
ACAD
1000
TREAT_AS_HARD
1070
     0
  0
DICTIONARY
  5
D
102
{ACAD_REACTORS
330
C
102
}
330
C
100
AcDbDictionary
1001
ACAD
1000
TREAT_AS_HARD
1070
     0
  0
DICTIONARY
  5
17
102
{ACAD_REACTORS
330
C
102
}
330
C
100
AcDbDictionary
  3
STANDARD
350
18
1001
ACAD
1000
TREAT_AS_HARD
1070
     0
  0
DICTIONARY
  5
47
102
{ACAD_REACTORS
330
C
102
}
330
C
100
AcDbDictionary
1001
ACAD
1000
TREAT_AS_HARD
1070
     0
  0
MLINESTYLE
  5
18
102
{ACAD_REACTORS
330
17
102
}
330
17
100
AcDbMlineStyle
  2
Standard
 70
     0
  3

 62
   256
 51
90.0
 52
90.0
 71
     2
 49
0.5
 62
   256
  6
BYLAYER
 49
-0.5
 62
   256
  6
BYLAYER
  0
ENDSEC
  0
EOF
