  0
SECTION
  2
HEADER
  9
$ACADVER
  1
AC1012
  9
$DWGCODEPAGE
  3
ansi_1252
  9
$INSBASE
 10
0.0
 20
0.0
 30
0.0
  9
$EXTMIN
 10
0.0
 20
0.0
 30
0.0
  9
$EXTMAX
 10
17.0
 20
11.0
 30
0.0
  9
$LIMMIN
 10
0.0
 20
0.0
  9
$LIMMAX
 10
17.0
 20
11.0
  9
$ORTHOMODE
 70
     0
  9
$REGENMODE
 70
     1
  9
$FILLMODE
 70
     1
  9
$QTEXTMODE
 70
     0
  9
$MIRRTEXT
 70
     1
  9
$DRAGMODE
 70
     2
  9
$LTSCALE
 40
1.0
  9
$OSMODE
 70
    37
  9
$ATTMODE
 70
     1
  9
$TEXTSIZE
 40
0.125
  9
$TRACEWID
 40
0.05
  9
$TEXTSTYLE
  7
STANDARD
  9
$CLAYER
  8
0
  9
$CELTYPE
  6
BYLAYER
  9
$CECOLOR
 62
   256
  9
$CELTSCALE
 40
1.0
  9
$DELOBJ
 70
     1
  9
$DISPSILH
 70
     0
  9
$DIMSCALE
 40
1.0
  9
$DIMASZ
 40
0.13
  9
$DIMEXO
 40
0.05
  9
$DIMDLI
 40
0.38
  9
$DIMRND
 40
0.0
  9
$DIMDLE
 40
0.0
  9
$DIMEXE
 40
0.125
  9
$DIMTP
 40
0.0
  9
$DIMTM
 40
0.0
  9
$DIMTXT
 40
0.125
  9
$DIMCEN
 40
0.09
  9
$DIMTSZ
 40
0.0
  9
$DIMTOL
 70
     0
  9
$DIMLIM
 70
     0
  9
$DIMTIH
 70
     1
  9
$DIMTOH
 70
     1
  9
$DIMSE1
 70
     0
  9
$DIMSE2
 70
     0
  9
$DIMTAD
 70
     0
  9
$DIMZIN
 70
     0
  9
$DIMBLK
  1

  9
$DIMASO
 70
     1
  9
$DIMSHO
 70
     1
  9
$DIMPOST
  1

  9
$DIMAPOST
  1

  9
$DIMALT
 70
     0
  9
$DIMALTD
 70
     2
  9
$DIMALTF
 40
25.4
  9
$DIMLFAC
 40
2.0
  9
$DIMTOFL
 70
     0
  9
$DIMTVP
 40
0.0
  9
$DIMTIX
 70
     0
  9
$DIMSOXD
 70
     0
  9
$DIMSAH
 70
     0
  9
$DIMBLK1
  1

  9
$DIMBLK2
  1

  9
$DIMSTYLE
  2
STANDARD
  9
$DIMCLRD
 70
     0
  9
$DIMCLRE
 70
     0
  9
$DIMCLRT
 70
     0
  9
$DIMTFAC
 40
1.0
  9
$DIMGAP
 40
0.06
  9
$DIMJUST
 70
     0
  9
$DIMSD1
 70
     0
  9
$DIMSD2
 70
     0
  9
$DIMTOLJ
 70
     1
  9
$DIMTZIN
 70
     0
  9
$DIMALTZ
 70
     0
  9
$DIMALTTZ
 70
     0
  9
$DIMFIT
 70
     3
  9
$DIMUPT
 70
     0
  9
$DIMUNIT
 70
     2
  9
$DIMDEC
 70
     2
  9
$DIMTDEC
 70
     2
  9
$DIMALTU
 70
     2
  9
$DIMALTTD
 70
     2
  9
$DIMTXSTY
  7
STANDARD
  9
$DIMAUNIT
 70
     0
  9
$LUNITS
 70
     2
  9
$LUPREC
 70
     2
  9
$SKETCHINC
 40
0.1
  9
$FILLETRAD
 40
0.5
  9
$AUNITS
 70
     0
  9
$AUPREC
 70
     2
  9
$MENU
  1
.
  9
$ELEVATION
 40
0.0
  9
$PELEVATION
 40
0.0
  9
$THICKNESS
 40
0.0
  9
$LIMCHECK
 70
     0
  9
$CHAMFERA
 40
0.0
  9
$CHAMFERB
 40
0.0
  9
$CHAMFERC
 40
0.0
  9
$CHAMFERD
 40
0.0
  9
$SKPOLY
 70
     0
  9
$TDCREATE
 40
2457406.022039896
  9
$TDUPDATE
 40
2457406.022040058
  9
$TDINDWG
 40
0.0000000116
  9
$TDUSRTIMER
 40
0.0000000116
  9
$USRTIMER
 70
     1
  9
$ANGBASE
 50
0.0
  9
$ANGDIR
 70
     0
  9
$PDMODE
 70
     0
  9
$PDSIZE
 40
-1.0
  9
$PLINEWID
 40
0.0
  9
$COORDS
 70
     1
  9
$SPLFRAME
 70
     0
  9
$SPLINETYPE
 70
     6
  9
$SPLINESEGS
 70
     8
  9
$ATTDIA
 70
     0
  9
$ATTREQ
 70
     1
  9
$HANDLING
 70
     1
  9
$HANDSEED
  5
EF
  9
$SURFTAB1
 70
     6
  9
$SURFTAB2
 70
     6
  9
$SURFTYPE
 70
     6
  9
$SURFU
 70
     6
  9
$SURFV
 70
     6
  9
$UCSNAME
  2

  9
$UCSORG
 10
0.0
 20
0.0
 30
0.0
  9
$UCSXDIR
 10
1.0
 20
0.0
 30
0.0
  9
$UCSYDIR
 10
0.0
 20
1.0
 30
0.0
  9
$PUCSNAME
  2

  9
$PUCSORG
 10
0.0
 20
0.0
 30
0.0
  9
$PUCSXDIR
 10
1.0
 20
0.0
 30
0.0
  9
$PUCSYDIR
 10
0.0
 20
1.0
 30
0.0
  9
$USERI1
 70
     0
  9
$USERI2
 70
     0
  9
$USERI3
 70
     0
  9
$USERI4
 70
     0
  9
$USERI5
 70
     0
  9
$USERR1
 40
0.0
  9
$USERR2
 40
0.0
  9
$USERR3
 40
0.0
  9
$USERR4
 40
0.0
  9
$USERR5
 40
0.0
  9
$WORLDVIEW
 70
     1
  9
$SHADEDGE
 70
     3
  9
$SHADEDIF
 70
    70
  9
$TILEMODE
 70
     1
  9
$MAXACTVP
 70
    64
  9
$PINSBASE
 10
0.0
 20
0.0
 30
0.0
  9
$PLIMCHECK
 70
     0
  9
$PEXTMIN
 10
1.0000000000E+20
 20
1.0000000000E+20
 30
1.0000000000E+20
  9
$PEXTMAX
 10
-1.0000000000E+20
 20
-1.0000000000E+20
 30
-1.0000000000E+20
  9
$PLIMMIN
 10
0.0
 20
0.0
  9
$PLIMMAX
 10
12.0
 20
9.0
  9
$UNITMODE
 70
     0
  9
$VISRETAIN
 70
     1
  9
$PLINEGEN
 70
     0
  9
$PSLTSCALE
 70
     1
  9
$TREEDEPTH
 70
  3020
  9
$PICKSTYLE
 70
     1
  9
$CMLSTYLE
  2
STANDARD
  9
$CMLJUST
 70
     0
  9
$CMLSCALE
 40
1.0
  9
$SAVEIMAGES
 70
     1
  0
ENDSEC
  0
SECTION
  2
CLASSES
  0
CLASS
  1
ACDBDICTIONARYWDFLT
  2
AcDbDictionaryWithDefault
  3
ObjectDBX Classes
 90
    32768
280
     0
281
     0
  0
CLASS
  1
VISUALSTYLE
  2
AcDbVisualStyle
  3
ObjectDBX Classes
 90
     4095
280
     0
281
     0
  0
CLASS
  1
MATERIAL
  2
AcDbMaterial
  3
ObjectDBX Classes
 90
     1153
280
     0
281
     0
  0
CLASS
  1
SCALE
  2
AcDbScale
  3
ObjectDBX Classes
 90
     1153
280
     0
281
     0
  0
CLASS
  1
TABLESTYLE
  2
AcDbTableStyle
  3
ObjectDBX Classes
 90
     4095
280
     0
281
     0
  0
CLASS
  1
MLEADERSTYLE
  2
AcDbMLeaderStyle
  3
ACDB_MLEADERSTYLE_CLASS
 90
     4095
280
     0
281
     0
  0
CLASS
  1
SUN
  2
AcDbSun
  3
SCENEOE
 90
     1153
280
     0
281
     0
  0
CLASS
  1
XRECORD
  2
AcDbXrecord
  3
ObjectDBX Classes
 90
    32768
280
     0
281
     0
  0
ENDSEC
  0
SECTION
  2
TABLES
  0
TABLE
  2
VPORT
  5
8
330
0
100
AcDbSymbolTable
 70
     1
  0
VPORT
  5
29
330
8
100
AcDbSymbolTableRecord
100
AcDbViewportTableRecord
  2
*ACTIVE
 70
     0
 10
0.0
 20
0.0
 11
1.0
 21
1.0
 12
8.5
 22
5.5
 13
0.0
 23
0.0
 14
0.5
 24
0.5
 15
0.5
 25
0.5
 16
0.0
 26
0.0
 36
1.0
 17
0.0
 27
0.0
 37
0.0
 40
11.0
 41
1.5454545455
 42
50.0
 43
0.0
 44
0.0
 50
0.0
 51
0.0
 71
     0
 72
  2000
 73
     1
 74
     3
 75
     0
 76
     0
 77
     0
 78
     0
  0
ENDTAB
  0
TABLE
  2
LTYPE
  5
5
330
0
100
AcDbSymbolTable
 70
     6
  0
LTYPE
  5
14
330
5
100
AcDbSymbolTableRecord
100
AcDbLinetypeTableRecord
  2
BYBLOCK
 70
     0
  3

 72
    65
 73
     0
 40
0.0
  0
LTYPE
  5
15
330
5
100
AcDbSymbolTableRecord
100
AcDbLinetypeTableRecord
  2
BYLAYER
 70
     0
  3

 72
    65
 73
     0
 40
0.0
  0
LTYPE
  5
16
330
5
100
AcDbSymbolTableRecord
100
AcDbLinetypeTableRecord
  2
CONTINUOUS
 70
     0
  3
Solid line
 72
    65
 73
     0
 40
0.0
  0
LTYPE
  5
6E
330
5
100
AcDbSymbolTableRecord
100
AcDbLinetypeTableRecord
  2
HIDDEN
 70
     0
  3
Hidden __ __ __ __ __ __ __ __ __ __ __ __ __ __
 72
    65
 73
     2
 40
0.075
 49
0.05
 74
     0
 49
-0.025
 74
     0
  0
LTYPE
  5
6F
330
5
100
AcDbSymbolTableRecord
100
AcDbLinetypeTableRecord
  2
PHANTOM
 70
     0
  3
Phantom ______  __  __  ______  __  __  ______
 72
    65
 73
     6
 40
0.5
 49
0.25
 74
     0
 49
-0.05
 74
     0
 49
0.05
 74
     0
 49
-0.05
 74
     0
 49
0.05
 74
     0
 49
-0.05
 74
     0
  0
LTYPE
  5
70
330
5
100
AcDbSymbolTableRecord
100
AcDbLinetypeTableRecord
  2
CENTER
 70
     0
  3
Center ____ _ ____ _ ____ _ ____ _ ____ _ ____
 72
    65
 73
     4
 40
0.4
 49
0.25
 74
     0
 49
-0.05
 74
     0
 49
0.05
 74
     0
 49
-0.05
 74
     0
  0
LTYPE
  5
71
330
5
100
AcDbSymbolTableRecord
100
AcDbLinetypeTableRecord
  2
CENTERX2
 70
     0
  3
Center (2x) ________  __  ________  __  _____
 72
    65
 73
     4
 40
0.8
 49
0.5
 74
     0
 49
-0.1
 74
     0
 49
0.1
 74
     0
 49
-0.1
 74
     0
  0
LTYPE
  5
72
330
5
100
AcDbSymbolTableRecord
100
AcDbLinetypeTableRecord
  2
DOT2
 70
     0
  3
Dot (.5x) ........................................
 72
    65
 73
     2
 40
0.025
 49
0.0
 74
     0
 49
-0.025
 74
     0
  0
ENDTAB
  0
TABLE
  2
LAYER
  5
2
330
0
100
AcDbSymbolTable
 70
     2
  0
LAYER
  5
10
330
2
100
AcDbSymbolTableRecord
100
AcDbLayerTableRecord
  2
0
 70
     0
 62
     7
  6
CONTINUOUS
  0
LAYER
  5
73
330
2
100
AcDbSymbolTableRecord
100
AcDbLayerTableRecord
  2
FORMAT
 70
     0
 62
     7
  6
CONTINUOUS
  0
ENDTAB
  0
TABLE
  2
STYLE
  5
3
330
0
100
AcDbSymbolTable
 70
     2
  0
STYLE
  5
11
330
3
100
AcDbSymbolTableRecord
100
AcDbTextStyleTableRecord
  2
STANDARD
 70
     0
 40
0.0
 41
1.0
 50
0.0
 71
     0
 42
0.125
  3
txt
  4

  0
STYLE
  5
E2
330
3
100
AcDbSymbolTableRecord
100
AcDbTextStyleTableRecord
  2
SLDTEXTSTYLE0
 70
     0
 40
0.0
 41
0.75
 50
0.0
 71
     0
 42
0.125
  3
TXT
  4

  0
ENDTAB
  0
TABLE
  2
VIEW
  5
6
330
0
100
AcDbSymbolTable
 70
     0
  0
ENDTAB
  0
TABLE
  2
UCS
  5
7
330
0
100
AcDbSymbolTable
 70
     0
  0
ENDTAB
  0
TABLE
  2
APPID
  5
9
330
0
100
AcDbSymbolTable
 70
     1
  0
APPID
  5
12
330
9
100
AcDbSymbolTableRecord
100
AcDbRegAppTableRecord
  2
ACAD
 70
     0
  0
ENDTAB
  0
TABLE
  2
DIMSTYLE
  5
A
330
0
100
AcDbSymbolTable
 70
     2
  0
DIMSTYLE
105
27
330
A
100
AcDbSymbolTableRecord
100
AcDbDimStyleTableRecord
  2
STANDARD
 70
     0
  3

  4

  5

  6

  7

 40
1.0
 41
0.18
 42
0.0625
 43
0.38
 44
0.18
 45
0.0
 46
0.0
 47
0.0
 48
0.0
140
0.18
141
0.09
142
0.0
143
25.4
144
1.0
145
0.0
146
1.0
147
0.09
 71
     0
 72
     0
 73
     1
 74
     1
 75
     0
 76
     0
 77
     0
 78
     0
170
     0
171
     2
172
     0
173
     0
174
     0
175
     0
176
     0
177
     0
178
     0
270
     2
271
     4
272
     4
273
     2
274
     2
340
11
275
     0
280
     0
281
     0
282
     0
283
     1
284
     0
285
     0
286
     0
287
     3
288
     0
  0
DIMSTYLE
105
E3
102
{ACAD_REACTORS
330
E1
102
}
330
A
100
AcDbSymbolTableRecord
100
AcDbDimStyleTableRecord
  2
SLDDIMSTYLE0
 70
     0
  3

  4

  5

  6

  7

 40
1.0
 41
0.13
 42
0.0625
 43
0.38
 44
0.0
 45
0.000000001
 46
0.0
 47
0.0
 48
0.0
140
0.125
141
0.09
142
0.0
143
25.4
144
1.0
145
0.0
146
1.0
147
0.03125
 71
     0
 72
     0
 73
     1
 74
     1
 75
     0
 76
     0
 77
     0
 78
    12
170
     0
171
     2
172
     1
173
     1
174
     0
175
     0
176
     0
177
     0
178
     0
270
     2
271
     3
272
     3
273
     2
274
     2
340
E2
275
     0
280
     0
281
     0
282
     0
283
     1
284
    12
285
     0
286
     0
288
     0
  0
ENDTAB
  0
TABLE
  2
BLOCK_RECORD
  5
1
330
0
100
AcDbSymbolTable
 70
     2
  0
BLOCK_RECORD
  5
1F
330
1
100
AcDbSymbolTableRecord
100
AcDbBlockTableRecord
  2
*MODEL_SPACE
  0
BLOCK_RECORD
  5
1B
330
1
100
AcDbSymbolTableRecord
100
AcDbBlockTableRecord
  2
*PAPER_SPACE
  0
BLOCK_RECORD
  5
23
330
1
100
AcDbSymbolTableRecord
100
AcDbBlockTableRecord
  2
*PAPER_SPACE0
  0
BLOCK_RECORD
  5
E4
330
1
100
AcDbSymbolTableRecord
100
AcDbBlockTableRecord
  2
_D
  0
ENDTAB
  0
ENDSEC
  0
SECTION
  2
BLOCKS
  0
BLOCK
  5
20
330
1F
100
AcDbEntity
  8
0
100
AcDbBlockBegin
  2
*MODEL_SPACE
 70
     0
 10
0.0
 20
0.0
 30
0.0
  3
*MODEL_SPACE
  1

  0
ENDBLK
  5
21
330
1F
100
AcDbEntity
  8
0
100
AcDbBlockEnd
  0
BLOCK
  5
1C
330
1B
100
AcDbEntity
 67
     1
  8
0
100
AcDbBlockBegin
  2
*PAPER_SPACE
 70
     0
 10
0.0
 20
0.0
 30
0.0
  3
*PAPER_SPACE
  1

  0
ENDBLK
  5
1D
330
1B
100
AcDbEntity
 67
     1
  8
0
100
AcDbBlockEnd
  0
BLOCK
  5
24
330
23
100
AcDbEntity
  8
0
100
AcDbBlockBegin
  2
*PAPER_SPACE0
 70
     0
 10
0.0
 20
0.0
 30
0.0
  3
*PAPER_SPACE0
  1

  0
ENDBLK
  5
25
330
23
100
AcDbEntity
  8
0
100
AcDbBlockEnd
  0
BLOCK
  5
E5
330
E4
100
AcDbEntity
  8
0
100
AcDbBlockBegin
  2
_D
 70
     0
 10
0.0
 20
0.0
 30
0.0
  3
_D
  1

  0
SOLID
  5
E7
330
E4
100
AcDbEntity
  8
0
  6
CONTINUOUS
 62
     7
100
AcDbTrace
 10
12.1300023249
 20
2.3018258803
 30
0.0
 11
12.1100023249
 21
2.1718258803
 31
0.0
 12
12.1500023249
 22
2.1718258803
 32
0.0
 13
12.1500023249
 23
2.1718258803
 33
0.0
  0
SOLID
  5
E8
330
E4
100
AcDbEntity
  8
0
  6
CONTINUOUS
 62
     7
100
AcDbTrace
 10
12.1300023249
 20
2.4593061952
 30
0.0
 11
12.1500023249
 21
2.5893061952
 31
0.0
 12
12.1100023249
 22
2.5893061952
 32
0.0
 13
12.1100023249
 23
2.5893061952
 33
0.0
  0
LINE
  5
E9
330
E4
100
AcDbEntity
  8
0
  6
CONTINUOUS
 62
     7
100
AcDbLine
 10
11.7863015375
 20
2.3018258803
 30
0.0
 11
12.2550023249
 21
2.3018258803
 31
0.0
  0
LINE
  5
EA
330
E4
100
AcDbEntity
  8
0
  6
CONTINUOUS
 62
     7
100
AcDbLine
 10
11.7863015375
 20
2.4593061952
 30
0.0
 11
12.2550023249
 21
2.4593061952
 31
0.0
  0
LINE
  5
EB
330
E4
100
AcDbEntity
  8
0
  6
CONTINUOUS
 62
     7
100
AcDbLine
 10
12.3800023249
 20
1.722942377
 30
0.0
 11
12.1300023249
 21
1.722942377
 31
0.0
  0
LINE
  5
EC
330
E4
100
AcDbEntity
  8
0
  6
CONTINUOUS
 62
     7
100
AcDbLine
 10
12.1300023249
 20
1.722942377
 30
0.0
 11
12.1300023249
 21
2.3018258803
 31
0.0
  0
LINE
  5
ED
330
E4
100
AcDbEntity
  8
0
  6
CONTINUOUS
 62
     7
100
AcDbLine
 10
12.1300023249
 20
2.4593061952
 30
0.0
 11
12.1300023249
 21
2.7093061952
 31
0.0
  0
MTEXT
  5
EE
330
E4
100
AcDbEntity
  8
0
  6
CONTINUOUS
 62
     7
100
AcDbMText
 10
12.3800023249
 20
1.7848571052
 30
0.0
 40
0.125
 41
0.0
 71
     1
 72
     1
  1
.157
  7
SLDTEXTSTYLE0
  0
ENDBLK
  5
E6
330
E4
100
AcDbEntity
  8
0
100
AcDbBlockEnd
  0
ENDSEC
  0
SECTION
  2
ENTITIES
  0
LINE
  5
74
330
1F
100
AcDbEntity
  8
0
  6
CONTINUOUS
 62
     7
100
AcDbLine
 10
11.3831126137
 20
10.0554671808
 30
0.0
 11
9.6931913558
 21
10.0554671808
 31
0.0
  0
LINE
  5
75
330
1F
100
AcDbEntity
  8
0
  6
CONTINUOUS
 62
     7
100
AcDbLine
 10
9.6931913558
 20
10.0554671808
 30
0.0
 11
9.6931913558
 21
9.1835362935
 31
0.0
  0
ARC
  5
76
330
1F
100
AcDbEntity
  8
0
  6
CONTINUOUS
 62
     7
100
AcDbCircle
 10
9.0300416923
 20
9.2147862963
 30
0.0
 40
0.03125
100
AcDbArc
 50
180.0
 51
270.0
  0
ARC
  5
77
330
1F
100
AcDbEntity
  8
0
  6
CONTINUOUS
 62
     7
100
AcDbCircle
 10
8.9675416923
 20
9.2147862962
 30
0.0
 40
0.03125
100
AcDbArc
 50
0.0000001294
 51
90.0
  0
ARC
  5
78
330
1F
100
AcDbEntity
  8
0
  6
CONTINUOUS
 62
     7
100
AcDbCircle
 10
8.2300416923
 20
9.2147862962
 30
0.0
 40
0.0312500000000018
100
AcDbArc
 50
90.0
 51
180.0000000022
  0
ARC
  5
79
330
1F
100
AcDbEntity
  8
0
  6
CONTINUOUS
 62
     7
100
AcDbCircle
 10
8.1675416923
 20
9.2147862962
 30
0.0
 40
0.03125
100
AcDbArc
 50
270.0
 51
0.0
  0
ARC
  5
7A
330
1F
100
AcDbEntity
  8
0
  6
CONTINUOUS
 62
     7
100
AcDbCircle
 10
7.4937345583
 20
9.1635362962
 30
0.0
 40
0.0200000000000014
100
AcDbArc
 50
90.0
 51
177.2943067105
  0
ARC
  5
7B
330
1F
100
AcDbEntity
  8
0
  6
CONTINUOUS
 62
     7
100
AcDbCircle
 10
7.4425416923
 20
9.1659555887
 30
0.0
 40
0.03125
100
AcDbArc
 50
270.0
 51
357.2943067105
  0
ARC
  5
7C
330
1F
100
AcDbEntity
  8
0
  6
CONTINUOUS
 62
     7
100
AcDbCircle
 10
5.9800304884
 20
9.1034555887
 30
0.0
 40
0.0312500000000009
100
AcDbArc
 50
90.0
 51
180.0
  0
ARC
  5
7D
330
1F
100
AcDbEntity
  8
0
  6
CONTINUOUS
 62
     7
100
AcDbCircle
 10
5.9175304884
 20
6.1943213277
 30
0.0
 40
0.031250000000001
100
AcDbArc
 50
205.00430791
 51
0.0
  0
ARC
  5
7E
330
1F
100
AcDbEntity
  8
0
  6
CONTINUOUS
 62
     7
100
AcDbCircle
 10
5.722786149
 20
6.4640061858
 30
0.0
 40
0.0312500000000015
100
AcDbArc
 50
25.00430791
 51
115.00430791
  0
ARC
  5
7F
330
1F
100
AcDbEntity
  8
0
  6
CONTINUOUS
 62
     7
100
AcDbCircle
 10
4.3747005856
 20
5.8352601609
 30
0.0
 40
0.0312500000000015
100
AcDbArc
 50
115.00430791
 51
205.00430791
  0
ARC
  5
80
330
1F
100
AcDbEntity
  8
0
  6
CONTINUOUS
 62
     7
100
AcDbCircle
 10
5.320461413
 20
3.8074675908
 30
0.0
 40
0.0312500000000015
100
AcDbArc
 50
205.00430791
 51
295.00430791
  0
ARC
  5
81
330
1F
100
AcDbEntity
  8
0
  6
CONTINUOUS
 62
     7
100
AcDbCircle
 10
7.3482033046
 20
4.7532047818
 30
0.0
 40
0.0312499999999992
100
AcDbArc
 50
295.00430791
 51
25.0
  0
ARC
  5
82
330
1F
100
AcDbEntity
  8
0
  6
CONTINUOUS
 62
     7
100
AcDbCircle
 10
6.8108475158
 20
6.0534555887
 30
0.0
 40
0.0312499999999996
100
AcDbArc
 50
90.0
 51
205.0
  0
ARC
  5
83
330
1F
100
AcDbEntity
  8
0
  6
CONTINUOUS
 62
     7
100
AcDbCircle
 10
7.4175416923
 20
6.0534555887
 30
0.0
 40
0.0312500000000009
100
AcDbArc
 50
0.0
 51
90.0
  0
ARC
  5
84
330
1F
100
AcDbEntity
  8
0
  6
CONTINUOUS
 62
     7
100
AcDbCircle
 10
7.4800416923
 20
5.4159555887
 30
0.0
 40
0.03125
100
AcDbArc
 50
180.0
 51
270.0
  0
ARC
  5
85
330
1F
100
AcDbEntity
  8
0
  6
CONTINUOUS
 62
     7
100
AcDbCircle
 10
8.2287916923
 20
5.4047055887
 30
0.0
 40
0.0200000000000005
100
AcDbArc
 50
270.0
 51
0.0
  0
ARC
  5
86
330
1F
100
AcDbEntity
  8
0
  6
CONTINUOUS
 62
     7
100
AcDbCircle
 10
8.2800416923
 20
5.4160461387
 30
0.0
 40
0.0312500000000009
100
AcDbArc
 50
90.0
 51
180.0
  0
ARC
  5
87
330
1F
100
AcDbEntity
  8
0
  6
CONTINUOUS
 62
     7
100
AcDbCircle
 10
8.9175416923
 20
5.4160461387
 30
0.0
 40
0.0312500000000009
100
AcDbArc
 50
0.0
 51
90.0
  0
ARC
  5
88
330
1F
100
AcDbEntity
  8
0
  6
CONTINUOUS
 62
     7
100
AcDbCircle
 10
8.9687916923
 20
5.4047961387
 30
0.0
 40
0.0200000000000014
100
AcDbArc
 50
180.0
 51
270.0
  0
ARC
  5
89
330
1F
100
AcDbEntity
  8
0
  6
CONTINUOUS
 62
     7
100
AcDbCircle
 10
9.6675416923
 20
5.3535461387
 30
0.0
 40
0.03125
100
AcDbArc
 50
0.0
 51
90.0
  0
ARC
  5
8A
330
1F
100
AcDbEntity
  8
0
  6
CONTINUOUS
 62
     7
100
AcDbCircle
 10
9.7300416923
 20
5.2910461387
 30
0.0
 40
0.03125
100
AcDbArc
 50
180.0
 51
270.0
  0
ARC
  5
8B
330
1F
100
AcDbEntity
  8
0
  6
CONTINUOUS
 62
     7
100
AcDbCircle
 10
11.2175416923
 20
5.2910461387
 30
0.0
 40
0.03125
100
AcDbArc
 50
270.0
 51
0.0
  0
ARC
  5
8C
330
1F
100
AcDbEntity
  8
0
  6
CONTINUOUS
 62
     7
100
AcDbCircle
 10
11.2800416923
 20
5.9785461387
 30
0.0
 40
0.0312500000000018
100
AcDbArc
 50
90.0
 51
180.0
  0
ARC
  5
8D
330
1F
100
AcDbEntity
  8
0
  6
CONTINUOUS
 62
     7
100
AcDbCircle
 10
11.5950416923
 20
6.0410461387
 30
0.0
 40
0.0312500000000009
100
AcDbArc
 50
270.0
 51
0.0
  0
ARC
  5
8E
330
1F
100
AcDbEntity
  8
0
  6
CONTINUOUS
 62
     7
100
AcDbCircle
 10
11.5950416923
 20
9.0285461387
 30
0.0
 40
0.03125
100
AcDbArc
 50
0.0
 51
90.0
  0
LINE
  5
8F
330
1F
100
AcDbEntity
  8
0
  6
CONTINUOUS
 62
     7
100
AcDbLine
 10
11.3831126137
 20
9.0597962296
 30
0.0
 11
11.3831126137
 21
10.0554671808
 31
0.0
  0
LINE
  5
90
330
1F
100
AcDbEntity
  8
0
  6
CONTINUOUS
 62
     7
100
AcDbLine
 10
11.5950417022
 20
9.0597962296
 30
0.0
 11
11.3831126137
 21
9.0597962296
 31
0.0
  0
CIRCLE
  5
91
330
1F
100
AcDbEntity
  8
0
  6
CONTINUOUS
 62
     7
100
AcDbCircle
 10
5.731426291
 20
6.6837500988
 30
0.0
 40
0.088499999999998
  0
CIRCLE
  5
92
330
1F
100
AcDbEntity
  8
0
  6
CONTINUOUS
 62
     7
100
AcDbCircle
 10
4.1809688606
 20
5.9015502514
 30
0.0
 40
0.0884999999999998
  0
CIRCLE
  5
93
330
1F
100
AcDbEntity
  8
0
  6
CONTINUOUS
 62
     7
100
AcDbCircle
 10
5.2485442405
 20
3.6127896087
 30
0.0
 40
0.0884999999999998
  0
CIRCLE
  5
94
330
1F
100
AcDbEntity
  8
0
  6
CONTINUOUS
 62
     7
100
AcDbCircle
 10
8.3836835952
 20
5.0751520442
 30
0.0
 40
0.0885000000000016
  0
CIRCLE
  5
95
330
1F
100
AcDbEntity
  8
0
  6
CONTINUOUS
 62
     7
100
AcDbCircle
 10
11.5113015375
 20
5.1251520442
 30
0.0
 40
0.0884999999999989
  0
CIRCLE
  5
96
330
1F
100
AcDbEntity
  8
0
  6
CONTINUOUS
 62
     7
100
AcDbCircle
 10
11.5706125989
 20
9.9254670048
 30
0.0
 40
0.0884999999999998
  0
CIRCLE
  5
97
330
1F
100
AcDbEntity
  8
0
  6
CONTINUOUS
 62
     7
100
AcDbCircle
 10
9.5056913391
 20
9.9304670048
 30
0.0
 40
0.088499999999998
  0
CIRCLE
  5
98
330
1F
100
AcDbEntity
  8
0
  6
CONTINUOUS
 62
     7
100
AcDbCircle
 10
8.1462818472
 20
9.4926717342
 30
0.0
 40
0.0884999999999998
  0
CIRCLE
  5
99
330
1F
100
AcDbEntity
  8
0
  6
CONTINUOUS
 62
     7
100
AcDbCircle
 10
5.8712818472
 20
9.4551717342
 30
0.0
 40
0.0885000000000016
  0
LINE
  5
9A
330
1F
100
AcDbEntity
  8
0
  6
CONTINUOUS
 62
     7
100
AcDbLine
 10
9.3549986493
 20
10.1726976666
 30
0.0
 11
8.4494656435
 21
9.7504409979
 31
0.0
  0
ARC
  5
9B
330
1F
100
AcDbEntity
  8
0
  6
CONTINUOUS
 62
     7
100
AcDbCircle
 10
9.671962336
 20
9.4929670048
 30
0.0
 40
0.75
100
AcDbArc
 50
90.0
 51
115.0
  0
LINE
  5
9C
330
1F
100
AcDbEntity
  8
0
  6
CONTINUOUS
 62
     7
100
AcDbLine
 10
11.4863015417
 20
10.2429672015
 30
0.0
 11
9.6719623344
 21
10.2429672015
 31
0.0
  0
ARC
  5
9D
330
1F
100
AcDbEntity
  8
0
  6
CONTINUOUS
 62
     7
100
AcDbCircle
 10
11.4863015375
 20
9.9929670048
 30
0.0
 40
0.2500000000000018
100
AcDbArc
 50
0.0
 51
90.0
  0
LINE
  5
9E
330
1F
100
AcDbEntity
  8
0
  6
CONTINUOUS
 62
     7
100
AcDbLine
 10
11.7363015387
 20
5.1501520391
 30
0.0
 11
11.7363015387
 21
9.9929667829
 31
0.0
  0
ARC
  5
9F
330
1F
100
AcDbEntity
  8
0
  6
CONTINUOUS
 62
     7
100
AcDbCircle
 10
11.4863015375
 20
5.1501520442
 30
0.0
 40
0.25
100
AcDbArc
 50
270.0
 51
0.0
  0
LINE
  5
A0
330
1F
100
AcDbEntity
  8
0
  6
CONTINUOUS
 62
     7
100
AcDbLine
 10
8.5370695115
 20
4.9001520444
 30
0.0
 11
11.4863015417
 21
4.9001520444
 31
0.0
  0
ARC
  5
A1
330
1F
100
AcDbEntity
  8
0
  6
CONTINUOUS
 62
     7
100
AcDbCircle
 10
8.5370695171
 20
4.6501520442
 30
0.0
 40
0.2499999999999998
100
AcDbArc
 50
90.0
 51
115.00634861
  0
LINE
  5
A2
330
1F
100
AcDbEntity
  8
0
  6
CONTINUOUS
 62
     7
100
AcDbLine
 10
5.3784011473
 20
3.4526733369
 30
0.0
 11
8.4313897723
 21
4.8767172827
 31
0.0
  0
ARC
  5
A3
330
1F
100
AcDbEntity
  8
0
  6
CONTINUOUS
 62
     7
100
AcDbCircle
 10
5.2727213541
 20
3.6792385905
 30
0.0
 40
0.2500000000000002
100
AcDbArc
 50
205.00634861
 51
295.00634861
  0
LINE
  5
A4
330
1F
100
AcDbEntity
  8
0
  6
CONTINUOUS
 62
     7
100
AcDbLine
 10
4.0208525632
 20
5.7716934607
 30
0.0
 11
5.0461562921
 21
3.5735588604
 31
0.0
  0
ARC
  5
A5
330
1F
100
AcDbEntity
  8
0
  6
CONTINUOUS
 62
     7
100
AcDbCircle
 10
4.2474178423
 20
5.8773731379
 30
0.0
 40
0.2499999999999998
100
AcDbArc
 50
115.00634861
 51
205.00634861
  0
LINE
  5
A6
330
1F
100
AcDbEntity
  8
0
  6
CONTINUOUS
 62
     7
100
AcDbLine
 10
5.5019616933
 20
6.7384044598
 30
0.0
 11
4.14173794
 21
6.1039383892
 31
0.0
  0
ARC
  5
A7
330
1F
100
AcDbEntity
  8
0
  6
CONTINUOUS
 62
     7
100
AcDbCircle
 10
5.3962818472
 20
6.9649696781
 30
0.0
 40
0.2499999999999994
100
AcDbArc
 50
295.00634861
 51
0.0
  0
LINE
  5
A8
330
1F
100
AcDbEntity
  8
0
  6
CONTINUOUS
 62
     7
100
AcDbLine
 10
5.6462817861
 20
9.430171631
 30
0.0
 11
5.6462817861
 21
6.9649697225
 31
0.0
  0
ARC
  5
A9
330
1F
100
AcDbEntity
  8
0
  6
CONTINUOUS
 62
     7
100
AcDbCircle
 10
5.8962818472
 20
9.4301717342
 30
0.0
 40
0.2500000000000009
100
AcDbArc
 50
90.0
 51
180.0
  0
LINE
  5
AA
330
1F
100
AcDbEntity
  8
0
  6
CONTINUOUS
 62
     7
100
AcDbLine
 10
8.1325021051
 20
9.6801717563
 30
0.0
 11
5.8962816181
 21
9.6801717563
 31
0.0
  0
ARC
  5
AB
330
1F
100
AcDbEntity
  8
0
  6
CONTINUOUS
 62
     7
100
AcDbCircle
 10
8.1325019894
 20
10.4301717342
 30
0.0
 40
0.7500000000000027
100
AcDbArc
 50
270.0
 51
295.0
  0
LINE
  5
AC
330
1F
100
AcDbEntity
  8
0
  6
CONTINUOUS
 62
     7
100
AcDbLine
 10
9.6931913558
 20
9.1835362935
 30
0.0
 11
9.0300415766
 21
9.1835362935
 31
0.0
  0
LINE
  5
AD
330
1F
100
AcDbEntity
  8
0
  6
CONTINUOUS
 62
     7
100
AcDbLine
 10
8.9675417653
 20
9.2460363981
 30
0.0
 11
8.2300416449
 21
9.2460363981
 31
0.0
  0
LINE
  5
AE
330
1F
100
AcDbEntity
  8
0
  6
CONTINUOUS
 62
     7
100
AcDbLine
 10
8.1675418336
 20
9.1835362935
 30
0.0
 11
7.4937344975
 21
9.1835362935
 31
0.0
  0
LINE
  5
AF
330
1F
100
AcDbEntity
  8
0
  6
CONTINUOUS
 62
     7
100
AcDbLine
 10
7.4425416755
 20
9.1347056576
 30
0.0
 11
5.9800302506
 21
9.1347056576
 31
0.0
  0
LINE
  5
B0
330
1F
100
AcDbEntity
  8
0
  6
CONTINUOUS
 62
     7
100
AcDbLine
 10
5.9487806383
 20
9.1034554586
 30
0.0
 11
5.9487806383
 21
6.1943212651
 31
0.0
  0
LINE
  5
B1
330
1F
100
AcDbEntity
  8
0
  6
CONTINUOUS
 62
     7
100
AcDbLine
 10
5.8892094331
 20
6.1811123244
 30
0.0
 11
5.7511073485
 21
6.4772151171
 31
0.0
  0
LINE
  5
B2
330
1F
100
AcDbEntity
  8
0
  6
CONTINUOUS
 62
     7
100
AcDbLine
 10
5.7095771082
 20
6.4923273292
 30
0.0
 11
4.3614913481
 21
5.8635812659
 31
0.0
  0
LINE
  5
B3
330
1F
100
AcDbEntity
  8
0
  6
CONTINUOUS
 62
     7
100
AcDbLine
 10
4.346379576
 20
5.8220512456
 30
0.0
 11
5.2921404372
 21
3.7942586242
 31
0.0
  0
LINE
  5
B4
330
1F
100
AcDbEntity
  8
0
  6
CONTINUOUS
 62
     7
100
AcDbLine
 10
5.3336700907
 20
3.7791464854
 30
0.0
 11
7.3614121861
 21
4.7248836602
 31
0.0
  0
LINE
  5
B5
330
1F
100
AcDbEntity
  8
0
  6
CONTINUOUS
 62
     7
100
AcDbLine
 10
7.3765254248
 20
4.7664115996
 30
0.0
 11
6.7825252468
 21
6.0402487583
 31
0.0
  0
LINE
  5
B6
330
1F
100
AcDbEntity
  8
0
  6
CONTINUOUS
 62
     7
100
AcDbLine
 10
6.8108474263
 20
6.0847056248
 30
0.0
 11
7.417541751
 21
6.0847056248
 31
0.0
  0
LINE
  5
B7
330
1F
100
AcDbEntity
  8
0
  6
CONTINUOUS
 62
     7
100
AcDbLine
 10
7.4487916567
 20
6.0534555724
 30
0.0
 11
7.4487916567
 21
5.4159555902
 31
0.0
  0
LINE
  5
B8
330
1F
100
AcDbEntity
  8
0
  6
CONTINUOUS
 62
     7
100
AcDbLine
 10
7.4800415623
 20
5.3847055745
 30
0.0
 11
8.228791766
 21
5.3847055745
 31
0.0
  0
LINE
  5
B9
330
1F
100
AcDbEntity
  8
0
  6
CONTINUOUS
 62
     7
100
AcDbLine
 10
8.2487915883
 20
5.4160461558
 30
0.0
 11
8.2487915883
 21
5.4047055802
 31
0.0
  0
LINE
  5
BA
330
1F
100
AcDbEntity
  8
0
  6
CONTINUOUS
 62
     7
100
AcDbLine
 10
8.2800417873
 20
5.4472961348
 30
0.0
 11
8.9175416229
 21
5.4472961348
 31
0.0
  0
LINE
  5
BB
330
1F
100
AcDbEntity
  8
0
  6
CONTINUOUS
 62
     7
100
AcDbLine
 10
8.9487918219
 20
5.4160461558
 30
0.0
 11
8.9487918219
 21
5.4047961458
 31
0.0
  0
LINE
  5
BC
330
1F
100
AcDbEntity
  8
0
  6
CONTINUOUS
 62
     7
100
AcDbLine
 10
8.9687916442
 20
5.3847961402
 30
0.0
 11
9.6675417055
 21
5.3847961402
 31
0.0
  0
LINE
  5
BD
330
1F
100
AcDbEntity
  8
0
  6
CONTINUOUS
 62
     7
100
AcDbLine
 10
9.6987917578
 20
5.3535461245
 30
0.0
 11
9.6987917578
 21
5.2910461298
 31
0.0
  0
LINE
  5
BE
330
1F
100
AcDbEntity
  8
0
  6
CONTINUOUS
 62
     7
100
AcDbLine
 10
9.7300416635
 20
5.2597961508
 30
0.0
 11
11.2175417198
 21
5.2597961508
 31
0.0
  0
LINE
  5
BF
330
1F
100
AcDbEntity
  8
0
  6
CONTINUOUS
 62
     7
100
AcDbLine
 10
11.2487916987
 20
5.2910461298
 30
0.0
 11
11.2487916987
 21
5.9785461445
 31
0.0
  0
LINE
  5
C0
330
1F
100
AcDbEntity
  8
0
  6
CONTINUOUS
 62
     7
100
AcDbLine
 10
11.2800416777
 20
6.0097961234
 30
0.0
 11
11.5950417022
 21
6.0097961234
 31
0.0
  0
LINE
  5
C1
330
1F
100
AcDbEntity
  8
0
  6
CONTINUOUS
 62
     7
100
AcDbLine
 10
11.6262916995
 20
6.0410461024
 30
0.0
 11
11.6262916995
 21
9.0285460306
 31
0.0
  0
LINE
  5
C2
330
1F
100
AcDbEntity
  8
0
  6
CONTINUOUS
 62
     7
100
AcDbLine
 10
11.7363015326
 20
2.3018258803
 30
0.0
 11
11.7363015326
 21
2.4593062027
 31
0.0
  0
LINE
  5
C3
330
1F
100
AcDbEntity
  8
0
  6
CONTINUOUS
 62
     7
100
AcDbLine
 10
4.2474178381
 20
2.4593062027
 30
0.0
 11
4.2474178381
 21
2.3018258803
 31
0.0
  0
LINE
  5
C4
330
1F
100
AcDbEntity
  8
0
  6
CONTINUOUS
 62
     7
100
AcDbLine
 10
6.0617570454
 20
2.4593062027
 30
0.0
 11
6.0617570454
 21
2.3018258803
 31
0.0
  0
LINE
  5
C5
330
1F
100
AcDbEntity
  8
0
  6
CONTINUOUS
 62
     7
100
AcDbLine
 10
4.2474178381
 20
2.3018258803
 30
0.0
 11
6.0617570454
 21
2.3018258803
 31
0.0
  0
LINE
  5
C6
330
1F
100
AcDbEntity
  8
0
  6
CONTINUOUS
 62
     7
100
AcDbLine
 10
4.2474178381
 20
2.4593062027
 30
0.0
 11
6.0617570454
 21
2.4593062027
 31
0.0
  0
LINE
  5
C7
330
1F
100
AcDbEntity
  8
0
  6
CONTINUOUS
 62
     7
100
AcDbLine
 10
6.3787207305
 20
2.4593062027
 30
0.0
 11
6.3787207305
 21
2.3018258803
 31
0.0
  0
LINE
  5
C8
330
1F
100
AcDbEntity
  8
0
  6
CONTINUOUS
 62
     7
100
AcDbLine
 10
6.0617570454
 20
2.3018258803
 30
0.0
 11
6.3787207305
 21
2.3018258803
 31
0.0
  0
LINE
  5
C9
330
1F
100
AcDbEntity
  8
0
  6
CONTINUOUS
 62
     7
100
AcDbLine
 10
6.0617570454
 20
2.4593062027
 30
0.0
 11
6.3787207305
 21
2.4593062027
 31
0.0
  0
LINE
  5
CA
330
1F
100
AcDbEntity
  8
0
  6
CONTINUOUS
 62
     7
100
AcDbLine
 10
3.9974178412
 20
2.4593062027
 30
0.0
 11
3.9974178412
 21
2.3018258803
 31
0.0
  0
LINE
  5
CB
330
1F
100
AcDbEntity
  8
0
  6
CONTINUOUS
 62
     7
100
AcDbLine
 10
3.9974178412
 20
2.3018258803
 30
0.0
 11
4.2474178381
 21
2.3018258803
 31
0.0
  0
LINE
  5
CC
330
1F
100
AcDbEntity
  8
0
  6
CONTINUOUS
 62
     7
100
AcDbLine
 10
3.9974178412
 20
2.4593062027
 30
0.0
 11
4.2474178381
 21
2.4593062027
 31
0.0
  0
LINE
  5
CD
330
1F
100
AcDbEntity
  8
0
  6
CONTINUOUS
 62
     7
100
AcDbLine
 10
7.2842537364
 20
2.4593062027
 30
0.0
 11
7.2842537364
 21
2.3018258803
 31
0.0
  0
LINE
  5
CE
330
1F
100
AcDbEntity
  8
0
  6
CONTINUOUS
 62
     7
100
AcDbLine
 10
6.3787207305
 20
2.3018258803
 30
0.0
 11
7.2842537364
 21
2.3018258803
 31
0.0
  0
LINE
  5
CF
330
1F
100
AcDbEntity
  8
0
  6
CONTINUOUS
 62
     7
100
AcDbLine
 10
6.3787207305
 20
2.4593062027
 30
0.0
 11
7.2842537364
 21
2.4593062027
 31
0.0
  0
LINE
  5
D0
330
1F
100
AcDbEntity
  8
0
  6
CONTINUOUS
 62
     7
100
AcDbLine
 10
7.6012172748
 20
2.4593062027
 30
0.0
 11
7.6012172748
 21
2.3018258803
 31
0.0
  0
LINE
  5
D1
330
1F
100
AcDbEntity
  8
0
  6
CONTINUOUS
 62
     7
100
AcDbLine
 10
7.6012172748
 20
2.3018258803
 30
0.0
 11
7.2842537364
 21
2.3018258803
 31
0.0
  0
LINE
  5
D2
330
1F
100
AcDbEntity
  8
0
  6
CONTINUOUS
 62
     7
100
AcDbLine
 10
7.6012172748
 20
2.4593062027
 30
0.0
 11
7.2842537364
 21
2.4593062027
 31
0.0
  0
LINE
  5
D3
330
1F
100
AcDbEntity
  8
0
  6
CONTINUOUS
 62
     7
100
AcDbLine
 10
9.8374377618
 20
2.4593062027
 30
0.0
 11
9.8374377618
 21
2.3018258803
 31
0.0
  0
LINE
  5
D4
330
1F
100
AcDbEntity
  8
0
  6
CONTINUOUS
 62
     7
100
AcDbLine
 10
10.0874375937
 20
2.4593062027
 30
0.0
 11
10.0874375937
 21
2.3018258803
 31
0.0
  0
LINE
  5
D5
330
1F
100
AcDbEntity
  8
0
  6
CONTINUOUS
 62
     7
100
AcDbLine
 10
9.8374377618
 20
2.3018258803
 30
0.0
 11
10.0874375937
 21
2.3018258803
 31
0.0
  0
LINE
  5
D6
330
1F
100
AcDbEntity
  8
0
  6
CONTINUOUS
 62
     7
100
AcDbLine
 10
9.8374377618
 20
2.4593062027
 30
0.0
 11
10.0874375937
 21
2.4593062027
 31
0.0
  0
LINE
  5
D7
330
1F
100
AcDbEntity
  8
0
  6
CONTINUOUS
 62
     7
100
AcDbLine
 10
7.6012172748
 20
2.3018258803
 30
0.0
 11
9.8374377618
 21
2.3018258803
 31
0.0
  0
LINE
  5
D8
330
1F
100
AcDbEntity
  8
0
  6
CONTINUOUS
 62
     7
100
AcDbLine
 10
7.6012172748
 20
2.4593062027
 30
0.0
 11
9.8374377618
 21
2.4593062027
 31
0.0
  0
LINE
  5
D9
330
1F
100
AcDbEntity
  8
0
  6
CONTINUOUS
 62
     7
100
AcDbLine
 10
10.2317576865
 20
2.4593062027
 30
0.0
 11
10.2317576865
 21
2.3018258803
 31
0.0
  0
LINE
  5
DA
330
1F
100
AcDbEntity
  8
0
  6
CONTINUOUS
 62
     7
100
AcDbLine
 10
10.2317576865
 20
2.3018258803
 30
0.0
 11
10.0874375937
 21
2.3018258803
 31
0.0
  0
LINE
  5
DB
330
1F
100
AcDbEntity
  8
0
  6
CONTINUOUS
 62
     7
100
AcDbLine
 10
10.2317576865
 20
2.4593062027
 30
0.0
 11
10.0874375937
 21
2.4593062027
 31
0.0
  0
LINE
  5
DC
330
1F
100
AcDbEntity
  8
0
  6
CONTINUOUS
 62
     7
100
AcDbLine
 10
11.5919814398
 20
2.4593062027
 30
0.0
 11
11.5919814398
 21
2.3018258803
 31
0.0
  0
LINE
  5
DD
330
1F
100
AcDbEntity
  8
0
  6
CONTINUOUS
 62
     7
100
AcDbLine
 10
10.2317576865
 20
2.3018258803
 30
0.0
 11
11.5919814398
 21
2.3018258803
 31
0.0
  0
LINE
  5
DE
330
1F
100
AcDbEntity
  8
0
  6
CONTINUOUS
 62
     7
100
AcDbLine
 10
10.2317576865
 20
2.4593062027
 30
0.0
 11
11.5919814398
 21
2.4593062027
 31
0.0
  0
LINE
  5
DF
330
1F
100
AcDbEntity
  8
0
  6
CONTINUOUS
 62
     7
100
AcDbLine
 10
11.5919814398
 20
2.3018258803
 30
0.0
 11
11.7363015326
 21
2.3018258803
 31
0.0
  0
LINE
  5
E0
330
1F
100
AcDbEntity
  8
0
  6
CONTINUOUS
 62
     7
100
AcDbLine
 10
11.5919814398
 20
2.4593062027
 30
0.0
 11
11.7363015326
 21
2.4593062027
 31
0.0
  0
DIMENSION
  5
E1
330
1F
100
AcDbEntity
  8
0
  6
CONTINUOUS
 62
     7
100
AcDbDimension
  2
_D
 10
12.1300023249
 20
2.4593061952
 30
0.0
 11
12.1300023249
 21
1.722942377
 31
0.0
 70
   160
  1
<>
  3
SLDDIMSTYLE0
100
AcDbAlignedDimension
 13
11.7363015375
 23
2.3018258803
 33
0.0
 14
11.7363015375
 24
2.4593061952
 34
0.0
 50
90.0
100
AcDbRotatedDimension
  0
ENDSEC
  0
SECTION
  2
OBJECTS
  0
DICTIONARY
  5
C
330
0
100
AcDbDictionary
  3
ACAD_GROUP
350
D
  3
ACAD_MLINESTYLE
350
17
  3
ACAD_SCALELIST
350
47
1001
ACAD
1000
TREAT_AS_HARD
1070
     0
  0
DICTIONARY
  5
D
102
{ACAD_REACTORS
330
C
102
}
330
C
100
AcDbDictionary
1001
ACAD
1000
TREAT_AS_HARD
1070
     0
  0
DICTIONARY
  5
17
102
{ACAD_REACTORS
330
C
102
}
330
C
100
AcDbDictionary
  3
STANDARD
350
18
1001
ACAD
1000
TREAT_AS_HARD
1070
     0
  0
DICTIONARY
  5
47
102
{ACAD_REACTORS
330
C
102
}
330
C
100
AcDbDictionary
1001
ACAD
1000
TREAT_AS_HARD
1070
     0
  0
MLINESTYLE
  5
18
102
{ACAD_REACTORS
330
17
102
}
330
17
100
AcDbMlineStyle
  2
Standard
 70
     0
  3

 62
   256
 51
90.0
 52
90.0
 71
     2
 49
0.5
 62
   256
  6
BYLAYER
 49
-0.5
 62
   256
  6
BYLAYER
  0
ENDSEC
  0
EOF
