  0
SECTION
  2
HEADER
  9
$ACADVER
  1
AC1014
  9
$HANDSEED
  5
FFFF
  9
$MEASUREMENT
 70
     1
  0
ENDSEC
  0
SECTION
  2
TABLES
  0
TABLE
  2
VPORT
  5
8
330
0
100
AcDbSymbolTable
 70
     4
  0
VPORT
  5
2E
330
8
100
AcDbSymbolTableRecord
100
AcDbViewportTableRecord
  2
*ACTIVE
 70
     0
 10
0.0
 20
0.0
 11
1.0
 21
1.0
 12
210.0
 22
148.5
 13
0.0
 23
0.0
 14
10.0
 24
10.0
 15
10.0
 25
10.0
 16
0.0
 26
0.0
 36
1.0
 17
0.0
 27
0.0
 37
0.0
 40
341.0
 41
1.24
 42
50.0
 43
0.0
 44
0.0
 50
0.0
 51
0.0
 71
     0
 72
   100
 73
     1
 74
     3
 75
     0
 76
     0
 77
     0
 78
     0
  0
ENDTAB
  0
TABLE
  2
LTYPE
  5
5
330
0
100
AcDbSymbolTable
 70
     1
  0
LTYPE
  5
14
330
5
100
AcDbSymbolTableRecord
100
AcDbLinetypeTableRecord
  2
BYBLOCK
 70
     0
  3

 72
    65
 73
     0
 40
0.0
  0
LTYPE
  5
15
330
5
100
AcDbSymbolTableRecord
100
AcDbLinetypeTableRecord
  2
BYLAYER
 70
     0
  3

 72
    65
 73
     0
 40
0.0
  0
LTYPE
  5
16
330
5
100
AcDbSymbolTableRecord
100
AcDbLinetypeTableRecord
  2
CONTINUOUS
 70
     0
  3
Solid line
 72
    65
 73
     0
 40
0.0
  0
ENDTAB
  0
TABLE
  2
LAYER
  5
2
100
AcDbSymbolTable
 70
2
  0
LAYER
  5
50
100
AcDbSymbolTableRecord
100
AcDbLayerTableRecord
  2
0
 70
0
  6
CONTINUOUS
  0
LAYER
  5
51
100
AcDbSymbolTableRecord
100
AcDbLayerTableRecord
  2
FORMAT
 70
0
  6
CONTINUOUS
  0
ENDTAB
  0
TABLE
  2
STYLE
  5
3
330
0
100
AcDbSymbolTable
 70
     1
  0
STYLE
  5
11
330
3
100
AcDbSymbolTableRecord
100
AcDbTextStyleTableRecord
  2
STANDARD
 70
     0
 40
0.0
 41
1.0
 50
0.0
 71
     0
 42
2.5
  3
txt
  4

  0
ENDTAB
  0
TABLE
  2
VIEW
  5
6
330
0
100
AcDbSymbolTable
 70
     0
  0
ENDTAB
  0
TABLE
  2
UCS
  5
7
330
0
100
AcDbSymbolTable
 70
     0
  0
ENDTAB
  0
TABLE
  2
APPID
  5
9
330
0
100
AcDbSymbolTable
 70
     2
  0
APPID
  5
12
330
9
100
AcDbSymbolTableRecord
100
AcDbRegAppTableRecord
  2
ACAD
 70
     0
  0
ENDTAB
  0
TABLE
  2
DIMSTYLE
  5
A
330
0
100
AcDbSymbolTable
 70
     1
  0
DIMSTYLE
105
27
330
A
100
AcDbSymbolTableRecord
100
AcDbDimStyleTableRecord
  2
ISO-25
 70
     0
  3

  4

  5

  6

  7

 40
1.0
 41
2.5
 42
0.625
 43
3.75
 44
1.25
 45
0.0
 46
0.0
 47
0.0
 48
0.0
140
2.5
141
2.5
142
0.0
143
0.03937007874016
144
1.0
145
0.0
146
1.0
147
0.625
 71
     0
 72
     0
 73
     0
 74
     0
 75
     0
 76
     0
 77
     1
 78
     8
170
     0
171
     3
172
     1
173
     0
174
     0
175
     0
176
     0
177
     0
178
     0
270
     2
271
     2
272
     2
273
     2
274
     3
340
11
275
     0
280
     0
281
     0
282
     0
283
     0
284
     8
285
     0
286
     0
287
     3
288
     0
  0
ENDTAB
  0
TABLE
  2
BLOCK_RECORD
  5
1
330
0
100
AcDbSymbolTable
 70
     1
  0
BLOCK_RECORD
  5
1F
330
1
100
AcDbSymbolTableRecord
100
AcDbBlockTableRecord
  2
*MODEL_SPACE
  0
BLOCK_RECORD
  5
1B
330
1
100
AcDbSymbolTableRecord
100
AcDbBlockTableRecord
  2
*PAPER_SPACE
  0
ENDTAB
  0
ENDSEC
  0
SECTION
  2
BLOCKS
  0
BLOCK
  5
20
330
1F
100
AcDbEntity
  8
0
100
AcDbBlockBegin
  2
*MODEL_SPACE
 70
     0
 10
0.0
 20
0.0
 30
0.0
  3
*MODEL_SPACE
  1

  0
ENDBLK
  5
21
330
1F
100
AcDbEntity
  8
0
100
AcDbBlockEnd
  0
BLOCK
  5
1C
330
1B
100
AcDbEntity
 67
     1
  8
0
100
AcDbBlockBegin
  2
*PAPER_SPACE
  1

  0
ENDBLK
  5
1D
330
1B
100
AcDbEntity
 67
     1
  8
0
100
AcDbBlockEnd
  0
ENDSEC
  0
SECTION
  2
ENTITIES
  0
SPLINE
  5
100
100
AcDbEntity
  8
0
 62
7
100
AcDbSpline
 70
8
 71
3
 72
8
 73
4
 74
0
 40
0
 40
0
 40
0
 40
0
 40
1
 40
1
 40
1
 40
1
 10
49.985160
 20
153.199778
 30
0.0
 10
49.985160
 20
154.002876
 30
0.0
 10
49.556712
 20
154.744968
 30
0.0
 10
48.861210
 20
155.146517
 30
0.0
  0
SPLINE
  5
101
100
AcDbEntity
  8
0
 62
7
100
AcDbSpline
 70
8
 71
3
 72
8
 73
4
 74
0
 40
0
 40
0
 40
0
 40
0
 40
1
 40
1
 40
1
 40
1
 10
48.861210
 20
155.146517
 30
0.0
 10
48.165707
 20
155.548066
 30
0.0
 10
47.308812
 20
155.548066
 30
0.0
 10
46.613309
 20
155.146517
 30
0.0
  0
SPLINE
  5
102
100
AcDbEntity
  8
0
 62
7
100
AcDbSpline
 70
8
 71
3
 72
8
 73
4
 74
0
 40
0
 40
0
 40
0
 40
0
 40
1
 40
1
 40
1
 40
1
 10
46.613309
 20
155.146517
 30
0.0
 10
45.917807
 20
154.744968
 30
0.0
 10
45.489359
 20
154.002876
 30
0.0
 10
45.489360
 20
153.199778
 30
0.0
  0
SPLINE
  5
103
100
AcDbEntity
  8
0
 62
7
100
AcDbSpline
 70
8
 71
3
 72
8
 73
4
 74
0
 40
0
 40
0
 40
0
 40
0
 40
1
 40
1
 40
1
 40
1
 10
45.489360
 20
153.199778
 30
0.0
 10
45.489359
 20
152.396681
 30
0.0
 10
45.917807
 20
151.654588
 30
0.0
 10
46.613309
 20
151.253040
 30
0.0
  0
SPLINE
  5
104
100
AcDbEntity
  8
0
 62
7
100
AcDbSpline
 70
8
 71
3
 72
8
 73
4
 74
0
 40
0
 40
0
 40
0
 40
0
 40
1
 40
1
 40
1
 40
1
 10
46.613309
 20
151.253040
 30
0.0
 10
47.308812
 20
150.851491
 30
0.0
 10
48.165707
 20
150.851491
 30
0.0
 10
48.861210
 20
151.253040
 30
0.0
  0
SPLINE
  5
105
100
AcDbEntity
  8
0
 62
7
100
AcDbSpline
 70
8
 71
3
 72
8
 73
4
 74
0
 40
0
 40
0
 40
0
 40
0
 40
1
 40
1
 40
1
 40
1
 10
48.861210
 20
151.253040
 30
0.0
 10
49.556712
 20
151.654588
 30
0.0
 10
49.985160
 20
152.396681
 30
0.0
 10
49.985160
 20
153.199778
 30
0.0
  0
SPLINE
  5
106
100
AcDbEntity
  8
0
 62
7
100
AcDbSpline
 70
8
 71
3
 72
8
 73
4
 74
0
 40
0
 40
0
 40
0
 40
0
 40
1
 40
1
 40
1
 40
1
 10
46.432828
 20
82.805668
 30
0.0
 10
46.432829
 20
83.608765
 30
0.0
 10
46.004381
 20
84.350858
 30
0.0
 10
45.308878
 20
84.752407
 30
0.0
  0
SPLINE
  5
107
100
AcDbEntity
  8
0
 62
7
100
AcDbSpline
 70
8
 71
3
 72
8
 73
4
 74
0
 40
0
 40
0
 40
0
 40
0
 40
1
 40
1
 40
1
 40
1
 10
45.308878
 20
84.752407
 30
0.0
 10
44.613376
 20
85.153955
 30
0.0
 10
43.756481
 20
85.153955
 30
0.0
 10
43.060978
 20
84.752407
 30
0.0
  0
SPLINE
  5
108
100
AcDbEntity
  8
0
 62
7
100
AcDbSpline
 70
8
 71
3
 72
8
 73
4
 74
0
 40
0
 40
0
 40
0
 40
0
 40
1
 40
1
 40
1
 40
1
 10
43.060978
 20
84.752407
 30
0.0
 10
42.365476
 20
84.350858
 30
0.0
 10
41.937028
 20
83.608765
 30
0.0
 10
41.937028
 20
82.805668
 30
0.0
  0
SPLINE
  5
109
100
AcDbEntity
  8
0
 62
7
100
AcDbSpline
 70
8
 71
3
 72
8
 73
4
 74
0
 40
0
 40
0
 40
0
 40
0
 40
1
 40
1
 40
1
 40
1
 10
41.937028
 20
82.805668
 30
0.0
 10
41.937028
 20
82.002571
 30
0.0
 10
42.365476
 20
81.260478
 30
0.0
 10
43.060978
 20
80.858929
 30
0.0
  0
SPLINE
  5
10a
100
AcDbEntity
  8
0
 62
7
100
AcDbSpline
 70
8
 71
3
 72
8
 73
4
 74
0
 40
0
 40
0
 40
0
 40
0
 40
1
 40
1
 40
1
 40
1
 10
43.060978
 20
80.858929
 30
0.0
 10
43.756481
 20
80.457380
 30
0.0
 10
44.613376
 20
80.457380
 30
0.0
 10
45.308878
 20
80.858929
 30
0.0
  0
SPLINE
  5
10b
100
AcDbEntity
  8
0
 62
7
100
AcDbSpline
 70
8
 71
3
 72
8
 73
4
 74
0
 40
0
 40
0
 40
0
 40
0
 40
1
 40
1
 40
1
 40
1
 10
45.308878
 20
80.858929
 30
0.0
 10
46.004381
 20
81.260478
 30
0.0
 10
46.432829
 20
82.002571
 30
0.0
 10
46.432828
 20
82.805668
 30
0.0
  0
LWPOLYLINE
  5
10c
100
AcDbEntity
  8
0
 62
7
100
AcDbPolyline
 90
2
 70
1
 10
49.985160
 20
153.199778
 30
0.0
 10
49.985160
 20
153.199778
 30
0.0
  0
SPLINE
  5
10d
100
AcDbEntity
  8
0
 62
7
100
AcDbSpline
 70
8
 71
3
 72
8
 73
4
 74
0
 40
0
 40
0
 40
0
 40
0
 40
1
 40
1
 40
1
 40
1
 10
7.051209
 20
62.937794
 30
0.0
 10
7.051209
 20
63.740891
 30
0.0
 10
6.622762
 20
64.482983
 30
0.0
 10
5.927259
 20
64.884532
 30
0.0
  0
SPLINE
  5
10e
100
AcDbEntity
  8
0
 62
7
100
AcDbSpline
 70
8
 71
3
 72
8
 73
4
 74
0
 40
0
 40
0
 40
0
 40
0
 40
1
 40
1
 40
1
 40
1
 10
5.927259
 20
64.884532
 30
0.0
 10
5.231757
 20
65.286081
 30
0.0
 10
4.374862
 20
65.286081
 30
0.0
 10
3.679359
 20
64.884532
 30
0.0
  0
SPLINE
  5
10f
100
AcDbEntity
  8
0
 62
7
100
AcDbSpline
 70
8
 71
3
 72
8
 73
4
 74
0
 40
0
 40
0
 40
0
 40
0
 40
1
 40
1
 40
1
 40
1
 10
3.679359
 20
64.884532
 30
0.0
 10
2.983857
 20
64.482983
 30
0.0
 10
2.555409
 20
63.740891
 30
0.0
 10
2.555409
 20
62.937794
 30
0.0
  0
SPLINE
  5
110
100
AcDbEntity
  8
0
 62
7
100
AcDbSpline
 70
8
 71
3
 72
8
 73
4
 74
0
 40
0
 40
0
 40
0
 40
0
 40
1
 40
1
 40
1
 40
1
 10
2.555409
 20
62.937794
 30
0.0
 10
2.555409
 20
62.134696
 30
0.0
 10
2.983857
 20
61.392604
 30
0.0
 10
3.679359
 20
60.991055
 30
0.0
  0
SPLINE
  5
111
100
AcDbEntity
  8
0
 62
7
100
AcDbSpline
 70
8
 71
3
 72
8
 73
4
 74
0
 40
0
 40
0
 40
0
 40
0
 40
1
 40
1
 40
1
 40
1
 10
3.679359
 20
60.991055
 30
0.0
 10
4.374862
 20
60.589506
 30
0.0
 10
5.231757
 20
60.589506
 30
0.0
 10
5.927259
 20
60.991055
 30
0.0
  0
SPLINE
  5
112
100
AcDbEntity
  8
0
 62
7
100
AcDbSpline
 70
8
 71
3
 72
8
 73
4
 74
0
 40
0
 40
0
 40
0
 40
0
 40
1
 40
1
 40
1
 40
1
 10
5.927259
 20
60.991055
 30
0.0
 10
6.622762
 20
61.392604
 30
0.0
 10
7.051209
 20
62.134696
 30
0.0
 10
7.051209
 20
62.937794
 30
0.0
  0
LWPOLYLINE
  5
113
100
AcDbEntity
  8
0
 62
7
100
AcDbPolyline
 90
2
 70
1
 10
46.432828
 20
82.805668
 30
0.0
 10
46.432828
 20
82.805668
 30
0.0
  0
SPLINE
  5
114
100
AcDbEntity
  8
0
 62
7
100
AcDbSpline
 70
8
 71
3
 72
8
 73
4
 74
0
 40
0
 40
0
 40
0
 40
0
 40
1
 40
1
 40
1
 40
1
 10
34.167623
 20
4.803273
 30
0.0
 10
34.167623
 20
5.606370
 30
0.0
 10
33.739175
 20
6.348462
 30
0.0
 10
33.043673
 20
6.750011
 30
0.0
  0
SPLINE
  5
115
100
AcDbEntity
  8
0
 62
7
100
AcDbSpline
 70
8
 71
3
 72
8
 73
4
 74
0
 40
0
 40
0
 40
0
 40
0
 40
1
 40
1
 40
1
 40
1
 10
33.043673
 20
6.750011
 30
0.0
 10
32.348170
 20
7.151560
 30
0.0
 10
31.491275
 20
7.151560
 30
0.0
 10
30.795773
 20
6.750011
 30
0.0
  0
SPLINE
  5
116
100
AcDbEntity
  8
0
 62
7
100
AcDbSpline
 70
8
 71
3
 72
8
 73
4
 74
0
 40
0
 40
0
 40
0
 40
0
 40
1
 40
1
 40
1
 40
1
 10
30.795773
 20
6.750011
 30
0.0
 10
30.100270
 20
6.348462
 30
0.0
 10
29.671823
 20
5.606370
 30
0.0
 10
29.671823
 20
4.803273
 30
0.0
  0
SPLINE
  5
117
100
AcDbEntity
  8
0
 62
7
100
AcDbSpline
 70
8
 71
3
 72
8
 73
4
 74
0
 40
0
 40
0
 40
0
 40
0
 40
1
 40
1
 40
1
 40
1
 10
29.671823
 20
4.803273
 30
0.0
 10
29.671823
 20
4.000175
 30
0.0
 10
30.100270
 20
3.258083
 30
0.0
 10
30.795773
 20
2.856534
 30
0.0
  0
SPLINE
  5
118
100
AcDbEntity
  8
0
 62
7
100
AcDbSpline
 70
8
 71
3
 72
8
 73
4
 74
0
 40
0
 40
0
 40
0
 40
0
 40
1
 40
1
 40
1
 40
1
 10
30.795773
 20
2.856534
 30
0.0
 10
31.491275
 20
2.454985
 30
0.0
 10
32.348170
 20
2.454985
 30
0.0
 10
33.043673
 20
2.856534
 30
0.0
  0
SPLINE
  5
119
100
AcDbEntity
  8
0
 62
7
100
AcDbSpline
 70
8
 71
3
 72
8
 73
4
 74
0
 40
0
 40
0
 40
0
 40
0
 40
1
 40
1
 40
1
 40
1
 10
33.043673
 20
2.856534
 30
0.0
 10
33.739175
 20
3.258083
 30
0.0
 10
34.167623
 20
4.000175
 30
0.0
 10
34.167623
 20
4.803273
 30
0.0
  0
LWPOLYLINE
  5
11a
100
AcDbEntity
  8
0
 62
7
100
AcDbPolyline
 90
2
 70
1
 10
7.051209
 20
62.937794
 30
0.0
 10
7.051209
 20
62.937794
 30
0.0
  0
SPLINE
  5
11b
100
AcDbEntity
  8
0
 62
7
100
AcDbSpline
 70
8
 71
3
 72
8
 73
4
 74
0
 40
0
 40
0
 40
0
 40
0
 40
1
 40
1
 40
1
 40
1
 10
113.800162
 20
41.947279
 30
0.0
 10
113.800162
 20
42.750376
 30
0.0
 10
113.371715
 20
43.492469
 30
0.0
 10
112.676212
 20
43.894017
 30
0.0
  0
SPLINE
  5
11c
100
AcDbEntity
  8
0
 62
7
100
AcDbSpline
 70
8
 71
3
 72
8
 73
4
 74
0
 40
0
 40
0
 40
0
 40
0
 40
1
 40
1
 40
1
 40
1
 10
112.676212
 20
43.894017
 30
0.0
 10
111.980709
 20
44.295566
 30
0.0
 10
111.123815
 20
44.295566
 30
0.0
 10
110.428312
 20
43.894017
 30
0.0
  0
SPLINE
  5
11d
100
AcDbEntity
  8
0
 62
7
100
AcDbSpline
 70
8
 71
3
 72
8
 73
4
 74
0
 40
0
 40
0
 40
0
 40
0
 40
1
 40
1
 40
1
 40
1
 10
110.428312
 20
43.894017
 30
0.0
 10
109.732809
 20
43.492469
 30
0.0
 10
109.304362
 20
42.750376
 30
0.0
 10
109.304362
 20
41.947279
 30
0.0
  0
SPLINE
  5
11e
100
AcDbEntity
  8
0
 62
7
100
AcDbSpline
 70
8
 71
3
 72
8
 73
4
 74
0
 40
0
 40
0
 40
0
 40
0
 40
1
 40
1
 40
1
 40
1
 10
109.304362
 20
41.947279
 30
0.0
 10
109.304362
 20
41.144181
 30
0.0
 10
109.732809
 20
40.402089
 30
0.0
 10
110.428312
 20
40.000540
 30
0.0
  0
SPLINE
  5
11f
100
AcDbEntity
  8
0
 62
7
100
AcDbSpline
 70
8
 71
3
 72
8
 73
4
 74
0
 40
0
 40
0
 40
0
 40
0
 40
1
 40
1
 40
1
 40
1
 10
110.428312
 20
40.000540
 30
0.0
 10
111.123815
 20
39.598991
 30
0.0
 10
111.980709
 20
39.598991
 30
0.0
 10
112.676212
 20
40.000540
 30
0.0
  0
SPLINE
  5
120
100
AcDbEntity
  8
0
 62
7
100
AcDbSpline
 70
8
 71
3
 72
8
 73
4
 74
0
 40
0
 40
0
 40
0
 40
0
 40
1
 40
1
 40
1
 40
1
 10
112.676212
 20
40.000540
 30
0.0
 10
113.371715
 20
40.402089
 30
0.0
 10
113.800162
 20
41.144181
 30
0.0
 10
113.800162
 20
41.947279
 30
0.0
  0
LWPOLYLINE
  5
121
100
AcDbEntity
  8
0
 62
7
100
AcDbPolyline
 90
2
 70
1
 10
34.167623
 20
4.803273
 30
0.0
 10
34.167623
 20
4.803273
 30
0.0
  0
SPLINE
  5
122
100
AcDbEntity
  8
0
 62
7
100
AcDbSpline
 70
8
 71
3
 72
8
 73
4
 74
0
 40
0
 40
0
 40
0
 40
0
 40
1
 40
1
 40
1
 40
1
 10
194.748150
 20
165.145280
 30
0.0
 10
194.748150
 20
165.948377
 30
0.0
 10
194.319703
 20
166.690470
 30
0.0
 10
193.624200
 20
167.092018
 30
0.0
  0
SPLINE
  5
123
100
AcDbEntity
  8
0
 62
7
100
AcDbSpline
 70
8
 71
3
 72
8
 73
4
 74
0
 40
0
 40
0
 40
0
 40
0
 40
1
 40
1
 40
1
 40
1
 10
193.624200
 20
167.092018
 30
0.0
 10
192.928697
 20
167.493567
 30
0.0
 10
192.071803
 20
167.493567
 30
0.0
 10
191.376300
 20
167.092018
 30
0.0
  0
SPLINE
  5
124
100
AcDbEntity
  8
0
 62
7
100
AcDbSpline
 70
8
 71
3
 72
8
 73
4
 74
0
 40
0
 40
0
 40
0
 40
0
 40
1
 40
1
 40
1
 40
1
 10
191.376300
 20
167.092018
 30
0.0
 10
190.680797
 20
166.690470
 30
0.0
 10
190.252350
 20
165.948377
 30
0.0
 10
190.252350
 20
165.145280
 30
0.0
  0
SPLINE
  5
125
100
AcDbEntity
  8
0
 62
7
100
AcDbSpline
 70
8
 71
3
 72
8
 73
4
 74
0
 40
0
 40
0
 40
0
 40
0
 40
1
 40
1
 40
1
 40
1
 10
190.252350
 20
165.145280
 30
0.0
 10
190.252350
 20
164.342182
 30
0.0
 10
190.680797
 20
163.600090
 30
0.0
 10
191.376300
 20
163.198541
 30
0.0
  0
SPLINE
  5
126
100
AcDbEntity
  8
0
 62
7
100
AcDbSpline
 70
8
 71
3
 72
8
 73
4
 74
0
 40
0
 40
0
 40
0
 40
0
 40
1
 40
1
 40
1
 40
1
 10
191.376300
 20
163.198541
 30
0.0
 10
192.071803
 20
162.796993
 30
0.0
 10
192.928697
 20
162.796993
 30
0.0
 10
193.624200
 20
163.198541
 30
0.0
  0
SPLINE
  5
127
100
AcDbEntity
  8
0
 62
7
100
AcDbSpline
 70
8
 71
3
 72
8
 73
4
 74
0
 40
0
 40
0
 40
0
 40
0
 40
1
 40
1
 40
1
 40
1
 10
193.624200
 20
163.198541
 30
0.0
 10
194.319703
 20
163.600090
 30
0.0
 10
194.748150
 20
164.342182
 30
0.0
 10
194.748150
 20
165.145280
 30
0.0
  0
LWPOLYLINE
  5
128
100
AcDbEntity
  8
0
 62
7
100
AcDbPolyline
 90
2
 70
1
 10
113.800162
 20
41.947279
 30
0.0
 10
113.800162
 20
41.947279
 30
0.0
  0
SPLINE
  5
129
100
AcDbEntity
  8
0
 62
7
100
AcDbSpline
 70
8
 71
3
 72
8
 73
4
 74
0
 40
0
 40
0
 40
0
 40
0
 40
1
 40
1
 40
1
 40
1
 10
142.299159
 20
165.272280
 30
0.0
 10
142.299159
 20
166.075377
 30
0.0
 10
141.870712
 20
166.817470
 30
0.0
 10
141.175209
 20
167.219018
 30
0.0
  0
SPLINE
  5
12a
100
AcDbEntity
  8
0
 62
7
100
AcDbSpline
 70
8
 71
3
 72
8
 73
4
 74
0
 40
0
 40
0
 40
0
 40
0
 40
1
 40
1
 40
1
 40
1
 10
141.175209
 20
167.219018
 30
0.0
 10
140.479707
 20
167.620567
 30
0.0
 10
139.622812
 20
167.620567
 30
0.0
 10
138.927309
 20
167.219018
 30
0.0
  0
SPLINE
  5
12b
100
AcDbEntity
  8
0
 62
7
100
AcDbSpline
 70
8
 71
3
 72
8
 73
4
 74
0
 40
0
 40
0
 40
0
 40
0
 40
1
 40
1
 40
1
 40
1
 10
138.927309
 20
167.219018
 30
0.0
 10
138.231807
 20
166.817470
 30
0.0
 10
137.803359
 20
166.075377
 30
0.0
 10
137.803359
 20
165.272280
 30
0.0
  0
SPLINE
  5
12c
100
AcDbEntity
  8
0
 62
7
100
AcDbSpline
 70
8
 71
3
 72
8
 73
4
 74
0
 40
0
 40
0
 40
0
 40
0
 40
1
 40
1
 40
1
 40
1
 10
137.803359
 20
165.272280
 30
0.0
 10
137.803359
 20
164.469182
 30
0.0
 10
138.231807
 20
163.727090
 30
0.0
 10
138.927309
 20
163.325541
 30
0.0
  0
SPLINE
  5
12d
100
AcDbEntity
  8
0
 62
7
100
AcDbSpline
 70
8
 71
3
 72
8
 73
4
 74
0
 40
0
 40
0
 40
0
 40
0
 40
1
 40
1
 40
1
 40
1
 10
138.927309
 20
163.325541
 30
0.0
 10
139.622812
 20
162.923993
 30
0.0
 10
140.479707
 20
162.923993
 30
0.0
 10
141.175209
 20
163.325541
 30
0.0
  0
SPLINE
  5
12e
100
AcDbEntity
  8
0
 62
7
100
AcDbSpline
 70
8
 71
3
 72
8
 73
4
 74
0
 40
0
 40
0
 40
0
 40
0
 40
1
 40
1
 40
1
 40
1
 10
141.175209
 20
163.325541
 30
0.0
 10
141.870712
 20
163.727090
 30
0.0
 10
142.299159
 20
164.469182
 30
0.0
 10
142.299159
 20
165.272280
 30
0.0
  0
LWPOLYLINE
  5
12f
100
AcDbEntity
  8
0
 62
7
100
AcDbPolyline
 90
2
 70
1
 10
194.748150
 20
165.145280
 30
0.0
 10
194.748150
 20
165.145280
 30
0.0
  0
SPLINE
  5
130
100
AcDbEntity
  8
0
 62
7
100
AcDbSpline
 70
8
 71
3
 72
8
 73
4
 74
0
 40
0
 40
0
 40
0
 40
0
 40
1
 40
1
 40
1
 40
1
 10
107.770160
 20
154.152278
 30
0.0
 10
107.770160
 20
154.955376
 30
0.0
 10
107.341712
 20
155.697468
 30
0.0
 10
106.646210
 20
156.099017
 30
0.0
  0
SPLINE
  5
131
100
AcDbEntity
  8
0
 62
7
100
AcDbSpline
 70
8
 71
3
 72
8
 73
4
 74
0
 40
0
 40
0
 40
0
 40
0
 40
1
 40
1
 40
1
 40
1
 10
106.646210
 20
156.099017
 30
0.0
 10
105.950707
 20
156.500566
 30
0.0
 10
105.093812
 20
156.500566
 30
0.0
 10
104.398309
 20
156.099017
 30
0.0
  0
SPLINE
  5
132
100
AcDbEntity
  8
0
 62
7
100
AcDbSpline
 70
8
 71
3
 72
8
 73
4
 74
0
 40
0
 40
0
 40
0
 40
0
 40
1
 40
1
 40
1
 40
1
 10
104.398309
 20
156.099017
 30
0.0
 10
103.702807
 20
155.697468
 30
0.0
 10
103.274359
 20
154.955376
 30
0.0
 10
103.274360
 20
154.152278
 30
0.0
  0
SPLINE
  5
133
100
AcDbEntity
  8
0
 62
7
100
AcDbSpline
 70
8
 71
3
 72
8
 73
4
 74
0
 40
0
 40
0
 40
0
 40
0
 40
1
 40
1
 40
1
 40
1
 10
103.274360
 20
154.152278
 30
0.0
 10
103.274359
 20
153.349181
 30
0.0
 10
103.702807
 20
152.607088
 30
0.0
 10
104.398309
 20
152.205539
 30
0.0
  0
SPLINE
  5
134
100
AcDbEntity
  8
0
 62
7
100
AcDbSpline
 70
8
 71
3
 72
8
 73
4
 74
0
 40
0
 40
0
 40
0
 40
0
 40
1
 40
1
 40
1
 40
1
 10
104.398309
 20
152.205539
 30
0.0
 10
105.093812
 20
151.803991
 30
0.0
 10
105.950707
 20
151.803991
 30
0.0
 10
106.646210
 20
152.205539
 30
0.0
  0
SPLINE
  5
135
100
AcDbEntity
  8
0
 62
7
100
AcDbSpline
 70
8
 71
3
 72
8
 73
4
 74
0
 40
0
 40
0
 40
0
 40
0
 40
1
 40
1
 40
1
 40
1
 10
106.646210
 20
152.205539
 30
0.0
 10
107.341712
 20
152.607088
 30
0.0
 10
107.770160
 20
153.349181
 30
0.0
 10
107.770160
 20
154.152278
 30
0.0
  0
LWPOLYLINE
  5
136
100
AcDbEntity
  8
0
 62
7
100
AcDbPolyline
 90
2
 70
1
 10
142.299159
 20
165.272280
 30
0.0
 10
142.299159
 20
165.272280
 30
0.0
  0
SPLINE
  5
137
100
AcDbEntity
  8
0
 62
7
100
AcDbSpline
 70
8
 71
3
 72
8
 73
4
 74
0
 40
0
 40
0
 40
0
 40
0
 40
1
 40
1
 40
1
 40
1
 10
193.241648
 20
43.217279
 30
0.0
 10
193.241648
 20
44.020376
 30
0.0
 10
192.813200
 20
44.762469
 30
0.0
 10
192.117698
 20
45.164017
 30
0.0
  0
SPLINE
  5
138
100
AcDbEntity
  8
0
 62
7
100
AcDbSpline
 70
8
 71
3
 72
8
 73
4
 74
0
 40
0
 40
0
 40
0
 40
0
 40
1
 40
1
 40
1
 40
1
 10
192.117698
 20
45.164017
 30
0.0
 10
191.422195
 20
45.565566
 30
0.0
 10
190.565300
 20
45.565566
 30
0.0
 10
189.869798
 20
45.164017
 30
0.0
  0
SPLINE
  5
139
100
AcDbEntity
  8
0
 62
7
100
AcDbSpline
 70
8
 71
3
 72
8
 73
4
 74
0
 40
0
 40
0
 40
0
 40
0
 40
1
 40
1
 40
1
 40
1
 10
189.869798
 20
45.164017
 30
0.0
 10
189.174295
 20
44.762469
 30
0.0
 10
188.745848
 20
44.020376
 30
0.0
 10
188.745848
 20
43.217279
 30
0.0
  0
SPLINE
  5
13a
100
AcDbEntity
  8
0
 62
7
100
AcDbSpline
 70
8
 71
3
 72
8
 73
4
 74
0
 40
0
 40
0
 40
0
 40
0
 40
1
 40
1
 40
1
 40
1
 10
188.745848
 20
43.217279
 30
0.0
 10
188.745848
 20
42.414181
 30
0.0
 10
189.174295
 20
41.672089
 30
0.0
 10
189.869798
 20
41.270540
 30
0.0
  0
SPLINE
  5
13b
100
AcDbEntity
  8
0
 62
7
100
AcDbSpline
 70
8
 71
3
 72
8
 73
4
 74
0
 40
0
 40
0
 40
0
 40
0
 40
1
 40
1
 40
1
 40
1
 10
189.869798
 20
41.270540
 30
0.0
 10
190.565300
 20
40.868992
 30
0.0
 10
191.422195
 20
40.868992
 30
0.0
 10
192.117698
 20
41.270540
 30
0.0
  0
SPLINE
  5
13c
100
AcDbEntity
  8
0
 62
7
100
AcDbSpline
 70
8
 71
3
 72
8
 73
4
 74
0
 40
0
 40
0
 40
0
 40
0
 40
1
 40
1
 40
1
 40
1
 10
192.117698
 20
41.270540
 30
0.0
 10
192.813200
 20
41.672089
 30
0.0
 10
193.241648
 20
42.414181
 30
0.0
 10
193.241648
 20
43.217279
 30
0.0
  0
LWPOLYLINE
  5
13d
100
AcDbEntity
  8
0
 62
7
100
AcDbPolyline
 90
2
 70
1
 10
107.770160
 20
154.152278
 30
0.0
 10
107.770160
 20
154.152278
 30
0.0
  0
LWPOLYLINE
  5
13e
100
AcDbEntity
  8
0
 62
7
100
AcDbPolyline
 90
2
 70
1
 10
193.241648
 20
43.217279
 30
0.0
 10
193.241648
 20
43.217279
 30
0.0
  0
SPLINE
  5
13f
100
AcDbEntity
  8
0
 62
7
100
AcDbSpline
 70
8
 71
3
 72
8
 73
4
 74
0
 40
0
 40
0
 40
0
 40
0
 40
1
 40
1
 40
1
 40
1
 10
115.448266
 20
37.502279
 30
0.0
 10
114.520778
 20
37.502279
 30
0.0
 10
113.604549
 20
37.299102
 30
0.0
 10
112.764003
 20
36.907035
 30
0.0
  0
LWPOLYLINE
  5
140
100
AcDbEntity
  8
0
 62
7
100
AcDbPolyline
 90
2
 70
0
 10
35.218082
 20
0.736321
 30
0.0
 10
112.764003
 20
36.907035
 30
0.0
  0
SPLINE
  5
141
100
AcDbEntity
  8
0
 62
7
100
AcDbSpline
 70
8
 71
3
 72
8
 73
4
 74
0
 40
0
 40
0
 40
0
 40
0
 40
1
 40
1
 40
1
 40
1
 10
190.358748
 20
37.502279
 30
0.0
 10
192.042872
 20
37.502279
 30
0.0
 10
193.658020
 20
38.171295
 30
0.0
 10
194.848876
 20
39.362151
 30
0.0
  0
SPLINE
  5
142
100
AcDbEntity
  8
0
 62
7
100
AcDbSpline
 70
8
 71
3
 72
8
 73
4
 74
0
 40
0
 40
0
 40
0
 40
0
 40
1
 40
1
 40
1
 40
1
 10
194.848876
 20
39.362151
 30
0.0
 10
196.039732
 20
40.553007
 30
0.0
 10
196.708748
 20
42.168154
 30
0.0
 10
196.708748
 20
43.852279
 30
0.0
  0
LWPOLYLINE
  5
143
100
AcDbEntity
  8
0
 62
7
100
AcDbPolyline
 90
2
 70
0
 10
115.448266
 20
37.502279
 30
0.0
 10
190.358748
 20
37.502279
 30
0.0
  0
SPLINE
  5
144
100
AcDbEntity
  8
0
 62
7
100
AcDbSpline
 70
8
 71
3
 72
8
 73
4
 74
0
 40
0
 40
0
 40
0
 40
0
 40
1
 40
1
 40
1
 40
1
 10
196.708748
 20
166.859780
 30
0.0
 10
196.708748
 20
168.543904
 30
0.0
 10
196.039732
 20
170.159052
 30
0.0
 10
194.848876
 20
171.349908
 30
0.0
  0
SPLINE
  5
145
100
AcDbEntity
  8
0
 62
7
100
AcDbSpline
 70
8
 71
3
 72
8
 73
4
 74
0
 40
0
 40
0
 40
0
 40
0
 40
1
 40
1
 40
1
 40
1
 10
194.848876
 20
171.349908
 30
0.0
 10
193.658020
 20
172.540764
 30
0.0
 10
192.042872
 20
173.209780
 30
0.0
 10
190.358748
 20
173.209780
 30
0.0
  0
LWPOLYLINE
  5
146
100
AcDbEntity
  8
0
 62
7
100
AcDbPolyline
 90
2
 70
0
 10
196.708748
 20
43.852279
 30
0.0
 10
196.708748
 20
166.859783
 30
0.0
  0
SPLINE
  5
147
100
AcDbEntity
  8
0
 62
7
100
AcDbSpline
 70
8
 71
3
 72
8
 73
4
 74
0
 40
0
 40
0
 40
0
 40
0
 40
1
 40
1
 40
1
 40
1
 10
144.274543
 20
173.209780
 30
0.0
 10
141.492791
 20
173.209779
 30
0.0
 10
138.744789
 20
172.600561
 30
0.0
 10
136.223666
 20
171.424941
 30
0.0
  0
LWPOLYLINE
  5
148
100
AcDbEntity
  8
0
 62
7
100
AcDbPolyline
 90
2
 70
0
 10
190.358748
 20
173.209777
 30
0.0
 10
144.274546
 20
173.209777
 30
0.0
  0
SPLINE
  5
149
100
AcDbEntity
  8
0
 62
7
100
AcDbSpline
 70
8
 71
3
 72
8
 73
4
 74
0
 40
0
 40
0
 40
0
 40
0
 40
1
 40
1
 40
1
 40
1
 10
105.172250
 20
158.914778
 30
0.0
 10
107.954003
 20
158.914779
 30
0.0
 10
110.702004
 20
159.523997
 30
0.0
 10
113.223127
 20
160.699617
 30
0.0
  0
LWPOLYLINE
  5
14a
100
AcDbEntity
  8
0
 62
7
100
AcDbPolyline
 90
2
 70
0
 10
136.223663
 20
171.424939
 30
0.0
 10
113.223127
 20
160.699611
 30
0.0
  0
SPLINE
  5
14b
100
AcDbEntity
  8
0
 62
7
100
AcDbSpline
 70
8
 71
3
 72
8
 73
4
 74
0
 40
0
 40
0
 40
0
 40
0
 40
1
 40
1
 40
1
 40
1
 10
48.372260
 20
158.914778
 30
0.0
 10
46.688135
 20
158.914778
 30
0.0
 10
45.072987
 20
158.245762
 30
0.0
 10
43.882131
 20
157.054906
 30
0.0
  0
SPLINE
  5
14c
100
AcDbEntity
  8
0
 62
7
100
AcDbSpline
 70
8
 71
3
 72
8
 73
4
 74
0
 40
0
 40
0
 40
0
 40
0
 40
1
 40
1
 40
1
 40
1
 10
43.882131
 20
157.054906
 30
0.0
 10
42.691275
 20
155.864050
 30
0.0
 10
42.022260
 20
154.248903
 30
0.0
 10
42.022260
 20
152.564778
 30
0.0
  0
LWPOLYLINE
  5
14d
100
AcDbEntity
  8
0
 62
7
100
AcDbPolyline
 90
2
 70
0
 10
105.172248
 20
158.914781
 30
0.0
 10
48.372262
 20
158.914781
 30
0.0
  0
SPLINE
  5
14e
100
AcDbEntity
  8
0
 62
7
100
AcDbSpline
 70
8
 71
3
 72
8
 73
4
 74
0
 40
0
 40
0
 40
0
 40
0
 40
1
 40
1
 40
1
 40
1
 10
38.356523
 20
84.193888
 30
0.0
 10
40.592772
 20
85.236969
 30
0.0
 10
42.022260
 20
87.481093
 30
0.0
 10
42.022260
 20
89.948647
 30
0.0
  0
LWPOLYLINE
  5
14f
100
AcDbEntity
  8
0
 62
7
100
AcDbPolyline
 90
2
 70
0
 10
42.022251
 20
152.564778
 30
0.0
 10
42.022251
 20
89.948645
 30
0.0
  0
SPLINE
  5
150
100
AcDbEntity
  8
0
 62
7
100
AcDbSpline
 70
8
 71
3
 72
8
 73
4
 74
0
 40
0
 40
0
 40
0
 40
0
 40
1
 40
1
 40
1
 40
1
 10
3.806850
 20
68.078452
 30
0.0
 10
2.280594
 20
67.366541
 30
0.0
 10
1.099654
 20
66.077485
 30
0.0
 10
0.523824
 20
64.494862
 30
0.0
  0
SPLINE
  5
151
100
AcDbEntity
  8
0
 62
7
100
AcDbSpline
 70
8
 71
3
 72
8
 73
4
 74
0
 40
0
 40
0
 40
0
 40
0
 40
1
 40
1
 40
1
 40
1
 10
0.523824
 20
64.494862
 30
0.0
 10
-0.052006
 20
62.912239
 30
0.0
 10
0.024444
 20
61.165688
 30
0.0
 10
0.736354
 20
59.639431
 30
0.0
  0
LWPOLYLINE
  5
152
100
AcDbEntity
  8
0
 62
7
100
AcDbPolyline
 90
2
 70
0
 10
38.356520
 20
84.193891
 30
0.0
 10
3.806853
 20
68.078452
 30
0.0
  0
SPLINE
  5
153
100
AcDbEntity
  8
0
 62
7
100
AcDbSpline
 70
8
 71
3
 72
8
 73
4
 74
0
 40
0
 40
0
 40
0
 40
0
 40
1
 40
1
 40
1
 40
1
 10
26.779065
 20
3.806814
 30
0.0
 10
28.261543
 20
0.628550
 30
0.0
 10
32.039821
 20
-0.746157
 30
0.0
 10
35.218085
 20
0.736321
 30
0.0
  0
SPLINE
  5
154
100
AcDbEntity
  8
FORMAT
 62
7
100
AcDbSpline
 70
8
 71
3
 72
8
 73
4
 74
0
 40
0
 40
0
 40
0
 40
0
 40
1
 40
1
 40
1
 40
1
 10
60.762815
 20
96.773999
 30
0.0
 10
60.762815
 20
96.280324
 30
0.0
 10
60.499442
 20
95.824150
 30
0.0
 10
60.071907
 20
95.577312
 30
0.0
  0
SPLINE
  5
155
100
AcDbEntity
  8
FORMAT
 62
7
100
AcDbSpline
 70
8
 71
3
 72
8
 73
4
 74
0
 40
0
 40
0
 40
0
 40
0
 40
1
 40
1
 40
1
 40
1
 10
60.071907
 20
95.577312
 30
0.0
 10
59.644372
 20
95.330474
 30
0.0
 10
59.117627
 20
95.330474
 30
0.0
 10
58.690092
 20
95.577312
 30
0.0
  0
SPLINE
  5
156
100
AcDbEntity
  8
FORMAT
 62
7
100
AcDbSpline
 70
8
 71
3
 72
8
 73
4
 74
0
 40
0
 40
0
 40
0
 40
0
 40
1
 40
1
 40
1
 40
1
 10
58.690092
 20
95.577312
 30
0.0
 10
58.262556
 20
95.824150
 30
0.0
 10
57.999184
 20
96.280324
 30
0.0
 10
57.999184
 20
96.773999
 30
0.0
  0
SPLINE
  5
157
100
AcDbEntity
  8
FORMAT
 62
7
100
AcDbSpline
 70
8
 71
3
 72
8
 73
4
 74
0
 40
0
 40
0
 40
0
 40
0
 40
1
 40
1
 40
1
 40
1
 10
57.999184
 20
96.773999
 30
0.0
 10
57.999184
 20
97.267675
 30
0.0
 10
58.262557
 20
97.723849
 30
0.0
 10
58.690092
 20
97.970687
 30
0.0
  0
SPLINE
  5
158
100
AcDbEntity
  8
FORMAT
 62
7
100
AcDbSpline
 70
8
 71
3
 72
8
 73
4
 74
0
 40
0
 40
0
 40
0
 40
0
 40
1
 40
1
 40
1
 40
1
 10
58.690092
 20
97.970687
 30
0.0
 10
59.117627
 20
98.217524
 30
0.0
 10
59.644372
 20
98.217524
 30
0.0
 10
60.071907
 20
97.970687
 30
0.0
  0
SPLINE
  5
159
100
AcDbEntity
  8
FORMAT
 62
7
100
AcDbSpline
 70
8
 71
3
 72
8
 73
4
 74
0
 40
0
 40
0
 40
0
 40
0
 40
1
 40
1
 40
1
 40
1
 10
60.071907
 20
97.970687
 30
0.0
 10
60.499443
 20
97.723849
 30
0.0
 10
60.762815
 20
97.267675
 30
0.0
 10
60.762815
 20
96.773999
 30
0.0
  0
LWPOLYLINE
  5
15a
100
AcDbEntity
  8
0
 62
7
100
AcDbPolyline
 90
2
 70
0
 10
0.736349
 20
59.639431
 30
0.0
 10
26.779065
 20
3.806814
 30
0.0
  0
LWPOLYLINE
  5
15b
100
AcDbEntity
  8
FORMAT
 62
7
100
AcDbPolyline
 90
2
 70
1
 10
60.762815
 20
96.773999
 30
0.0
 10
60.762816
 20
96.773999
 30
0.0
  0
ENDSEC
  0
SECTION
  2
OBJECTS
  0
DICTIONARY
  5
C
330
0
100
AcDbDictionary
  3
ACAD_GROUP
350
D
  3
ACAD_MLINESTYLE
350
17
  0
DICTIONARY
  5
D
330
C
100
AcDbDictionary
  0
DICTIONARY
  5
1A
330
C
100
AcDbDictionary
  0
DICTIONARY
  5
17
330
C
100
AcDbDictionary
  3
STANDARD
350
18
  0
DICTIONARY
  5
19
330
C
100
AcDbDictionary
  0
ENDSEC
  0
EOF
